<svg width="64" height="64" viewBox="0 0 64 64" fill="none" xmlns="http://www.w3.org/2000/svg">
<mask id="mask0_12133_19042" style="mask-type:luminance" maskUnits="userSpaceOnUse" x="0" y="0" width="64" height="64">
<path d="M64 0H0V64H64V0Z" fill="white"/>
</mask>
<g mask="url(#mask0_12133_19042)">
<path d="M21.3333 62.172V1.82812C8.9061 6.22192 0 18.0681 0 32.0001C0 45.9321 8.9061 57.7783 21.3333 62.172Z" fill="black"/>
<path d="M42.6667 1.828C39.3296 0.6481 35.7412 0 32 0C28.2588 0 24.6705 0.6482 21.3333 1.828V62.1719C24.6704 63.3518 28.2588 64 32 64C35.7412 64 39.3295 63.3518 42.6667 62.1719V1.828Z" fill="#F0263C"/>
<path d="M42.6667 1.82812V62.172C55.0939 57.7782 64 45.932 64 32.0001C64 18.0682 55.0939 6.22192 42.6667 1.82812Z" fill="#005B13"/>
<path d="M35 34.5H33V35.5H35V34.5Z" fill="white"/>
<path d="M36 36.5H34V37.5H36V36.5Z" fill="white"/>
<path d="M25 15.707L26.5 17.207V19H27.5V16.793L25 14.293L22.5 16.793V19H23.5V17.207L25 15.707Z" fill="white"/>
<path d="M39 15.707L40.5 17.207V19H41.5V16.793L39 14.293L36.5 16.793V19H37.5V17.207L39 15.707Z" fill="white"/>
<path d="M29.5 12.5H30.5V14H31.5V12.5H32.5V14H33.5V12.5H33.793L34.5 13.207V14H35.5V12.793L34.207 11.5H28.5V14H29.5V12.5Z" fill="white"/>
<path d="M33.8818 50.9981H30.1182L27.2236 49.5508L26.7764 50.4454L29.8818 51.9981H34.1182L37.2236 50.4454L36.7764 49.5508L33.8818 50.9981Z" fill="white"/>
<path d="M24 8H23V9H24V8Z" fill="white"/>
<path d="M22 11H23V10H21V11V12H22V11Z" fill="white"/>
<path d="M19 12H18V13H19V12Z" fill="white"/>
<path d="M16 13H15V15H16V13Z" fill="white"/>
<path d="M18 16H19V15H18V14H17V15V17H18V16Z" fill="white"/>
<path d="M20 14H21V13H19V14V15H20V14Z" fill="white"/>
<path d="M24 11H23V12H24V11Z" fill="white"/>
<path d="M26 11H25V12H26V11Z" fill="white"/>
<path d="M27 9H24V10H27V9Z" fill="white"/>
<path d="M36 9H34V10H36V9Z" fill="white"/>
<path d="M38 7H37V8H38V7Z" fill="white"/>
<path d="M38 9H37V10H38V9Z" fill="white"/>
<path d="M39 10H38V11H39V10Z" fill="white"/>
<path d="M40 11H42V10H41V9H39V10H40V11Z" fill="white"/>
<path d="M43 12H44V10H43V11H42V12H43Z" fill="white"/>
<path d="M45 13H43V14H45V13Z" fill="white"/>
<path d="M46 12H45V13H46V12Z" fill="white"/>
<path d="M46 14H45V15H46V14Z" fill="white"/>
<path d="M45 15H44V16H45V15Z" fill="white"/>
<path d="M48 15H47V18H48V15Z" fill="white"/>
<path d="M49 14H48V15H49V14Z" fill="white"/>
<path d="M33 7H32V8H33V7Z" fill="white"/>
<path d="M34 8H33V9H34V8Z" fill="white"/>
<path d="M28 7H27V8H28V7Z" fill="white"/>
<path d="M30 11H31V10H32V8H31V9H29V10H30V11Z" fill="white"/>
<path d="M31 7H30V8H31V7Z" fill="white"/>
<path d="M30.793 45.5L29.6465 46.6465L30.3535 47.3535L31.207 46.5H32.793L33.6465 47.3535L34.3535 46.6465L33.207 45.5H30.793Z" fill="white"/>
<path d="M55.1483 35.5L55.3292 35.3057L56.9024 32.3614L55.7969 32.5245L56.6045 30.9092L55.6836 29.9434L56.5 29.2266V26.793L55.707 26L57.207 24.5H54.5V21.5L54.043 22.1104L53.4512 19.7442L49.5 15.793V18.5H47.4102L48.5332 25.2402L50.293 27L49.3916 27.9014L50.478 30.0736L49.813 33.7013L48.5405 36.8016L46.6808 40.5204L44.6914 40.5L43.863 42.156L40.5 38.793V34.5H41V33.5H40.5V32.5H41V31.5H40.5V26.207L43.207 23.5H43.7856L41 30L42 31H43V33H44V35L45 37L47 33V30H46V27H45L44.125 23.5H45V22.5H43V23.5H40.5V19H39.5V23.5H38.5V19H37.5V23.5H37.1514L34.5948 21.7959L35.5401 18.9619L34.4473 16.7764L32 14.293L29.6465 16.6465L28.46 18.9619L29.4053 21.7959L26.8487 23.5H26.5001V19H25.5001V23.5H24.5001V19H23.5001V23.5H21.0001V22.5H19.0001V23.5H19.8751L19.0001 27H18.0001V30H17.0001V33L19.0001 37L20.0001 35V33H21.0001V31H22.0001L23.0001 30L20.2145 23.5H20.7931L23.5001 26.207V31.5H23.0001V32.5H23.5001V33.5H23.0001V34.5H23.5001V38.793L20.1371 42.156L19.3087 40.5H17.3092L15.4586 36.7999L14.1863 33.7018L13.5221 30.0737L14.6085 27.9014L13.7046 27.0026L15.4669 25.2403L16.5899 18.5001H14.5001V15.7931L10.5489 19.7443L9.95725 22.1097L9.49995 21.5001V24.5001H6.79295L8.29295 26.0001L7.49995 26.7931V29.2267L8.31635 29.9435L7.39545 30.9093L8.20305 32.5247L7.09755 32.3615L8.59465 35.1984L8.87805 35.5093L6.79285 35.5001L9.29285 38.0001L8.29285 39.0001L10.5898 41.2978L11.5527 43.2237L12.7929 44.5001H9.79285L12.7929 47.5001H15.6913L16.7622 49.6429L15.7694 49.4445L13.2206 53.2677L16.8417 54.4747L21.3593 54.5001L21.6093 55.5001H28.207L29.2076 54.5001H34.7923L35.7929 55.5001H42.3906L42.6406 54.5001H47L50.7793 53.2677L48.2305 49.4445L47.2372 49.643L48.3086 47.5002H51.207L54.207 44.5002H51.207L52.3535 43.3537L53.3891 41.319L55.707 39.0002L54.707 38.0002L57.207 35.5002L55.1483 35.5ZM50.6505 34.2949L55.0978 33.6387L54.5519 34.6729L53.7355 35.5508L49.9386 36.5H49.7462L50.6505 34.2949ZM55.5001 27.207V28.7734L54.2423 29.8808L55.3956 31.0908L54.6651 32.5517L50.918 33.2226L51.4639 30.2431L55 26.707L55.5001 27.207ZM54.7931 25.5L51.1369 29.1562L50.6076 28.0976L51.4006 27.2997L53.5002 24.4999V25.4999L54.7931 25.5ZM48.5899 19.5H50.5001V18.207L52.5489 20.2558L53.2702 23.1425L50.9493 26.2422L49.4669 24.7598L48.5899 19.5ZM39.5001 32.5V33.5H39.0001V34.5H39.5001V35.5H37.5001V31C37.5001 30.4621 37.419 29.9434 37.2743 29.4516L38.0001 28H36.6036C36.2192 27.4122 35.7259 26.9033 35.1521 26.5H39.5001V31.5H39.0001V32.5H39.5001ZM34.2071 38.5L32.5001 36.793V33.5H34.0001V32.5H32.5001V30H31.5001V36.5H29.5001V33H28.5001V30.5H30.0001V29.5H27.7765C28.3978 27.7578 30.0473 26.5 32.0001 26.5C34.4815 26.5 36.5001 28.5186 36.5001 31V38.5H34.2071ZM27.5001 38.5V37.5H31.7931L32.7931 38.5H27.5001ZM30.5948 22.2041L29.5401 19.0381L30.4112 17.2959L32.0001 15.707L33.589 17.2959L34.4601 19.0381L33.4054 22.2041L35.349 23.5H28.6512L30.5948 22.2041ZM40.7931 24.5L39.7931 25.5H24.2072L23.2072 24.5H40.7931ZM24.5001 33.5V32.5H25.0001V31.5H24.5001V26.5H28.8481C28.2742 26.9033 27.781 27.4122 27.3966 28H26.0001L26.7259 29.4516C26.5811 29.9434 26.5001 30.4621 26.5001 31H27.5001V32H26.5001V35.5H24.5001V34.5H25.0001V33.5H24.5001ZM24.5001 39.207V36.5H26.5001V40H27.5001V39.5H29.5001V40H30.5001V39.5H33.5001V40H34.5001V39.5H36.5001V40H37.5001V36.5H39.5001V39.207L41.7931 41.5H22.2072L24.5001 39.207ZM43.691 42.5L43.587 42.708L41.7149 44.6459L37.3105 46.3495L36.3604 43.5001H27.6397L26.6912 46.3448L22.2828 44.6444L20.4132 42.7081L20.3092 42.5001L43.691 42.5ZM36.3959 46.769L33.3673 48.5H30.6329L27.6026 46.7741L28.3604 44.5H35.6397L36.3959 46.769ZM10.2645 35.5505L9.44825 34.6729L8.90235 33.6387L13.3487 34.2949L14.254 36.5H14.0616L10.2645 35.5505ZM11.4513 20.2559L13.5001 18.2071V19.5001H15.4103L14.5333 24.7599L13.0543 26.2388L10.7306 23.1405L11.4513 20.2559ZM10.5001 25.5V24.4971L12.6466 27.3535L13.3917 28.0986L12.8634 29.1562L9.20715 25.5H10.5001ZM12.5362 30.2432L13.0811 33.2227L9.33495 32.5518L8.60445 31.0909L9.75775 29.8809L8.49995 28.7735V27.2071L8.99995 26.7071L12.5362 30.2432ZM9.20705 36.5H9.93845L13.8789 37.4854L14.6914 37.5L16.2949 40.708L14 41.4726L11.2705 40.5624L9.70695 38.9999L10.707 37.9999L9.20705 36.5ZM12.4112 42.7041L11.9875 41.8567L14.0001 42.5274L17.0814 41.5001H18.6915L19.1915 42.5001H19.0001L14.1202 44.4132L12.4112 42.7041ZM13.2071 46.5L12.2071 45.5H14.0001L19.0968 43.5H19.7882L21.255 45.0195L17.173 48.2275L16.3087 46.5H13.2071ZM21.2911 46.2629L20.5929 50.4082L16.9457 49.6794L21.2911 46.2629ZM17.0812 53.5L14.7794 52.7324L16.2306 50.5556L20.4269 51.3954L20.4249 51.4032L20.5929 51.4344L21.1095 53.4998L17.0812 53.5ZM27.7931 54.5H22.3908L21.673 51.6309L26.2863 52.4698L28.2511 54.0411L27.7931 54.5ZM41.6095 54.5H36.2072L35.7492 54.041L37.714 52.4697L42.3273 51.6308L41.6095 54.5ZM37.2862 51.5303L34.8247 53.5H29.1755L26.714 51.5303L21.5753 50.5967L22.3907 45.7569L26.752 47.4346L30.3672 49.5H33.6328L37.1797 47.4668L41.6094 45.7568L42.4248 50.5966L37.2862 51.5303ZM49.2208 52.7324L46.919 53.5H42.8907L43.4073 51.4346L43.5753 51.4034L43.5733 51.3956L47.7696 50.5558L49.2208 52.7324ZM43.4073 50.4082L42.7092 46.2632L47.0555 49.6791L43.4073 50.4082ZM51.7931 45.5L50.7931 46.5H47.6915L46.8272 48.2285L42.7442 45.0195L44.212 43.5H44.9034L49.8145 45.4639L51.7931 45.5ZM49.88 44.4131L45.1857 42.5361L44.8087 42.5L45.3087 41.5H46.9188L50.0001 42.5273L52.0127 41.8566L51.589 42.704L49.88 44.4131ZM54.2931 39L52.7296 40.5625L50.0001 41.4727L47.7053 40.7077L49.3087 37.5H50.0616L54.0616 36.5H54.793L53.293 38L54.2931 39Z" fill="white"/>
</g>
</svg>
