<svg width="64" height="64" viewBox="0 0 64 64" fill="none" xmlns="http://www.w3.org/2000/svg">
<mask id="mask0_12133_19165" style="mask-type:luminance" maskUnits="userSpaceOnUse" x="0" y="0" width="64" height="64">
<path d="M64 0H0V64H64V0Z" fill="white"/>
</mask>
<g mask="url(#mask0_12133_19165)">
<path d="M26 63.4288C27.9443 63.7978 29.9482 63.9987 32 63.9987C47.1485 63.9987 59.8295 53.469 63.1458 39.332H26V63.4288Z" fill="#007ACC"/>
<path d="M0.854248 39.332C2.44545 46.115 6.19015 52.0649 11.3333 56.4215V39.332H0.854248Z" fill="#007ACC"/>
<path d="M63.1458 24.6666C59.8294 10.5296 47.1485 0 32 0C29.9482 0 27.9443 0.2009 26 0.5699V24.6666H63.1458Z" fill="#007ACC"/>
<path d="M11.3333 7.57812C6.19015 11.9347 2.44545 17.8845 0.854248 24.6675H11.3333V7.57812Z" fill="#007ACC"/>
<path d="M15.3334 35.332H0.173096C0.313996 36.6935 0.548096 38.0266 0.854296 39.332H11.3334V56.4215C12.5886 57.4847 13.9232 58.4568 15.3334 59.3189V35.332Z" fill="#FFD400"/>
<path d="M22 35.3321V62.3963C23.2989 62.8234 24.6336 63.1695 26 63.4288V39.332H63.1458C63.452 38.0266 63.6861 36.6936 63.827 35.332L22 35.3321Z" fill="#FFD400"/>
<path d="M22 28.667H63.827C63.6861 27.3055 63.452 25.9724 63.1458 24.667H26V0.570312C24.6336 0.829612 23.2989 1.17572 22 1.60292V28.667Z" fill="#FFD400"/>
<path d="M15.3334 28.6664V4.67969C13.9232 5.54179 12.5886 6.51379 11.3334 7.57709V24.6665H0.854296C0.548096 25.9719 0.313996 27.305 0.173096 28.6665L15.3334 28.6664Z" fill="#FFD400"/>
<path d="M22 1.60156C19.6462 2.37556 17.4105 3.40906 15.3333 4.67896V28.6658H0.173C0.0596 29.7615 0 30.8733 0 31.9991C0 33.1249 0.0596 34.2366 0.173 35.3324H15.3333V59.3192C17.4105 60.5891 19.6461 61.6226 22 62.3966V35.3324H63.827C63.9404 34.2366 64 33.1248 64 31.9991C64 30.8734 63.9404 29.7615 63.827 28.6657H22V1.60156Z" fill="#F0263C"/>
</g>
</svg>
