<svg width="64" height="64" viewBox="0 0 64 64" fill="none" xmlns="http://www.w3.org/2000/svg">
<mask id="mask0_12133_18969" style="mask-type:luminance" maskUnits="userSpaceOnUse" x="0" y="0" width="64" height="64">
<path d="M64 0H0V64H64V0Z" fill="white"/>
</mask>
<g mask="url(#mask0_12133_18969)">
<path d="M24 31.9983C24 37.3441 27.3164 41.9068 32 43.7661V20.2305C27.3164 22.0898 24 26.6525 24 31.9983Z" fill="#1E5B00"/>
<path d="M16 32C16 23.1635 23.1635 16 32 16V0C14.3269 0 0 14.3269 0 32C0 49.6731 14.3269 64 32 64V48C23.1635 48 16 40.8366 16 32Z" fill="#1E5B00"/>
<path d="M32 0V16C37.1046 16 41.6474 18.3934 44.577 22.116C42.4087 20.3784 39.6614 19.3334 36.6666 19.3334C35.0168 19.3334 33.4454 19.6584 31.9999 20.2322V43.7678C33.4454 44.3416 35.0167 44.6666 36.6666 44.6666C39.6614 44.6666 42.4087 43.6215 44.577 41.884C41.6474 45.6066 37.1046 48 32 48V64C49.6731 64 64 49.6731 64 32C64 14.3269 49.6731 0 32 0Z" fill="white"/>
<path d="M16 32C16 40.8366 23.1635 48 32 48C37.1046 48 41.6474 45.6066 44.577 41.884C42.4087 43.6215 39.6614 44.6666 36.6666 44.6666C35.0168 44.6666 33.4454 44.3416 31.9999 43.7678C27.3163 41.9085 23.9999 37.3458 23.9999 32C23.9999 26.6542 27.3163 22.0915 31.9999 20.2322C33.4454 19.6584 35.0167 19.3334 36.6666 19.3334C39.6614 19.3334 42.4087 20.3784 44.577 22.116C41.6474 18.3934 37.1046 16 32 16C23.1635 16 16 23.1635 16 32Z" fill="#F0263C"/>
<path d="M42.1489 23.9609L38.5271 28.9399L32.6726 27.0339L36.2887 32.0172L32.6667 36.9962L38.5235 35.097L42.1396 40.0803L42.1432 33.9232L48 32.0239L42.1455 30.1179L42.1489 23.9609Z" fill="#F0263C"/>
</g>
</svg>
