<svg width="64" height="64" viewBox="0 0 64 64" fill="none" xmlns="http://www.w3.org/2000/svg">
<mask id="mask0_12133_19207" style="mask-type:luminance" maskUnits="userSpaceOnUse" x="0" y="0" width="64" height="64">
<path d="M64 0H0V64H64V0Z" fill="white"/>
</mask>
<g mask="url(#mask0_12133_19207)">
<path d="M53.2201 55.9415L5.33325 31.9981L53.2201 8.05469C59.8298 13.9169 64 22.4684 64 31.9981C64 41.5277 59.8298 50.0792 53.2201 55.9415Z" fill="white"/>
<path d="M53.2201 55.9415L5.33325 31.9981L53.2201 8.05469C59.8298 13.9169 64 22.4684 64 31.9981C64 41.5277 59.8298 50.0792 53.2201 55.9415Z" fill="white"/>
<path d="M32 64C14.3269 64 0 49.6731 0 32L51.2003 57.6001C45.8519 61.6179 39.2045 64 32 64Z" fill="#191977"/>
<path d="M32 0C39.2045 0 45.8519 2.382 51.2003 6.3999L0 32C0 14.3269 14.3269 0 32 0Z" fill="#191977"/>
<path d="M51.1937 6.40234C51.8902 6.92534 52.5563 7.48544 53.2072 8.06224L5.3333 31.9991L53.2072 55.936C52.5563 56.5128 51.8902 57.0729 51.1937 57.5959L0 31.9991L51.1937 6.40234Z" fill="#F0263C"/>
<path d="M46.6845 33.332H45.3512L44.6667 34.6653H36L33.3333 33.332L29.3333 35.332L33.3333 37.3952L36.0407 35.9987H44.6667L42.6845 37.332H38.6667L36.0178 38.6653V41.332L37.3382 42.6351L38.6667 42.6654H41.3512L42.6845 43.9987V42.6654H44.0178L45.3333 43.9987L45.3511 42.6654L49.3511 43.9987H50.6666L49.3333 42.6654H52.0178L49.3511 39.9987H40.0178V38.6654H52.0178V37.3321H46.6667L46.6845 35.9988H53.3512V34.6655H48.0179L46.6845 33.332Z" fill="#FFD400"/>
<path d="M36.0177 32H38.6844L37.3511 33.3333H34.6844L36.0177 32Z" fill="#FFD400"/>
<path d="M38.6845 28L36.0178 30.6667V32H38.6845L41.3511 30.6667H42.6845V29.3333H41.3511L38.6845 28Z" fill="#C8C8C8"/>
<path d="M37.3511 26.668V24.0013L38.6845 22.668L40.0178 21.3346L41.3511 20.0013H44.0178L45.3511 18.668H46.6845L52.0178 16.0013L54.6845 14.668H56.0178V16.0013L54.6845 17.3346V18.668L53.3511 20.0013H56.0178L54.6845 21.3346L53.3511 22.668L54.6845 24.0013L56.0178 25.3346H54.6845L53.3511 26.668H52.0178L50.6845 28.0013H53.3511L52.0178 29.3346H53.3511L52.0178 30.668L50.6845 32.0013V33.3346H49.3511L48.0178 34.668L46.6845 33.3346V32.0013H45.3511V30.668H42.6845V29.3346H41.3511L38.6845 28.0013L37.3511 26.668Z" fill="#5A2919"/>
<path d="M58.6845 22.6654L57.3511 21.332H56.0178L53.3511 22.6654L56.0178 25.332H58.6845L60.0178 23.9987V22.6654H58.6845Z" fill="#C8C8C8"/>
<path d="M38.6845 41.3346H37.3511V40.0013L38.6845 38.668V41.3346Z" fill="#5A2919"/>
<path d="M40.0178 41.332H44.6845L42.6845 42.6654L40.0178 41.332Z" fill="#5A2919"/>
<path d="M45.3511 41.332H49.3511L48 42.6654L45.3511 41.332Z" fill="#5A2919"/>
</g>
</svg>
