<svg width="64" height="64" viewBox="0 0 64 64" fill="none" xmlns="http://www.w3.org/2000/svg">
<mask id="mask0_12133_18970" style="mask-type:luminance" maskUnits="userSpaceOnUse" x="0" y="0" width="64" height="64">
<path d="M64 0H0V64H64V0Z" fill="white"/>
</mask>
<g mask="url(#mask0_12133_18970)">
<path d="M21.3333 28L23.8932 30.5599L25.6198 32H48.588C48.6632 31.3319 48.7023 30.653 48.7023 29.9651C48.7023 21.4034 42.6244 13.9457 34.251 12.2326L34.7536 9.774C35.5108 9.929 36.2446 10.1392 36.9667 10.374L37.669 8.7964L41.5983 10.5459L40.8938 12.1283C42.1462 12.8549 43.3134 13.7035 44.3771 14.665L45.6614 13.5087L48.5393 16.7051L47.248 17.8677C48.093 19.0299 48.8231 20.275 49.4134 21.5948L51.046 21.0643L52.3751 25.1549L50.7407 25.6859C51.0377 27.074 51.2112 28.5025 51.2112 29.9651C51.2112 29.9701 51.2109 29.9751 51.2109 29.9801L52.8921 30.1568L52.6984 32H64C64 14.3269 49.6731 0 32 0C14.3269 0 0 14.3269 0 32H21.3333V28ZM30.9773 20L32.7975 14.3978L34.6177 20H40.5082L35.7427 23.4623L37.563 29.0645L32.7975 25.6022L28.032 29.0645L29.8522 23.4623L25.0867 20H30.9773Z" fill="#F0263C"/>
<path d="M52.6984 32L52.4425 34.4344L50.7585 34.2574C50.4541 35.688 49.9986 37.0625 49.4135 38.3673L50.8803 39.2141L48.7297 42.939L47.2546 42.0873C46.415 43.2374 45.45 44.287 44.396 45.2398L42.4338 43.6455C45.7858 40.7425 48.0664 36.6342 48.588 32H25.6198L48 50.6667L52 53.3334L49.3333 56.0001L48 53.3334L44 50.6667L22.6667 37.3334L21.3334 34.6667V32H0C0 49.6731 14.3269 64 32 64C49.6731 64 64 49.6731 64 32H52.6984ZM37.2815 51.2356L33.0744 52.1299L32.7207 50.4663C32.0239 50.5378 31.3171 50.5748 30.6016 50.5748C29.8628 50.5748 29.1281 50.5337 28.3999 50.4549L28.0458 52.1211L23.8387 51.2268L24.1955 49.5478C22.8255 49.0988 21.5062 48.5066 20.2586 47.7832L19.2484 49.1735L15.7687 46.6454L16.7829 45.2493C16.2911 44.8052 15.8168 44.3387 15.3668 43.8451L17.2206 42.1552C20.6446 45.9117 25.5219 48.0658 30.6015 48.0658C32.1974 48.0658 33.7449 47.856 35.2202 47.4664L38.1357 49.1324C37.7378 49.2895 37.3385 49.4445 36.9288 49.577L37.2815 51.2356Z" fill="black"/>
<path d="M28.0321 29.0651L32.7976 25.6028L37.5632 29.0651L35.7428 23.4629L40.5083 20.0006H34.6178L32.7976 14.3984L30.9774 20.0006H25.0869L29.8524 23.4629L28.0321 29.0651Z" fill="#FFD400"/>
<path d="M21.3333 28V32V34.6667L22.6667 37.3333L44 50.6667L48 53.3333L49.3333 56L52 53.3333L48 50.6667L25.6198 32L23.8932 30.5599L21.3333 28Z" fill="#FFD400"/>
<path d="M35.2202 47.4674C33.7449 47.857 32.1975 48.0668 30.6015 48.0668C25.5219 48.0668 20.6446 45.9128 17.2206 42.1562L15.3668 43.8461C15.8168 44.3398 16.2911 44.8062 16.7829 45.2503L15.7687 46.6465L19.2484 49.1745L20.2586 47.7842C21.5062 48.5076 22.8256 49.0998 24.1955 49.5488L23.8387 51.2278L28.0458 52.1222L28.3999 50.4559C29.1281 50.5346 29.8628 50.5758 30.6016 50.5758C31.3171 50.5758 32.024 50.5389 32.7207 50.4674L33.0744 52.131L37.2815 51.2366L36.9289 49.578C37.3386 49.4455 37.7378 49.2905 38.1358 49.1334L35.2202 47.4674Z" fill="#FFD400"/>
<path d="M51.2109 29.9806C51.2109 29.9756 51.2112 29.9706 51.2112 29.9656C51.2112 28.503 51.0377 27.0746 50.7407 25.6864L52.3751 25.1554L51.046 21.0648L49.4134 21.5953C48.8231 20.2756 48.093 19.0304 47.248 17.8682L48.5393 16.7056L45.6614 13.5092L44.3771 14.6655C43.3134 13.704 42.1462 12.8554 40.8938 12.1288L41.5983 10.5464L37.669 8.79688L36.9667 10.3745C36.2446 10.1397 35.5108 9.92948 34.7536 9.77448L34.251 12.2331C42.6244 13.9462 48.7023 21.4038 48.7023 29.9656C48.7023 30.6535 48.6632 31.3324 48.588 32.0005C48.0664 36.6348 45.7858 40.7431 42.4338 43.646L44.396 45.2403C45.45 44.2875 46.415 43.2379 47.2546 42.0878L48.7297 42.9395L50.8803 39.2146L49.4135 38.3678C49.9985 37.063 50.4541 35.6886 50.7585 34.2579L52.4425 34.4349L52.6984 32.0005L52.8921 30.1573L51.2109 29.9806Z" fill="#FFD400"/>
</g>
</svg>
