<svg width="64" height="64" viewBox="0 0 64 64" fill="none" xmlns="http://www.w3.org/2000/svg">
<mask id="mask0_12133_19167" style="mask-type:luminance" maskUnits="userSpaceOnUse" x="0" y="0" width="64" height="64">
<path d="M64 0H0V64H64V0Z" fill="white"/>
</mask>
<g mask="url(#mask0_12133_19167)">
<path d="M32 64C49.6731 64 64 49.6731 64 32C64 14.3269 49.6731 0 32 0C14.3269 0 0 14.3269 0 32C0 49.6731 14.3269 64 32 64Z" fill="#191977"/>
<path d="M32 8.00138V6.66808H26.8073L32 3.20628V1.60388L24.4036 6.66808H20V6.39898L29.4284 0.113281C28.4256 0.193081 27.4362 0.318681 26.4614 0.488881L20 4.79658V2.33638C19.5501 2.51858 19.1061 2.71108 18.6667 2.91278V8.00138H32Z" fill="white"/>
<path d="M13.3333 6.01562C12.4708 6.63633 11.6404 7.29782 10.8453 7.99932H13.3333V6.01562Z" fill="white"/>
<path d="M18.6667 21.332H20V16.5369L27.1927 21.332H29.5964L20 14.9345V14.6654H24.4036L32 19.7296V18.1272L26.8073 14.6654H32V13.332H18.6667V21.332Z" fill="white"/>
<path d="M6.01626 13.332C5.70226 13.7684 5.39936 14.2129 5.10726 14.6653C5.08586 14.6984 5.06466 14.7317 5.04346 14.7649C4.50436 15.6063 4.00406 16.4741 3.54406 17.3669L7.59636 14.6654H12V14.9345L2.40356 21.332H4.80716L11.9999 16.5368V21.332H13.3332V13.332H6.01626Z" fill="white"/>
<path d="M20 6.6667H24.4036L32 1.6025V0C31.1335 0 30.2777 0.0444 29.4284 0.1119L20 6.3975V6.6667Z" fill="#F0263C"/>
<path d="M20 14.668V14.9371L29.5964 21.3346H32V19.7322L24.4036 14.668H20Z" fill="#F0263C"/>
<path d="M12.0001 14.9371V14.668H7.59645L3.54415 17.3695C2.88725 18.6444 2.31165 19.9672 1.82825 21.3346H2.40375L12.0001 14.9371Z" fill="#F0263C"/>
<path d="M13.3334 21.332H18.6667V13.332H32V7.99876H18.6667V2.91016C16.7831 3.77506 14.9987 4.81656 13.3334 6.01506V7.99876H10.8454C9.04316 9.58856 7.42306 11.3774 6.01636 13.332H13.3335L13.3334 21.332Z" fill="#F0263C"/>
<path d="M53.3513 25.3713L53.0441 25.303L47.3743 24.043L43.0329 25.2834L42.7221 25.3722L42.4051 25.3088L37.3332 24.2944V32.0013L38.6665 33.3346V30.6679L39.9998 32.0012V33.3345L41.3331 36.0012L45.3331 38.6679V37.3346L46.6664 38.6679L49.3331 37.3346L50.6664 38.6679L49.3331 40.0012L46.6664 42.6679H39.9997L41.333 41.3346L39.9997 38.6679L38.6664 34.6679L37.3331 33.3346V39.8371L38.537 44.6529L40.552 46.6679H54.1142L56.1292 44.6529L57.3331 39.8371V37.3346H55.9998L54.6665 40.0013L51.9998 42.668V45.3347L50.6665 44.0014H47.9998L49.3331 42.6681H50.6664L51.9997 38.6681V36.0014H49.333L50.6663 34.6681L47.9996 32.0014V30.6681H49.3329L53.3329 32.0014L54.6662 33.3347L57.3331 37.3346L57.3329 24.3757L53.6563 25.2948L53.3513 25.3713ZM54.6666 28.0014L53.3333 29.3347L54.6666 30.668H53.3333L52 29.3347H48L45.3333 30.668L46.6666 32.0013H45.3333L44 36.0013H42.6667V34.668L41.3334 30.668L42.6667 28.0013L44 25.3346L45.3333 26.6679H48L52 28.0012L54.6667 26.6679L54.6666 28.0014Z" fill="white"/>
<path d="M48 26.6654H45.3333L44 25.332L42.6665 27.9987L41.3333 30.6654L42.6665 34.6654V35.9987H44L45.3333 31.9987H46.6665L45.3333 30.6654L48 29.332H52L53.3333 30.6654H54.6665L53.3333 29.332L54.6665 27.9987V26.6654L52 27.9987L48 26.6654Z" fill="#FFAD66"/>
<path d="M40 38.668L41.3333 41.3346L40 42.668H42.6665H46.6665L49.3333 40.0013L50.6665 38.668L49.3333 37.3346L46.6665 38.668L45.3333 37.3346V38.668L41.3333 36.0013L40 33.3346V32.0013L38.6665 30.668V33.3346L37.3333 32.0013V33.3346L38.6665 34.668L40 38.668Z" fill="#FFAD66"/>
<path d="M53.3333 32.0013L49.3333 30.668H48V32.0013L50.6667 34.668L49.3333 36.0013H52V38.668L50.6667 42.668H49.3333L48 44.0013H50.6667L52 45.3346V42.668L54.6667 40.0013L56 37.3346H57.3333L54.6667 33.3346L53.3333 32.0013Z" fill="#FFAD66"/>
<path d="M43.4832 49.5989L47.3333 51.7989L51.1834 49.5989L54.1144 46.668H40.5522L43.4832 49.5989Z" fill="#4DAFE3"/>
<path d="M53.3333 24.0013L47.3333 22.668L42.6666 24.0013L35.9999 22.668V40.0013L37.3332 45.3346L42.6665 50.6679L47.3332 53.3346L51.9999 50.6679L57.3332 45.3346L58.6665 40.0013V22.668L53.3333 24.0013ZM57.3333 37.3346V39.8371L56.1294 44.6529L54.1144 46.6679L51.1834 49.5988L47.3333 51.7989L43.4832 49.5988L40.5522 46.6679L38.5372 44.6529L37.3333 39.8371V24.2943L42.4052 25.3087L42.7222 25.3721L43.033 25.2833L47.3744 24.0429L53.0442 25.3029L53.3514 25.3712L53.6568 25.2948L57.3334 24.3757L57.3333 37.3346Z" fill="#FFD400"/>
</g>
</svg>
