<svg width="64" height="64" viewBox="0 0 64 64" fill="none" xmlns="http://www.w3.org/2000/svg">
<mask id="mask0_12133_19037" style="mask-type:luminance" maskUnits="userSpaceOnUse" x="0" y="0" width="64" height="64">
<path d="M64 0H0V64H64V0Z" fill="white"/>
</mask>
<g mask="url(#mask0_12133_19037)">
<path d="M32 64C49.6731 64 64 49.6731 64 32C64 14.3269 49.6731 0 32 0C14.3269 0 0 14.3269 0 32C0 49.6731 14.3269 64 32 64Z" fill="#007ACC"/>
<path d="M25.3333 22.668L24 24.0013V25.3346H22.6667L20 26.668L18.6667 25.3346H17.3333L16 24.0013L14.6667 22.668L13.3333 21.3346H12V22.668L13.3333 25.3346L14.6667 26.668H13.3333V28.0013H16V29.3346L17.3333 30.668L16 32.0013V33.3346L14.6667 34.668L16 36.0013H17.3333V37.3346L18.6667 38.668V40.0013L20 41.3346L22.6667 42.668H29.3333L32 44.0013H33.3333L34.6667 42.668V46.668L33.3333 48.0013L34.6667 49.3346H36H40L41.3333 48.0013V49.3346H42.6667L44 48.0013H45.3333L46.6667 46.668V45.3346L48 44.0013L49.3333 41.3346L50.6667 40.0013V38.668L52 37.3346V34.668L50.6667 33.3346L52 32.0013V30.668V29.3346H50.6667L48 28.0013V26.668H49.3333V25.3346L48 24.0013V20.0013H46.6667L44 18.668H42.6667L41.3333 17.3346H40L37.3333 16.0013L36 14.668L34.6667 16.0013L32 14.668H30.6667L29.3333 16.0013H28L26.6667 18.668L25.3333 22.668Z" fill="white"/>
</g>
</svg>
