<svg width="64" height="64" viewBox="0 0 64 64" fill="none" xmlns="http://www.w3.org/2000/svg">
<mask id="mask0_12133_19168" style="mask-type:luminance" maskUnits="userSpaceOnUse" x="0" y="0" width="64" height="64">
<path d="M64 0H0V64H64V0Z" fill="white"/>
</mask>
<g mask="url(#mask0_12133_19168)">
<path d="M0 32.0011C0 49.6742 14.3269 64.0011 32 64.0011L6.3999 12.8008C2.382 18.1492 0 24.7966 0 32.0011Z" fill="#F0263C"/>
<path d="M64 32.0011C64 24.7966 61.618 18.1492 57.6001 12.8008L32 64.0011C49.6731 64.0011 64 49.6742 64 32.0011Z" fill="#F0263C"/>
<path d="M57.5975 12.8047C51.7594 5.0319 42.4694 0 31.9999 0C21.5304 0 12.2404 5.0319 6.40234 12.8047L11.9999 24H51.9999L57.5975 12.8047Z" fill="black"/>
<path d="M18.6667 37.332L32 63.9987L45.3333 37.332H18.6667Z" fill="white"/>
<path d="M40.9104 22.2276L46.7821 17.877L39.5539 18.9526L43.3137 12.6863L37.0473 16.4461L38.1229 9.2179L33.7724 15.0896L32 8L30.2276 15.0895L25.8771 9.2179L26.9526 16.4461L20.6863 12.6863L24.4461 18.9526L17.2179 17.877L23.0896 22.2276L16 24H48L40.9104 22.2276Z" fill="#FFD400"/>
<path d="M52 24H12L18.6667 37.3333H45.3333L52 24Z" fill="#4DAFE3"/>
<path d="M52 24H12L18.6667 37.3333H45.3333L52 24Z" fill="#007ACC"/>
</g>
</svg>
