<svg width="64" height="64" viewBox="0 0 64 64" fill="none" xmlns="http://www.w3.org/2000/svg">
<mask id="mask0_12133_19043" style="mask-type:luminance" maskUnits="userSpaceOnUse" x="0" y="0" width="64" height="64">
<path d="M64 0H0V64H64V0Z" fill="white"/>
</mask>
<g mask="url(#mask0_12133_19043)">
<path d="M62.1719 21.3333H1.828C6.2218 8.9061 18.068 0 32 0C45.932 0 57.7782 8.9061 62.1719 21.3333Z" fill="#F0263C"/>
<path d="M1.828 42.6654C0.6482 39.3282 0 35.7399 0 31.9987C0 28.2575 0.6482 24.6692 1.828 21.332H62.1719C63.3518 24.6691 64 28.2575 64 31.9987C64 35.7399 63.3518 39.3282 62.1719 42.6654H1.828Z" fill="#2D25C5"/>
<path d="M1.828 42.668H62.1719C57.7781 55.0952 45.9319 64.0013 32 64.0013C18.0681 64.0013 6.2218 55.0952 1.828 42.668Z" fill="#FFD400"/>
</g>
</svg>
