<svg width="64" height="64" viewBox="0 0 64 64" fill="none" xmlns="http://www.w3.org/2000/svg">
<mask id="mask0_12133_19169" style="mask-type:luminance" maskUnits="userSpaceOnUse" x="0" y="0" width="64" height="64">
<path d="M64 0H0V64H64V0Z" fill="white"/>
</mask>
<g mask="url(#mask0_12133_19169)">
<path d="M31.9999 64.0013C41.7927 64.0013 50.5528 59.5976 56.4227 52.668H7.57715C13.4469 59.5976 22.207 64.0013 31.9999 64.0013Z" fill="#007ACC"/>
<path d="M5.10736 49.3333H58.8929C59.5841 48.2632 60.2179 47.1528 60.7797 46H3.22046C3.78226 47.1528 4.41616 48.2632 5.10736 49.3333Z" fill="#007ACC"/>
<path d="M64 32C64 14.3269 49.6731 0 32 0C14.3269 0 0 14.3269 0 32C0 35.7412 0.6482 39.3295 1.8281 42.6667H62.1719C63.3518 39.3296 64 35.7412 64 32Z" fill="#007ACC"/>
<path d="M1.82812 42.668C2.23182 43.8098 2.69503 44.9232 3.22043 46.0013H60.7796C61.3051 44.9231 61.7682 43.8098 62.1719 42.668H1.82812Z" fill="#FFD400"/>
<path d="M7.5772 52.6653H56.4227C57.316 51.6108 58.1401 50.4971 58.8927 49.332H5.1073C5.8599 50.4972 6.6839 51.6108 7.5772 52.6653Z" fill="#FFD400"/>
<path d="M15.3845 21.9488L6.66675 19.3333L15.3845 16.7178L18 8L20.6155 16.7178L29.3333 19.3333L20.6155 21.9488L18 30.6667L15.3845 21.9488Z" fill="white"/>
<path d="M20.0001 21.3346L18.0001 28.0013L16.0001 21.3346L9.33337 19.3346L16.0001 17.3346L18.0001 10.668L20.0001 17.3346L26.6668 19.3346L20.0001 21.3346Z" fill="#F0263C"/>
</g>
</svg>
