<svg width="64" height="64" viewBox="0 0 64 64" fill="none" xmlns="http://www.w3.org/2000/svg">
<mask id="mask0_12133_19044" style="mask-type:luminance" maskUnits="userSpaceOnUse" x="0" y="0" width="64" height="64">
<path d="M64 0H0V64H64V0Z" fill="white"/>
</mask>
<g mask="url(#mask0_12133_19044)">
<path d="M62.1719 21.3333H1.828C6.2218 8.9061 18.068 0 32 0C45.932 0 57.7782 8.9061 62.1719 21.3333Z" fill="#4DAFE3"/>
<path d="M1.828 42.6654C0.6482 39.3282 0 35.7399 0 31.9987C0 28.2575 0.6482 24.6692 1.828 21.332H62.1719C63.3518 24.6691 64 28.2575 64 31.9987C64 35.7399 63.3518 39.3282 62.1719 42.6654H1.828Z" fill="#F0263C"/>
<path d="M1.828 42.668H62.1719C57.7781 55.0952 45.9319 64.0013 32 64.0013C18.0681 64.0013 6.2218 55.0952 1.828 42.668Z" fill="#619B27"/>
<path d="M25.3333 32.0013C25.3333 27.583 28.915 24.0013 33.3333 24.0013C34.9697 24.0013 36.4898 24.4947 37.7572 25.3378C36.0746 23.6904 33.778 22.668 31.2372 22.668C26.0826 22.668 21.9039 26.8467 21.9039 32.0013C21.9039 37.1559 26.0826 41.3346 31.2372 41.3346C33.7781 41.3346 36.0746 40.3121 37.7572 38.6647C36.4898 39.5078 34.9696 40.0012 33.3333 40.0012C28.915 40.0012 25.3333 36.4196 25.3333 32.0013Z" fill="white"/>
<path d="M40.2287 29.3327L41.3332 26.2266L42.4378 29.3327L45.4152 27.9174L43.9999 30.8948L47.106 31.9994L43.9999 33.104L45.4152 36.0814L42.4378 34.6661L41.3332 37.7722L40.2287 34.6661L37.2513 36.0814L38.6666 33.104L35.5605 31.9994L38.6666 30.8948L37.2513 27.9174L40.2287 29.3327Z" fill="white"/>
</g>
</svg>
