<svg width="64" height="64" viewBox="0 0 64 64" fill="none" xmlns="http://www.w3.org/2000/svg">
<g clip-path="url(#clip0_12133_19045)">
<mask id="mask0_12133_19045" style="mask-type:luminance" maskUnits="userSpaceOnUse" x="0" y="0" width="64" height="64">
<path d="M64 0H0V64H64V0Z" fill="white"/>
</mask>
<g mask="url(#mask0_12133_19045)">
<path d="M32 0C29.0868 0 26.2675 0.3966 23.5853 1.126L33.3333 6L21.3333 12L33.3333 18.6667L21.3333 25.3334L33.3333 32.0001L21.3333 38.6668L33.3333 45.3335L21.3333 52.0002L33.3333 58.0002L23.5853 62.8742C26.2675 63.6036 29.0868 64.0002 32 64.0002C49.6731 64.0002 64 49.6733 64 32.0002C64 14.3271 49.6731 0 32 0Z" fill="#F0263C"/>
<path d="M33.3333 57.999L21.3333 51.999L33.3333 45.3323L21.3333 38.6656L33.3333 31.9989L21.3333 25.3322L33.3333 18.6655L21.3333 11.9988L33.3333 5.9988L23.5853 1.125C9.9959 4.8205 0 17.2391 0 31.999C0 46.7589 9.9959 59.1775 23.5853 62.873L33.3333 57.999Z" fill="white"/>
</g>
</g>
<defs>
<clipPath id="clip0_12133_19045">
<rect width="64" height="64" fill="white"/>
</clipPath>
</defs>
</svg>
