<svg width="64" height="64" viewBox="0 0 64 64" fill="none" xmlns="http://www.w3.org/2000/svg">
<mask id="mask0_12133_19171" style="mask-type:luminance" maskUnits="userSpaceOnUse" x="0" y="0" width="64" height="64">
<path d="M64 0H0V64H64V0Z" fill="white"/>
</mask>
<g mask="url(#mask0_12133_19171)">
<path d="M45.3334 2.91406V61.0892C56.4564 55.9845 64.1322 44.7016 63.9992 31.6727C63.8686 18.8765 56.2398 7.92146 45.3334 2.91406Z" fill="#191977"/>
<path d="M18.6671 2.91406C7.65363 7.97046 0.000732422 19.0867 0.000732422 31.9993C0.000732422 44.9119 7.65364 56.0281 18.667 61.0845L18.6671 2.91406Z" fill="#191977"/>
<path d="M45.3333 2.9114C41.2733 1.0472 36.7603 0 32.0002 0C27.2401 0 22.7271 1.0472 18.6671 2.9114V61.0886C22.7271 62.9528 27.2401 64 32.0002 64C36.7603 64 41.2733 62.9528 45.3333 61.0886V2.9114Z" fill="#FFD400"/>
<path d="M42.6668 23L38.0002 27.6667H40.0002L37.3335 37.6667L33.3335 37.5641V25.6667H36.0002L32.0002 19L28.0002 25.6667H30.6668V37.5641L26.6668 37.6667L24.0002 27.6667H26.0002L21.3335 23H20.0002L25.3335 40.3333L30.6668 39.5128V45H33.3335V39.5128L38.6668 40.3333L44.0002 23H42.6668Z" fill="black"/>
</g>
</svg>
