<svg width="64" height="64" viewBox="0 0 64 64" fill="none" xmlns="http://www.w3.org/2000/svg">
<mask id="mask0_12133_19109" style="mask-type:luminance" maskUnits="userSpaceOnUse" x="0" y="0" width="64" height="64">
<path d="M64 0H0V64H64V0Z" fill="white"/>
</mask>
<g mask="url(#mask0_12133_19109)">
<path d="M32 64C49.6731 64 64 49.6731 64 32C64 14.3269 49.6731 0 32 0C14.3269 0 0 14.3269 0 32C0 49.6731 14.3269 64 32 64Z" fill="#F0263C"/>
<path d="M14.6666 25.3333H13.3332V24H11.9999V22.6667H13.3332V21.3333H14.6666V20H11.9999V21.3333H10.6666V22.6667H9.33325V24H10.6666V26.6667H11.9999V28H13.3332V29.3333H14.6666V28H15.9999V26.6667V24H14.6666V25.3333Z" fill="white"/>
<path d="M9.33325 30.6654V31.9987V33.332H10.6666V34.6654H11.9999V33.332H13.3332V31.9987V30.6654H11.9999V29.332H10.6666V30.6654H9.33325Z" fill="white"/>
<path d="M13.3333 6.01562C13.0385 6.22783 12.7474 6.44413 12.4601 6.66593H13.3333V6.01562Z" fill="white"/>
<path d="M5.33323 16.0013H6.66653V17.3346H7.99983V18.6679H9.33314V17.3346H10.6664V16.0013H11.9997V14.668H13.333V16.0013H14.6663V17.3346H15.9996V13.3346H14.6663V12.0013H13.333V10.668H14.6663V9.33467H15.9996V4.29297C15.4268 4.62437 14.8632 4.96937 14.3137 5.33467H14.6662V6.66797H13.3329V8.00127H11.9996V7.02957C11.0976 7.75297 10.2315 8.51937 9.41333 9.33467H10.6662V10.668H11.9995V12.0013H10.6662V13.3346H9.33293V14.6679H7.99963V13.3346H6.66633V12.4614C6.11623 13.1736 5.59653 13.9098 5.10693 14.6679H5.33303L5.33323 16.0013Z" fill="white"/>
<path d="M1.33328 27.9999H2.66658V29.3332H3.99988V27.9999H5.33318V26.6666H6.66648V23.9999H7.99978V22.6666H6.66648V21.3333H5.33318V20H2.66648V21.3333H3.99978V22.6666H5.33308V23.9999H3.99978V25.3332H2.66648V23.9999H1.33318V22.8549C0.963684 24.0956 0.668584 25.3678 0.450684 26.6665H1.33318L1.33328 27.9999Z" fill="white"/>
<path d="M8.00005 30.6654H9.33335V29.332H10.6668V27.9987H9.33335V26.6654V25.332H8.00005V26.6654V27.9987H6.66675V29.332H8.00005V30.6654Z" fill="white"/>
<path d="M9.3333 12.0013V10.668H8.1548C8.1022 10.7267 8.0521 10.7875 8 10.8466V12.0013H9.3333Z" fill="white"/>
<path d="M14.6666 34.668H13.3332V36.0013H11.9999V37.3346H10.6666V40.0013H9.33325V41.3346H10.6666V42.668H11.9999V44.0013H14.6666V42.668H13.3332V41.3346H11.9999V40.0013H13.3332V38.668H14.6666V40.0013H15.9999V36.0013H14.6666V34.668Z" fill="white"/>
<path d="M12.4601 57.332C12.7474 57.5538 13.0386 57.7702 13.3333 57.9823V57.332H12.4601Z" fill="white"/>
<path d="M14.6666 47.9986H13.3333V49.3319H12V47.9986H10.6667V46.6653H9.33342V45.332H8.00012V46.6653H6.66682V47.9986H5.33352V49.3319H5.10742C5.59702 50.09 6.11672 50.8262 6.66682 51.5384V50.6652H8.00012V49.3319H9.33342V50.6652H10.6667V51.9985H12V53.3318H10.6667V54.6651H9.41382C10.232 55.4804 11.098 56.2467 12.0001 56.9702V55.9985H13.3334V57.3318H14.6667V58.6651H14.3142C14.8637 59.0303 15.4273 59.3753 16.0001 59.7068V54.6651H14.6668V53.3318H13.3335V51.9985H14.6668V50.6652H16.0001V46.6652H14.6668L14.6666 47.9986Z" fill="white"/>
<path d="M1.3333 34.6653V33.332H2.6666V30.6653H1.3333V29.332H0.1191C0.0465 30.2121 0 31.0997 0 31.9986C0 32.8975 0.0465 33.7851 0.1191 34.6653H1.3333Z" fill="white"/>
<path d="M2.66671 40.0013V38.668H4.00001V40.0013H5.33331V41.3346H4.00001V42.6679H2.66671V44.0012H5.33341V42.6679H6.66671V41.3346H8.00001V40.0013H6.66671V37.3346H5.33341V36.0013H4.00011V34.668H2.66681V36.0013H1.33351V37.3346H0.450806C0.602206 38.2359 0.783206 39.1272 1.00811 40.0013H2.66671Z" fill="white"/>
<path d="M5.3333 34.6654H6.6667V33.332H8V31.9987V30.6654H6.6667V29.332H5.3333V30.6654H4V31.9987V33.332H5.3333V34.6654Z" fill="white"/>
<path d="M9.33335 33.332H8.00005V34.6654H6.66675V35.9987H8.00005V37.332V38.6654H9.33335V37.332V35.9987H10.6668V34.6654H9.33335V33.332Z" fill="white"/>
<path d="M9.3333 52H8V53.1547C8.0521 53.2138 8.1022 53.2747 8.1548 53.3333H9.3333V52Z" fill="white"/>
<path d="M16 30.6484H14.6667V33.3151H16V30.6484Z" fill="white"/>
<path d="M16 42.668V59.7115C20.7067 62.4367 26.1693 64.0013 32 64.0013C45.932 64.0013 57.7782 55.0952 62.1719 42.668H16Z" fill="#619B27"/>
</g>
</svg>
