<svg width="64" height="64" viewBox="0 0 64 64" fill="none" xmlns="http://www.w3.org/2000/svg">
<mask id="mask0_12133_19098" style="mask-type:luminance" maskUnits="userSpaceOnUse" x="0" y="0" width="64" height="64">
<path d="M64 0H0V64H64V0Z" fill="white"/>
</mask>
<g mask="url(#mask0_12133_19098)">
<path d="M54.4762 9.22656H9.5238C3.6459 15.0288 0 23.0865 0 31.9982C0 40.9099 3.6459 48.9676 9.5238 54.7697H54.4763C60.3541 48.9676 64.0001 40.9098 64.0001 31.9982C64.0001 23.0866 60.3541 15.0288 54.4762 9.22656ZM32 49.3315C22.4271 49.3315 14.6667 41.5711 14.6667 31.9982C14.6667 22.4253 22.4271 14.6649 32 14.6649C41.5729 14.6649 49.3333 22.4253 49.3333 31.9982C49.3333 41.5711 41.5729 49.3315 32 49.3315Z" fill="#2D25C5"/>
<path d="M32 0C23.2386 0 15.3026 3.5242 9.5238 9.2284H54.4763C48.6974 3.5242 40.7614 0 32 0Z" fill="#F0263C"/>
<path d="M32 64.0019C40.7614 64.0019 48.6974 60.4777 54.4762 54.7734H9.5238C15.3026 60.4777 23.2386 64.0019 32 64.0019Z" fill="#F0263C"/>
<path d="M34.6666 24.0013L33.3333 22.668V24.0013H34.6666Z" fill="white"/>
<path d="M34.6666 25.332H33.3333V26.6654L34.6666 25.332Z" fill="white"/>
<path d="M30.6667 22.668L32 24.0013V22.668H30.6667Z" fill="white"/>
<path d="M34.6667 24.0013L36 25.3346V26.668V28.0013L37.3334 26.668V25.3346V24.0013L38.6667 22.668L36 24.0013H34.6667Z" fill="white"/>
<path d="M32 25.332H30.6667V26.6653H32V25.332Z" fill="white"/>
<path d="M30.6667 28H29.3333L28 29.3333H30.6667V28Z" fill="white"/>
<path d="M33.3333 29.3333H36L34.6666 28H33.3333V29.3333Z" fill="white"/>
<path d="M30.6667 41.3333H33.3333L34.6667 40H32H29.3333L30.6667 41.3333Z" fill="white"/>
<path d="M46.3155 31.6478C46.2953 30.8233 46.2135 30.0141 46.0592 29.2294L44.879 28.548L44.5339 27.2601L45.7438 27.9587C45.5107 27.1673 45.2057 26.4087 44.8459 25.6803L43.5471 25.3323L42.8804 24.1776L44.2131 24.5347C43.7861 23.8387 43.3047 23.182 42.769 22.5709H41.4281L40.4853 21.6281H41.8661C41.2798 21.0702 40.6543 20.5532 39.9805 20.0999L38.6667 20.452L37.512 19.7853L38.8664 19.4224C38.154 19.0319 37.4003 18.7108 36.6211 18.4444L35.4509 19.12L34.163 18.7749L35.3648 18.0811C34.5828 17.8919 33.7775 17.7686 32.9518 17.714L32 18.6658H30.6667L31.649 17.6836C30.8245 17.7037 30.0153 17.7855 29.2305 17.9398L28.5491 19.1201L27.2613 19.4652L27.9598 18.2553C27.1684 18.4884 26.4098 18.7935 25.6814 19.1533L25.3334 20.4522L24.1787 21.1189L24.5358 19.7862C23.8399 20.2132 23.1831 20.6945 22.572 21.2302V22.5711L21.6291 23.5139V22.1332C21.0712 22.7194 20.5542 23.345 20.1009 24.0186L20.453 25.3325L19.7863 26.4872L19.4234 25.1327C19.0329 25.8452 18.7118 26.599 18.4455 27.3781L19.121 28.5482L18.7759 29.8361L18.0821 28.6343C17.893 29.4163 17.7696 30.2216 17.7149 31.0473L18.6667 31.9991V33.3324L17.6844 32.3502C17.7046 33.1747 17.7864 33.9839 17.9407 34.7686L19.1209 35.45L19.466 36.7379L18.2561 36.0393C18.4892 36.8307 18.7942 37.5893 19.154 38.3177L20.4528 38.6657L21.1195 39.8204L19.7868 39.4633C20.2138 40.1593 20.6952 40.816 21.2309 41.4271H22.5718L23.5146 42.3699H22.1338C22.7201 42.9278 23.3456 43.4448 24.0194 43.8981L25.3332 43.546L26.4879 44.2127L25.1335 44.5756C25.8459 44.9661 26.5997 45.2871 27.3788 45.5536L28.549 44.878L29.8369 45.2231L28.635 45.917C29.4171 46.1062 30.2224 46.2295 31.0481 46.2841L31.9999 45.3323H33.3333L32.351 46.3145C33.1755 46.2944 33.9846 46.2126 34.7694 46.0583L35.4508 44.878L36.7386 44.5329L36.0401 45.7429C36.8315 45.5098 37.5901 45.2047 38.3185 44.8449L38.6665 43.546L39.8212 42.8793L39.4641 44.212C40.16 43.785 40.8168 43.3037 41.4279 42.768V41.4271L42.3708 40.4843V41.865C42.9287 41.2788 43.4457 40.6532 43.899 39.9796L43.5469 38.6657L44.2136 37.511L44.5765 38.8655C44.967 38.153 45.288 37.3992 45.5544 36.6201L44.879 35.45L45.224 34.1621L45.9178 35.3639C46.1069 34.5819 46.2303 33.7766 46.285 32.9509L45.3333 31.9991V30.6658L46.3155 31.6478ZM42.6666 27.9989L41.3333 29.3322L40 27.9989V37.3322H41.3333V38.6655L40 39.9988L38.6667 41.3321H37.3334L36.0001 42.6654L34.6668 43.9987H33.3335V42.6654H30.6668V43.9987H29.3335L28.0002 42.6654L26.6669 41.3321H25.3336L24.0003 39.9988L22.667 38.6655V37.3322H24.0003V27.9989L22.667 29.3322L21.3337 27.9989V26.6656H22.667V27.9989L24.0003 25.3322V23.9989L25.3336 22.6656L26.6669 23.9989L28.0002 22.6656H26.6669V21.3323H28.0002L29.3335 19.999H34.6668L37.3335 21.3323L38.6668 22.6656L40.0001 23.9989V25.3322L41.3334 27.9989V26.6656H42.6667L42.6666 27.9989Z" fill="white"/>
<path d="M28 29.332H26.6667V30.6654L27.5942 36.2306L28.1904 36.3796L28 35.9987V29.332Z" fill="white"/>
<path d="M25.3333 36.6654L26.0741 36.295L25.3333 33.332V36.6654Z" fill="white"/>
<path d="M38.6667 33.332L37.9259 36.295L38.6667 36.6654V33.332Z" fill="white"/>
<path d="M35.8096 36.3796L36.4058 36.2306L37.3333 30.6654V29.332H36V35.9987L35.8096 36.3796Z" fill="white"/>
<path d="M32 14.668C22.4271 14.668 14.6667 22.4284 14.6667 32.0013C14.6667 41.5742 22.4271 49.3346 32 49.3346C41.5729 49.3346 49.3334 41.5742 49.3334 32.0013C49.3334 22.4284 41.5729 14.668 32 14.668ZM47.7999 34.8545L47.4548 36.1424L46.182 36.8772C45.9017 37.69 45.556 38.4723 45.1466 39.2154L46.5231 38.8466L45.8564 40.0013L44.4346 40.3822C43.9547 41.092 43.4125 41.7557 42.8216 42.3721H44.2565L43.3137 43.3149H41.8322C41.1921 43.8719 40.5071 44.3788 39.7788 44.8223L41.1547 45.191L40 45.8577L38.5803 45.4773C37.8196 45.8502 37.0224 46.1584 36.1966 46.3995L37.429 47.111L36.1411 47.4561L34.8706 46.7226C34.0442 46.8835 33.1935 46.9744 32.325 46.993L33.3333 48.0013H32L30.9599 46.9612C30.0966 46.9018 29.2533 46.77 28.4359 46.5699L29.1468 47.8012L27.8589 47.4561L27.124 46.1833C26.3112 45.903 25.5289 45.5573 24.7858 45.1479L25.1547 46.5244L24 45.8577L23.619 44.4359C22.9093 43.956 22.2455 43.4139 21.6291 42.8229V44.2578L20.6863 43.315V41.8335C20.1293 41.1934 19.6224 40.5084 19.179 39.7802L18.8103 41.1561L18.1436 40.0014L18.5241 38.5818C18.1511 37.8212 17.843 37.0239 17.6019 36.1981L16.8904 37.4305L16.5453 36.1426L17.2787 34.8721C17.1179 34.0456 17.0269 33.195 17.0084 32.3266L16.0001 33.3349V32.0016L17.0402 30.9615C17.0997 30.0982 17.2314 29.2549 17.4314 28.4375L16.2002 29.1484L16.5453 27.8605L17.8181 27.1256C18.0984 26.3128 18.4441 25.5306 18.8535 24.7875L17.477 25.1563L18.1437 24.0016L19.5655 23.6207C20.0454 22.9109 20.5876 22.2472 21.1785 21.6308H19.7436L20.6864 20.688H22.168C22.8081 20.131 23.4931 19.6242 24.2213 19.1807L22.8454 18.812L24.0001 18.1453L25.4198 18.5257C26.1805 18.1528 26.9777 17.8446 27.8035 17.6035L26.5711 16.892L27.859 16.5469L29.1295 17.2804C29.9559 17.1195 30.8066 17.0286 31.6751 17.01L30.6668 16.0017H32.0001L33.0402 17.0418C33.9035 17.1012 34.7468 17.233 35.5642 17.4331L34.8533 16.2018L36.1412 16.5469L36.8761 17.8198C37.6889 18.1001 38.4712 18.4458 39.2143 18.8552L38.8454 17.4787L40.0001 18.1454L40.3811 19.5672C41.0908 20.0471 41.7546 20.5892 42.371 21.1802V19.7453L43.3138 20.6881V22.1697C43.8708 22.8098 44.3777 23.4948 44.8211 24.223L45.1898 22.8471L45.8565 24.0018L45.476 25.4214C45.849 26.182 46.1571 26.9793 46.3982 27.8051L47.1097 26.5727L47.4548 27.8606L46.7215 29.1311C46.8823 29.9576 46.9732 30.8082 46.9917 31.6767L48 30.6684V32.0017L46.9599 33.0418C46.9004 33.9051 46.7687 34.7484 46.5687 35.5658L47.7999 34.8545Z" fill="white"/>
<path d="M30.6666 21.332H29.3333V22.6653H30.6666V21.332Z" fill="white"/>
<path d="M26.6667 26.6667L28 28V26.6667L29.3333 25.3333H28L26.6667 24V25.3333V26.6667Z" fill="white"/>
<path d="M32 25.3333V24H30.6667H29.3333V25.3333H30.6667H32Z" fill="#FFAD66"/>
<path d="M30.6667 29.3346H32H33.3333V28.0013H32V26.668L30.6667 28.0013V29.3346Z" fill="#FFAD66"/>
<path d="M33.3333 22.668H32V24.0013H33.3333V22.668Z" fill="#FFAD66"/>
<path d="M33.3333 25.332H32V26.6653H33.3333V25.332Z" fill="#FFAD66"/>
<path d="M30.6667 21.332V22.6654H32L30.6667 21.332Z" fill="#FFAD66"/>
<path d="M26.6667 29.3346H28L29.3333 28.0013H28L26.6667 26.668V25.3346V24.0013L25.3333 22.668L24 24.0013V25.3346L22.6667 28.0013V26.668H21.3333V28.0013L22.6667 29.3346L24 28.0013V30.668H26.6667V29.3346Z" fill="#CC9500"/>
<path d="M41.3334 28.0013L40 25.3346V24.0013L38.6667 22.668L37.3334 24.0013V25.3346V26.668L36 28.0013H34.6667L36 29.3346H37.3334V30.668H40V28.0013L41.3334 29.3346L42.6667 28.0013V26.668H41.3334V28.0013Z" fill="#5A2919"/>
<path d="M29.3333 41.3333V40H26.6667L29.3333 41.3333Z" fill="#2D25C5"/>
<path d="M37.3334 40H34.6667V41.3333L37.3334 40Z" fill="#2D25C5"/>
<path d="M30.6666 42.668H29.3333V44.0013H30.6666V42.668Z" fill="#2D25C5"/>
<path d="M34.6665 42.668H33.3333V44.0013H34.6665V42.668Z" fill="#2D25C5"/>
<path d="M37.3333 40L34.6667 41.3333V40L33.3333 41.3333H30.6667L29.3333 40V41.3333L26.6667 40H25.3333H24L25.3333 41.3333H26.6667L28 42.6667L29.3333 44V42.6667H30.6667H32H33.3333H34.6667V44L36 42.6667L37.3333 41.3333H38.6667L40 40H38.6667H37.3333Z" fill="#FFD400"/>
<path d="M36 25.3333L34.6667 24H33.3333H32V25.3333H33.3333H34.6667L33.3333 26.6667H32V28H33.3333H34.6667H36V26.6667V25.3333Z" fill="#619B27"/>
<path d="M32 26.6654H30.6667V25.332H29.3333L28 26.6654V27.9987H29.3333H30.6667L32 26.6654Z" fill="#619B27"/>
<path d="M48 32V30.6667L46.9917 31.675C46.9731 30.8066 46.8822 29.9559 46.7214 29.1294L47.4548 27.8589L47.1097 26.571L46.3982 27.8034C46.1571 26.9775 45.849 26.1803 45.476 25.4197L45.8565 24.0001L45.1898 22.8454L44.8211 24.2213C44.3777 23.4931 43.8708 22.8081 43.3138 22.168V20.6864L42.371 19.7436V21.1785C41.7545 20.5875 41.0908 20.0454 40.3811 19.5655L40.0001 18.1437L38.8454 17.477L39.2143 18.8535C38.4711 18.444 37.6889 18.0983 36.8761 17.8181L36.1412 16.5452L34.8533 16.2001L35.5642 17.4314C34.7468 17.2314 33.9035 17.0996 33.0402 17.0401L32.0001 16H30.6668L31.6751 17.0083C30.8066 17.0269 29.9559 17.1178 29.1295 17.2787L27.859 16.5452L26.5711 16.8903L27.8035 17.6018C26.9777 17.8429 26.1805 18.1511 25.4198 18.524L24.0001 18.1436L22.8454 18.8103L24.2213 19.179C23.4931 19.6225 22.8081 20.1293 22.168 20.6863H20.6864L19.7436 21.6291H21.1785C20.5875 22.2456 20.0454 22.9093 19.5655 23.619L18.1437 23.9999L17.477 25.1546L18.8535 24.7858C18.4441 25.5289 18.0984 26.3111 17.8181 27.1239L16.5453 27.8588L16.2002 29.1467L17.4314 28.4358C17.2314 29.2532 17.0997 30.0965 17.0402 30.9598L16.0001 31.9999V33.3332L17.0084 32.3249C17.027 33.1933 17.1179 34.044 17.2787 34.8704L16.5453 36.1409L16.8904 37.4288L17.6019 36.1964C17.843 37.0223 18.1511 37.8195 18.5241 38.5801L18.1436 39.9997L18.8103 41.1544L19.179 39.7785C19.6224 40.5067 20.1293 41.1917 20.6863 41.8318V43.3133L21.6291 44.2561V42.8212C22.2456 43.4122 22.9093 43.9543 23.619 44.4342L24 45.856L25.1547 46.5227L24.7858 45.1462C25.529 45.5557 26.3112 45.9014 27.124 46.1816L27.8589 47.4544L29.1468 47.7995L28.4359 46.5682C29.2533 46.7682 30.0966 46.9 30.9599 46.9595L32 47.9996H33.3333L32.325 46.9913C33.1935 46.9727 34.0442 46.8818 34.8706 46.7209L36.1411 47.4544L37.429 47.1093L36.1966 46.3978C37.0224 46.1567 37.8196 45.8485 38.5803 45.4756L40 45.856L41.1547 45.1893L39.7788 44.8206C40.5071 44.3771 41.192 43.8703 41.8322 43.3132H43.3137L44.2565 42.3704H42.8216C43.4126 41.7539 43.9547 41.0902 44.4346 40.3805L45.8564 39.9996L46.5231 38.8449L45.1466 39.2137C45.556 38.4706 45.9017 37.6883 46.182 36.8755L47.4548 36.1407L47.7999 34.8528L46.5687 35.5637C46.7687 34.7464 46.9004 33.903 46.9599 33.0397L48 32ZM46.2852 32.9518C46.2305 33.7775 46.1071 34.5828 45.918 35.3648L45.2242 34.163L44.8791 35.4509L45.5546 36.621C45.2882 37.4001 44.9672 38.1539 44.5767 38.8664L44.2138 37.5119L43.5471 38.6666L43.8992 39.9805C43.4459 40.6542 42.929 41.2797 42.371 41.8659V40.4852L41.4281 41.428V42.7689C40.817 43.3046 40.1602 43.7859 39.4643 44.2129L39.8214 42.8802L38.6667 43.5469L38.3187 44.8458C37.5903 45.2056 36.8317 45.5107 36.0403 45.7438L36.7388 44.5338L35.451 44.8789L34.7696 46.0592C33.9849 46.2135 33.1757 46.2953 32.3511 46.3154L33.3334 45.3332H32.0001L31.0483 46.285C30.2226 46.2304 29.4173 46.107 28.6352 45.9179L29.8371 45.224L28.5492 44.8789L27.379 45.5545C26.5999 45.2881 25.8461 44.9671 25.1337 44.5765L26.4881 44.2136L25.3334 43.5469L24.0196 43.899C23.3459 43.4457 22.7203 42.9288 22.134 42.3708H23.5148L22.572 41.428H21.2311C20.6954 40.8169 20.214 40.1601 19.787 39.4642L21.1197 39.8213L20.453 38.6666L19.1542 38.3186C18.7943 37.5902 18.4893 36.8316 18.2563 36.0402L19.4662 36.7388L19.1211 35.4509L17.9409 34.7695C17.7865 33.9848 17.7047 33.1756 17.6846 32.3511L18.6669 33.3333V32L17.7151 31.0482C17.7698 30.2225 17.8932 29.4172 18.0823 28.6352L18.7761 29.837L19.1212 28.5491L18.4457 27.379C18.7121 26.5999 19.0331 25.8461 19.4236 25.1336L19.7865 26.4881L20.4532 25.3334L20.1011 24.0195C20.5544 23.3458 21.0713 22.7203 21.6293 22.1341V23.5148L22.5722 22.572V21.2311C23.1833 20.6954 23.8401 20.2141 24.536 19.7871L24.1789 21.1198L25.3336 20.4531L25.6816 19.1542C26.41 18.7944 27.1686 18.4893 27.96 18.2562L27.2615 19.4661L28.5493 19.121L29.2307 17.9407C30.0154 17.7864 30.8246 17.7046 31.6492 17.6845L30.6669 18.6667H32.0002L32.952 17.7149C33.7777 17.7695 34.583 17.8929 35.365 18.082L34.1632 18.7758L35.4511 19.1209L36.6213 18.4453C37.4004 18.7117 38.1542 19.0328 38.8666 19.4233L37.5122 19.7862L38.6669 20.4529L39.9807 20.1008C40.6544 20.5541 41.28 21.071 41.8663 21.629H40.4855L41.4283 22.5718H42.7692C43.3049 23.1829 43.7863 23.8397 44.2133 24.5356L42.8806 24.1785L43.5473 25.3332L44.8461 25.6812C45.206 26.4096 45.511 27.1682 45.744 27.9596L44.5341 27.261L44.8792 28.5489L46.0594 29.2303C46.2138 30.015 46.2956 30.8242 46.3157 31.6487L45.3334 30.6665V31.9998L46.2852 32.9518Z" fill="#619B27"/>
<path d="M32 29.332V33.332L36 35.9987V29.332H32ZM34.6667 31.9987H33.3334V30.6654H34.6667V31.9987Z" fill="#FFD400"/>
<path d="M32 33.332V29.332H28V35.9987L32 33.332ZM29.3333 30.6653H30.6666V31.9986H29.3333V30.6653Z" fill="#F0F0F0"/>
<path d="M30.6666 30.668H29.3333V32.0013H30.6666V30.668Z" fill="#FFAD66"/>
<path d="M34.6665 30.668H33.3333V32.0013H34.6665V30.668Z" fill="#C8C8C8"/>
<path d="M26.6667 39.9986H29.3333H32L29.3333 38.6653L28.6667 37.3319L28.1904 36.3795L27.5942 36.2305L28 38.6653H26.6667L26.0741 36.2949L25.3333 36.6653V38.6653H24V37.3319H22.6667V38.6653L24 39.9986H25.3333H26.6667Z" fill="#619B27"/>
<path d="M38.6667 38.6653V36.6653L37.9259 36.2949L37.3333 38.6653H36L36.4058 36.2305L35.8096 36.3795L35.3333 37.3319L34.6667 38.6653L32 39.9986H34.6667H37.3333H38.6667H40L41.3333 38.6653V37.3319H40V38.6653H38.6667Z" fill="#619B27"/>
<path d="M32 33.332L28 35.9987L28.1904 36.3796L28.6667 37.332H29.3333L30.6667 35.9987V34.6654H33.3333L34.6667 37.332H35.3333L35.8096 36.3796L36 35.9987L32 33.332Z" fill="#4DAFE3"/>
<path d="M33.3333 34.668H30.6667V36.0013L29.3333 37.3346H34.6667L33.3333 34.668Z" fill="#C8C8C8"/>
<path d="M29.3333 37.332H28.6667L29.3333 38.6654L32 39.9987L34.6667 38.6654L35.3333 37.332H34.6667H29.3333Z" fill="#007ACC"/>
<path d="M36.4058 36.2332L36 38.668H37.3333L37.9259 36.2976L38.6667 33.3346V36.668V38.668H40V37.3346V36.0013V30.668H37.3333L36.4058 36.2332Z" fill="#C8C8C8"/>
<path d="M25.3333 38.668V36.668V33.3346L26.0741 36.2976L26.6667 38.668H28L27.5942 36.2332L26.6667 30.668H24V36.0013V37.3346V38.668H25.3333Z" fill="#C8C8C8"/>
<path d="M29.3333 25.3333V24H30.6667H32L30.6667 22.6667H29.3333V21.3333H30.6667L32 22.6667H33.3333L34.6667 24H36L38.6667 22.6667L37.3333 21.3333L34.6667 20H32H29.3333L28 21.3333H26.6667V22.6667H28L26.6667 24L28 25.3333H29.3333Z" fill="#619B27"/>
</g>
</svg>
