<svg width="64" height="64" viewBox="0 0 64 64" fill="none" xmlns="http://www.w3.org/2000/svg">
<mask id="mask0_12133_19172" style="mask-type:luminance" maskUnits="userSpaceOnUse" x="0" y="0" width="64" height="64">
<path d="M64 0H0V64H64V0Z" fill="white"/>
</mask>
<g mask="url(#mask0_12133_19172)">
<path d="M32 64C49.6731 64 64 49.6731 64 32C64 14.3269 49.6731 0 32 0C14.3269 0 0 14.3269 0 32C0 49.6731 14.3269 64 32 64Z" fill="#F0263C"/>
<path d="M26.4614 0.488281C24.2186 0.879881 22.0564 1.50308 20 2.33578V4.79598L26.4614 0.488281Z" fill="#191977"/>
<path d="M32 18.1298V14.668H26.8073L32 18.1298Z" fill="#191977"/>
<path d="M4.80725 21.3342H12V16.5391L4.80725 21.3342Z" fill="#191977"/>
<path d="M32 6.66502V3.20312L26.8073 6.66502H32Z" fill="#191977"/>
<path d="M20 21.3342H27.1927L20 16.5391V21.3342Z" fill="#191977"/>
<path d="M31.9999 8.00138V6.66808H26.8072L31.9999 3.20628V1.60388L24.4035 6.66808H19.9999V6.39898L29.4283 0.113281C28.4255 0.193081 27.4361 0.318681 26.4613 0.488881L19.9999 4.79658V2.33638C19.55 2.51858 19.106 2.71108 18.6666 2.91278V8.00138H31.9999Z" fill="white"/>
<path d="M13.3332 6.01562C12.4707 6.63633 11.6403 7.29782 10.8452 7.99932H13.3332V6.01562Z" fill="white"/>
<path d="M18.6666 21.332H19.9999V16.5369L27.1926 21.332H29.5963L19.9999 14.9345V14.6654H24.4035L31.9999 19.7296V18.1272L26.8072 14.6654H31.9999V13.332H18.6666V21.332Z" fill="white"/>
<path d="M6.01626 13.332C5.70226 13.7684 5.39936 14.2129 5.10726 14.6653C5.08586 14.6984 5.06466 14.7317 5.04346 14.7649C4.50436 15.6063 4.00406 16.4741 3.54406 17.3669L7.59636 14.6654H12V14.9345L2.40356 21.332H4.80716L11.9999 16.5368V21.332H13.3332V13.332H6.01626Z" fill="white"/>
<path d="M36 21.332V42.6654H41.3333L40 38.6654V39.9987L38.6667 41.332L37.3333 39.9987L38.6667 38.6654H37.3333L38.6667 37.332V35.9987L40 35.332L42.6667 35.9987L41.3333 34.6654H40L38.6667 33.332L40 31.9987V30.6654V29.332H41.3333L42.6667 30.6654L44.6667 29.332L44 27.9987V25.332L45.3333 22.6654L47.3333 21.9987L49.3333 22.6654L50.6667 25.332V27.9987L50 29.332L52 30.6654L53.3333 29.332H54.6667V30.6654V31.9987L56 33.332L54.6667 34.6654H53.3333L52 35.9987L54.6667 35.332L56 35.9987V37.332L57.3333 38.6654H56L57.3333 39.9987L56 41.332L54.6667 39.9987V38.6654L53.3333 42.6654H58.6667V21.332H36Z" fill="white"/>
<path d="M50.6667 42.668L53.3333 44.0013H54.6667V45.3346L53.3333 46.668H52L50.6667 45.3346L49.3333 44.0013L48 45.3346H46.6667L45.3333 44.0013L44 45.3346L42.6667 46.668H41.3333L40 45.3346V44.0013H41.3333L44 42.668H41.3333H36V44.0013L40 48.0013L44 49.3346L47.3333 50.0013L50.6667 49.3346L54.6667 48.0013L58.6667 44.0013V42.668H53.3333H50.6667Z" fill="#619B27"/>
<path d="M54.6667 38.6654V39.9987L56 41.332L57.3333 39.9987L56 38.6654H57.3333L56 37.332V35.9987L54.6667 35.332L52 35.9987L53.3333 37.332L54.6667 38.6654Z" fill="#F0263C"/>
<path d="M50.6665 45.3346L52 46.668H53.3333L54.6665 45.3346V44.0013H53.3333L50.6665 42.668L49.3333 44.0013L50.6665 45.3346Z" fill="#F0263C"/>
<path d="M41.3333 32H42.6667L45.3333 30.6667H49.3333L52 32H53.3333V30.6667H54.6667V29.3333H53.3333L52 30.6667L50 29.3333L50.6667 28V25.3333L49.3333 22.6667L47.3333 22L45.3333 22.6667L44 25.3333V28L44.6667 29.3333L42.6667 30.6667L41.3333 29.3333H40V30.6667H41.3333V32Z" fill="#F0263C"/>
<path d="M42.6665 35.9987L40 35.332L38.6665 35.9987V37.332L37.3333 38.6654H38.6665L37.3333 39.9987L38.6665 41.332L40 39.9987V38.6654L41.3333 37.332L42.6665 35.9987Z" fill="#F0263C"/>
<path d="M41.3333 44.0013H40V45.3346L41.3333 46.668H42.6667L44 45.3346L45.3333 44.0013L44 42.668L41.3333 44.0013Z" fill="#F0263C"/>
<path d="M44 32.0013L45.3335 33.3346L46.6667 34.668V32.0013L48 36.0013H50.6667H52L53.3335 34.668H54.6667L56 33.3346L54.6667 32.0013V30.668H53.3335V32.0013H52L49.3335 30.668H45.3335L42.6667 32.0013H41.3335V30.668H40V32.0013L38.6667 33.3346L40 34.668H41.3335V33.3346L44 32.0013Z" fill="#007ACC"/>
<path d="M45.3333 44L46.6667 45.3333H48L49.3333 44L50.6667 42.6667H53.3333L54.6667 38.6667L53.3333 37.3333L52 36H50.6667V37.3333L52 38.6667L50.6667 40H49.3333L48 41.3333H46.6667V40H44L42.6667 38.6667H41.3333L42.6667 36L41.3333 37.3333L40 38.6667L41.3333 42.6667H44L45.3333 44Z" fill="#F0F0F0"/>
<path d="M42.6665 38.6667L44 40L45.3333 38.6667L44 33.3333L46.6665 37.3333V34.6667L45.3333 33.3333L44 32L41.3333 33.3333V34.6667L42.6665 36L41.3333 38.6667H42.6665Z" fill="#FFD400"/>
<path d="M46.6667 32V34.6667V37.3333L44 33.3333L45.3333 38.6667L44 40H46.6667V41.3333H48L49.3333 40H50.6667L52 38.6667L50.6667 37.3333V36H48L46.6667 32Z" fill="#5A2919"/>
</g>
</svg>
