<svg width="64" height="64" viewBox="0 0 64 64" fill="none" xmlns="http://www.w3.org/2000/svg">
<mask id="mask0_12133_19047" style="mask-type:luminance" maskUnits="userSpaceOnUse" x="0" y="0" width="64" height="64">
<path d="M64 0H0V64H64V0Z" fill="white"/>
</mask>
<g mask="url(#mask0_12133_19047)">
<path d="M58.5243 14.0938L51.5555 18.6669H53.3333L52 20.0003H54.6667L52 21.3336H50.6667L49.3334 22.6669L53.3334 24.0001H49.3334L45.4175 22.6948L45.091 22.9091L44 24.0001L48 25.3334L46.6667 26.6666H44L42.6667 25.3334L41.3334 26.6666H40.0001L42.0001 27.9999H46.6668L48.0001 26.6666L49.3334 25.3334H50.6667L52 26.6666V29.3334L50.6667 30.6666H46.6667L44 32L42.6667 33.3333L41.3334 30.6665H40.0001V34.6665L38.0001 35.9999L40.0001 37.3332L41.3334 38.6665L42.6667 37.3332L44 35.9999H46.6667L45.3334 37.3332L46.6667 38.6665V42.6665L45.3334 43.9998H42.6667L41.3334 42.6665V39.9998H37.3334L36.0001 38.6665H33.3334V35.9998H34.6667L29.3334 34.6665H28.0001L25.3334 35.9998L24.0001 37.333L25.3334 38.6664V37.333L26.6667 35.9998H28L26.6667 37.333V38.6664L28 37.333H29.3333L30.6666 38.6664V41.333L29.3333 42.6664H28L26.6667 41.333H25.3334L24.0001 42.6664L25.3334 43.9996V45.333H28.0001V46.6663H26.6668V49.333L25.3335 50.6663H24.0002L22.6669 49.333V46.6663L24.0002 45.333L22.6669 43.9996H21.3336V42.6664H22.6669V41.333H21.3336L20.0003 42.6664L18.667 43.9996L17.3337 45.333L14.667 46.6663V45.333H13.3337L12.0004 46.6663L9.33367 47.9995H6.85747L5.02417 49.2027C10.7083 58.0972 20.6619 63.9995 32.0004 63.9995C49.6736 63.9995 64.0004 49.6728 64.0004 31.9995C64.0004 25.3654 61.981 19.2042 58.5243 14.0938Z" fill="#FF7700"/>
<path d="M33.3333 30.6667V30.625L33.2698 30.6667H33.3333Z" fill="#FF7700"/>
<path d="M45.3333 22.668L45.0911 22.9102L45.4175 22.696L45.3333 22.668Z" fill="#FFD400"/>
<path d="M6.6667 48L8 46.6667H6.6667L12 44H9.3333L13.3333 42.6667L9.3333 41.3334H14.6666L17.3333 40.0001L20 37.3334V36.0001H17.3333L20 34.6668L21.3333 32.0001H20L22.6667 30.6668L25.3334 29.3335L24.0001 28.0002L26.6668 29.3335H29.3335V28.0002L30.6668 30.6669H33.2699L33.3335 30.6252V29.3336H34.6668V28.0003L33.3335 26.667L30.6668 28.0003L32.0001 25.3336H30.6668L32.0001 24.0003L32.6668 22.667H29.3335L32.0002 21.3337L34.6669 20.0004L30.0002 18.6671H36.0002L33.3335 17.3338H38.6668L37.3335 16.0005L42.6668 18.6672H45.3335L46.6668 20.0005H49.3335V17.3338L52.0002 14.6671L50.6669 17.3338V18.6671H51.5557L58.5245 14.0939C54.3614 7.9394 48.1091 3.3201 40.7891 1.2327C37.9953 0.4355 35.0493 0 32 0C15.7463 0 2.3324 12.1211 0.2812 27.8154C0.1021 29.1859 0 30.5807 0 32C0 38.3346 1.8481 44.234 5.0238 49.2031L6.8571 48H6.6667Z" fill="#FFD400"/>
<path d="M50.6668 17.3346L52.0001 14.668L49.3334 17.3346V20.0013H46.6668L45.3334 18.668H42.6668L37.3334 16.0013L38.6668 17.3346H33.3334L36.0001 18.668H30.0001L34.6668 20.0013L32.0001 21.3346L29.3334 22.668H32.6668L32.0001 24.0013L30.6668 25.3346H32.0001L30.6668 28.0013L33.3334 26.668L34.6668 28.0013V29.3346H33.3334V30.6263V30.668H33.2699H32.0001H30.6668L29.3334 28.0013V29.3346H26.6668L24.0001 28.0013L25.3334 29.3346L22.6668 30.668L20.0001 32.0013H21.3334L20.0001 34.668L17.3334 36.0013H20.0001V37.3346L17.3334 40.0013L14.6668 41.3346H9.33335L13.3334 42.668L9.33335 44.0013H12.0001L6.66675 46.668H8.00005L6.66675 48.0013H6.85715H9.33335L12.0001 46.668L13.3334 45.3346H14.6668V46.668L17.3334 45.3346L18.6668 44.0013L20.0001 42.668L21.3334 41.3346H22.6668V42.668H21.3334V44.0013H22.6668L24.0001 45.3346L22.6668 46.668V49.3346L24.0001 50.668H25.3334L26.6668 49.3346V48.0013V46.668H28.0001V45.3346H25.3334V44.0013L24.0001 42.668L25.3334 41.3346H26.6668L28.0001 42.668H29.3334L30.6668 41.3346V38.668L29.3334 37.3346H28.0001L26.6668 38.668V37.3346L28.0001 36.0013H26.6668L25.3334 37.3346V38.668L24.0001 37.3346L25.3334 36.0013L28.0001 34.668H29.3334L34.6668 36.0013H33.3334V38.668H36.0001L37.3334 40.0013H40.0001H41.3334V42.668L42.6668 44.0013H45.3334L46.6668 42.668V40.0013V38.668L45.3334 37.3346L46.6668 36.0013H44.0001L42.6668 37.3346L41.3334 38.668L40.0001 37.3346L38.0001 36.0013L40.0001 34.668V32.0013V30.668H41.3334L42.6668 33.3346L44.0001 32.0013L46.6668 30.668H48.0001H49.3334H50.6668L52.0001 29.3346V26.668L50.6668 25.3346H49.3334L48.0001 26.668L46.6668 28.0013H45.3334H42.0001L40.0001 26.668H41.3334L42.6668 25.3346L44.0001 26.668H46.6668L48.0001 25.3346L44.0001 24.0013L45.0911 22.9103L45.3334 22.668L45.4176 22.696L49.3334 24.0013H53.3334L49.3334 22.668L50.6668 21.3346H52.0001L54.6668 20.0013H52.0001L53.3334 18.668H51.5556H50.6668V17.3346Z" fill="white"/>
</g>
</svg>
