<svg width="64" height="64" viewBox="0 0 64 64" fill="none" xmlns="http://www.w3.org/2000/svg">
<mask id="mask0_12133_19111" style="mask-type:luminance" maskUnits="userSpaceOnUse" x="0" y="0" width="64" height="64">
<path d="M64 0H0V64H64V0Z" fill="white"/>
</mask>
<g mask="url(#mask0_12133_19111)">
<path d="M63.9999 32.0004C63.9999 23.8629 60.9573 16.4397 55.9543 10.793V53.2078C60.9572 47.5611 63.9999 40.1379 63.9999 32.0004Z" fill="#2D25C5"/>
<path d="M9.7085 9.05078C8.7215 10.0097 7.7975 11.0318 6.9404 12.1104L8.8284 13.9985L5.9999 16.827L4.6129 15.4399C1.6859 20.2708 0 25.9376 0 31.9985C0 49.6716 14.3268 63.9985 32 63.9985C38.0609 63.9985 43.7277 62.3127 48.5586 59.3856L47.0234 57.8504L49.8519 55.022L51.888 57.0582C52.9603 56.2061 53.9769 55.2881 54.931 54.3077L9.7085 9.05078ZM8.653 19.48L11.4815 16.6516L14.31 19.48L11.4815 22.3085L8.653 19.48ZM14.1344 24.9615L16.9629 22.1331L19.7914 24.9615L16.9629 27.7899L14.1344 24.9615ZM19.616 30.443L22.4445 27.6145L25.2728 30.443L22.4445 33.2714L19.616 30.443ZM25.0974 35.9245L27.9259 33.096L30.7544 35.9245L27.9259 38.7529L25.0974 35.9245ZM30.5788 41.406L33.4073 38.5775L36.2358 41.406L33.4073 44.2344L30.5788 41.406ZM36.0604 46.8875L38.8887 44.059L41.7172 46.8875L38.8887 49.7159L36.0604 46.8875ZM44.3703 55.1974L41.5418 52.3689L44.3703 49.5405L47.1988 52.3689L44.3703 55.1974Z" fill="#2D25C5"/>
<path d="M27.9258 33.0977L25.0974 35.9262L27.9258 38.7546L30.7543 35.9262L27.9258 33.0977Z" fill="white"/>
<path d="M22.4447 27.6172L19.6162 30.4457L22.4447 33.2741L25.2731 30.4457L22.4447 27.6172Z" fill="white"/>
<path d="M16.963 22.1328L14.1345 24.9612L16.9629 27.7897L19.7914 24.9613L16.963 22.1328Z" fill="white"/>
<path d="M11.4816 16.6523L8.65308 19.4807L11.4815 22.3092L14.31 19.4808L11.4816 16.6523Z" fill="white"/>
<path d="M8.82854 14.0014L6.94054 12.1133C6.09894 13.1723 5.31704 14.2808 4.61304 15.4427L6.00004 16.8298L8.82854 14.0014Z" fill="white"/>
<path d="M47.0234 57.8518L48.5586 59.387C49.7205 58.683 50.8291 57.9012 51.888 57.0596L49.8519 55.0234L47.0234 57.8518Z" fill="white"/>
<path d="M44.3704 49.543L41.542 52.3715L44.3704 55.1999L47.1988 52.3715L44.3704 49.543Z" fill="white"/>
<path d="M38.8888 44.0586L36.0605 46.8871L38.889 49.7155L41.7173 46.887L38.8888 44.0586Z" fill="white"/>
<path d="M33.4073 38.5781L30.5789 41.4065L33.4073 44.235L36.2358 41.4065L33.4073 38.5781Z" fill="white"/>
<path d="M55.9544 53.2074V10.7926C50.0918 4.1757 41.5356 0 32 0C23.3304 0 15.4714 3.4532 9.7085 9.0523L54.931 54.3091C55.2806 53.9498 55.6218 53.5827 55.9544 53.2074Z" fill="#FFD400"/>
</g>
</svg>
