<svg width="64" height="64" viewBox="0 0 64 64" fill="none" xmlns="http://www.w3.org/2000/svg">
<mask id="mask0_12133_18972" style="mask-type:luminance" maskUnits="userSpaceOnUse" x="0" y="0" width="64" height="64">
<path d="M64 0H0V64H64V0Z" fill="white"/>
</mask>
<g mask="url(#mask0_12133_18972)">
<path d="M0.700317 25.3333H63.2996C60.2318 10.8609 47.3863 0 31.9999 0C16.6135 0 3.76802 10.8609 0.700317 25.3333Z" fill="#4DAFE3"/>
<path d="M63.2995 38.668H0.700317C3.76802 53.1403 16.6136 64.0013 31.9999 64.0013C47.3862 64.0013 60.2318 53.1403 63.2995 38.668Z" fill="#4DAFE3"/>
<path d="M0.70039 38.6667H63.2997C63.4853 37.7909 63.6299 36.9006 63.7423 36H0.25769C0.37009 36.9006 0.51479 37.7909 0.70039 38.6667Z" fill="white"/>
<path d="M0.700412 25.332C0.514812 26.2078 0.370214 27.0981 0.257812 27.9987H63.7423C63.6299 27.0981 63.4853 26.2078 63.2997 25.332H0.700412Z" fill="white"/>
<path d="M0 32C0 33.3557 0.0941 34.6886 0.2577 36H63.7422C63.9059 34.6886 63.9999 33.3557 63.9999 32C63.9999 30.6443 63.9058 29.3114 63.7422 28H0.2577C0.0941 29.3114 0 30.6443 0 32Z" fill="black"/>
</g>
</svg>
