<svg width="64" height="64" viewBox="0 0 64 64" fill="none" xmlns="http://www.w3.org/2000/svg">
<mask id="mask0_12133_19038" style="mask-type:luminance" maskUnits="userSpaceOnUse" x="0" y="0" width="64" height="64">
<path d="M64 0H0V64H64V0Z" fill="white"/>
</mask>
<g mask="url(#mask0_12133_19038)">
<path d="M32 64C49.6731 64 64 49.6731 64 32C64 14.3269 49.6731 0 32 0C14.3269 0 0 14.3269 0 32C0 49.6731 14.3269 64 32 64Z" fill="white"/>
<path d="M25.3242 0.703125C23.4822 1.09413 21.7007 1.64613 19.9909 2.33923V29.334H0.1191C0.0465 30.2141 0 31.1017 0 32.0006C0 32.8995 0.0465 33.7871 0.1191 34.6673H19.9908V61.6621C21.7006 62.355 23.4822 62.9072 25.3241 63.2982V34.6673H49.9999L63.9999 32.0006L49.9999 29.3339H25.3241L25.3242 0.703125Z" fill="#191977"/>
<path d="M17.3242 37.3333V60.4334C8.54701 55.8937 2.14321 47.4157 0.450806 37.3333H17.3242ZM17.3242 3.5665C8.54701 8.1063 2.14321 16.5843 0.450806 26.6667H17.3242V3.5665ZM32 0C30.6411 0 29.3052 0.0946 27.9909 0.259V26.6667H37.3333L54.6214 9.3786C48.8326 3.5861 40.8373 0 32 0ZM27.9909 37.3333V63.741C29.3052 63.9054 30.6411 64 32 64C40.8373 64 48.8326 60.4139 54.6214 54.6214L37.3333 37.3333H27.9909Z" fill="#960A3C"/>
</g>
</svg>
