<svg width="64" height="64" viewBox="0 0 64 64" fill="none" xmlns="http://www.w3.org/2000/svg">
<mask id="mask0_12133_19240" style="mask-type:luminance" maskUnits="userSpaceOnUse" x="0" y="0" width="64" height="64">
<path d="M64 0H0V64H64V0Z" fill="white"/>
</mask>
<g mask="url(#mask0_12133_19240)">
<path d="M32 64C49.6731 64 64 49.6731 64 32C64 14.3269 49.6731 0 32 0C14.3269 0 0 14.3269 0 32C0 49.6731 14.3269 64 32 64Z" fill="#619B27"/>
<path d="M4 31.9987L32 13.332L60 31.9987L32 50.6654L4 31.9987Z" fill="#FFD400"/>
<path d="M32 44C38.6274 44 44 38.6274 44 32C44 25.3726 38.6274 20 32 20C25.3726 20 20 25.3726 20 32C20 38.6274 25.3726 44 32 44Z" fill="#191977"/>
<path d="M25.3333 28.0013C32.3967 28.0013 38.8076 30.8363 43.4981 35.4235C43.6447 34.9303 43.7523 34.4214 43.8349 33.9038C38.9632 29.4154 32.464 26.668 25.3333 26.668C23.8949 26.668 22.4828 26.7814 21.1038 26.9965C20.8868 27.4681 20.6896 27.9505 20.5343 28.4527C22.0908 28.161 23.6934 28.0013 25.3333 28.0013Z" fill="white"/>
</g>
</svg>
