<svg width="64" height="64" viewBox="0 0 64 64" fill="none" xmlns="http://www.w3.org/2000/svg">
<mask id="mask0_12133_18973" style="mask-type:luminance" maskUnits="userSpaceOnUse" x="0" y="0" width="64" height="64">
<path d="M64 0H0V64H64V0Z" fill="white"/>
</mask>
<g mask="url(#mask0_12133_18973)">
<path d="M32 64C49.6731 64 64 49.6731 64 32C64 14.3269 49.6731 0 32 0C14.3269 0 0 14.3269 0 32C0 49.6731 14.3269 64 32 64Z" fill="white"/>
<path d="M43.3844 14.9505C42.2795 14.4989 41.2161 13.963 40.2129 13.4508C40.0054 13.3449 39.8 13.2406 39.5946 13.1367L44 18.6436L43.3844 14.9505Z" fill="#191977"/>
<path d="M47.728 15.9846C47.4497 15.9759 47.172 15.9629 46.8969 15.9297L46.6666 17.3113L47.728 15.9846Z" fill="#191977"/>
<path d="M54.6667 14.6656L49.3334 18.6432L56.0001 15.9765L57.7061 16.8496C58.2128 16.7383 58.7483 16.6656 59.3335 16.6656C59.5964 16.6656 59.8582 16.683 60.1198 16.7143C59.1649 14.961 58.0487 13.3088 56.7948 11.7734C56.0061 12.0536 55.3121 12.4459 54.6669 12.8698L54.6667 14.6656Z" fill="#191977"/>
<path d="M44.4156 26.0039L39.9999 29.3342H39.9802C40.0579 29.3738 40.1347 29.4125 40.2128 29.4524C41.7934 30.2594 43.519 31.1296 45.3332 31.6154V26.2821C45.0244 26.1994 44.7187 26.1071 44.4156 26.0039Z" fill="#191977"/>
<path d="M46.6666 31.8902C47.1074 31.9538 47.551 31.999 47.9999 31.999C48.459 31.999 48.8691 31.9531 49.2589 31.8868L46.6666 27.9766V31.8902Z" fill="#191977"/>
<path d="M53.3752 24.451L56 25.3333V28H53.3333L50.2395 26.3158C49.9813 26.4028 49.7062 26.4717 49.4189 26.5278L52 29.3334V30.7674C52.4326 30.4845 52.8545 30.1736 53.2917 29.8464C54.8646 28.6683 56.6478 27.3334 59.3334 27.3334C60.8331 27.3334 62.3064 27.8786 63.8176 28.5928C63.6045 26.5804 63.2029 24.6249 62.6345 22.7414C61.5313 22.2999 60.4395 22 59.3334 22C56.6945 22 54.9283 23.2885 53.3752 24.451Z" fill="#191977"/>
<path d="M8.66668 27.3334C10.7318 27.3334 12.7461 28.3624 14.8796 29.4516C17.2188 30.6459 19.8705 32.0001 22.6667 32.0001C25.0821 32.0001 26.4147 31.0021 27.9584 29.8465C29.5313 28.6684 31.3145 27.3335 34.0001 27.3335C35.117 27.3335 36.2194 27.6395 37.3334 28.0882V26.6668L40.9541 24.4944C40.7045 24.3685 40.4561 24.2424 40.213 24.1183C39.7999 23.9074 39.3924 23.7016 38.9871 23.5023L36.0001 24.0001L35.0466 22.0933C34.6986 22.0389 34.3501 22.0001 34.0001 22.0001C31.3146 22.0001 29.5313 23.3351 27.9584 24.5131C26.4148 25.6687 25.0821 26.6667 22.6667 26.6667C19.8705 26.6667 17.2188 25.3125 14.8796 24.1182C12.7461 23.029 10.7318 22 8.66668 22C5.98118 22 4.19788 23.335 2.62498 24.513C1.94498 25.0221 1.30178 25.4944 0.593084 25.8705C0.240084 27.6894 0.0438836 29.5633 0.0131836 31.4779C0.965284 31.0772 1.76548 30.4899 2.62498 29.8464C4.19788 28.6683 5.98108 27.3334 8.66668 27.3334Z" fill="#191977"/>
<path d="M8.6667 38.0013C10.7318 38.0013 12.7461 39.0303 14.8796 40.1195C17.2188 41.3138 19.8705 42.668 22.6667 42.668C25.0821 42.668 26.4147 41.67 27.9584 40.5144C29.5313 39.3363 31.3145 38.0014 34.0001 38.0014C35.5602 38.0014 37.0914 38.5891 38.6668 39.3459V38.6456L40.0001 37.3123L41.3334 35.979H42.6628C41.8163 35.6003 40.9958 35.1859 40.2129 34.7863C38.0794 33.6971 36.0651 32.6681 34 32.6681C31.3145 32.6681 29.5312 34.0031 27.9583 35.1811C26.4147 36.3367 25.082 37.3347 22.6666 37.3347C19.8704 37.3347 17.2187 35.9805 14.8795 34.7862C12.746 33.697 10.7317 32.668 8.6666 32.668C5.9811 32.668 4.1978 34.003 2.6249 35.181C1.8648 35.75 1.155 36.2793 0.342896 36.6716C0.579096 38.2871 0.934495 39.8637 1.403 41.3913C1.8114 41.1203 2.2111 40.8242 2.625 40.5143C4.1979 39.3362 5.9811 38.0013 8.6667 38.0013Z" fill="#191977"/>
<path d="M47.614 37.3125H46.6666V38.6458H49.3333L52 39.9791V38.6458L50.6667 37.3125H48.4261C48.2841 37.32 48.1501 37.3349 48 37.3349C47.8704 37.3349 47.7429 37.3181 47.614 37.3125Z" fill="#191977"/>
<path d="M53.2917 35.181C52.6047 35.6953 51.9554 36.1723 51.2379 36.5501L52 37.3122L53.3333 38.6455V39.9788L52.9321 40.7812C53.0515 40.6927 53.1702 40.6051 53.2916 40.5143C54.8645 39.3362 56.6477 38.0013 59.3333 38.0013C60.6367 38.0013 61.9201 38.4121 63.2257 38.9883C63.5882 37.3618 63.8287 35.69 63.9331 33.9806C62.3812 33.2393 60.8713 32.668 59.3333 32.668C56.6478 32.668 54.8646 34.003 53.2917 35.181Z" fill="#191977"/>
<path d="M45.3333 38.6458V37.3125H44H41.3333L40 38.6458V39.9792L42.6667 38.6458H45.3333Z" fill="#191977"/>
<path d="M53.2916 45.8451C52.0907 46.7441 51.0109 47.5411 49.4561 47.8536L49.3334 47.9763H48.4262C48.2842 47.9838 48.1501 47.9987 48 47.9987C47.8704 47.9987 47.7431 47.9819 47.6142 47.9763H46.6667V53.2232C47.1075 53.2868 47.5511 53.332 48 53.332C50.4154 53.332 51.748 52.334 53.2917 51.1784C54.8619 50.0024 56.642 48.671 59.3197 48.6662C60.2694 47.1128 61.0835 45.4688 61.7609 43.7556C60.9528 43.4955 60.1469 43.332 59.3334 43.332C56.6479 43.332 54.8645 44.6671 53.2916 45.8451Z" fill="#191977"/>
<path d="M14.8796 50.7835C17.2188 51.9778 19.8705 53.332 22.6667 53.332C25.0821 53.332 26.4147 52.334 27.9584 51.1784C29.5313 50.0003 31.3145 48.6654 34.0001 48.6654C36.0652 48.6654 38.0795 49.6944 40.213 50.7836C41.7936 51.5906 43.5192 52.4608 45.3334 52.9466V47.9763H42.6667L41.3334 46.643V46.0147C40.9535 45.8262 40.5782 45.6368 40.213 45.4503C38.0795 44.3611 36.0652 43.3321 34.0001 43.3321C31.3146 43.3321 29.5313 44.6671 27.9584 45.8451C26.4148 47.0007 25.0821 47.9987 22.6667 47.9987C19.8705 47.9987 17.2188 46.6445 14.8796 45.4502C12.7461 44.361 10.7318 43.332 8.66666 43.332C6.19786 43.332 4.49446 44.4596 3.01306 45.5569C3.65386 46.9242 4.38906 48.2373 5.20906 49.4907C6.19196 49.0044 7.31466 48.6653 8.66676 48.6653C10.7319 48.6653 12.7461 49.6943 14.8796 50.7835Z" fill="#191977"/>
<path d="M40.2129 56.1182C38.0794 55.029 36.0651 54 34 54C31.3145 54 29.5312 55.335 27.9583 56.513C26.4147 57.6686 25.082 58.6666 22.6666 58.6666C19.8704 58.6666 17.2187 57.3124 14.8795 56.1181C12.7854 55.049 10.8061 54.0438 8.78088 54.0068C13.2202 58.689 19.0543 62.0344 25.624 63.3628C26.4583 62.9682 27.1819 62.4275 27.9583 61.8462C29.5312 60.6681 31.3144 59.3332 34 59.3332C36.0651 59.3332 38.0794 60.3622 40.2129 61.4514C40.8119 61.7572 41.4318 62.0728 42.0689 62.3741C44.9774 61.4103 47.7009 60.0438 50.1723 58.3352C49.5408 58.5405 48.8383 58.6666 48.0001 58.6666C45.2039 58.6666 42.5521 57.3125 40.2129 56.1182Z" fill="#191977"/>
<path d="M45.3333 25.3125V26.2828V31.6161V32.6683L46 32.0016L46.6665 32.6683V31.8928V27.9792L45.3333 25.3125Z" fill="#5A2919"/>
<path d="M45.3333 52.9469V57.3323H46.6665V53.2235V47.9766H45.3333V52.9469Z" fill="#5A2919"/>
<path d="M45.3332 32.6667L44.1143 33.8857L45.3332 35.1047V36.8666L43.9999 35.9777H41.3332L39.9999 37.311L38.6666 38.6443V39.9776L39.9999 42.6443L41.3332 43.9776V45.3109H50.6665V43.9776L51.9998 42.6443L52.9319 40.78L53.3331 39.9776V38.6443L51.9998 37.311L51.2377 36.5489L50.6665 35.9777H47.9998L46.6665 36.8666V35.1047L47.8854 33.8857L46.6665 32.6667L45.9998 32L45.3332 32.6667ZM41.3332 39.9776H39.9999V38.6443L41.3332 37.311H45.3332V41.311H43.9999V39.9777H42.6666V41.311H41.3333L41.3332 39.9776ZM43.9999 43.9776H42.6666V42.6443H43.9999V43.9776ZM46.6666 43.9776H45.3333V42.6443H46.6666V43.9776ZM49.3333 42.6443V43.9776H48V42.6443H49.3333ZM48.4261 37.311H50.6667L52 38.6443V39.9776H50.6667V41.3109H49.3334V39.9776H48.0001V41.3109H46.6668V37.3109L48.4261 37.311Z" fill="#FFD400"/>
<path d="M45.3333 47.9779H46.6665H47.6141H48.4261H49.3333L49.4561 47.8552L50.6665 46.6445H41.3333L42.6665 47.9779H45.3333Z" fill="#999999"/>
<path d="M46.6666 38.6445V41.3112H47.9999V39.9779H49.3332V41.3112H50.6666V39.9779H51.9999L49.3332 38.6445H46.6666Z" fill="#F0263C"/>
<path d="M42.6667 41.3112V39.9779H44V41.3112H45.3333V38.6445H42.6667L40 39.9779H41.3333V41.3112H42.6667Z" fill="#F0263C"/>
<path d="M49.4188 26.5281L48.205 25.2086L50.2394 26.3161L53.3332 28.0003H55.9999V25.3336L53.3751 24.4513L47.9999 22.6445L55.9999 19.9779L58.6666 17.3427L57.7059 16.851L55.9999 15.9779L49.3332 18.6445L54.6666 14.667V12.8711V10.667L51.9999 10.6445L47.7279 15.9845L46.6666 17.3112L46.8969 15.9296L47.7761 10.6539L47.9999 9.31123L43.9999 6.64453L43.0533 9.48443L42.6666 10.6445L43.3843 14.9515L43.9999 18.6445L39.5945 13.1377L38.6666 11.9779L37.7878 12.2757L34.6666 13.3336L35.9999 16.0003L42.6666 19.9779L42.6582 19.9758L37.3332 18.667L34.6666 21.3336L35.0464 22.0935L35.9999 24.0003L38.9869 23.5025L43.9999 22.667L40.9539 24.4946L37.3332 26.667V28.0884V29.3336H39.9802H39.9999L44.4156 26.0034L45.3332 25.3112L46.6666 27.9779L49.2589 31.8881L49.3332 32.0003H51.9999V30.7676V29.3336L49.4188 26.5281Z" fill="#619B27"/>
<path d="M46.6665 42.6445H45.3333V43.9778H46.6665V42.6445Z" fill="#191977"/>
<path d="M43.9999 42.6445H42.6666V43.9778H43.9999V42.6445Z" fill="#1E5B00"/>
<path d="M49.3333 42.6445H48V43.9778H49.3333V42.6445Z" fill="#1E5B00"/>
<path d="M26.4614 0.488281C24.2186 0.879881 22.0564 1.50308 20 2.33578V4.79598L26.4614 0.488281Z" fill="#191977"/>
<path d="M4.80737 21.3342H12.0001V16.5391L4.80737 21.3342Z" fill="#191977"/>
<path d="M49.4589 5.18907C49.0146 5.27857 48.5374 5.33467 48.0001 5.33467C45.2039 5.33467 42.5522 3.98047 40.213 2.78617C38.0795 1.69697 36.0652 0.667969 34.0001 0.667969C33.2698 0.667969 32.6109 0.772769 32.0001 0.940169V3.20617L26.8074 6.66797H32.0001V6.27357C32.6109 6.10617 33.2698 6.00137 34.0001 6.00137C36.0652 6.00137 38.0795 7.03037 40.213 8.11957C41.1162 8.58067 42.0668 9.06387 43.0535 9.48547L44.0001 6.64567L48.0001 9.31237L47.7763 10.6551C47.8512 10.657 47.925 10.6681 48.0001 10.6681C50.4155 10.6681 51.7481 9.67006 53.2918 8.51446C53.3716 8.45466 53.4549 8.39366 53.536 8.33326C52.2674 7.17836 50.9013 6.13017 49.4589 5.18907Z" fill="#191977"/>
<path d="M34.6668 13.332L37.7881 12.2741C36.5184 11.7221 35.2688 11.332 34.0002 11.332C33.2699 11.332 32.611 11.4368 32.0002 11.6042V14.6653H26.8075L32.0002 18.1271V16.9375C32.611 16.7701 33.2699 16.6653 34.0002 16.6653C36.0653 16.6653 38.0796 17.6943 40.2131 18.7835C40.9945 19.1825 41.8135 19.596 42.6585 19.9742L42.6669 19.9763L36.0002 15.9987L34.6668 13.332Z" fill="#191977"/>
<path d="M20 21.3342H27.1927L20 16.5391V21.3342Z" fill="#191977"/>
<path d="M20 6.6667H24.4036L32 1.6025V0C31.1335 0 30.2777 0.0444 29.4284 0.1119L20 6.3975V6.6667Z" fill="#F0263C"/>
<path d="M20 14.668V14.9371L29.5964 21.3346H32V19.7322L24.4036 14.668H20Z" fill="#F0263C"/>
<path d="M12 14.9371V14.668H7.59645L3.54415 17.3695C2.88725 18.6444 2.31165 19.9672 1.82825 21.3346H2.40375L12 14.9371Z" fill="#F0263C"/>
<path d="M13.3334 21.332H18.6667V13.332H32V7.99876H18.6667V2.91016C16.7831 3.77506 14.9987 4.81656 13.3334 6.01506V7.99876H10.8454C9.04316 9.58856 7.42306 11.3774 6.01636 13.332H13.3335L13.3334 21.332Z" fill="#F0263C"/>
</g>
</svg>
