<svg width="64" height="64" viewBox="0 0 64 64" fill="none" xmlns="http://www.w3.org/2000/svg">
<mask id="mask0_12133_19173" style="mask-type:luminance" maskUnits="userSpaceOnUse" x="0" y="0" width="64" height="64">
<path d="M64 0H0V64H64V0Z" fill="white"/>
</mask>
<g mask="url(#mask0_12133_19173)">
<path d="M32 0C14.3269 0 0 14.3269 0 32C0 49.6731 14.3269 64 32 64C49.6731 64 64 49.6731 64 32C64 14.3269 49.6731 0 32 0Z" fill="#191977"/>
<path d="M26.4614 0.488281C24.2186 0.879881 22.0564 1.50308 20 2.33578V4.79598L26.4614 0.488281Z" fill="#191977"/>
<path d="M32.0001 18.1298V14.668H26.8074L32.0001 18.1298Z" fill="#191977"/>
<path d="M4.80737 21.3342H12.0001V16.5391L4.80737 21.3342Z" fill="#191977"/>
<path d="M32.0001 6.66502V3.20312L26.8074 6.66502H32.0001Z" fill="#191977"/>
<path d="M20 21.3342H27.1927L20 16.5391V21.3342Z" fill="#191977"/>
<path d="M32 8.00138V6.66808H26.8073L32 3.20628V1.60388L24.4036 6.66808H20V6.39898L29.4284 0.113281C28.4256 0.193081 27.4362 0.318681 26.4614 0.488881L20 4.79658V2.33638C19.5501 2.51858 19.1061 2.71108 18.6667 2.91278V8.00138H32Z" fill="white"/>
<path d="M13.3333 6.01562C12.4708 6.63633 11.6404 7.29783 10.8453 7.99933H13.3333V6.01562Z" fill="white"/>
<path d="M18.6667 21.332H20V16.5369L27.1927 21.332H29.5964L20 14.9345V14.6654H24.4036L32 19.7296V18.1272L26.8073 14.6654H32V13.332H18.6667V21.332Z" fill="white"/>
<path d="M6.01639 13.332C5.70239 13.7684 5.39949 14.2129 5.10739 14.6653C5.08599 14.6984 5.06479 14.7317 5.04359 14.7649C4.50449 15.6063 4.00419 16.4741 3.54419 17.3669L7.59649 14.6654H12.0001V14.9345L2.40369 21.332H4.80729L12 16.5368V21.332H13.3333V13.332H6.01639Z" fill="white"/>
<path d="M20 6.6667H24.4036L32 1.6025V0C31.1335 0 30.2777 0.0444 29.4284 0.1119L20 6.3975V6.6667Z" fill="#F0263C"/>
<path d="M20 14.668V14.9371L29.5964 21.3346H32V19.7322L24.4036 14.668H20Z" fill="#F0263C"/>
<path d="M12 14.9371V14.668H7.59645L3.54415 17.3695C2.88725 18.6444 2.31165 19.9672 1.82825 21.3346H2.40375L12 14.9371Z" fill="#F0263C"/>
<path d="M13.3334 21.3321H18.6667V13.3321H32V7.99876H18.6667V2.91016C16.7831 3.77506 14.9987 4.81656 13.3334 6.01506V7.99876H10.8454C9.04316 9.58856 7.42306 11.3775 6.01636 13.3321H13.3335L13.3334 21.3321Z" fill="#F0263C"/>
<path d="M46.6642 45.332C47.9975 45.332 55.9975 43.2587 55.9975 35.8921V21.332H37.3308V35.8921C37.3308 43.2587 45.3309 45.332 46.6642 45.332Z" fill="#1E5B00"/>
<path d="M43.9929 23.9727H40L41.3298 25.306H42.6595L43.9929 23.9727Z" fill="#FFD400"/>
<path d="M43.9929 26.6367H40L41.3298 27.97H42.6595L43.9929 26.6367Z" fill="#FFD400"/>
<path d="M43.9929 29.3047H40L41.3298 30.6381H42.6595L43.9929 29.3047Z" fill="#FFD400"/>
<path d="M43.9929 34.6367H40L41.3298 35.97H42.6595L43.9929 34.6367Z" fill="#FFD400"/>
<path d="M43.9929 37.3047H40L41.3298 38.6381H42.6595L43.9929 37.3047Z" fill="#FFD400"/>
<path d="M47.9981 22.6328H45.3225V25.3084H47.9981V22.6328Z" fill="#FFAD66"/>
<path d="M47.9981 22.6328H47.9927H45.3225V23.9661H46.6594V25.2994H47.9927L47.9981 22.6328Z" fill="#F0263C"/>
<path d="M57.3335 41.3047H56L52 45.3047L46.6667 46.6381L41.3335 45.3047L37.3335 41.3047H36L34.6667 42.6381L36 43.9714H37.3335L41.3335 47.9714L46.6667 49.3047L52 47.9714L56 43.9714H57.3335L58.6667 42.6381L57.3335 41.3047Z" fill="#FFD400"/>
<path d="M49.3306 41.3053L47.9973 25.3008H45.3306L43.9973 41.3053H49.3306Z" fill="white"/>
<path d="M53.3236 23.9727H49.3308L50.6605 25.306H51.9903L53.3236 23.9727Z" fill="#FFD400"/>
<path d="M53.3236 26.6367H49.3308L50.6605 27.97H51.9903L53.3236 26.6367Z" fill="#FFD400"/>
<path d="M53.3236 29.3047H49.3308L50.6605 30.6381H51.9903L53.3236 29.3047Z" fill="#FFD400"/>
<path d="M53.3236 34.6367H49.3308L50.6605 35.97H51.9903L53.3236 34.6367Z" fill="#FFD400"/>
<path d="M53.3236 37.3047H49.3308L50.6605 38.6381H51.9903L53.3236 37.3047Z" fill="#FFD400"/>
<path d="M53.3236 31.9727H49.3308L50.6605 33.306H51.9903L53.3236 31.9727Z" fill="#FFD400"/>
<path d="M45.3334 31.9727H41.3406L42.6703 33.306H44.0001L45.3334 31.9727Z" fill="#FFD400"/>
</g>
</svg>
