<svg width="64" height="64" viewBox="0 0 64 64" fill="none" xmlns="http://www.w3.org/2000/svg">
<g clip-path="url(#clip0_12133_19048)">
<mask id="mask0_12133_19048" style="mask-type:luminance" maskUnits="userSpaceOnUse" x="0" y="0" width="64" height="64">
<path d="M64 0H0V64H64V0Z" fill="white"/>
</mask>
<g mask="url(#mask0_12133_19048)">
<path d="M41 31.6681C41 29.9524 40.5093 28.3565 39.6744 26.9935L38.6666 28.0014H37.3334L36 29.3347H34.6667L33.3335 26.668V28.0013L32.6667 28.668L33.3335 29.3347L32.6667 30.668L33 32.0013L38.6814 37.6826C40.1181 36.0878 41 33.9836 41 31.6681Z" fill="white"/>
<path d="M30.6667 29.3346L31.3333 28.668L30.6667 28.0013V26.668L29.6667 28.668L31 30.0013L30.6667 29.3346Z" fill="white"/>
<path d="M9.88452 8.88496L25.9048 24.9053L28 23.3338H30L31 24.3338L31.5555 22.6671H29.3333L30.6666 20.0004H31.3333V16.0004L34.6666 16.6671L32.6666 17.3338L34.6666 18.0005L32.6666 18.6672V20.0005H33.3333L34.6666 22.6672H32.4444L32.9999 24.3339L33.9999 23.3339H35.9999L38.6666 25.3339H41.3333L40 26.6672L39.7812 26.886C41.3663 28.7008 42.3333 31.0683 42.3333 33.6673C42.3333 35.8393 41.6601 37.8525 40.5153 39.5159L55.1156 54.1161C58.6179 50.4564 61.2583 45.9692 62.7154 40.9741L23.0266 1.28516C18.0315 2.74216 13.5443 5.38246 9.88452 8.88496ZM44.0001 38.6671V32.0004L46.6668 30.6671V29.3338L48.0001 28.0005H49.3334V32.0005L48.0001 33.3338L46.6668 34.6671V38.6671L48.0001 40.0004L46.6668 41.3337H45.3335L42.6668 40.0004L44.0001 38.6671Z" fill="white"/>
<path d="M25.3333 46.6683H24L22.6667 45.335L21.3334 46.0017L18.6667 46.6684L20 45.3351V44.0018L21.3333 42.6685H22.6666V42.4103L20.6165 40.3603L18.6666 41.3352H17.3333L16 40.0019L17.3333 38.6686V37.077L1.7682 21.5117C0.6276 24.799 0 28.3261 0 32.0016C0 49.6747 14.3268 64.0016 32 64.0016C35.6755 64.0016 39.2026 63.3739 42.4899 62.2334L25.8639 45.6073L25.3333 46.6683Z" fill="#FFD400"/>
<path d="M64.0001 32C64.0001 14.3268 49.6733 0 32.0001 0C28.8836 0 25.8748 0.4539 23.0266 1.2847L62.7154 40.9735C63.5463 38.1254 64.0001 35.1165 64.0001 32Z" fill="#FFD400"/>
<path d="M32.0001 43.9983C26.2931 43.9983 21.6668 39.3719 21.6668 33.665C21.6668 31.066 22.6338 28.6985 24.2189 26.8837L24.0001 26.6649L22.6668 25.3316H25.3335L25.905 24.9031L9.88451 8.88281C6.25851 12.353 3.44881 16.6649 1.76831 21.5084L17.3334 37.0734V34.665L16.0001 33.3317L14.6668 31.9984V27.9984H16.0001L17.3334 29.3317V30.665L20.0001 31.9983V38.665L21.3334 39.9983L20.6166 40.3567L22.6667 42.4067V41.3316H24L25.3333 42.6649H26.6666L29.9999 45.3316H33.9999L37.3332 42.6649H38.6665L39.9998 41.3316H41.3331V42.6649H42.6664L43.9997 43.9982V45.3315L45.333 46.6648L42.6663 45.9981L41.333 45.3314L39.9997 46.6647H38.6664L37.9997 45.3314L35.9997 46.6647L34.6664 47.998H29.3331L27.9998 46.6647L25.9998 45.3314L25.8637 45.6037L42.4897 62.2298C47.3331 60.5493 51.645 57.7396 55.1154 54.1135L40.5151 39.5133C38.652 42.2207 35.5349 43.9983 32.0001 43.9983Z" fill="black"/>
<path d="M32 40.6668C34.6549 40.6668 37.034 39.5102 38.6813 37.6814L33 32.0001L33.3333 33.3334V34.6667L32.6666 36L33.3333 37.3333V38.6666H34.6666L33.3333 39.9999H30.6666L29.3333 38.6666H30.6666V37.3333L31.3333 36L30.6666 34.6667V33.3334L31.3333 30.6667L31 30L29.6667 28.6667L29.3334 29.3334H28.0001L26.6668 28.0001H25.3335L24.3257 26.9922C23.4907 28.3552 23.0002 29.9511 23.0002 31.6668C23.0002 36.6373 27.0295 40.6668 32 40.6668Z" fill="black"/>
<path d="M48 28L46.6667 29.3333V30.6667L44 32V38.6667L42.6667 40L45.3335 41.3333H46.6667L48 40L46.6667 38.6667V34.6667L48 33.3333L49.3335 32V29.3333V28H48Z" fill="#F0263C"/>
<path d="M20.6165 40.3584L21.3333 40L20 38.6667V32L17.3333 30.6667V29.3333L16 28H14.6667V29.3333V32L16 33.3333L17.3333 34.6667V37.0751V38.6667L16 40L17.3333 41.3333H18.6667L20.6165 40.3584Z" fill="#F0263C"/>
<path d="M44 43.9987L42.6667 42.6654H41.3333V41.332H40L38.6667 42.6654H37.3333L34 45.332H32H30L26.6667 42.6654H25.3333L24 41.332H22.6667V42.4071V42.6654H21.3333L20 43.9987V45.332L18.6667 46.6654L21.3333 45.9987L22.6667 45.332L24 46.6654H25.3333L25.8639 45.6043L26 45.332L28 46.6654L29.3333 47.9987H30.6667H32H33.3333H34.6667L36 46.6654L38 45.332L38.6667 46.6654H40L41.3333 45.332L42.6667 45.9987L45.3333 46.6654L44 45.332V43.9987Z" fill="#F0263C"/>
<path d="M31.9999 44.0002C35.5347 44.0002 38.6521 42.2229 40.5152 39.5155C41.6601 37.8521 42.3332 35.8389 42.3332 33.6669C42.3332 31.0679 41.3662 28.7004 39.7811 26.8856L39.9999 26.6668L41.3332 25.3335H38.6665L35.9998 23.3335H33.9998L32.9998 24.3335L32.4443 22.6668H34.6665L33.3332 20.0001H32.6665V18.6668L34.6665 18.0001L32.6665 17.3334L34.6665 16.6667L31.3332 16V20H30.6665L29.3332 22.6667H31.5554L30.9999 24.3334L29.9999 23.3334H27.9999L25.9047 24.9049L25.3332 25.3334H22.6665L23.9998 26.6667L24.2186 26.8855C22.6335 28.7003 21.6665 31.0678 21.6665 33.6668C21.6665 39.3737 26.2929 44.0002 31.9999 44.0002ZM24.3254 26.9923L25.3332 28.0002H26.6665L27.9998 29.3335H29.3331L29.6664 28.6668L30.6664 26.6668V28.0001L31.3331 28.6668L30.6664 29.3335L30.9997 30.0002L31.333 30.6669L30.6663 33.3336V34.6669L31.333 36.0002L30.6663 37.3335V38.6668H29.333L30.6663 40.0001H33.333L34.6663 38.6668H33.333V37.3335L32.6663 36.0002L33.333 34.6669V33.3336L32.9997 32.0003L32.6664 30.667L33.3331 29.3337L32.6664 28.667L33.3331 28.0003V26.667L34.6664 29.3337H35.9997L37.333 28.0004H38.6663L39.6741 26.9925C40.5091 28.3555 40.9996 29.9514 40.9996 31.6671C40.9996 33.9826 40.1176 36.0869 38.6809 37.6817C37.0336 39.5105 34.6545 40.6671 31.9996 40.6671C27.0291 40.6671 22.9996 36.6376 22.9996 31.6671C22.9996 29.9514 23.4905 28.3553 24.3254 26.9923Z" fill="#F0263C"/>
</g>
</g>
<defs>
<clipPath id="clip0_12133_19048">
<rect width="64" height="64" fill="white"/>
</clipPath>
</defs>
</svg>
