<svg width="64" height="64" viewBox="0 0 64 64" fill="none" xmlns="http://www.w3.org/2000/svg">
<mask id="mask0_12133_18974" style="mask-type:luminance" maskUnits="userSpaceOnUse" x="0" y="0" width="64" height="64">
<path d="M64 0H0V64H64V0Z" fill="white"/>
</mask>
<g mask="url(#mask0_12133_18974)">
<path d="M38.0928 32L35.7484 33.7033L36.7328 36.7328L38.0652 40.8333L32.0001 36.4266L25.935 40.8333L28.2517 33.7033L25.9073 32H0C0 49.6731 14.3268 64 32 64C49.6732 64 64 49.6731 64 32H38.0928Z" fill="#619B27"/>
<path d="M22.1864 29.2967H29.6833L32 22.1667L34.3167 29.2967H41.8136L38.0927 32H63.9999C64 14.3269 49.6732 0 32 0C14.3268 0 0 14.3269 0 32H25.9072L22.1864 29.2967Z" fill="#F0263C"/>
<path d="M34.3167 29.298L32 22.168L29.6833 29.298H29.2967H22.1864L25.9072 32.0013L28.2516 33.7046L25.9349 40.8346L32 36.428L38.0651 40.8346L36.7327 36.7341L35.7484 33.7046L38.0928 32.0013L41.8136 29.298H34.3167Z" fill="#FFD400"/>
</g>
</svg>
