<svg width="64" height="64" viewBox="0 0 64 64" fill="none" xmlns="http://www.w3.org/2000/svg">
<mask id="mask0_12133_18975" style="mask-type:luminance" maskUnits="userSpaceOnUse" x="0" y="0" width="64" height="64">
<path d="M64 0H0V64H64V0Z" fill="white"/>
</mask>
<g mask="url(#mask0_12133_18975)">
<path d="M45.1338 22.8672C46.9387 25.4575 48.0001 28.6045 48.0001 32.0009C48.0001 35.3973 46.9387 38.5443 45.1338 41.1346L56.536 52.5368C61.1927 46.979 64 39.8189 64 32.0008C64 24.1827 61.1927 17.0227 56.536 11.4648L45.1338 22.8672Z" fill="#619B27"/>
<path d="M18.8663 41.1345C17.0614 38.5442 16 35.3972 16 32.0008C16 28.6044 17.0614 25.4574 18.8663 22.8671L7.464 11.4648C2.8073 17.0227 0 24.1827 0 32.0008C0 39.8189 2.8073 46.9789 7.464 52.5368L18.8663 41.1345Z" fill="#619B27"/>
<path d="M22.8663 18.8663C25.4566 17.0614 28.6036 16 32 16C35.3964 16 38.5434 17.0614 41.1337 18.8663L52.5359 7.4641C46.9781 2.8073 39.8181 0 32 0C24.1819 0 17.0219 2.8073 11.464 7.464L22.8663 18.8663Z" fill="#F0263C"/>
<path d="M41.1337 45.1328C38.5434 46.9377 35.3964 47.9991 32 47.9991C28.6036 47.9991 25.4566 46.9377 22.8663 45.1328L11.4641 56.535C17.0219 61.1917 24.182 63.999 32.0001 63.999C39.8182 63.999 46.9782 61.1917 52.5361 56.535L41.1337 45.1328Z" fill="#F0263C"/>
<path d="M48 32.0009C48 28.6044 46.9386 25.4575 45.1338 22.8672L56.536 11.465C55.3227 10.017 53.9841 8.67824 52.536 7.46494L41.1338 18.8672C38.5435 17.0623 35.3965 16.0009 32 16.0009C28.6035 16.0009 25.4565 17.0623 22.8662 18.8672L11.464 7.46484C10.0159 8.67814 8.67729 10.0169 7.46399 11.4649L18.8662 22.8671C17.0613 25.4574 16 28.6044 16 32.0008C16 35.3972 17.0614 38.5442 18.8662 41.1345L7.46399 52.5367C8.67729 53.9848 10.0159 55.3234 11.464 56.5367L22.8662 45.1345C25.4565 46.9394 28.6035 48.0008 32 48.0008C35.3965 48.0008 38.5435 46.9394 41.1338 45.1345L52.536 56.5367C53.9841 55.3234 55.3227 53.9848 56.536 52.5367L45.1338 41.1345C46.9387 38.5442 48 35.3973 48 32.0009Z" fill="white"/>
<path d="M34.6666 23.9987L32 21.332L29.3334 23.9987L32 26.6653L34.6666 23.9987Z" fill="#F0263C"/>
<path d="M32 21.3333L34.6667 24L32 26.6667L29.3333 24L32 21.3333ZM28 24L32 28L36 24L32 20L28 24Z" fill="#619B27"/>
<path d="M41.3334 37.3346L38.6667 34.668L36.0001 37.3346L38.6668 40.0013L41.3334 37.3346Z" fill="#F0263C"/>
<path d="M38.6667 34.6653L41.3335 37.332L38.6667 39.9987L36 37.332L38.6667 34.6653ZM34.6667 37.332L38.6667 41.332L42.6667 37.332L38.6667 33.332L34.6667 37.332Z" fill="#619B27"/>
<path d="M27.9999 37.3347L25.3333 34.668L22.6666 37.3347L25.3333 40.0013L27.9999 37.3347Z" fill="#F0263C"/>
<path d="M25.3333 34.6653L28 37.332L25.3333 39.9987L22.6666 37.332L25.3333 34.6653ZM21.3333 37.332L25.3333 41.332L29.3333 37.332L25.3333 33.332L21.3333 37.332Z" fill="#619B27"/>
</g>
</svg>
