<svg width="64" height="64" viewBox="0 0 64 64" fill="none" xmlns="http://www.w3.org/2000/svg">
<mask id="mask0_12133_19050" style="mask-type:luminance" maskUnits="userSpaceOnUse" x="0" y="0" width="64" height="64">
<path d="M64 0H0V64H64V0Z" fill="white"/>
</mask>
<g mask="url(#mask0_12133_19050)">
<path d="M32.0001 0C20.1577 0 9.82545 6.4379 4.29175 16H59.7085C54.1747 6.4379 43.8425 0 32.0001 0Z" fill="#2D25C5"/>
<path d="M32.0001 64.0001C43.7524 64.0001 54.0187 57.6607 59.5827 48.2188H4.41748C9.98148 57.6607 20.2478 64.0001 32.0001 64.0001Z" fill="#2D25C5"/>
<path d="M4.2917 16C1.5671 20.7079 0 26.1693 0 32C0 37.9208 1.6143 43.4619 4.4174 48.2186H59.5826C62.3857 43.4618 64 37.9207 64 32C64 26.1693 62.4329 20.7079 59.7083 16H4.2917Z" fill="#960A3C"/>
<path d="M52 42.668V41.3346H50.6667V40.0013H49.3334V38.668H48V37.3346L46.6667 36.0013V33.3346L48 32.0013V29.3346L46.6667 28.0013V26.668H45.3334V24.0013L44 22.668L42.6667 24.0013V26.668H41.3333V29.3346H36V26.668H34.6667V24.0013V21.3346H33.3333V20.0013L32 18.668L30.6667 20.0013V21.3346H29.3333V24.0013V26.668H28V29.3346H22.6667V26.668H21.3333V24.0013L20 22.668L18.6667 24.0013V26.668H17.3333V28.0013L16 29.3346V32.0013L17.3333 33.3346V36.0013L16 37.3346V38.668H14.6667V40.0013H13.3333V41.3346H12V42.668H10.6667V45.3346H53.3334V42.668H52Z" fill="white"/>
<path d="M20 32H18.6667V36H20V32Z" fill="#999999"/>
<path d="M22.6666 32H21.3333V36H22.6666V32Z" fill="#999999"/>
<path d="M28 32H26.6667V36H28V32Z" fill="#999999"/>
<path d="M30.6666 32H29.3333V36H30.6666V32Z" fill="#999999"/>
<path d="M34.6665 32H33.3333V36H34.6665V32Z" fill="#999999"/>
<path d="M37.3333 32H36V36H37.3333V32Z" fill="#999999"/>
<path d="M45.3333 32H44V36H45.3333V32Z" fill="#999999"/>
<path d="M42.6665 32H41.3333V36H42.6665V32Z" fill="#999999"/>
<path d="M34.6666 28H29.3333V29.3333H34.6666V28Z" fill="#999999"/>
<path d="M21.3334 28H18.6667V29.3333H21.3334V28Z" fill="#999999"/>
<path d="M45.3335 28H42.6667V29.3333H45.3335V28Z" fill="#999999"/>
<path d="M33.3334 25.332H30.6667V26.6653H33.3334V25.332Z" fill="#999999"/>
<path d="M33.3334 22.668H30.6667V24.0013H33.3334V22.668Z" fill="#999999"/>
<path d="M22.6666 38.668H17.3333V40.0013H22.6666V38.668Z" fill="#999999"/>
<path d="M20 41.332H14.6667V42.6653H20V41.332Z" fill="#999999"/>
<path d="M30.6666 38.668H25.3333V40.0013H30.6666V38.668Z" fill="#999999"/>
<path d="M28 41.332H22.6667V42.6653H28V41.332Z" fill="#999999"/>
<path d="M46.6665 38.668H41.3333V40.0013H46.6665V38.668Z" fill="#999999"/>
<path d="M49.3333 41.332H44V42.6653H49.3333V41.332Z" fill="#999999"/>
<path d="M38.6665 38.668H33.3333V40.0013H38.6665V38.668Z" fill="#999999"/>
<path d="M41.3333 41.332H36V42.6653H41.3333V41.332Z" fill="#999999"/>
</g>
</svg>
