<svg width="64" height="64" viewBox="0 0 64 64" fill="none" xmlns="http://www.w3.org/2000/svg">
<mask id="mask0_12133_18976" style="mask-type:luminance" maskUnits="userSpaceOnUse" x="0" y="0" width="64" height="64">
<path d="M64 0H0V64H64V0Z" fill="white"/>
</mask>
<g mask="url(#mask0_12133_18976)">
<path d="M32 0C28.2588 0 24.6704 0.6483 21.3333 1.8281V62.1719C24.6704 63.3518 28.2588 64 32 64C35.7412 64 39.3296 63.3517 42.6667 62.1719V1.8281C39.3296 0.6483 35.7412 0 32 0ZM38.0651 41.3333L32 36.9267L25.9349 41.3333L28.2516 34.2033L22.1863 29.7967H29.6832L31.9999 22.6667L34.3166 29.7967H41.8135L35.7484 34.2033L38.0651 41.3333Z" fill="#F0263C"/>
<path d="M0 32C0 45.932 8.9061 57.7782 21.3333 62.1719V1.82812C8.9061 6.22183 0 18.068 0 32Z" fill="#1E5B00"/>
<path d="M42.6667 1.82812V62.1719C55.0939 57.7782 64 45.932 64 32C64 18.068 55.0939 6.22183 42.6667 1.82812Z" fill="#FFD400"/>
<path d="M34.3166 29.798L31.9999 22.668L29.6832 29.798H22.1863L28.2515 34.2046L25.9348 41.3346L31.9999 36.9281L38.065 41.3346L35.7484 34.2046L41.8135 29.798H34.3166Z" fill="#FFD400"/>
</g>
</svg>
