<svg width="64" height="64" viewBox="0 0 64 64" fill="none" xmlns="http://www.w3.org/2000/svg">
<mask id="mask0_12133_19174" style="mask-type:luminance" maskUnits="userSpaceOnUse" x="0" y="0" width="64" height="64">
<path d="M64 0H0V64H64V0Z" fill="white"/>
</mask>
<g mask="url(#mask0_12133_19174)">
<path d="M32 64C49.6731 64 64 49.6731 64 32C64 14.3269 49.6731 0 32 0C14.3269 0 0 14.3269 0 32C0 49.6731 14.3269 64 32 64Z" fill="white"/>
<path d="M0 32.0013C0 43.8437 6.438 54.1759 16 59.7096V4.29297C6.438 9.82657 0 20.1589 0 32.0013Z" fill="#F0263C"/>
<path d="M48 4.29297V59.7097C57.562 54.176 64 43.8438 64 32.0014C64 20.159 57.562 9.82657 48 4.29297Z" fill="#F0263C"/>
<path d="M46.6667 31.9987L44 30.6654L45.3333 26.6654L41.3333 27.9987L40 25.332L36 29.332L37.3333 21.332L34.7026 22.6377L32 17.332L29.2974 22.6377L26.6667 21.332L28 29.332L24 25.332L22.6667 27.9987L18.6667 26.6654L20 30.6654L17.3333 31.9987L25.3333 38.6654L24 41.332L30.6667 39.9987V46.6654H33.3333V39.9987L40 41.332L38.6667 38.6654L46.6667 31.9987Z" fill="#F0263C"/>
</g>
</svg>
