<svg width="64" height="64" viewBox="0 0 64 64" fill="none" xmlns="http://www.w3.org/2000/svg">
<mask id="mask0_12133_18978" style="mask-type:luminance" maskUnits="userSpaceOnUse" x="0" y="0" width="64" height="64">
<path d="M64 0H0V64H64V0Z" fill="white"/>
</mask>
<g mask="url(#mask0_12133_18978)">
<path d="M64 32C64 14.3269 49.6731 0 32 0C14.3269 0 0 14.3269 0 32C0 32.6724 0.0276 33.3379 0.0685 34H63.9315C63.9724 33.3379 64 32.6724 64 32Z" fill="#191977"/>
<path d="M33.6621 63.957C33.1094 63.9764 32.5578 63.9998 32 63.9998C32.5575 63.9998 33.1116 63.9852 33.6621 63.957Z" fill="#191977"/>
<path d="M32 63.9998C31.4423 63.9998 30.8906 63.9764 30.3379 63.957C30.8884 63.9852 31.4425 63.9998 32 63.9998Z" fill="#191977"/>
<path d="M2.61005 44.6653H61.39C62.1262 42.9596 62.7132 41.1759 63.1458 39.332H0.854248C1.28685 41.1759 1.87395 42.9596 2.61005 44.6653Z" fill="#F0263C"/>
<path d="M63.1458 39.3333C63.5513 37.6047 63.8189 35.8238 63.9315 34H0.0684814C0.181081 35.8239 0.448681 37.6048 0.854181 39.3333H63.1458Z" fill="white"/>
<path d="M5.54219 50.0013H58.4577C59.5967 48.3304 60.5796 46.5454 61.3899 44.668H2.60999C3.42029 46.5454 4.40319 48.3304 5.54219 50.0013Z" fill="white"/>
<path d="M58.4579 50H5.54224C11.0104 58.0218 20.0288 63.4296 30.338 63.9572C30.8907 63.9766 31.4423 64 32.0001 64C32.5579 64 33.1095 63.9766 33.6622 63.9572C43.9714 63.4297 52.9898 58.0218 58.4579 50Z" fill="#191977"/>
<path d="M28.0002 24.3086L25.6431 26.6653L27.9999 29.0224L30.357 26.6657L28.0002 24.3086Z" fill="#FFD400"/>
<path d="M37.3335 26.9766L34.9764 29.3334L37.3331 31.6905L39.6902 29.3337L37.3335 26.9766Z" fill="#FFD400"/>
<path d="M42.6668 34.3086L40.3098 36.6654L42.6665 39.0225L45.0236 36.6657L42.6668 34.3086Z" fill="#FFD400"/>
<path d="M42.6668 44.9766L40.3098 47.3334L42.6665 49.6905L45.0236 47.3337L42.6668 44.9766Z" fill="#FFD400"/>
<path d="M28.0002 54.9766L25.6431 57.3333L27.9999 59.6904L30.357 57.3337L28.0002 54.9766Z" fill="#FFD400"/>
<path d="M37.3335 51.6445L34.9764 54.0013L37.3331 56.3584L39.6902 54.0016L37.3335 51.6445Z" fill="#FFD400"/>
<path d="M18.6669 26.9766L16.3098 29.3333L18.6666 31.6904L21.0237 29.3337L18.6669 26.9766Z" fill="#FFD400"/>
<path d="M13.3335 34.3086L10.9764 36.6654L13.3331 39.0225L15.6902 36.6657L13.3335 34.3086Z" fill="#FFD400"/>
<path d="M13.3335 44.9766L10.9764 47.3334L13.3331 49.6905L15.6902 47.3337L13.3335 44.9766Z" fill="#FFD400"/>
<path d="M18.6668 51.6445L16.3098 54.0012L18.6665 56.3583L21.0236 54.0016L18.6668 51.6445Z" fill="#FFD400"/>
</g>
</svg>
