<svg width="64" height="64" viewBox="0 0 64 64" fill="none" xmlns="http://www.w3.org/2000/svg">
<mask id="mask0_12133_19177" style="mask-type:luminance" maskUnits="userSpaceOnUse" x="0" y="0" width="64" height="64">
<path d="M64 0H0V64H64V0Z" fill="white"/>
</mask>
<g mask="url(#mask0_12133_19177)">
<path d="M32 64C49.6731 64 64 49.6731 64 32C64 14.3269 49.6731 0 32 0C14.3269 0 0 14.3269 0 32C0 49.6731 14.3269 64 32 64Z" fill="#191977"/>
<path d="M32 8.00138V6.66808H26.8073L32 3.20628V1.60388L24.4036 6.66808H20V6.39898L29.4284 0.113281C28.4256 0.193081 27.4362 0.318681 26.4614 0.488881L20 4.79658V2.33638C19.5501 2.51858 19.1061 2.71108 18.6667 2.91278V8.00138H32Z" fill="white"/>
<path d="M13.3333 6.01562C12.4708 6.63633 11.6404 7.29782 10.8453 7.99932H13.3333V6.01562Z" fill="white"/>
<path d="M18.6667 21.332H20V16.5369L27.1927 21.332H29.5964L20 14.9345V14.6654H24.4036L32 19.7296V18.1272L26.8073 14.6654H32V13.332H18.6667V21.332Z" fill="white"/>
<path d="M6.01639 13.332C5.70239 13.7684 5.39949 14.2129 5.10739 14.6653C5.08599 14.6984 5.06479 14.7317 5.04359 14.7649C4.50449 15.6063 4.00419 16.4741 3.54419 17.3669L7.59649 14.6654H12.0001V14.9345L2.40369 21.332H4.80729L12 16.5368V21.332H13.3333V13.332H6.01639Z" fill="white"/>
<path d="M20 6.6667H24.4036L32 1.6025V0C31.1335 0 30.2777 0.0444 29.4284 0.1119L20 6.3975V6.6667Z" fill="#F0263C"/>
<path d="M20 14.668V14.9371L29.5964 21.3346H32V19.7322L24.4036 14.668H20Z" fill="#F0263C"/>
<path d="M12 14.9371V14.668H7.59645L3.54415 17.3695C2.88725 18.6444 2.31165 19.9672 1.82825 21.3346H2.40375L12 14.9371Z" fill="#F0263C"/>
<path d="M13.3334 21.332H18.6667V13.332H32V7.99876H18.6667V2.91016C16.7831 3.77506 14.9987 4.81656 13.3334 6.01506V7.99876H10.8454C9.04316 9.58856 7.42306 11.3774 6.01636 13.332H13.3335L13.3334 21.332Z" fill="#F0263C"/>
<path d="M44.6667 37.9987H46H47.3335L50 39.332H51.3335L48 35.9987L48.1334 35.8654L47.3335 35.332H44.6667L43.778 35.7765L44 35.9987L40.6667 39.332H42L44.6667 37.9987Z" fill="white"/>
<path d="M42 31.3333L44.6666 30H47.3334L50 31.3333H52.6667L55.3335 30V24H36.6667V30L39.3335 31.3333H42ZM38 28.6666H40.6666L38 27.3333V26H39.3332L40.6665 27.3333H41.9999V24.6666H44.6665V25.9999H49.9999L47.3331 24.6666H51.3331L52.6665 25.9999L49.9997 27.3332L51.333 28.6665H53.9997V29.9998H49.9997L47.333 28.6665H44.6664L41.9996 29.9998H37.9996L38 28.6666Z" fill="#F0263C"/>
<path d="M36.6667 32.668V35.3346L37.5555 35.7791L39.3335 34.0013L36.6667 32.668Z" fill="#6D8DE4"/>
<path d="M44.6667 35.3346H47.3333L48.1333 35.868L50 34.0013L47.3333 32.668H44.6667L42 34.0013L43.7778 35.7791L44.6667 35.3346Z" fill="#6D8DE4"/>
<path d="M55.3335 35.3346V32.668L52.6667 34.0013L54.4445 35.7791L55.3335 35.3346Z" fill="#6D8DE4"/>
<path d="M40.6667 42H42L42.8888 41.5555L42.6667 41.3333L46 38H44.6667L42 39.3333H40.6667H39.3333L37.0946 38.2139L37.8454 41.2174L38 41.3333L39.3333 42H40.6667Z" fill="#6D8DE4"/>
<path d="M47.3333 38H46L49.3333 41.3333L48.9333 41.7333L49.3333 42H52.6667L54 41.3333L54.1546 41.2174L54.9054 38.2139L52.6667 39.3333H51.3333H50L47.3333 38Z" fill="#6D8DE4"/>
<path d="M44.6667 43.332L42.2666 44.532L42.6269 44.8022L46 45.9266L49.3731 44.8022L49.7334 44.532L47.3333 43.332L46 44.6654L44.6667 43.332Z" fill="#6D8DE4"/>
<path d="M39.091 43.8167L42 45.9985L46 47.3318L50 45.9985L51.3334 44.9985L52.9091 43.8167L53.5555 43.3319L54.5716 42.57L55.3335 41.9986L56.6668 36.6653V21.332H52.6668V22.6653H50V21.332H47.3334V22.6653H44.6666V21.332H42V22.6653H39.3333V21.332H35.3333V36.6653L36.6665 41.9986L37.4285 42.57L38.4445 43.3319L39.091 43.8167ZM36.6668 23.9985H55.3335V29.9985L52.6668 31.3318H50L47.3334 29.9985H44.6666L42 31.3318H39.3333L36.6665 29.9985L36.6668 23.9985ZM37.8455 41.2159L37.0947 38.2125L39.3335 39.3319H40.6668L37.3335 35.9986L37.5556 35.7764L36.6669 35.3319V32.6652L39.3335 33.9985L40.6669 32.6652L42.0001 33.9985L44.6669 32.6652H47.3335L50.0003 33.9985L51.3335 32.6652L52.6669 33.9985L55.3335 32.6652V35.3319L54.4448 35.7764L54.667 35.9986L51.3336 39.3319H52.667L54.9058 38.2125L54.1549 41.2159L54.0004 41.3319L52.667 41.9986H49.3338L48.9338 41.7319L47.3338 43.3319L49.7338 44.5319L49.3736 44.8021L46.0005 45.9264L42.6273 44.8021L42.2671 44.5319L44.6671 43.3319L42.8894 41.5541L42.0005 41.9986H39.3339L38.0005 41.3319L37.8455 41.2159Z" fill="white"/>
<path d="M43.7778 35.7791L42 34.0013L40.6665 32.668L39.3333 34.0013L37.5555 35.7791L37.3333 36.0013L40.6665 39.3346L44 36.0013L43.7778 35.7791Z" fill="#1E5B00"/>
<path d="M48 36.0013L51.3333 39.3346L54.6667 36.0013L54.4445 35.7791L52.6667 34.0013L51.3333 32.668L50 34.0013L48.1333 35.868L48 36.0013Z" fill="#1E5B00"/>
<path d="M46 38L42.6667 41.3333L42.889 41.5555L44.6667 43.3333L46 44.6667L47.3335 43.3333L48.9333 41.7333L49.3335 41.3333L46 38Z" fill="#1E5B00"/>
<path d="M44.6667 28.668H47.3333L50 30.0013H54V28.668H51.3333L50 27.3346L52.6667 26.0013L51.3333 24.668H47.3333L50 26.0013H48.6667H44.6667V24.668H42V27.3346H40.6667L39.3333 26.0013H38V27.3346L40.6667 28.668H38V30.0013H42L44.6667 28.668Z" fill="#FFD400"/>
<path d="M44.6667 20H50V21.3333H51.3333H52.6667L51.3333 20L52.6667 18.6667V17.3333L50 18.6667H44.6667H43.3333V17.3333H42L40.6667 16H39.3333L38 17.3333L40.6667 18.6667H42L40.6667 20L42 21.3333H44.6667V20Z" fill="#619B27"/>
<path d="M47.3335 14.668L50 16.0013L51.3335 14.668H50L51.3335 13.3346H50L51.3335 12.0013H50V10.668L47.3335 12.0013V10.668L45.3335 12.0013L43.3335 10.668V12.0013H40.6667L42 13.3346H40.6667L42 14.668H40.6667L42 16.0013L43.3335 14.668H47.3335Z" fill="#CC9500"/>
<path d="M43.3335 17.3346V18.668H44.6667H50L52.6667 17.3346L50 16.0013L47.3335 14.668H43.3335L42 16.0013H40.6667L42 17.3346H43.3335Z" fill="#1E5B00"/>
<path d="M39.091 43.8171L38.4445 43.3322L37.4286 42.5703L36.6667 43.3322L38 45.3322L39.091 43.8171Z" fill="#FF7700"/>
<path d="M34.6667 46H34V48L35.3333 47.3333L34.6667 46Z" fill="#FF7700"/>
<path d="M52.9091 43.8171L54 45.3322L55.3333 43.3322L54.5715 42.5703L53.5555 43.3322L52.9091 43.8171Z" fill="#FF7700"/>
<path d="M57.3333 45.9987H55.3333L56.6667 44.6654L55.3333 43.332L54 45.332L52.9091 43.8169L51.3333 44.9987L52 46.6654L50 47.332L46 47.9987L42 47.332L40 46.6654L40.6667 44.9987L39.0909 43.8169L38 45.332L36.6667 43.332L35.3333 44.6654L36.6667 45.9987H34.6667L35.3333 47.332L34 47.9987L35.3333 48.6654H38.6667L42 49.9987L46 50.6654L50 49.9987L53.3333 48.6654H56.6667L58 47.9987L56.6667 47.332L57.3333 45.9987Z" fill="#FFD400"/>
<path d="M57.3335 46L56.6667 47.3333L58 48V46H57.3335Z" fill="#FF7700"/>
</g>
</svg>
