<svg width="64" height="64" viewBox="0 0 64 64" fill="none" xmlns="http://www.w3.org/2000/svg">
<mask id="mask0_12133_18980" style="mask-type:luminance" maskUnits="userSpaceOnUse" x="0" y="0" width="64" height="64">
<path d="M64 0H0V64H64V0Z" fill="white"/>
</mask>
<g mask="url(#mask0_12133_18980)">
<path d="M26.6667 18.668H2.9114C1.0472 22.7281 0 27.2411 0 32.0013H26.6667V18.668Z" fill="white"/>
<path d="M37.3333 32.0013H64C64 27.2411 62.9528 22.7281 61.0886 18.668H37.3334L37.3333 32.0013Z" fill="white"/>
<path d="M37.3334 32V45.3333H61.0886C62.9528 41.2732 64 36.7601 64 32H37.3334Z" fill="#619B27"/>
<path d="M26.6667 32H0C0 36.7602 1.0472 41.2732 2.9114 45.3333H26.6666L26.6667 32Z" fill="#619B27"/>
<path d="M2.91138 45.332C7.25638 54.7951 16.077 61.7703 26.6666 63.5478V45.332H2.91138Z" fill="#FFD400"/>
<path d="M37.3333 63.5478C47.923 61.7703 56.7436 54.7951 61.0885 45.332H37.3333V63.5478Z" fill="#FFD400"/>
<path d="M61.0886 18.6651C56.7436 9.20192 47.923 2.22682 37.3333 0.449219V18.665L61.0886 18.6651Z" fill="#191977"/>
<path d="M26.6667 0.449219C16.077 2.22682 7.25638 9.20192 2.91138 18.6651H26.6666L26.6667 0.449219ZM22.5489 18.6508L18 15.3458L13.4511 18.6508L15.1886 13.3033L10.6397 9.99841H16.2624L17.9999 4.65092L19.7374 9.99841H25.3601L20.8112 13.3033L22.5489 18.6508Z" fill="#191977"/>
<path d="M37.3333 32V0.4508C35.598 0.1595 33.8181 0 32 0C30.1819 0 28.402 0.1595 26.6667 0.4508V63.5491C28.402 63.8404 30.182 63.9999 32 63.9999C33.818 63.9999 35.598 63.8404 37.3333 63.5491V32Z" fill="#F0263C"/>
<path d="M19.7375 9.99984L18 4.65234L16.2625 9.99984H10.6398L15.1886 13.3047L13.4511 18.6523L18 15.3473L22.5489 18.6523L20.8114 13.3047L25.3602 9.99984H19.7375Z" fill="#FFD400"/>
</g>
</svg>
