<svg width="64" height="64" viewBox="0 0 64 64" fill="none" xmlns="http://www.w3.org/2000/svg">
<mask id="mask0_12133_18979" style="mask-type:luminance" maskUnits="userSpaceOnUse" x="0" y="0" width="64" height="64">
<path d="M64 0H0V64H64V0Z" fill="white"/>
</mask>
<g mask="url(#mask0_12133_18979)">
<mask id="mask1_12133_18979" style="mask-type:luminance" maskUnits="userSpaceOnUse" x="0" y="0" width="64" height="64">
<path d="M64 0H0V64H64V0Z" fill="white"/>
</mask>
<g mask="url(#mask1_12133_18979)">
<path d="M32 64C49.6731 64 64 49.6731 64 32C64 14.3269 49.6731 0 32 0C14.3269 0 0 14.3269 0 32C0 49.6731 14.3269 64 32 64Z" fill="#191977"/>
<path d="M32.4666 43.5391L29.4232 46.5826L32.771 49.9304L34.8 47.9014L38.1478 51.2492L42.9159 46.5826L40.5826 44.1478L36.829 47.9014L32.4666 43.5391Z" fill="#4DAFE3"/>
<path d="M21.9159 19.4979L23.9449 17.4689L22.6261 16.1501L23.6406 15.1356L22.6261 14.1211L15.829 20.8168L16.8435 21.8313L20.5971 18.1791L21.9159 19.4979Z" fill="#4DAFE3"/>
<path d="M27.3941 31.6714L30.742 28.3236L31.7565 29.3381L33.0754 27.9178L32.0609 26.9033L32.771 26.2946L30.742 24.2656L28.7129 26.2946L27.3941 24.8743L24.9594 27.3091L26.684 28.9323L24.9594 30.6569L27.6985 33.3961L28.4087 32.6859L27.3941 31.6714Z" fill="#4DAFE3"/>
<path d="M30.7419 24.2667L32.7709 26.2957L36.1187 22.8464L35.5101 22.2377L37.1332 20.5131L36.1187 19.4986L37.8434 17.774L34.7999 14.7305L32.7709 16.7595L35.5101 19.4986L30.7419 24.2667Z" fill="#4DAFE3"/>
<path d="M25.9739 19.4963L23.9449 17.4673L21.916 19.4963L27.3942 24.8731L28.7131 26.2934L30.742 24.2644L35.5102 19.4963L32.771 16.7571L28.7131 12.6992L27.3942 14.1194L29.4232 16.1484L25.9739 19.4963Z" fill="#619B27"/>
<path d="M23.3362 25.5855L24.9594 27.3102L27.3942 24.8754L21.9159 19.4986L20.5971 18.1797L16.8435 21.8319L13.8 24.8754L20.5971 31.6725L21.6116 30.658L19.8869 28.9333L23.3362 25.5855Z" fill="#FFD400"/>
<path d="M34.0898 33.7006L36.5246 31.3673L33.0754 27.918L31.7565 29.3383L34.0898 31.6716L30.742 35.0194L28.4087 32.6861L27.6985 33.3962L26.6841 34.4107L31.7565 39.4832L35.8145 35.4252L34.0898 33.7006Z" fill="#619B27"/>
<path d="M45.6551 32.3798L42.9159 29.6406L38.858 33.6986L36.5246 31.3653L34.0898 33.6986L35.8145 35.4233L36.829 34.4088L38.5536 36.0319L40.1768 34.4088L40.8869 33.6986L44.2348 37.0464L47.6841 33.6986L45.9594 31.974L45.6551 32.3798Z" fill="#4DAFE3"/>
<path d="M36.1188 22.8438L32.771 26.2931L32.0609 26.9018L33.0753 27.9163L36.5246 31.3656L38.858 33.6988L42.9159 29.6409L42.2058 28.9307L44.9449 26.2931L41.5971 22.8438L38.858 25.583L36.1188 22.8438Z" fill="#FFD400"/>
<path d="M37.5391 37.0478L38.5536 36.0333L36.829 34.4102L35.8145 35.4246L31.7565 39.4826L30.0319 41.1058L32.4666 43.5406L36.829 47.9029L40.5826 44.1493L43.6261 41.1058L41.9014 39.4826L40.8869 40.4971L37.5391 37.0478Z" fill="#FFD400"/>
<path d="M23.9449 17.4673L25.9739 19.4963L29.4232 16.1484L27.3942 14.1194L25.9739 12.6992L23.6406 15.1339L22.6261 16.1484L23.9449 17.4673Z" fill="#FFD400"/>
<path d="M39.5681 22.845L37.1333 20.5117L35.5101 22.2363L36.1188 22.845L38.858 25.5841L41.5971 22.845L42.2058 22.2363L41.5971 21.5262L41.1913 21.2218L39.5681 22.845Z" fill="#619B27"/>
<path d="M37.1333 20.5107L39.5681 22.844L41.1913 21.2208L42.9159 19.4962L39.5681 16.1484L37.8435 17.7716L36.1188 19.4962L37.1333 20.5107Z" fill="#FFD400"/>
<path d="M42.2058 28.9337L42.9159 29.6439L45.6551 32.383L45.9594 31.9772L49.0029 28.9337L45.6551 25.5859L44.9449 26.296L42.2058 28.9337Z" fill="#619B27"/>
<path d="M24.9594 27.3105L23.3362 25.5859L19.887 28.9337L21.6116 30.6583L23.3362 32.383L24.9594 30.6583L26.6841 28.9337L24.9594 27.3105Z" fill="#619B27"/>
<path d="M40.1768 34.4094L38.5536 36.0325L37.5391 37.047L40.8869 40.4963L41.9014 39.4818L44.2348 37.047L40.8869 33.6992L40.1768 34.4094Z" fill="#619B27"/>
<path d="M27.3942 31.672L28.4087 32.6865L30.742 35.0198L34.0898 31.672L31.7565 29.3387L30.742 28.3242L27.3942 31.672Z" fill="#FFD400"/>
<path d="M32.771 49.9313L31.4521 51.2502L34.8 54.6994L36.1188 53.2791L38.1478 51.2502L34.8 47.9023L32.771 49.9313Z" fill="#619B27"/>
</g>
</g>
</svg>
