<svg width="64" height="64" viewBox="0 0 64 64" fill="none" xmlns="http://www.w3.org/2000/svg">
<mask id="mask0_12133_19051" style="mask-type:luminance" maskUnits="userSpaceOnUse" x="0" y="0" width="64" height="64">
<path d="M64 0H0V64H64V0Z" fill="white"/>
</mask>
<g mask="url(#mask0_12133_19051)">
<path d="M32 64C49.6731 64 64 49.6731 64 32C64 14.3269 49.6731 0 32 0C14.3269 0 0 14.3269 0 32C0 49.6731 14.3269 64 32 64Z" fill="#F0263C"/>
<path d="M13.3334 14.668L8 20.0014L13.3334 25.3347L18.6667 20.0014L13.3334 14.668Z" fill="#FFD400"/>
<path d="M22.6665 8L19.9999 10.6666L22.6665 13.3333L25.3332 10.6666L22.6665 8Z" fill="#FFD400"/>
<path d="M22.6665 26.668L19.9999 29.3347L22.6665 32.0013L25.3332 29.3347L22.6665 26.668Z" fill="#FFD400"/>
<path d="M27.9999 21.332L25.3333 23.9987L27.9999 26.6653L30.6665 23.9987L27.9999 21.332Z" fill="#FFD400"/>
<path d="M28 13.332L25.3334 15.9986L28 18.6653L30.6667 15.9986L28 13.332Z" fill="#FFD400"/>
</g>
</svg>
