<svg width="64" height="64" viewBox="0 0 64 64" fill="none" xmlns="http://www.w3.org/2000/svg">
<mask id="mask0_12133_19209" style="mask-type:luminance" maskUnits="userSpaceOnUse" x="0" y="0" width="64" height="64">
<path d="M64 0H0V64H64V0Z" fill="white"/>
</mask>
<g mask="url(#mask0_12133_19209)">
<path d="M31.9999 0C23.1633 0 15.1633 3.5817 9.37256 9.3726L26.343 26.3432C27.7908 24.8955 29.7908 24.0001 31.9999 24.0001C36.4182 24.0001 39.9999 27.5818 39.9999 32.0001C39.9999 34.2092 39.1045 36.2092 37.6568 37.657L54.6273 54.6276C60.4182 48.8367 63.9999 40.8367 63.9999 32.0002C63.9999 14.3268 49.6731 0 31.9999 0ZM58.6666 30.6667L55.9999 32L53.3332 33.3333L47.9999 36L43.9999 37.3333H38.6666L43.9999 36L47.9999 34.6667L51.9999 32V29.3333L50.6666 26.6666L47.9999 25.3333L45.3332 24L42.6665 21.3333H45.3332L49.3332 22.6666L51.9999 23.9999L53.3332 25.3332V22.6665L51.9999 19.9998L49.3332 14.6665V13.3332L55.9999 18.6665L57.3332 21.3332V27.9999H59.9999L61.3332 29.3332H59.9999L58.6666 30.6667Z" fill="#619B27"/>
<path d="M32 39.9985C27.5817 39.9985 24 36.4168 24 31.9985C24 29.7894 24.8954 27.7894 26.3431 26.3416L9.3726 9.37109C3.5817 15.1619 0 23.1619 0 31.9985C0 49.6717 14.3268 63.9985 32 63.9985C40.8366 63.9985 48.8366 60.4168 54.6274 54.6259L37.6569 37.6553C36.2091 39.103 34.2091 39.9985 32 39.9985ZM5.3333 37.3318L2.6666 34.6651L5.3333 31.9984L8 34.6651L5.3333 37.3318ZM9.3333 25.3318L12 22.6651L14.6667 25.3318L12 27.9985L9.3333 25.3318ZM13.3333 47.9985L10.6666 45.3318L13.3333 42.6651L16 45.3318L13.3333 47.9985ZM14.6666 38.6652L12.6666 36.6652L14.6666 34.6652L16.6666 36.6652L14.6666 38.6652ZM18.6666 33.3319L15.9999 30.6652L18.6666 27.9985L21.3333 30.6652L18.6666 33.3319Z" fill="#191977"/>
<path d="M32 40C34.2091 40 36.2091 39.1046 37.6569 37.6569C39.1046 36.2092 40 34.2091 40 32C40 27.5817 36.4183 24 32 24C29.7909 24 27.7909 24.8954 26.3431 26.3431C24.8954 27.7908 24 29.7908 24 32C24 36.4183 27.5817 40 32 40ZM33.3333 30.6667L34.6666 28H35.9999L37.3332 29.3333V30.6666L35.9999 31.9999L34.6666 33.3332V35.9999L33.3333 37.3332L32 35.9999V34.6666L30.6667 33.3333H28L26.6667 34.6666V33.3333L28 32V30.6667L26.6667 29.3334H28L29.3333 30.6667H33.3333Z" fill="#FFD400"/>
<path d="M18.6665 28L15.9999 30.6667L18.6665 33.3333L21.3332 30.6667L18.6665 28Z" fill="white"/>
<path d="M11.9999 22.668L9.33325 25.3347L11.9999 28.0013L14.6665 25.3347L11.9999 22.668Z" fill="white"/>
<path d="M5.33339 32L2.66675 34.6667L5.33339 37.3333L8.00003 34.6667L5.33339 32Z" fill="white"/>
<path d="M13.3333 42.668L10.6666 45.3346L13.3333 48.0013L15.9999 45.3346L13.3333 42.668Z" fill="white"/>
<path d="M14.6667 34.668L12.6667 36.6679L14.6667 38.6679L16.6666 36.6679L14.6667 34.668Z" fill="white"/>
<path d="M28 29.3333H26.6667L28 30.6667V32L26.6667 33.3333V34.6667L28 33.3333H29.3333H30.6667L32 34.6667V36L33.3333 37.3333L34.6667 36V33.3333L36 32L37.3333 30.6667V29.3333L36 28H34.6667L33.3333 30.6667H29.3333L28 29.3333Z" fill="#619B27"/>
<path d="M60 27.9987H57.3334V26.6654V21.332L56 18.6654L49.3334 13.332V14.6654L52 19.9987L53.3334 22.6654V25.332L52 23.9987L49.3334 22.6654L45.3334 21.332H42.6667L45.3334 23.9987L48 25.332L50.6667 26.6654L52 29.332V31.9987L48 34.6654L44 35.9987L38.6667 37.332H44L48 35.9987L53.3334 33.332L56 31.9987L58.6667 30.6654L60 29.332H61.3334L60 27.9987Z" fill="#FFD400"/>
</g>
</svg>
