<svg width="64" height="64" viewBox="0 0 64 64" fill="none" xmlns="http://www.w3.org/2000/svg">
<mask id="mask0_12133_19210" style="mask-type:luminance" maskUnits="userSpaceOnUse" x="0" y="0" width="64" height="64">
<path d="M64 0H0V64H64V0Z" fill="white"/>
</mask>
<g mask="url(#mask0_12133_19210)">
<path d="M32 64C49.6731 64 64 49.6731 64 32C64 14.3269 49.6731 0 32 0C14.3269 0 0 14.3269 0 32C0 49.6731 14.3269 64 32 64Z" fill="#619B27"/>
<path d="M47.9999 20L45.3333 22.6667L47.9999 25.3333L50.6665 22.6667L47.9999 20Z" fill="#FFD400"/>
<path d="M54.6666 26.668L52 29.3347L54.6666 32.0013L57.3333 29.3347L54.6666 26.668Z" fill="#FFD400"/>
<path d="M40.0001 29.332L37.3335 31.9986L40.0001 34.6653L42.6668 31.9986L40.0001 29.332Z" fill="#FFD400"/>
<path d="M48.0001 41.332L45.3335 43.9987L48.0001 46.6653L50.6668 43.9987L48.0001 41.332Z" fill="#FFD400"/>
<path d="M50.6667 32.668L48.6667 34.668L50.6667 36.668L52.6667 34.668L50.6667 32.668Z" fill="#FFD400"/>
<path d="M27.9118 32C27.9118 28.3645 30.8591 25.4172 34.4946 25.4172C35.5298 25.4172 36.5053 25.6627 37.3768 26.0885C35.9555 24.7951 34.0731 24 32 24C27.5816 24 24 27.5816 24 32C24 36.4184 27.5816 40 32 40C34.073 40 35.9555 39.2049 37.3768 37.9113C36.5053 38.3371 35.5297 38.5828 34.4946 38.5828C30.8591 38.5828 27.9118 35.6355 27.9118 32Z" fill="#FFD400"/>
<path d="M12 33.3346C16.0501 33.3346 19.3333 30.0514 19.3333 26.0013C19.3333 21.9512 16.0501 18.668 12 18.668C7.94998 18.668 4.66675 21.9512 4.66675 26.0013C4.66675 30.0514 7.94998 33.3346 12 33.3346Z" fill="#FFD400"/>
<path d="M12 29.332L10.6667 31.9987H12H14.6667L13.3333 30.6654V26.6654L12 25.332V29.332Z" fill="#5A2919"/>
<path d="M16 24V22.6667L13.3333 24L14.6667 22.6667L16 21.3333L13.3333 20L12.6667 22.6667L10.6667 21.3333H8.00005L10.6667 24H8.00005L6.66675 25.3333H10.6667L8.00005 28H10.6667L12 26.6667V25.3333L14.6667 28H16L14.6667 25.3333H17.3333L16 24Z" fill="#1E5B00"/>
</g>
</svg>
