<svg width="64" height="64" viewBox="0 0 64 64" fill="none" xmlns="http://www.w3.org/2000/svg">
<mask id="mask0_12133_18982" style="mask-type:luminance" maskUnits="userSpaceOnUse" x="0" y="0" width="64" height="64">
<path d="M64 0H0V64H64V0Z" fill="white"/>
</mask>
<g mask="url(#mask0_12133_18982)">
<path d="M59.7083 16C54.1746 6.4378 43.8424 0 32 0C23.1629 0 15.1693 3.5876 9.38049 9.3805L16 16H59.7083Z" fill="#FFD400"/>
<path d="M32 32H64C64 26.1693 62.4329 20.7077 59.7083 16H16L32 32Z" fill="white"/>
<path d="M9.38049 54.6195C15.1692 60.4121 23.1629 64 32 64C43.8424 64 54.1746 57.5618 59.7083 48H16L9.38049 54.6195Z" fill="#2D25C5"/>
<path d="M32 32L16 48H59.7083C62.4329 43.292 64 37.8307 64 32H32Z" fill="#F0263C"/>
<path d="M32 31.9985L9.3788 9.37729L9.3726 9.37109C3.5817 15.162 0 23.162 0 31.9985C0 40.835 3.5817 48.835 9.3726 54.6259L9.3788 54.6197L32 31.9985Z" fill="#619B27"/>
<path d="M7.99998 31.9987C7.99998 26.7994 11.7218 22.4744 16.6454 21.5291C15.9961 21.4042 15.328 21.332 14.6417 21.332C8.75058 21.332 3.97498 26.1076 3.97498 31.9987C3.97498 37.8898 8.75058 42.6654 14.6417 42.6654C15.3279 42.6654 15.996 42.5932 16.6453 42.4683C11.7217 41.523 7.99998 37.198 7.99998 31.9987Z" fill="white"/>
<path d="M16 27.332L14 29.332L16 31.3319L18 29.332L16 27.332Z" fill="white"/>
<path d="M16.0001 32.668L14.0001 34.668L16.0001 36.668L18.0001 34.668L16.0001 32.668Z" fill="white"/>
<path d="M16 37.332L14 39.332L16 41.332L18 39.332L16 37.332Z" fill="white"/>
<path d="M16 22.668L14 24.668L16 26.668L18 24.668L16 22.668Z" fill="white"/>
</g>
</svg>
