<svg width="64" height="64" viewBox="0 0 64 64" fill="none" xmlns="http://www.w3.org/2000/svg">
<mask id="mask0_12133_19212" style="mask-type:luminance" maskUnits="userSpaceOnUse" x="0" y="0" width="64" height="64">
<path d="M64 0H0V64H64V0Z" fill="white"/>
</mask>
<g mask="url(#mask0_12133_19212)">
<path d="M32 64C49.6731 64 64 49.6731 64 32C64 14.3269 49.6731 0 32 0C14.3269 0 0 14.3269 0 32C0 49.6731 14.3269 64 32 64Z" fill="#191977"/>
<path d="M32 64C49.6731 64 64 49.6731 64 32C64 14.3269 49.6731 0 32 0C14.3269 0 0 14.3269 0 32C0 49.6731 14.3269 64 32 64Z" fill="#191977"/>
<path d="M49.556 20.6264L47.9999 19.0703L46.4438 20.6264L47.9999 22.1826L49.556 20.6264Z" fill="white"/>
<path d="M44.7379 20.9918L42.6833 20.2031L41.8947 22.2577L43.9492 23.0463L44.7379 20.9918Z" fill="white"/>
<path d="M40.4836 23.2812L38.2859 23.3963L38.4011 25.594L40.5988 25.479L40.4836 23.2812Z" fill="white"/>
<path d="M37.5291 27.1055L35.5682 28.1046L36.5673 30.0654L38.5282 29.0663L37.5291 27.1055Z" fill="white"/>
<path d="M36.3849 31.8008L35 33.5111L36.7103 34.896L38.0952 33.1858L36.3849 31.8008Z" fill="white"/>
<path d="M37.2493 36.5547L36.6797 38.6804L38.8054 39.25L39.375 37.1243L37.2493 36.5547Z" fill="white"/>
<path d="M39.9725 40.5435L40.3168 42.7171L42.4904 42.3728L42.1461 40.1992L39.9725 40.5435Z" fill="white"/>
<path d="M44.0836 43.0814L45.2822 44.9271L47.1279 43.7285L45.9293 41.8828L44.0836 43.0814Z" fill="white"/>
<path d="M48.8721 43.7284L50.7178 44.927L51.9164 43.0814L50.0707 41.8828L48.8721 43.7284Z" fill="white"/>
<path d="M53.5096 42.3728L55.6832 42.7171L56.0275 40.5435L53.8539 40.1992L53.5096 42.3728Z" fill="white"/>
<path d="M57.1946 39.25L59.3203 38.6804L58.7507 36.5547L56.625 37.1242L57.1946 39.25Z" fill="white"/>
<path d="M59.2897 34.8921L61 33.5072L59.6151 31.7969L57.9048 33.1819L59.2897 34.8921Z" fill="white"/>
<path d="M59.4328 30.0654L60.4319 28.1046L58.471 27.1055L57.4719 29.0663L59.4328 30.0654Z" fill="white"/>
<path d="M57.5988 25.5942L57.714 23.3965L55.5163 23.2812L55.4012 25.479L57.5988 25.5942Z" fill="white"/>
<path d="M54.1053 22.2576L53.3167 20.2031L51.2621 20.9918L52.0508 23.0463L54.1053 22.2576Z" fill="white"/>
<path d="M32 8.00138V6.66808H26.8073L32 3.20628V1.60388L24.4036 6.66808H20V6.39898L29.4284 0.113281C28.4256 0.193081 27.4362 0.318681 26.4614 0.488881L20 4.79658V2.33638C19.5501 2.51858 19.1061 2.71108 18.6667 2.91278V8.00138H32Z" fill="white"/>
<path d="M13.3333 6.01562C12.4708 6.63633 11.6404 7.29782 10.8453 7.99932H13.3333V6.01562Z" fill="white"/>
<path d="M18.6667 21.332H20V16.5369L27.1927 21.332H29.5964L20 14.9345V14.6654H24.4036L32 19.7296V18.1272L26.8073 14.6654H32V13.332H18.6667V21.332Z" fill="white"/>
<path d="M6.01639 13.332C5.70239 13.7684 5.39949 14.2129 5.10739 14.6653C5.08599 14.6984 5.06479 14.7317 5.04359 14.7649C4.50449 15.6063 4.00419 16.4741 3.54419 17.3669L7.59649 14.6654H12.0001V14.9345L2.40369 21.332H4.80729L12 16.5368V21.332H13.3333V13.332H6.01639Z" fill="white"/>
<path d="M20 6.6667H24.4036L32 1.6025V0C31.1335 0 30.2777 0.0444 29.4284 0.1119L20 6.3975V6.6667Z" fill="#F0263C"/>
<path d="M20 14.668V14.9371L29.5964 21.3346H32V19.7322L24.4036 14.668H20Z" fill="#F0263C"/>
<path d="M12 14.9371V14.668H7.59645L3.54415 17.3695C2.88725 18.6444 2.31165 19.9672 1.82825 21.3346H2.40375L12 14.9371Z" fill="#F0263C"/>
<path d="M13.3334 21.332H18.6667V13.332H32V7.99876H18.6667V2.91016C16.7831 3.77506 14.9987 4.81656 13.3334 6.01506V7.99876H10.8454C9.04316 9.58856 7.42306 11.3774 6.01636 13.332H13.3335L13.3334 21.332Z" fill="#F0263C"/>
</g>
</svg>
