<svg width="64" height="64" viewBox="0 0 64 64" fill="none" xmlns="http://www.w3.org/2000/svg">
<mask id="mask0_12133_19099" style="mask-type:luminance" maskUnits="userSpaceOnUse" x="0" y="0" width="64" height="64">
<path d="M64 0H0V64H64V0Z" fill="white"/>
</mask>
<g mask="url(#mask0_12133_19099)">
<path d="M0 31.9987C0 35.7399 0.6482 39.3282 1.8281 42.6654H62.1719C63.3518 39.3283 64 35.7399 64 31.9987C64 28.2575 63.3518 24.6692 62.1719 21.332H1.8281C0.6482 24.6692 0 28.2575 0 31.9987Z" fill="#F0263C"/>
<path d="M11.3332 40C15.7515 40 19.3332 36.4183 19.3332 32C19.3332 27.5817 15.7515 24 11.3332 24C6.91497 24 3.33325 27.5817 3.33325 32C3.33325 36.4183 6.91497 40 11.3332 40Z" fill="white"/>
<path d="M11.3333 37.3346C14.2788 37.3346 16.6666 34.9468 16.6666 32.0013C16.6666 29.0558 14.2788 26.668 11.3333 26.668C8.3878 26.668 6 29.0558 6 32.0013C6 34.9468 8.3878 37.3346 11.3333 37.3346Z" fill="#CC9500"/>
<path d="M11.2686 35.9983C13.0286 36.0222 14.5382 34.9041 15.0985 33.332H7.5625C8.1016 34.8653 9.5471 35.9749 11.2686 35.9983Z" fill="#191977"/>
<path d="M11.3981 28.0004C9.63814 27.9765 8.12854 29.0946 7.56824 30.6667H15.1042C14.5651 29.1334 13.1196 28.0238 11.3981 28.0004Z" fill="#4DAFE3"/>
<path d="M15.3327 32.0557C15.3406 31.5683 15.2567 31.1021 15.104 30.668H7.56841C7.42551 31.069 7.34131 31.4981 7.33401 31.947C7.32611 32.4344 7.40991 32.9006 7.56261 33.3347H15.0986C15.2415 32.9337 15.3254 32.5046 15.3327 32.0557Z" fill="#1E5B00"/>
<path d="M11.3332 40C15.7515 40 19.3332 36.4183 19.3332 32C19.3332 27.5817 15.7515 24 11.3332 24C6.91497 24 3.33325 27.5817 3.33325 32C3.33325 36.4183 6.91497 40 11.3332 40Z" fill="white"/>
<path d="M11.3333 37.3346C14.2788 37.3346 16.6666 34.9468 16.6666 32.0013C16.6666 29.0558 14.2788 26.668 11.3333 26.668C8.3878 26.668 6 29.0558 6 32.0013C6 34.9468 8.3878 37.3346 11.3333 37.3346Z" fill="#CC9500"/>
<path d="M11.2686 35.9983C13.0286 36.0222 14.5382 34.9041 15.0985 33.332H7.5625C8.1016 34.8653 9.5471 35.9749 11.2686 35.9983Z" fill="#191977"/>
<path d="M11.3981 28.0004C9.63814 27.9765 8.12854 29.0946 7.56824 30.6667H15.1042C14.5651 29.1334 13.1196 28.0238 11.3981 28.0004Z" fill="#4DAFE3"/>
<path d="M15.3327 32.0557C15.3406 31.5683 15.2567 31.1021 15.104 30.668H7.56841C7.42551 31.069 7.34131 31.4981 7.33401 31.947C7.32611 32.4344 7.40991 32.9006 7.56261 33.3347H15.0986C15.2415 32.9337 15.3254 32.5046 15.3327 32.0557Z" fill="#1E5B00"/>
<path d="M1.82812 21.3347H62.1719C60.7665 17.3598 58.6007 13.7458 55.8452 10.668H8.15473C5.39922 13.7458 3.23353 17.3598 1.82812 21.3347Z" fill="white"/>
<path d="M8.15473 53.3347H55.8452C58.6007 50.2569 60.7665 46.6429 62.1719 42.668H1.82812C3.23353 46.6429 5.39922 50.2569 8.15473 53.3347Z" fill="white"/>
<path d="M8.15466 10.6667H55.8452C49.9859 4.1219 41.4757 0 32 0C22.5243 0 14.0141 4.1219 8.15466 10.6667Z" fill="#191977"/>
<path d="M55.8453 53.332H8.15466C14.014 59.8768 22.5242 63.9987 32 63.9987C41.4758 63.9987 49.9859 59.8768 55.8453 53.332Z" fill="#191977"/>
</g>
</svg>
