<svg width="64" height="64" viewBox="0 0 64 64" fill="none" xmlns="http://www.w3.org/2000/svg">
<mask id="mask0_12133_19114" style="mask-type:luminance" maskUnits="userSpaceOnUse" x="0" y="0" width="64" height="64">
<path d="M64 0H0V64H64V0Z" fill="white"/>
</mask>
<g mask="url(#mask0_12133_19114)">
<path d="M62.1719 42.668H1.82812C6.22192 55.0952 18.0681 64.0013 32 64.0013C45.9319 64.0013 57.7782 55.0952 62.1719 42.668Z" fill="#191977"/>
<path d="M1.82812 21.3333H62.1719C57.7782 8.9061 45.9319 0 32 0C18.0681 0 6.22183 8.9061 1.82812 21.3333Z" fill="#F0263C"/>
<path d="M0 31.9987C0 35.7399 0.6482 39.3282 1.8281 42.6654H62.1719C63.3518 39.3283 64 35.7399 64 31.9987C64 28.2575 63.3518 24.6692 62.1719 21.332H1.8281C0.6482 24.6692 0 28.2575 0 31.9987Z" fill="white"/>
<path d="M34.6666 32H29.3333V37.3333H34.6666V32Z" fill="#F0263C"/>
<path d="M34.6666 26.668H29.3333V32.0013H34.6666V26.668Z" fill="white"/>
<path d="M34.6666 21.332H29.3333V26.6653H34.6666V21.332Z" fill="#F0263C"/>
<path d="M40 26.668H34.6667V32.0013H40V26.668Z" fill="#F0263C"/>
<path d="M40 21.332H34.6667V26.6653H40V21.332Z" fill="white"/>
<path d="M24 32.0014V26.668H18.6667V32.0014H18.9344H24Z" fill="white"/>
<path d="M24 21.332H18.6667V26.6653H24V21.332Z" fill="#F0263C"/>
<path d="M29.3333 26.668H24V32.0013H29.3333V26.668Z" fill="#F0263C"/>
<path d="M29.3333 21.332H24V26.6653H29.3333V21.332Z" fill="white"/>
<path d="M40 32.0014H45.0656H45.3333V26.668H40V32.0014Z" fill="white"/>
<path d="M45.3333 21.332H40V26.6653H45.3333V21.332Z" fill="#F0263C"/>
<path d="M18.9344 32H18.6667V34.6667C18.6667 35.5801 18.7595 36.4716 18.9344 37.3334H24V32.0001L18.9344 32Z" fill="#F0263C"/>
<path d="M29.3333 37.332H24V42.6653H29.3333V37.332Z" fill="#F0263C"/>
<path d="M40 37.332H34.6667V42.6653H40V37.332Z" fill="#F0263C"/>
<path d="M40 32.0001V37.3334H45.0656C45.2406 36.4717 45.3333 35.5801 45.3333 34.6667V32L40 32.0001Z" fill="#F0263C"/>
<path d="M29.3333 42.668V47.7336C30.195 47.9086 31.0866 48.0013 32 48.0013C32.9134 48.0013 33.8049 47.9085 34.6667 47.7336V42.668H29.3333Z" fill="#F0263C"/>
<path d="M21.3514 42.668C22.1062 43.6711 22.9968 44.5617 23.9999 45.3165V42.668H21.3514Z" fill="#F0263C"/>
<path d="M24 42.668V45.3165C25.5524 46.4848 27.359 47.3328 29.3333 47.7336V42.668H24Z" fill="white"/>
<path d="M34.6667 47.7336C36.641 47.3328 38.4476 46.4848 40 45.3165V42.668H34.6667V47.7336Z" fill="white"/>
<path d="M42.6485 42.668H40V45.3165C41.0031 44.5617 41.8937 43.6711 42.6485 42.668Z" fill="#F0263C"/>
<path d="M24 13.3333L21.3333 12L18.6666 13.3333V21.3333C20.3077 20.6166 22.1194 20.0414 23.9999 19.6045L24 13.3333Z" fill="#4DAFE3"/>
<path d="M29.3333 18.783V13.3333L26.6666 12L23.9999 13.3333V19.6045C25.7411 19.2 27.54 18.9234 29.3333 18.783Z" fill="#191977"/>
<path d="M32 18.6666C32.8798 18.6666 33.7723 18.713 34.6667 18.783V13.3333L32 12L29.3333 13.3333V18.783C30.2277 18.713 31.1202 18.6666 32 18.6666Z" fill="#4DAFE3"/>
<path d="M42.6667 12L40 13.3333V19.6045C41.8805 20.0414 43.6922 20.6165 45.3333 21.3333V13.3333L42.6667 12Z" fill="#4DAFE3"/>
<path d="M40 19.6045V13.3333L37.3333 12L34.6666 13.3333V18.783C36.4599 18.9234 38.2588 19.2 40 19.6045Z" fill="#191977"/>
<path d="M34.6667 18.7844C33.7723 18.7144 32.8798 18.668 32 18.668C31.1202 18.668 30.2277 18.7144 29.3333 18.7844C27.54 18.9248 25.7412 19.2014 24 19.6059C22.1195 20.0428 20.3078 20.6179 18.6667 21.3347H45.3334C43.6923 20.618 41.8806 20.0428 40.0001 19.6059C38.2589 19.2014 36.46 18.9248 34.6667 18.7844Z" fill="#F0263C"/>
</g>
</svg>
