<svg width="64" height="64" viewBox="0 0 64 64" fill="none" xmlns="http://www.w3.org/2000/svg">
<mask id="mask0_12133_19178" style="mask-type:luminance" maskUnits="userSpaceOnUse" x="0" y="0" width="64" height="64">
<path d="M64 0H0V64H64V0Z" fill="white"/>
</mask>
<g mask="url(#mask0_12133_19178)">
<path d="M32 64C49.6731 64 64 49.6731 64 32C64 14.3269 49.6731 0 32 0C14.3269 0 0 14.3269 0 32C0 49.6731 14.3269 64 32 64Z" fill="#191977"/>
<path d="M25.3333 25.3222H63.2996C62.2463 20.3455 60.0383 15.7984 56.9717 11.9688H12L25.3333 25.3222Z" fill="white"/>
<path d="M12 52.0293H56.9717C60.0383 48.1996 62.2463 43.6526 63.2996 38.6758H25.3333L12 52.0293Z" fill="white"/>
<path d="M25.3333 38.6782L32 32.0015L25.3333 25.3248L12 11.9713L9.3811 9.34844L9.3788 9.34614L9.3726 9.33984C8.5427 10.171 7.764 11.0525 7.0289 11.9705C7.0291 11.9703 7.0287 11.9707 7.0289 11.9705C7.0283 11.9712 7.0272 11.9727 7.0266 11.9733C4.6665 14.9213 2.8179 18.2948 1.6105 21.9625C1.6103 21.9632 1.6101 21.9638 1.6098 21.9645C0.5704 25.1229 0 28.4946 0 32.0015C0 35.5084 0.5704 38.8801 1.6099 42.0384C1.6101 42.0391 1.6103 42.0398 1.6106 42.0404C2.818 45.708 4.6665 49.0815 7.0267 52.0296C7.0273 52.0303 7.0278 52.031 7.0284 52.0317C7.0286 52.0319 7.0282 52.0315 7.0284 52.0317C7.7635 52.9497 8.5428 53.8319 9.3727 54.6631L9.3789 54.6568L9.3812 54.6545L12.0001 52.0316L25.3333 38.6782ZM15.1536 29.5911H21.0441L16.2786 33.0587L18.0989 38.6693L13.3334 35.2018L8.5679 38.6693L10.3882 33.0587L5.6227 29.5911H11.5132L13.3335 23.9804L15.1536 29.5911Z" fill="#F0263C"/>
<path d="M11.5132 29.5911H5.62268L10.3882 33.0587L8.56788 38.6693L13.3334 35.2018L18.0989 38.6693L16.2787 33.0587L21.0442 29.5911H15.1537L13.3334 23.9805L11.5132 29.5911Z" fill="white"/>
</g>
</svg>
