<svg width="64" height="64" viewBox="0 0 64 64" fill="none" xmlns="http://www.w3.org/2000/svg">
<mask id="mask0_12133_19179" style="mask-type:luminance" maskUnits="userSpaceOnUse" x="0" y="0" width="64" height="64">
<path d="M64 0H0V64H64V0Z" fill="white"/>
</mask>
<g mask="url(#mask0_12133_19179)">
<path d="M32 0C14.3269 0 0 14.3269 0 32C0 35.7412 0.6482 39.3295 1.828 42.6667H62.1719C63.3518 39.3296 64 35.7412 64 32C64 14.3269 49.6731 0 32 0Z" fill="#191977"/>
<path d="M6.01953 50.668C11.8272 58.7405 21.2958 64.0013 32.0001 64.0013C42.7044 64.0013 52.1729 58.7405 57.9805 50.668H6.01953Z" fill="#191977"/>
<path d="M1.82812 42.668C2.14952 43.5769 2.51243 44.4655 2.91143 45.3347C3.33063 46.2477 3.79143 47.137 4.29163 48.0014C4.82333 48.9202 5.39872 49.81 6.01632 50.6681H57.9837C58.6013 49.81 59.1766 48.9203 59.7083 48.0014C60.2085 47.137 60.6693 46.2478 61.0886 45.3347C61.4876 44.4656 61.8506 43.577 62.1719 42.668H1.82812Z" fill="#FFD400"/>
<path d="M18.0108 16.4826L19.6656 21.5755L15.3333 18.4279L11.0011 21.5755L12.6559 16.4826L8.32361 13.335H13.6786L15.3333 8.24219L16.9881 13.335H22.3431L18.0108 16.4826Z" fill="white"/>
<path d="M30.8141 28.7595L32.9653 35.3803L27.3333 31.2884L21.7014 35.3803L23.8526 28.7595L18.2207 24.6677H25.1821L27.3333 18.0469L29.4845 24.6677H36.446L30.8141 28.7595Z" fill="white"/>
</g>
</svg>
