<svg width="64" height="64" viewBox="0 0 64 64" fill="none" xmlns="http://www.w3.org/2000/svg">
<mask id="mask0_12133_19115" style="mask-type:luminance" maskUnits="userSpaceOnUse" x="0" y="0" width="64" height="64">
<path d="M64 0H0V64H64V0Z" fill="white"/>
</mask>
<g mask="url(#mask0_12133_19115)">
<path d="M61.3795 19.3102L60 20L58.6667 21.3333L56 22.6666H53.3333L52 23.9999L50.6667 25.3332L48 26.6665V29.3332L49.3333 31.9999V33.3332H45.3333L44 31.9999H42.6667L41.3334 33.3332V34.6665L38.6667 35.9998H34.6667L33.3334 37.3331H29.3334L28.0001 38.6664H26.6668L25.3335 37.3331H22.6668L21.3335 35.9998H20.0002L18.6669 34.6665L17.3336 33.3332L16.0003 31.9999L14.667 29.3332V23.9999L16.0003 22.6666L17.3336 25.3333H18.6669L21.3336 22.6666H24.0003V23.9999H28.0003V19.9999L29.3336 18.6666L30.6669 19.9999L33.3336 21.3332L37.3336 22.6665H46.6669L48.0002 21.3332H50.6669L54.6669 19.9999L60.0002 17.3332H60.4383C55.1187 7.0406 44.385 0 32 0C14.3269 0 0 14.3269 0 32C0 49.6731 14.3269 64 32 64C49.6731 64 64 49.6731 64 32C64 27.4906 63.0626 23.2015 61.3795 19.3102Z" fill="white"/>
<path d="M54.6666 19.9986L50.6666 21.3319H47.9999L46.6666 22.6652H37.3333L33.3333 21.3319L30.6666 19.9986L29.3333 18.6653L28 19.9986V23.9986H24V22.6653H21.3333L18.6666 25.332H17.3333L16 22.6653L14.6667 23.9986V29.3319L16 31.9986L17.3333 33.3319L18.6666 34.6652L19.9999 35.9985H21.3332L22.6665 37.3318H25.3332L26.6665 38.6651H27.9998L29.3331 37.3318H33.3331L34.6664 35.9985H38.6664L41.3331 34.6652V33.3319L42.6664 31.9986H43.9998L45.333 33.3319H49.333V31.9986L47.9997 29.3319V26.6652L50.6665 25.3319L51.9997 23.9986L53.333 22.6653H55.9997L58.6665 21.332L59.9997 19.9987L61.3792 19.3089C61.0886 18.6369 60.7724 17.9792 60.438 17.332H59.9997L54.6666 19.9986Z" fill="#CC9500"/>
<path d="M46.6665 37.332L44 38.6654V39.9987L42.6665 41.332V38.6654L41.3333 39.9987V42.6697L40 43.9987V41.332L38.6665 42.6654L38.6366 44.0287L37.3333 45.332V42.6654L36 43.9987V45.3885L34.6665 46.6654V43.9987L33.3333 45.332V47.9987H37.3333V46.6654H40V45.332H42.6665L44 43.9987H42.6665V42.6654H45.3333L46.6665 41.332H44L46.6665 39.9987V37.332Z" fill="#1E5B00"/>
<path d="M30.6667 48L29.3333 49.3333V50.6667L30.6667 49.3333H33.3333L34.6667 50.6667V49.3333L33.3333 48H30.6667Z" fill="#1E5B00"/>
<path d="M30.6667 45.332L29.3333 43.9987V46.6654L28 45.3885V43.9987L26.6667 42.6654V45.332L25.3634 44.0287L25.3333 42.6654L24 41.332V43.9987L22.6667 42.6697V39.9987L21.3333 38.6654V41.332L20 39.9987V38.6654L17.3333 37.332V39.9987L20 41.332H17.3333L18.6667 42.6654H21.3333V43.9987H20L21.3333 45.332H24V46.6654H26.6667V47.9987H30.6667V45.332Z" fill="#1E5B00"/>
</g>
</svg>
