<svg width="64" height="64" viewBox="0 0 64 64" fill="none" xmlns="http://www.w3.org/2000/svg">
<mask id="mask0_12133_19181" style="mask-type:luminance" maskUnits="userSpaceOnUse" x="0" y="0" width="64" height="64">
<path d="M64 0H0V64H64V0Z" fill="white"/>
</mask>
<g mask="url(#mask0_12133_19181)">
<path d="M38.6667 25.3333V0.7003C36.5157 0.2444 34.2867 0 32 0C29.7133 0 27.4843 0.2444 25.3333 0.7003V25.3333H0.7004C0.2444 27.4843 0 29.7133 0 32C0 34.2867 0.2444 36.5157 0.7004 38.6667H25.3334V63.2997C27.4843 63.7556 29.7133 64.0001 32.0001 64.0001C34.2869 64.0001 36.5158 63.7557 38.6668 63.2997V38.6667H63.2998C63.7557 36.5158 64.0001 34.2868 64.0001 32C64.0001 29.7132 63.7557 27.4843 63.2998 25.3333H38.6667Z" fill="white"/>
<path d="M38.6668 36L37.3334 37.3333L36.0001 38.6667H35.3334L34.6668 37.3333H29.3334L28.6668 38.6667H28.0001L26.6668 37.3333L25.3334 36V38L26.6668 38.6667L27.3334 40H29.3334L30.0001 38.6667H34.0001L34.6668 40H36.6668L37.3334 38.6667L38.6668 38V36Z" fill="#F0263C"/>
<path d="M38.6667 0.699219V25.3322H63.2999C60.6879 13.0107 50.9881 3.31102 38.6667 0.699219Z" fill="#F0263C"/>
<path d="M38.6667 63.301C50.9882 60.6892 60.688 50.9896 63.2999 38.668H38.6667V63.301Z" fill="#191977"/>
<path d="M25.3333 0.699219C13.0117 3.31102 3.31224 13.0107 0.700439 25.3322H25.3334L25.3333 0.699219Z" fill="#191977"/>
<path d="M25.3333 63.301V38.668H0.700439C3.31224 50.9895 13.0117 60.6891 25.3333 63.301Z" fill="#F0263C"/>
<path d="M30 25.3346L30.6667 24.0013H33.3333L34 25.3346H36L37.3333 26.668H40L37.3333 25.3346V24.0013H34.6667V22.668H29.3333V24.0013H26.6667V25.3346L24 26.668H26.6667L28 25.3346H30Z" fill="#191977"/>
<path d="M33.6 30.268L34.6668 30.0013V31.3346H36.0001V30.0013V28.668V28.0013L37.3334 26.668H36.0001L33.6 30.268Z" fill="#F0263C"/>
<path d="M33 28.668H32.6667V29.3346L32.9333 29.7346L36 26.668H32.6667V28.0013H33V28.668Z" fill="#F0263C"/>
<path d="M26.6667 35.332V33.9987L28 32.6654L26.6667 31.9987L28 29.9987H26.6667L28 28.6654H26.6667V27.332L25.3333 28.6654H24L25.3333 31.332H24L25.3333 32.6654H24L25.3333 33.9987L24 34.6654L25.3333 35.332L29.3333 37.332L28 35.332H26.6667Z" fill="#1E5B00"/>
<path d="M36 29.9987L37.3335 31.9987L36 32.6654L37.3335 33.9987V35.332H36L34.6667 37.332L38.6667 35.332L40 34.6654L38.6667 33.9987L40 32.6654H38.6667L40 31.332H38.6667L40 28.6654H38.6667L37.3335 27.332V28.6654H36L37.3335 29.9987H36Z" fill="#1E5B00"/>
<path d="M34.6667 33.3346V34.668H32.6667V36.668L34.6667 36.0013L36 34.668V32.668H34.6667V33.3346Z" fill="#191977"/>
<path d="M28 31.3346H29.3333V32.668H30.6667L30 31.3346L30.7407 30.7791L30.4001 30.268L28 26.668H26.6667L28 28.0013V28.668V30.0013V31.3346Z" fill="#191977"/>
<path d="M31.3333 28.668H31V28.0013H31.3333V26.668H28L31.3333 30.0013V28.668Z" fill="#191977"/>
<path d="M34.6668 32.6667V31.3333V30L33.6 30.2667L33.4446 30.5L34.0001 31.3333V32L31.3334 34V34.1667L32.0001 34.6667L34.6668 32.6667Z" fill="#191977"/>
<path d="M34.6667 33.3346V32.668L32 34.668H32.6667H34.6667V33.3346Z" fill="#F0263C"/>
<path d="M31.3333 34.0013L30.6667 32.668H29.3333H28V34.668L29.3333 36.0013L31.3333 36.668V34.668H32L31.3333 34.168V34.0013Z" fill="#F0263C"/>
<path d="M33.4445 30.5013L33.5999 30.268L36 26.668L32.9333 29.7346L33.4445 30.5013Z" fill="#FFD400"/>
<path d="M31.5238 30.1918L31.3333 30.0013L28 26.668L30.4001 30.268L30.7407 30.7791L31.5238 30.1918Z" fill="#FFD400"/>
<path d="M31 28.6654H31.3333H31.6667V30.082L32.3333 29.582V28.6654H32.6667H33V27.9987H32.6667H32.3333V27.332H31.6667V27.9987H31.3333H31V28.6654Z" fill="#FFD400"/>
<path d="M31.3333 33.332L34 31.332L33.4445 30.4987L32.9333 29.732L32.6667 29.332L32.3333 29.582L31.6667 30.082L31.5238 30.1892L30.7407 30.7765L30 31.332L31.3333 33.332Z" fill="#F0F0F0"/>
<path d="M34 31.9987V31.332L31.3333 33.332L30 31.332L30.6667 32.6654L31.3333 33.9987L34 31.9987Z" fill="#999999"/>
</g>
</svg>
