<svg width="64" height="64" viewBox="0 0 64 64" fill="none" xmlns="http://www.w3.org/2000/svg">
<mask id="mask0_12133_19180" style="mask-type:luminance" maskUnits="userSpaceOnUse" x="0" y="0" width="64" height="64">
<path d="M64 0H0V64H64V0Z" fill="white"/>
</mask>
<g mask="url(#mask0_12133_19180)">
<path d="M32 48C40.8366 48 48 40.8366 48 32C48 23.1634 40.8366 16 32 16C23.1634 16 16 23.1634 16 32C16 40.8366 23.1634 48 32 48Z" fill="#F0263C"/>
<path d="M23.9896 18.1524V1.01172C12.75 3.90872 3.90363 12.7596 1.01013 24.0006H18.1458C19.5484 21.577 21.567 19.5568 23.9896 18.1524Z" fill="#1E5B00"/>
<path d="M0.6925 25.3594C0.2405 27.5015 0 29.7216 0 31.9983C0 31.0992 0.0465 30.2118 0.1191 29.3316C0.2305 27.9827 0.4217 26.6564 0.6925 25.3594Z" fill="#1E5B00"/>
<path d="M18.1458 40H1.01013C3.90373 51.2409 12.75 60.0919 23.9896 62.9889V45.8482C21.5671 44.4439 19.5484 42.4236 18.1458 40Z" fill="#1E5B00"/>
<path d="M0 32C0 34.2771 0.2406 36.4977 0.6927 38.6402C0.4217 37.3427 0.2306 36.016 0.1191 34.6666C0.0465 33.7865 0 32.8991 0 32Z" fill="#1E5B00"/>
<path d="M64 32.0019C64 29.7253 63.7596 27.5053 63.3076 25.3633C63.5784 26.6603 63.7694 27.9865 63.8808 29.3353C63.9534 30.2155 64 31.1028 64 32.0019Z" fill="#1E5B00"/>
<path d="M63.3073 38.6398C63.7594 36.4974 64 34.277 64 32C64 32.8991 63.9535 33.7865 63.8809 34.6667C63.7694 36.0159 63.5783 37.3425 63.3073 38.6398Z" fill="#1E5B00"/>
<path d="M45.8542 24.0005H62.9899C60.0964 12.7596 51.25 3.90872 40.0104 1.01172V18.1523C42.4329 19.5566 44.4516 21.5769 45.8542 24.0005Z" fill="#1E5B00"/>
<path d="M40.0104 45.8482V62.9888C51.25 60.0917 60.0964 51.2409 62.9899 40H45.8542C44.4516 42.4236 42.433 44.4438 40.0104 45.8482Z" fill="#1E5B00"/>
<path d="M32 47.9989C31.091 47.9989 30.201 47.9191 29.3334 47.7735V63.8797C30.2135 63.9524 31.1011 63.9989 32 63.9989C32.8989 63.9989 33.7865 63.9524 34.6667 63.8797V47.7734C33.799 47.919 32.9091 47.9989 32 47.9989Z" fill="black"/>
<path d="M32 16C32.909 16 33.799 16.0798 34.6667 16.2255V0.1192C33.7865 0.0465 32.8989 0 32 0C31.1011 0 30.2135 0.0465 29.3334 0.1192V16.2254C30.201 16.0798 31.091 16 32 16Z" fill="black"/>
<path d="M29.3334 16.2273V0.121094C27.5051 0.272094 25.7178 0.567594 23.9896 1.01309V18.1538C25.6122 17.2131 27.4144 16.5494 29.3334 16.2273Z" fill="#FFD400"/>
<path d="M23.9896 45.8477V62.9884C25.7178 63.4338 27.5051 63.7294 29.3334 63.8804V47.7742C27.4144 47.4521 25.6122 46.7884 23.9896 45.8477Z" fill="#FFD400"/>
<path d="M34.6667 47.774V63.8803C34.6701 63.88 34.6738 63.8798 34.6772 63.8795C36.5019 63.7282 38.2856 63.4329 40.0104 62.9883V45.8477C38.3878 46.7884 36.5859 47.4518 34.6667 47.774Z" fill="white"/>
<path d="M40.0104 18.1537V1.01309C38.2855 0.568494 36.5019 0.273194 34.6772 0.121894C34.6738 0.121594 34.6701 0.121394 34.6667 0.121094V16.2274C36.5858 16.5495 38.3877 17.213 40.0104 18.1537Z" fill="white"/>
<path d="M47.7747 29.332C47.9203 30.1996 48.0001 31.0896 48.0001 31.9987C48.0001 32.9078 47.9203 33.7977 47.7747 34.6654H63.881C63.9536 33.7852 64.0001 32.8978 64.0001 31.9987C64.0001 31.0996 63.9536 30.2122 63.881 29.332H47.7747Z" fill="black"/>
<path d="M16.2254 34.6654C16.0798 33.7978 16 32.9078 16 31.9987C16 31.0896 16.0798 30.1997 16.2254 29.332H0.1191C0.0465 30.2122 0 31.0996 0 31.9987C0 32.8978 0.0465 33.7852 0.1191 34.6654H16.2254Z" fill="black"/>
<path d="M47.7746 29.3334H63.8808C63.7694 27.9846 63.5784 26.6584 63.3076 25.3614C63.303 25.3398 63.2995 25.3179 63.2949 25.2964C63.234 25.0082 63.1632 24.7239 63.0944 24.4387C63.0592 24.2929 63.0292 24.145 62.992 24H45.8542C46.7917 25.62 47.4532 27.4185 47.7746 29.3334Z" fill="#FFD400"/>
<path d="M16.2253 29.3333C16.5468 27.4183 17.2082 25.6199 18.1457 24H1.00804C0.970841 24.1446 0.940941 24.292 0.905841 24.4374C0.836841 24.723 0.765841 25.0078 0.705041 25.2964C0.700441 25.3178 0.696941 25.3397 0.692541 25.3611C0.421741 26.6581 0.230541 27.9844 0.119141 29.3333H16.2253Z" fill="#FFD400"/>
<path d="M63.0942 39.5634C63.163 39.2779 63.2341 38.9933 63.295 38.7048C63.2995 38.6837 63.303 38.6622 63.3074 38.6411C63.5784 37.3438 63.7696 36.0172 63.8811 34.668H47.7747C47.4532 36.583 46.7917 38.3814 45.8542 40.0013H62.9921C63.0294 39.8565 63.059 39.7089 63.0942 39.5634Z" fill="white"/>
<path d="M16.2254 34.668H0.119141C0.230641 36.0174 0.421741 37.3441 0.692741 38.6416C0.697141 38.6626 0.700541 38.6838 0.705041 38.7048C0.765941 38.9933 0.836941 39.278 0.905841 39.5634C0.941041 39.709 0.970941 39.8566 1.00824 40.0013H18.1459C17.2084 38.3813 16.5468 36.5829 16.2254 34.668Z" fill="white"/>
<path d="M29.3333 38.6654V37.332H28V38.6654H26.6667L28 39.9987H30.6667V38.6654H29.3333Z" fill="#CC9500"/>
<path d="M33.3334 38.668V40.0013H34.6668H36.6668H37.3334V38.668H34.6668H33.3334Z" fill="#CC9500"/>
<path d="M33.3334 26.668L34.6668 28.0013H36.0001L34.6668 26.668H36.0001L34.6668 25.3346H36.0001L34.6668 24.0013L32.0001 22.668L29.3334 24.0013H30.6668V25.3346L32.0001 26.668H33.3334Z" fill="#9063CD"/>
<path d="M29.3334 24V26.6667L30.6668 25.3333V24H29.3334Z" fill="#FFD400"/>
<path d="M34.6667 40V41.3333L36 42.6667L37.3335 40H36.6667H34.6667Z" fill="#1E5B00"/>
<path d="M33.3333 38.6654L32 37.332L30.6667 38.6654V39.9987L32 41.332H33.3333L34.6667 39.9987H33.3333V38.6654Z" fill="#FFD400"/>
<path d="M32 33.3333V32L30.6667 29.3333V28H29.3333L28 30.6667L29.3333 33.3333L30.6667 36L32 37.3333V34.6667V33.3333Z" fill="#9063CD"/>
<path d="M37.3334 34.6654L36.0001 30.6654L34.6668 27.9987L33.3334 26.6654H32.0001L30.6668 25.332V26.6654L29.3334 27.9987H30.6668V29.332L32.0001 31.9987V33.332V34.6654V37.332L33.3334 38.6654H34.6668H37.3334V37.332L38.6668 38.6654L37.3334 34.6654Z" fill="#1E5B00"/>
<path d="M32 17.332L30 19.332L32 21.332L34 19.332L32 17.332Z" fill="#1E5B00"/>
<path d="M40.6208 20.1328L37.8273 20.5752L38.2697 23.3688L41.0633 22.9263L40.6208 20.1328Z" fill="#1E5B00"/>
<path d="M43.4287 26.1836L42.1447 28.7037L44.6648 29.9878L45.9488 27.4677L43.4287 26.1836Z" fill="#1E5B00"/>
<path d="M44.6648 34.0117L42.1447 35.2958L43.4287 37.8159L45.9488 36.5318L44.6648 34.0117Z" fill="#1E5B00"/>
<path d="M38.2697 40.6289L37.8273 43.4225L40.6208 43.8649L41.0633 41.0713L38.2697 40.6289Z" fill="#1E5B00"/>
<path d="M32 42.668L30 44.668L32 46.668L34 44.668L32 42.668Z" fill="#1E5B00"/>
<path d="M25.7302 40.6289L22.9366 41.0714L23.3791 43.865L26.1727 43.4225L25.7302 40.6289Z" fill="#1E5B00"/>
<path d="M19.3352 34.0117L18.0511 36.5318L20.5713 37.8159L21.8553 35.2958L19.3352 34.0117Z" fill="#1E5B00"/>
<path d="M20.5714 26.1836L18.0513 27.4677L19.3353 29.9878L21.8555 28.7038L20.5714 26.1836Z" fill="#1E5B00"/>
<path d="M23.3791 20.1328L22.9366 22.9264L25.7302 23.3689L26.1727 20.5753L23.3791 20.1328Z" fill="#1E5B00"/>
</g>
</svg>
