<svg width="64" height="64" viewBox="0 0 64 64" fill="none" xmlns="http://www.w3.org/2000/svg">
<mask id="mask0_12133_18983" style="mask-type:luminance" maskUnits="userSpaceOnUse" x="0" y="0" width="64" height="64">
<path d="M64 0H0V64H64V0Z" fill="white"/>
</mask>
<g mask="url(#mask0_12133_18983)">
<path d="M32 0C14.3269 0 0 14.3269 0 32C0 37.8106 1.5565 43.2544 4.2636 47.9513L47.9513 4.2636C43.2544 1.5565 37.8106 0 32 0Z" fill="#007ACC"/>
<path d="M16.0487 59.7346C20.7456 62.4417 26.1894 63.9982 32 63.9982C49.6731 63.9982 64 49.6713 64 31.9982C64 26.1876 62.4435 20.7438 59.7364 16.0469L16.0487 59.7346Z" fill="#007ACC"/>
<path d="M50.2594 5.72656L5.72668 50.2593C7.90138 53.3826 10.6173 56.0985 13.7406 58.2732L58.2733 13.7405C56.0986 10.6172 53.3827 7.90126 50.2594 5.72656Z" fill="#F0263C"/>
<path d="M50.2593 5.72482C49.5126 5.20492 48.7424 4.71772 47.9513 4.26172L4.26355 47.9494C4.71965 48.7406 5.20675 49.5109 5.72665 50.2575L50.2593 5.72482Z" fill="#FFD400"/>
<path d="M58.2733 13.7422L13.7406 58.2749C14.4873 58.7948 15.2576 59.2819 16.0487 59.738L59.7364 16.0503C59.2804 15.2591 58.7932 14.4888 58.2733 13.7422Z" fill="#FFD400"/>
<path d="M21.213 17.1112L23.1987 23.2227L18 19.4456L12.8013 23.2227L14.787 17.1112L9.58826 13.3341H16.0143L18 7.22266L19.9857 13.3341H26.4117L21.213 17.1112Z" fill="#FFD400"/>
</g>
</svg>
