<svg width="64" height="64" viewBox="0 0 64 64" fill="none" xmlns="http://www.w3.org/2000/svg">
<mask id="mask0_12133_19243" style="mask-type:luminance" maskUnits="userSpaceOnUse" x="0" y="0" width="64" height="64">
<path d="M64 0H0V64H64V0Z" fill="white"/>
</mask>
<g mask="url(#mask0_12133_19243)">
<path d="M32 64C49.6731 64 64 49.6731 64 32C64 14.3269 49.6731 0 32 0C14.3269 0 0 14.3269 0 32C0 49.6731 14.3269 64 32 64Z" fill="#FFD400"/>
<path d="M22.6746 26.6681C22.6746 32.7098 26.1503 37.6941 30.6677 38.5277V37.1804C28.2784 36.6444 26.2463 34.6987 25.0793 32.0026C24.4198 30.5031 24.0402 28.7637 24.0135 26.911C24.0069 26.831 24.0069 26.751 24.0069 26.6711C24.0069 25.7514 24.0934 24.8584 24.2599 24.0053C24.374 23.4134 24.5267 22.8423 24.7116 22.2948L26.6711 21.3145L29.3355 19.9816H30.6677V18.6487H29.3355L25.6309 20.2372C27.0902 17.6697 29.399 16.008 32 16.008C34.601 16.008 36.9098 17.6698 38.3691 20.2374L34.6642 18.6487H33.332V19.9816H34.6642L37.3286 21.3145L39.2884 22.295C39.4733 22.8424 39.626 23.4134 39.7399 24.0053C39.9064 24.8583 39.9932 25.7514 39.9932 26.6711V26.6844C39.9932 28.3105 39.7199 29.8566 39.2271 31.2295C39.1342 31.492 39.0313 31.7466 38.9229 31.9968C38.9222 31.9987 38.9216 32.0007 38.9206 32.0027C38.9147 32.0164 38.9079 32.0293 38.902 32.0429C38.5944 32.7461 38.2275 33.3961 37.8113 33.9845C37.7599 34.0574 37.7099 34.1324 37.6568 34.2034C37.595 34.2862 37.5298 34.3645 37.4657 34.4446C37.3983 34.5292 37.3314 34.6149 37.2618 34.6963C37.2008 34.7674 37.1376 34.8347 37.0751 34.9033C36.9988 34.9873 36.9224 35.0715 36.8437 35.1517C36.7814 35.2152 36.7172 35.2754 36.6536 35.3365C36.5708 35.4157 36.4874 35.4944 36.4025 35.5695C36.3385 35.6258 36.2734 35.6796 36.2085 35.7334C36.12 35.8067 36.0308 35.8785 35.9399 35.9473C35.874 35.9972 35.8074 36.0454 35.7402 36.0928C35.6474 36.1586 35.5534 36.222 35.4583 36.283C35.3899 36.3267 35.3213 36.3695 35.2519 36.4108C35.1549 36.4685 35.0568 36.523 34.9576 36.5756C34.8873 36.613 34.817 36.6501 34.7457 36.6849C34.6446 36.7342 34.5422 36.7793 34.4392 36.8232C34.3674 36.8539 34.2958 36.8853 34.2231 36.9132C34.1176 36.9539 34.0104 36.9893 33.9031 37.0243C33.8307 37.0479 33.7587 37.0732 33.6855 37.0941C33.5737 37.1261 33.4602 37.1517 33.3466 37.1774C33.3417 37.1785 33.3368 37.1799 33.332 37.181V38.5275C37.8494 37.694 41.3252 32.7096 41.3252 26.6679C41.3252 25.6581 41.2175 24.6828 41.0348 23.7458C40.8102 22.593 40.4573 21.5085 39.9943 20.5152C38.498 17.3051 35.875 15.0694 32.8229 14.7254C32.5511 14.6948 32.2778 14.6719 31.9998 14.6719C30.6139 14.6719 29.3033 15.0713 28.1211 15.7688C26.4076 16.7799 24.9772 18.4368 24.0121 20.5008C23.5432 21.5036 23.1866 22.5996 22.961 23.7653C22.7808 24.6963 22.6746 25.6653 22.6746 26.6681Z" fill="#C8C8C8"/>
<path d="M21.3424 21.3375L22.961 23.7665C23.1866 22.6008 23.5432 21.5048 24.0121 20.502L24.0068 17.3359L22.6781 17.3394L20.2875 19.7546L21.3424 21.3375Z" fill="#619B27"/>
<path d="M42.6574 21.3375L43.7152 19.7506L41.3285 17.3394L39.9999 17.3359L39.9944 20.5164C40.4575 21.5097 40.8103 22.5941 41.0349 23.747L42.6574 21.3375Z" fill="#619B27"/>
<path d="M32.823 14.7257L34.6643 13.3464L45.322 10.6736L37.9949 8.00781H35.9962L34.6643 9.34071H33.3321V12.0065H29.3355V10.6736H30.6677V9.34071H29.3355L28.0033 8.00781H26.0051L18.678 10.6589L28.0033 13.3393H29.3355L28.1211 15.7691C29.3034 15.0716 30.6139 14.6722 31.9998 14.6722C32.2778 14.6722 32.5512 14.6951 32.823 14.7257Z" fill="#5A2919"/>
<path d="M26.6651 38.6628L24.0068 37.3329L21.3424 30.8361V21.339L20.2875 19.7555L18.678 17.3398V30.6685L22.6746 38.6658L25.3389 39.9987V38.6628H26.6651Z" fill="#2D25C5"/>
<path d="M42.6574 30.6685L39.993 37.3329L37.3347 38.6628H38.6608V39.9987L41.3252 38.6658L45.322 30.6685V17.3398L43.7152 19.7515L42.6574 21.3393V30.6685Z" fill="#2D25C5"/>
<path d="M22.6746 26.6674C22.6746 25.6646 22.7808 24.696 22.961 23.7649L21.3424 21.3359V30.8336L24.0068 37.3304L26.6651 38.6603H30.6677V38.527C26.1503 37.6935 22.6746 32.7091 22.6746 26.6674Z" fill="#F0263C"/>
<path d="M42.6574 30.666V21.3359L41.0348 23.7453C41.2174 24.6823 41.3252 25.6575 41.3252 26.6674C41.3252 32.7091 37.8495 37.6934 33.332 38.527V38.6603H37.3346L39.993 37.3304L42.6574 30.666Z" fill="#F0263C"/>
<path d="M33.3321 17.3347V18.6485H34.6643L38.3692 20.2372C36.9099 17.6696 34.6011 16.0078 32.0001 16.0078C29.3991 16.0078 27.0903 17.6695 25.631 20.237L29.3356 18.6485H30.6678V17.3347H33.3321Z" fill="#4DAFE3"/>
<path d="M27.9997 21.3355H30.6641L33.3316 24.0042H39.74C39.6261 23.4123 39.4734 22.8413 39.2885 22.2939L37.3287 21.3134L34.6643 19.9805H33.3321V19.9995H30.6677V19.9805H29.3355L26.6711 21.3134L24.7116 22.2937C24.5267 22.8412 24.374 23.4123 24.2599 24.0042H25.3377L27.9997 21.3355Z" fill="#4DAFE3"/>
<path d="M30.6541 26.6852L30.6679 26.6719H24.007C24.007 26.7519 24.007 26.8318 24.0136 26.9118V26.6852H30.6541Z" fill="#4DAFE3"/>
<path d="M30.6929 26.6852H39.9932V26.6719H30.6678L30.6929 26.6852Z" fill="#4DAFE3"/>
<path d="M24.0135 26.6836V26.9102C24.0402 28.7629 24.4198 30.5023 25.0793 32.0018L30.654 26.6836H24.0135Z" fill="#619B27"/>
<path d="M39.2271 31.2287C39.7199 29.8559 39.9932 28.3097 39.9932 26.6836H30.6929L39.2271 31.2287Z" fill="#619B27"/>
<path d="M33.6856 37.0949C33.7588 37.0739 33.8308 37.0487 33.9032 37.0251C34.0105 36.9901 34.1177 36.9547 34.2232 36.914C34.296 36.886 34.3676 36.8547 34.4393 36.824C34.5423 36.7801 34.6447 36.735 34.7458 36.6857C34.8171 36.651 34.8874 36.6138 34.9577 36.5764C35.0568 36.5238 35.155 36.4693 35.252 36.4116C35.3213 36.3703 35.39 36.3276 35.4584 36.2838C35.5535 36.2228 35.6475 36.1594 35.7403 36.0936C35.8075 36.0462 35.8741 35.998 35.94 35.9481C36.0308 35.8793 36.12 35.8075 36.2086 35.7342C36.2735 35.6803 36.3386 35.6265 36.4026 35.5703C36.4876 35.4952 36.5709 35.4165 36.6537 35.3373C36.7173 35.2762 36.7815 35.216 36.8438 35.1525C36.9226 35.0723 36.9989 34.9881 37.0752 34.9041C37.1377 34.8355 37.2009 34.7682 37.2619 34.6971C37.3316 34.6157 37.3985 34.5299 37.4658 34.4454C37.5299 34.3653 37.595 34.287 37.6569 34.2042C37.71 34.1333 37.7599 34.0582 37.8114 33.9853C38.2276 33.3969 38.5944 32.7469 38.9021 32.0437C38.908 32.0302 38.9145 32.0171 38.9203 32.0035C38.9213 32.0015 38.9223 31.9996 38.9229 31.9976C39.0313 31.7474 39.1342 31.4928 39.2271 31.2303L30.6929 26.6852L30.6678 26.6719L30.654 26.6852L25.0793 32.0034C26.2463 34.6995 28.2784 36.6452 30.6677 37.1812V35.996H33.3321V37.182C33.337 37.1809 33.3419 37.1795 33.3467 37.1784C33.4603 37.1527 33.5738 37.1269 33.6856 37.0949ZM29.3355 33.3332V32.0003H34.6643V33.3332H29.3355Z" fill="#007ACC"/>
<path d="M39.9933 26.6697C39.9933 25.75 39.9065 24.857 39.74 24.0039H33.3316L25.5888 24.0044L25.3378 24.0039H24.26C24.0935 24.8569 24.007 25.75 24.007 26.6697H39.9933Z" fill="#999999"/>
<path d="M27.9997 21.3359L25.3378 24.0047L25.5887 24.0051H33.3321L30.6641 21.3359H27.9997Z" fill="white"/>
<path d="M34.6642 32H29.3354V33.3329H34.6642V32Z" fill="#FFD400"/>
<path d="M30.6677 10.6727H31.945V12.0056H33.3321V9.33984H31.9999H30.6677V10.6727Z" fill="#F0F0F0"/>
<path d="M30.6677 10.6758H29.3354V12.0087H30.6677H31.945V10.6758H30.6677Z" fill="#FFAD66"/>
<path d="M25.3405 45.3259V46.6588H28.0047L29.3369 42.6632L29.331 42.6602H26.2287L25.3405 45.3259Z" fill="#FFD400"/>
<path d="M34.6656 42.6632L35.9965 46.6588H38.6609V45.3259L37.7735 42.6602H34.6718L34.6656 42.6632Z" fill="#FFD400"/>
<path d="M33.3321 20.0016V19.9826V18.6497V17.3359H30.6677V18.6497V19.9826V20.0016H33.3321Z" fill="#FFD400"/>
<path d="M38.6608 38.6619H37.3347H33.3321V38.5286V37.1821V35.9961H30.6677V37.1813V38.5286V38.6619H26.6651H25.3389V39.9978V42.4384V42.6605H26.2286H29.3309H30.6677H31.9999H33.3321H34.6718H37.7735H38.6608V42.4384V39.9978V38.6619Z" fill="#CC9500"/>
<path d="M45.3493 41.3198L38.6883 42.4306V42.6527H37.8009L38.6883 45.3184V46.6513H36.0239L34.693 42.6557L34.6992 42.6527H33.3595V47.9842L33.3507 48.0062H59.7049C62.4298 43.3 63.9975 37.8405 63.9995 32.0117H47.6756L45.3493 41.3198Z" fill="#2D25C5"/>
<path d="M30.6952 47.9842V42.6527H29.3584L29.3643 42.6557L28.0321 46.6513H25.3679V45.3184L26.2561 42.6527H25.3665V42.4306L18.7056 41.3198L16.3792 32.0117H0.000244141C0.00224414 37.8405 1.56994 43.3 4.29484 48.0062H30.704L30.6952 47.9842Z" fill="#2D25C5"/>
<path d="M33.3596 47.9838V42.6523H30.6952V47.9838L30.704 48.0058H4.2948C9.8292 57.5648 20.1597 64.0003 31.9999 64.0003C43.8401 64.0003 54.1705 57.5648 59.705 48.0058H33.3508L33.3596 47.9838Z" fill="#F0263C"/>
</g>
</svg>
