<svg width="64" height="64" viewBox="0 0 64 64" fill="none" xmlns="http://www.w3.org/2000/svg">
<mask id="mask0_12133_18985" style="mask-type:luminance" maskUnits="userSpaceOnUse" x="0" y="0" width="64" height="64">
<path d="M64 0H0V64H64V0Z" fill="white"/>
</mask>
<g mask="url(#mask0_12133_18985)">
<path d="M32 64C49.6731 64 64 49.6731 64 32C64 14.3269 49.6731 0 32 0C14.3269 0 0 14.3269 0 32C0 49.6731 14.3269 64 32 64Z" fill="white"/>
<path d="M1.82812 21.3333H62.1719C57.7782 8.9061 45.9319 0 32 0C18.0681 0 6.22183 8.9061 1.82812 21.3333Z" fill="#F0263C"/>
<path d="M62.1719 42.668H1.82812C6.22192 55.0952 18.0681 64.0013 32 64.0013C45.9319 64.0013 57.7782 55.0952 62.1719 42.668Z" fill="black"/>
<path d="M35.9525 25.3282L34.6667 26.668L33.3334 25.3347V22.668H30.6667L29.3334 24.0013H30.6667V25.3346L29.2025 26.5781L28 25.3346H24C24 25.3346 24 40.0013 24.015 39.9219L25.3333 38.6195V28.0013H26.6666V37.3024L27.9999 35.9852V28.0014H29.3332V38.6681H27.9999L26.6666 40.0014V41.3347H37.3333V40.0014L36 38.6681H34.6667V28.0014H36V36.0014L37.3333 37.3347V28.0014H38.6666V38.6681L39.9999 40.0014V25.3347L35.9525 25.3282Z" fill="#CC9500"/>
</g>
</svg>
