<svg width="64" height="64" viewBox="0 0 64 64" fill="none" xmlns="http://www.w3.org/2000/svg">
<mask id="mask0_12133_19100" style="mask-type:luminance" maskUnits="userSpaceOnUse" x="0" y="0" width="64" height="64">
<path d="M64 0H0V64H64V0Z" fill="white"/>
</mask>
<g mask="url(#mask0_12133_19100)">
<path d="M36.6618 36.0039L34.6667 37.3339V38.6673L36 37.3339H38.6667L37.6692 36.0039H36.6618Z" fill="white"/>
<path d="M34.7236 30.668L36 32.9636V30.668H34.7236Z" fill="white"/>
<path d="M37.3333 30.668V32.0013H38.6667L37.3333 29.3346V28.0013L36 26.668V30.668H37.3333Z" fill="white"/>
<path d="M37.3333 34.6667H38.6666L37.3333 32V34.6667Z" fill="white"/>
<path d="M29.2764 30.668H28V32.9636L29.2764 30.668Z" fill="white"/>
<path d="M31.9999 37.3339L30.6698 36.0039H29.3365L30.6666 37.3339H31.9999Z" fill="white"/>
<path d="M28.7933 33.3343H29.3333L30.6666 32.001L31.9999 33.3343L32.6666 32.6676L33.3333 33.3343H35.2067L32 27.5664L28.7933 33.3343ZM33.5 30.6676C33.5 31.4947 32.8271 32.1676 32 32.1676C31.1729 32.1676 30.5 31.4947 30.5 30.6676C30.5 29.8405 31.1729 29.1676 32 29.1676C32.8271 29.1676 33.5 29.8405 33.5 30.6676Z" fill="white"/>
<path d="M33.3333 37.3339L34.6634 36.0039H33.3301L32 37.3339H33.3333Z" fill="white"/>
<path d="M26.6667 30.668H28V26.668L26.6667 28.0013V29.3346L25.3333 32.0013H26.6667V30.668Z" fill="white"/>
<path d="M62.1719 21.332H1.8281C0.6483 24.6692 0 28.2575 0 31.9987C0 35.7399 0.6483 39.3282 1.8281 42.6654H62.1719C63.3519 39.3283 64 35.7399 64 31.9987C64 28.2575 63.3519 24.6692 62.1719 21.332ZM34.6667 39.9987H33.3334V41.332L32.0001 39.9987L30.6668 41.332V39.9987H26.6668L27.3335 39.332L25.3335 37.332L24.0002 34.6653H25.3335L24.0002 31.9986H25.3335L24.0002 29.3319H25.3335L26.6668 27.9986L25.3335 26.6653H29.3335V30.5628L30.6668 28.1646V23.9986H32.0001V25.7665L34.6668 30.5628V26.6653H38.6668L37.3335 27.9986L38.6668 29.3319H40.0001L38.6668 31.9986H40.0001L38.6668 34.6653H40.0001L38.6668 37.332L36.6668 39.332L37.3335 39.9987H34.6667ZM37.6003 41.5488L37.0664 40.7031C39.8424 38.9495 41.5 35.9446 41.5 32.6653C41.5 27.427 37.2383 23.1653 32 23.1653C26.7617 23.1653 22.5 27.427 22.5 32.6653C22.5 35.9446 24.1576 38.9495 26.9336 40.7031L26.3997 41.5488C23.3317 39.6106 21.5 36.2897 21.5 32.6653C21.5 26.8756 26.2103 22.1653 32 22.1653C37.7897 22.1653 42.5 26.8756 42.5 32.6653C42.5 36.2896 40.6683 39.6106 37.6003 41.5488Z" fill="white"/>
<path d="M29.3333 38.6673V37.3339L27.3382 36.0039H26.3309L25.3333 37.3339H28L29.3333 38.6673Z" fill="white"/>
<path d="M29.3333 38.668L30.6667 40.0013V38.668H29.3333Z" fill="white"/>
<path d="M26.6667 32L25.3333 34.6667H26.6667V32Z" fill="white"/>
<path d="M33.3333 38.668V40.0013L34.6666 38.668H33.3333Z" fill="white"/>
<path d="M32 0C18.068 0 6.22183 8.9061 1.82812 21.3333H62.1719C57.7782 8.9061 45.932 0 32 0Z" fill="#2D25C5"/>
<path d="M32 64.0013C45.932 64.0013 57.7782 55.0952 62.1719 42.668H1.82812C6.22183 55.0952 18.068 64.0013 32 64.0013Z" fill="#2D25C5"/>
<path d="M32 24H30.6667V28.166L32 25.7679V24Z" fill="#2D25C5"/>
<path d="M29.2764 30.668L29.3333 30.5655V26.668H28V30.668H29.2764Z" fill="#2D25C5"/>
<path d="M28 30.668H26.6667V32.0013V34.668H27.0524L28 32.9636V30.668Z" fill="#2D25C5"/>
<path d="M36 30.668V26.668H34.6667V30.5655L34.7236 30.668H36Z" fill="#2D25C5"/>
<path d="M37.3333 32.0013V30.668H36V32.9636L36.9476 34.668H37.3333V32.0013Z" fill="#2D25C5"/>
<path d="M30.6667 38.668V40.0013V41.3346L32 40.0013L33.3333 41.3346V40.0013V38.668H30.6667Z" fill="#2D25C5"/>
<path d="M31.6107 29.7466C31.4313 29.8225 31.2787 29.9493 31.1708 30.1089C31.0631 30.2685 31.0001 30.4609 31.0001 30.668C31.0001 30.8751 31.0631 31.0675 31.1708 31.2271C31.2787 31.3867 31.4314 31.5135 31.6107 31.5894C31.7305 31.64 31.862 31.668 32 31.668C32.138 31.668 32.2695 31.64 32.3893 31.5894C32.5088 31.5388 32.6165 31.4656 32.707 31.3751C32.888 31.1942 33 30.9441 33 30.668C33 30.3919 32.888 30.1419 32.707 29.9609C32.6165 29.8704 32.5088 29.7972 32.3893 29.7466C32.2695 29.696 32.138 29.668 32 29.668C31.862 29.668 31.7305 29.696 31.6107 29.7466Z" fill="#F0263C"/>
<path d="M30.5 30.668C30.5 31.4951 31.1729 32.168 32 32.168C32.8271 32.168 33.5 31.4951 33.5 30.668C33.5 29.8409 32.8271 29.168 32 29.168C31.1729 29.168 30.5 29.8409 30.5 30.668ZM32.707 29.9609C32.888 30.1419 33 30.3918 33 30.668C33 30.9442 32.888 31.1942 32.707 31.3751C32.6165 31.4656 32.5088 31.5388 32.3893 31.5894C32.2695 31.64 32.138 31.668 32 31.668C31.862 31.668 31.7305 31.64 31.6107 31.5894C31.4313 31.5135 31.2787 31.3867 31.1708 31.2271C31.0631 31.0675 31.0001 30.8751 31.0001 30.668C31.0001 30.4609 31.0631 30.2685 31.1708 30.1089C31.2787 29.9493 31.4314 29.8225 31.6107 29.7466C31.7305 29.696 31.862 29.668 32 29.668C32.138 29.668 32.2695 29.696 32.3893 29.7466C32.5088 29.7972 32.6165 29.8705 32.707 29.9609Z" fill="#FF99CC"/>
<path d="M33.3333 37.332H32H30.6667H29.3333V38.6654H30.6667H33.3333H34.6667V37.332H33.3333Z" fill="#C8C8C8"/>
<path d="M29.3367 36.0039H27.3383L29.3334 37.3339H30.6668L29.3367 36.0039Z" fill="#2D25C5"/>
<path d="M33.3301 36.0039H30.6699L32 37.3339L33.3301 36.0039Z" fill="#2D25C5"/>
<path d="M34.6666 37.3339L36.6618 36.0039H34.6633L33.3333 37.3339H34.6666Z" fill="#2D25C5"/>
<path d="M26.6667 28L25.3333 29.3333H24L25.3333 32L26.6667 29.3333V28Z" fill="#619B27"/>
<path d="M25.3333 32H24L25.3333 34.6667L26.6667 32H25.3333Z" fill="#619B27"/>
<path d="M28 37.332H25.3333L27.3333 39.332L26.6667 39.9987H28H29.3333H30.6667L29.3333 38.6654L28 37.332Z" fill="#619B27"/>
<path d="M26.3092 36.0046L27.0524 34.668H26.6667H25.3333H24L25.3333 37.3346L26.3309 36.0046H26.3092Z" fill="#619B27"/>
<path d="M35.3333 33.9987H28.6667L29.3333 33.332H28.7933L27.7943 35.1289H36.2057L35.2067 33.332H34.6667L35.3333 33.9987Z" fill="#007ACC"/>
<path d="M38.6666 32L40 29.3333H38.6666L37.3333 28V29.3333L38.6666 32Z" fill="#619B27"/>
<path d="M38.6666 34.6667L40 32H38.6666H37.3333L38.6666 34.6667Z" fill="#619B27"/>
<path d="M36.6666 39.332L38.6666 37.332H36L34.6666 38.6654L33.3333 39.9987H34.6666H36H37.3333L36.6666 39.332Z" fill="#619B27"/>
<path d="M36.9476 34.668L37.6908 36.0046H37.6691L38.6667 37.3346L40 34.668H38.6667H37.3333H36.9476Z" fill="#619B27"/>
<path d="M28 32.9639L27.0524 34.6683L26.3092 36.0049H37.6907L36.9475 34.6683L35.9999 32.9639L34.7235 30.6683L34.6665 30.5658L31.9998 25.7695L30.6665 28.1676L29.3332 30.5658L29.2762 30.6683L28 32.9639ZM35.2067 33.335L36.2057 35.1319H27.7942L28.7932 33.335L31.9999 27.5671L35.2067 33.335Z" fill="#CC9500"/>
<path d="M25.3333 26.668L26.6667 28.0013L28 26.668H25.3333Z" fill="#619B27"/>
<path d="M38.6667 26.668H36L37.3333 28.0013L38.6667 26.668Z" fill="#619B27"/>
<path d="M35.3333 34L34.6667 33.3333H33.3333L32.6667 32.6667L32 33.3333L30.6667 32L29.3333 33.3333L28.6667 34H35.3333Z" fill="#619B27"/>
<path d="M32 22.168C26.2103 22.168 21.5 26.8783 21.5 32.668C21.5 36.2923 23.3317 39.6133 26.3997 41.5515L26.9336 40.7058C24.1576 38.9522 22.5 35.9473 22.5 32.668C22.5 27.4297 26.7617 23.168 32 23.168C37.2383 23.168 41.5 27.4297 41.5 32.668C41.5 35.9473 39.8424 38.9522 37.0664 40.7058L37.6003 41.5515C40.6683 39.6133 42.5 36.2924 42.5 32.668C42.5 26.8783 37.7897 22.168 32 22.168Z" fill="#CC9500"/>
</g>
</svg>
