<svg width="64" height="64" viewBox="0 0 64 64" fill="none" xmlns="http://www.w3.org/2000/svg">
<mask id="mask0_12133_18987" style="mask-type:luminance" maskUnits="userSpaceOnUse" x="0" y="0" width="64" height="64">
<path d="M64 0H0V64H64V0Z" fill="white"/>
</mask>
<g mask="url(#mask0_12133_18987)">
<path d="M32 31.9985L21.3333 21.3318L9.379 9.37759L9.3725 9.37109C3.5817 15.162 0 23.162 0 31.9985C0 40.835 3.5817 48.835 9.3726 54.6259L9.3789 54.6197L21.3334 42.6652L32 31.9985Z" fill="#007ACC"/>
<path d="M9.37915 54.6222C15.1683 60.4146 23.1628 64.0013 32 64.0013C45.932 64.0013 57.7782 55.0952 62.1719 42.668H21.3333L9.37915 54.6222Z" fill="#F0263C"/>
<path d="M62.172 21.3333C57.7783 8.9061 45.932 0 32 0C23.1628 0 15.1684 3.5867 9.37915 9.3791L21.3335 21.3333H62.172Z" fill="#619B27"/>
<path d="M62.1719 21.332H21.3333L32 31.9987L21.3333 42.6654H62.1718C63.3517 39.3283 63.9999 35.7399 63.9999 31.9987C63.9999 28.2575 63.3517 24.6692 62.1719 21.332ZM49.0573 23.7225L50 24.6653L49.0573 25.6081L48.1144 24.6653L49.0573 23.7225ZM46.724 23.0558L47.6667 23.9986L46.724 24.9414L45.7811 23.9986L46.724 23.0558ZM44.0573 22.3891L45 23.3319L44.0573 24.2747L43.1144 23.3319L44.0573 22.3891ZM41.3906 22.3891L42.3333 23.3319L41.3906 24.2747L40.4477 23.3319L41.3906 22.3891ZM38.7239 23.0558L39.6666 23.9986L38.7239 24.9414L37.781 23.9986L38.7239 23.0558ZM37.3906 25.332H48.0573V35.9987L46.724 37.9987H44.0573L42.724 38.6654L41.3907 37.9987H38.724L37.3907 35.9987L37.3906 25.332ZM36.3906 23.7225L37.3333 24.6653L36.3906 25.6081L35.4477 24.6653L36.3906 23.7225ZM50.6666 37.332L49.3333 39.9987H45.3333V41.332H40V39.9987H36L34.6667 37.332V33.332L36 34.6653V37.332L37.3333 38.6653H41.3333V39.9986H44V38.6653H48L49.3333 37.332V34.6653L50.6666 33.332V37.332Z" fill="white"/>
<path d="M49.3335 37.332L48 38.6654H44V39.9987H41.3335V38.6654H37.3335L36 37.332V34.6654L34.6667 33.332V37.332L36 39.9987H40V41.332H45.3335V39.9987H49.3335L50.6667 37.332V33.332L49.3335 34.6654V37.332Z" fill="#C8C8C8"/>
<path d="M44.0573 22.3906L43.1145 23.3333L44.0572 24.2762L45.0001 23.3334L44.0573 22.3906Z" fill="#FFD400"/>
<path d="M41.3906 22.3906L40.4478 23.3333L41.3905 24.2762L42.3333 23.3334L41.3906 22.3906Z" fill="#FFD400"/>
<path d="M36.3906 23.7227L35.4478 24.6654L36.3905 25.6082L37.3333 24.6655L36.3906 23.7227Z" fill="#FFD400"/>
<path d="M49.0573 23.7227L48.1145 24.6654L49.0572 25.6083L50.0001 24.6656L49.0573 23.7227Z" fill="#FFD400"/>
<path d="M46.724 23.0586L45.7811 24.0013L46.7239 24.9441L47.6667 24.0014L46.724 23.0586Z" fill="#FFD400"/>
<path d="M38.724 23.0586L37.7811 24.0014L38.7239 24.9442L39.6667 24.0015L38.724 23.0586Z" fill="#FFD400"/>
<path d="M41.3906 37.9987L42.7239 38.6654L44.0572 37.9987H46.7239L48.0572 35.9987V25.332H37.3905V35.9987L38.7238 37.9987H41.3906ZM38.7239 29.332L39.9999 28.6653L41.3905 26.6653L42.7238 25.9986L43.9998 26.6653L44.6665 27.9986L45.3905 27.3319L46.7238 27.9986L47.3332 29.3319L46.7238 30.6652H45.3905L44.0572 29.9985H43.7239L43.3906 30.6652V33.3319L44.0573 37.3319H41.3906L42.0573 33.3319V30.6652L41.9238 30.3985L41.3906 30.6652H38.7239V29.332Z" fill="#C8C8C8"/>
<path d="M41.9238 30.4L42.0573 30.6667V33.3333L41.3906 37.3333H44.0573L43.3906 33.3333V30.6667L43.724 30H42.724L41.9238 30.4Z" fill="#5A2919"/>
<path d="M41.3906 30.6667L41.9238 30.4L42.724 30H43.724H44.0573L45.3906 30.6667H46.724L47.3333 29.3333L46.724 28L45.3906 27.3333L44.6667 28L44 26.6667L42.724 26L41.3906 26.6667L40 28.6667L38.724 29.3333V30.6667H40.0573H41.3906Z" fill="#619B27"/>
</g>
</svg>
