<svg width="64" height="64" viewBox="0 0 64 64" fill="none" xmlns="http://www.w3.org/2000/svg">
<mask id="mask0_12133_18988" style="mask-type:luminance" maskUnits="userSpaceOnUse" x="0" y="0" width="64" height="64">
<path d="M64 0H0V64H64V0Z" fill="white"/>
</mask>
<g mask="url(#mask0_12133_18988)">
<path d="M32 64C49.6731 64 64 49.6731 64 32C64 14.3269 49.6731 0 32 0C14.3269 0 0 14.3269 0 32C0 49.6731 14.3269 64 32 64Z" fill="#F0263C"/>
<path d="M63.6174 27.0485C61.2371 11.7269 47.9889 0 32 0C22.3835 0 13.7643 4.248 7.89832 10.9626L63.9823 32C63.9823 30.3535 63.8571 28.6979 63.6174 27.0485Z" fill="#619B27"/>
<path d="M63.6174 36.9515C61.2372 52.2731 47.989 64 32 64C22.3835 64 13.7643 59.752 7.89832 53.0374L63.9823 32C63.9823 33.6465 63.8571 35.3021 63.6174 36.9515Z" fill="#007ACC"/>
<path d="M14.6667 34.6654V31.9987L16 29.332L16.6667 27.9987L17.3333 26.6654L18.6667 27.9987L20 26.6654H18.6667L20 25.332H18.6667V23.9987L17.3333 26.6654V23.9987V22.6654L16 21.332V22.6654L14.6667 21.332V22.6654H13.3333L14.6667 23.9987H16V26.6654L14.6667 29.332L13.3333 31.9987V34.6654L14.6667 37.332V42.6654V43.9987H16V42.6654V37.332L14.6667 34.6654Z" fill="#FFD400"/>
<path d="M12 25.332V26.6654L10.6667 25.332V26.6654L12 27.9987H10.6667L13.3333 29.332H14.6667L13.3333 26.6654L12 25.332Z" fill="#FFD400"/>
<path d="M10.6666 30.668V32.0013L9.33325 30.668V32.0013L10.6666 33.3346H9.33325L10.6666 34.668H13.3332L11.9999 32.0013L10.6666 30.668Z" fill="#FFD400"/>
<path d="M20 30.6654H18.6667L20 29.332H18.6667L17.3333 30.6654V29.332L16 30.6654L14.6667 31.9987H18.6667L20 30.6654Z" fill="#FFD400"/>
<path d="M20 35.9987L21.3333 34.6654H20V33.332L17.3333 34.6654L18.6667 33.332H17.3333L16 34.6654V35.9987V37.332L18.6667 35.9987H20Z" fill="#FFD400"/>
<path d="M26.6667 26.6667L25.3333 24V25.3333L24 24V22.6667H22.6667V21.3333H21.3333L20 20V21.3333L18.6667 20H17.3333L18.6667 21.3333H17.3333L18.6667 22.6667H20L21.3333 24L22.6667 25.3333H21.3333L22.6667 26.6667L24 28H22.6667L24 30.6667L22.6667 29.3333V32L24 34.6667L22.6667 33.3333V37.3333L21.3333 38.6667V37.3333L18.6667 41.3333L16 42.6667L17.3333 44H18.6667L17.3333 42.6667H20L22.6667 41.3333L24 40L25.3333 38.6667H24L26.6667 36V33.3333L25.3333 34.6667L26.6667 32V30.6667V28L25.3333 29.3333L26.6667 26.6667Z" fill="#FFD400"/>
<path d="M9.3333 37.3333V38.6667L8 37.3333V33.3333L6.6667 34.6667L8 32V29.3333L6.6667 30.6667L8 28H6.6667L8 26.6667L9.3333 25.3333H8L9.3333 24L10.6667 22.6667H12L13.3333 21.3333H12L13.3333 20H12L10.6667 21.3333V20L9.3333 21.3333H8V22.6667H6.6667V24L5.3333 25.3333V24L4 26.6667L5.3333 29.3333L4 28V30.6667V32L5.3333 34.6667L4 33.3333V36L6.6667 38.6667H5.3333L6.6667 40L8 41.3333L10.6667 42.6667H13.3333L12 44H13.3333L14.6667 42.6667L12 41.3333L9.3333 37.3333Z" fill="#FFD400"/>
</g>
</svg>
