<svg width="64" height="64" viewBox="0 0 64 64" fill="none" xmlns="http://www.w3.org/2000/svg">
<mask id="mask0_12133_18989" style="mask-type:luminance" maskUnits="userSpaceOnUse" x="0" y="0" width="64" height="64">
<path d="M64 0H0V64H64V0Z" fill="white"/>
</mask>
<g mask="url(#mask0_12133_18989)">
<path d="M32 0C21.8966 0 12.8929 4.687 7.02832 12H56.9717C51.1071 4.687 42.1034 0 32 0Z" fill="#007ACC"/>
<path d="M32 64C42.1034 64 51.1071 59.313 56.9717 52H7.02832C12.8929 59.313 21.8966 64 32 64Z" fill="#007ACC"/>
<path d="M56.9717 12H7.02833C6.01873 13.2588 5.10433 14.5957 4.29163 16H59.7083C58.8956 14.5957 57.9813 13.2588 56.9717 12Z" fill="#FFD400"/>
<path d="M7.02835 52H56.9718C57.9814 50.7412 58.8958 49.4042 59.7085 48H4.29175C5.10445 49.4042 6.01875 50.7412 7.02835 52Z" fill="#FFD400"/>
<path d="M59.7083 16H4.2917C1.5671 20.7079 0 26.1693 0 32C0 37.8307 1.5671 43.2921 4.2917 48H59.7084C62.4329 43.2921 64.0001 37.8307 64.0001 32C64.0001 26.1693 62.4329 20.7079 59.7083 16ZM58.6666 32H57.3333V34.6667L56 36H54.6667L53.3334 34.6667V32H47.9983L48.0001 32.0031C45.422 36.8514 40.4511 40.3646 34.5488 41.1594C33.7163 41.2715 32.8655 41.3303 32.0001 41.3303C24.9985 41.3303 18.9418 37.5353 16.0001 32.0032L16.0019 32.0001H12.0001V34.6668L10.6668 36.0001H9.3335L8.0002 34.6668V32.0001H6.6669V30.6668H16.8039C17.1066 30.2073 17.4306 29.7622 17.777 29.3335H10.6668V28.0002H18.9736C19.4409 27.531 19.9322 27.0834 20.4529 26.6669H14.6668V25.3336H22.3663C25.1471 23.6498 28.4509 22.67 32.0001 22.67C35.5493 22.67 38.853 23.6498 41.6339 25.3336H54.6668V26.6669H43.5473C44.0681 27.0834 44.5594 27.531 45.0267 28.0002H50.6668V29.3335H46.2233C46.5697 29.7622 46.8937 30.2074 47.1964 30.6668H58.6669L58.6666 32Z" fill="#F0263C"/>
<path d="M54.6667 26.6653V25.332H41.6338C42.3031 25.7373 42.9427 26.1819 43.5471 26.6653H54.6667Z" fill="#FFD400"/>
<path d="M14.6667 25.332V26.6653H20.4528C21.0573 26.1819 21.6969 25.7372 22.3662 25.332H14.6667Z" fill="#FFD400"/>
<path d="M6.66675 30.668V32.0013H16.0019C16.2458 31.543 16.5185 31.1014 16.8038 30.668H6.66675Z" fill="#FFD400"/>
<path d="M47.9982 32.0013H58.6667V30.668H47.1962C47.4816 31.1014 47.7543 31.543 47.9982 32.0013Z" fill="#FFD400"/>
<path d="M18.9735 28H10.6667V29.3333H17.7769C18.1518 28.8693 18.5508 28.4245 18.9735 28Z" fill="#FFD400"/>
<path d="M46.2231 29.3333H50.6666V28H45.0265C45.4492 28.4246 45.8482 28.8693 46.2231 29.3333Z" fill="#FFD400"/>
<path d="M33.3333 34.668V30.668L30.6666 26.668V25.3347L31.9999 22.668C28.4507 22.668 25.1469 23.6478 22.3661 25.3316C21.6968 25.7369 21.0572 26.1815 20.4527 26.6649C19.9319 27.0814 19.4407 27.529 18.9734 27.9982C18.5507 28.4228 18.1517 28.8675 17.7768 29.3315C17.4304 29.7602 17.1063 30.2054 16.8037 30.6648C16.5184 31.0982 16.2457 31.5398 16.0018 31.9981L16 32.0012C18.9417 37.5333 24.9984 41.3283 32 41.3283C32.8654 41.3283 33.7161 41.2695 34.5487 41.1574L32 37.3345L33.3333 34.668ZM21.3333 28.0083H29.3333V30.6649H21.3333V28.0083ZM29.3333 35.9932H21.3333V33.3366H29.3333V35.9932Z" fill="black"/>
<path d="M46.2231 29.3315C45.8482 28.8675 45.4492 28.4227 45.0265 27.9982C44.5592 27.529 44.0678 27.0814 43.5471 26.6649C42.9427 26.1815 42.303 25.7368 41.6338 25.3316C38.853 23.6478 35.5492 22.668 32 22.668L30.6667 25.3347V26.668L33.3334 30.668V34.668L32.0001 37.3347L34.5488 41.1576C40.4511 40.3628 45.422 36.8497 48.0001 32.0013L47.9983 31.9982C47.7544 31.5399 47.4817 31.0983 47.1963 30.6649C46.8936 30.2054 46.5696 29.7602 46.2231 29.3315ZM42.6666 35.9931H34.6666V33.3365H42.6666V35.9931ZM34.6666 28.0082H42.6666V30.6648H34.6666V28.0082Z" fill="white"/>
<path d="M29.3333 28.0117H21.3333V30.6683H29.3333V28.0117Z" fill="white"/>
<path d="M29.3333 33.3398H21.3333V35.9964H29.3333V33.3398Z" fill="white"/>
<path d="M42.6667 28.0117H34.6667V30.6683H42.6667V28.0117Z" fill="black"/>
<path d="M42.6667 33.3398H34.6667V35.9964H42.6667V33.3398Z" fill="black"/>
<path d="M8 34.6667L9.3333 36H10.6667L12 34.6667V32H8V34.6667Z" fill="black"/>
<path d="M53.3333 34.6667L54.6666 36H56L57.3333 34.6667V32H53.3333V34.6667Z" fill="black"/>
</g>
</svg>
