<svg width="64" height="64" viewBox="0 0 64 64" fill="none" xmlns="http://www.w3.org/2000/svg">
<mask id="mask0_12133_18990" style="mask-type:luminance" maskUnits="userSpaceOnUse" x="0" y="0" width="64" height="64">
<path d="M64 0H0V64H64V0Z" fill="white"/>
</mask>
<g mask="url(#mask0_12133_18990)">
<path d="M62.1719 21.332H43.9227C46.457 24.1629 48 27.9 48 31.9987C48 36.0974 46.457 39.8345 43.9227 42.6654H62.1719C63.3518 39.3283 64 35.7399 64 31.9987C64 28.2575 63.3517 24.6692 62.1719 21.332Z" fill="#FFD400"/>
<path d="M16 31.9987C16 27.9 17.543 24.1629 20.0773 21.332H1.8281C0.6483 24.6692 0 28.2575 0 31.9987C0 35.7399 0.6483 39.3282 1.8281 42.6654H20.0773C17.543 39.8345 16 36.0974 16 31.9987Z" fill="#FFD400"/>
<path d="M32 16C36.7379 16 40.993 18.061 43.9227 21.3333H62.1719C57.7782 8.9061 45.932 0 32 0C18.068 0 6.22184 8.9061 1.82812 21.3333H20.0773C23.007 18.0609 27.2621 16 32 16Z" fill="#619B27"/>
<path d="M32 48.0013C27.2621 48.0013 23.007 45.9403 20.0773 42.668H1.82812C6.22184 55.0952 18.068 64.0013 32 64.0013C45.932 64.0013 57.7782 55.0952 62.1719 42.668H43.9227C40.993 45.9404 36.7379 48.0013 32 48.0013Z" fill="#F0263C"/>
<path d="M33.1338 36.3457L37.2621 39.3444L35.6853 34.4922C34.4784 35.3688 33.4066 36.1475 33.1338 36.3457Z" fill="#2D25C5"/>
<path d="M36.3865 32.3346L40.5136 29.3359H35.4117L36.3865 32.3346Z" fill="#2D25C5"/>
<path d="M32 23.1484L30.4235 28.0007H33.6305L32 23.1484Z" fill="#2D25C5"/>
<path d="M34.0098 29.3359H29.9902L28.7479 33.1585L32 35.5214L35.2521 33.1585L34.0098 29.3359Z" fill="#2D25C5"/>
<path d="M27.6138 32.3346L28.5882 29.3359H23.4863L27.6138 32.3346Z" fill="#2D25C5"/>
<path d="M26.738 39.3405L30.8663 36.3418C30.5935 36.1436 29.5217 35.3649 28.3149 34.4883L26.738 39.3405Z" fill="#2D25C5"/>
<path d="M32 16C27.2621 16 23.007 18.061 20.0773 21.3333C17.543 24.1642 16 27.9013 16 32C16 36.0987 17.543 39.8358 20.0773 42.6667C23.007 45.9391 27.2621 48 32 48C36.7379 48 40.993 45.939 43.9227 42.6667C46.457 39.8358 48 36.0987 48 32C48 27.9013 46.457 24.1642 43.9227 21.3333C40.993 18.0609 36.7379 16 32 16ZM24.7018 20.9876L28.735 26.5388L27.6565 27.3222L23.6236 21.7714L24.7018 20.9876ZM19.1133 35.653L25.5243 33.5699L25.9364 34.838L19.5248 36.9213L19.1133 35.653ZM31.3334 45.5V38.8333H32.6667V45.5H31.3334ZM44.4753 36.9212L38.0637 34.8379L38.4758 33.5698L44.8868 35.6529L44.4753 36.9212ZM36.8195 33.666L37.9572 37.1676L39.798 42.8333L32 37.1676L24.202 42.8333C24.202 42.8333 25.1737 39.8424 26.0428 37.1676L27.1805 33.666L19.3825 28.0006H29.0215L32 18.8333L34.9785 28.0006H44.6175L36.8195 33.666ZM40.3763 21.7715L36.3434 27.3223L35.2649 26.5389L39.2981 20.9877L40.3763 21.7715Z" fill="#2D25C5"/>
<path d="M31.9999 18.832L29.0214 27.9993H19.3824L27.1804 33.6647L26.0427 37.1663C25.1736 39.8411 24.2019 42.832 24.2019 42.832L31.9999 37.1663L39.7979 42.832L37.9571 37.1663L36.8194 33.6647L44.6174 27.9993H34.9784L31.9999 18.832ZM31.9999 23.1471L33.6304 27.9993H30.4234L31.9999 23.1471ZM23.4862 29.3326H28.5881L27.6137 32.3313L23.4862 29.3326ZM26.7378 39.3411L28.3146 34.4889C29.5215 35.3655 30.5932 36.1442 30.866 36.3424L26.7378 39.3411ZM37.2619 39.3411L33.1336 36.3424C33.4064 36.1442 34.4782 35.3655 35.685 34.4889L37.2619 39.3411ZM40.5135 29.3326L36.3864 32.3313L35.4117 29.3326H40.5135ZM31.9998 35.5181L28.7477 33.1551L29.9899 29.3325H34.0098L35.252 33.1551L31.9998 35.5181Z" fill="#FFD400"/>
<path d="M25.5243 33.5703L19.113 35.6536L19.525 36.9216L25.9363 34.8384L25.5243 33.5703Z" fill="#FFD400"/>
<path d="M24.7021 20.9883L23.6237 21.7718L27.6564 27.323L28.7348 26.5395L24.7021 20.9883Z" fill="#FFD400"/>
<path d="M39.2979 20.9883L35.2651 26.5395L36.3436 27.3229L40.3763 21.7717L39.2979 20.9883Z" fill="#FFD400"/>
<path d="M32.6666 38.832H31.3333V45.4987H32.6666V38.832Z" fill="#FFD400"/>
<path d="M38.4757 33.5703L38.0637 34.8384L44.4751 36.9216L44.8871 35.6535L38.4757 33.5703Z" fill="#FFD400"/>
</g>
</svg>
