<svg width="64" height="64" viewBox="0 0 64 64" fill="none" xmlns="http://www.w3.org/2000/svg">
<mask id="mask0_12133_19119" style="mask-type:luminance" maskUnits="userSpaceOnUse" x="0" y="0" width="64" height="64">
<path d="M64 0H0V64H64V0Z" fill="white"/>
</mask>
<g mask="url(#mask0_12133_19119)">
<path d="M32 64C49.6731 64 64 49.6731 64 32C64 14.3269 49.6731 0 32 0C14.3269 0 0 14.3269 0 32C0 49.6731 14.3269 64 32 64Z" fill="#191977"/>
<path d="M35.3333 7.3333L32 4L28.6667 7.3333L32 10.6666L35.3333 7.3333Z" fill="#FFD400"/>
<path d="M22.5534 8.97007L18 7.75L16.7799 12.3034L21.3333 13.5234L22.5534 8.97007Z" fill="#FFD400"/>
<path d="M12.3046 16.7812L7.75122 18.0014L8.97129 22.5548L13.5246 21.3347L12.3046 16.7812Z" fill="#FFD400"/>
<path d="M7.3333 28.668L4 32.0013L7.3333 35.3346L10.6666 32.0013L7.3333 28.668Z" fill="#FFD400"/>
<path d="M8.97129 41.4453L7.75122 45.9986L12.3046 47.2187L13.5246 42.6653L8.97129 41.4453Z" fill="#FFD400"/>
<path d="M16.7799 51.6967L18 56.2501L22.5534 55.03L21.3333 50.4766L16.7799 51.6967Z" fill="#FFD400"/>
<path d="M28.6666 56.6653L31.9999 59.9986L35.3332 56.6653L31.9999 53.332L28.6666 56.6653Z" fill="#FFD400"/>
<path d="M41.4468 55.03L46.0002 56.2501L47.2202 51.6967L42.6669 50.4766L41.4468 55.03Z" fill="#FFD400"/>
<path d="M51.6954 47.2187L56.2488 45.9986L55.0287 41.4453L50.4753 42.6653L51.6954 47.2187Z" fill="#FFD400"/>
<path d="M56.6668 35.3346L60.0001 32.0013L56.6668 28.668L53.3335 32.0013L56.6668 35.3346Z" fill="#FFD400"/>
<path d="M55.0287 22.5548L56.2488 18.0014L51.6954 16.7812L50.4753 21.3347L55.0287 22.5548Z" fill="#FFD400"/>
<path d="M47.2202 12.3033L46.0002 7.75L41.4468 8.97008L42.6669 13.5234L47.2202 12.3033Z" fill="#FFD400"/>
</g>
</svg>
