<svg width="64" height="64" viewBox="0 0 64 64" fill="none" xmlns="http://www.w3.org/2000/svg">
<mask id="mask0_12133_19244" style="mask-type:luminance" maskUnits="userSpaceOnUse" x="0" y="0" width="64" height="64">
<path d="M64 0H0V64H64V0Z" fill="white"/>
</mask>
<g mask="url(#mask0_12133_19244)">
<path d="M32 64C49.6731 64 64 49.6731 64 32C64 14.3269 49.6731 0 32 0C14.3269 0 0 14.3269 0 32C0 49.6731 14.3269 64 32 64Z" fill="#191977"/>
<path d="M32 8.00138V6.66808H26.8073L32 3.20628V1.60388L24.4036 6.66808H20V6.39898L29.4284 0.113281C28.4256 0.193081 27.4362 0.318681 26.4614 0.488881L20 4.79658V2.33638C19.5501 2.51858 19.1061 2.71108 18.6667 2.91278V8.00138H32Z" fill="white"/>
<path d="M13.3333 6.01562C12.4708 6.63633 11.6404 7.29782 10.8453 7.99932H13.3333V6.01562Z" fill="white"/>
<path d="M18.6667 21.332H20V16.5369L27.1927 21.332H29.5964L20 14.9345V14.6654H24.4036L32 19.7296V18.1272L26.8073 14.6654H32V13.332H18.6667V21.332Z" fill="white"/>
<path d="M6.01639 13.332C5.70239 13.7684 5.39949 14.2129 5.10739 14.6653C5.08599 14.6984 5.06479 14.7317 5.04359 14.7649C4.50449 15.6063 4.00419 16.4741 3.54419 17.3669L7.59649 14.6654H12.0001V14.9345L2.40369 21.332H4.80729L12 16.5368V21.332H13.3333V13.332H6.01639Z" fill="white"/>
<path d="M20 6.6667H24.4036L32 1.6025V0C31.1335 0 30.2777 0.0444 29.4284 0.1119L20 6.3975V6.6667Z" fill="#F0263C"/>
<path d="M20 14.668V14.9371L29.5964 21.3346H32V19.7322L24.4036 14.668H20Z" fill="#F0263C"/>
<path d="M12 14.9371V14.668H7.59645L3.54415 17.3695C2.88725 18.6444 2.31165 19.9672 1.82825 21.3346H2.40375L12 14.9371Z" fill="#F0263C"/>
<path d="M13.3334 21.3321H18.6667V13.3321H32V7.99876H18.6667V2.91016C16.7831 3.77506 14.9987 4.81656 13.3334 6.01506V7.99876H10.8454C9.04316 9.58856 7.42306 11.3775 6.01636 13.3321H13.3335L13.3334 21.3321Z" fill="#F0263C"/>
<path d="M40 45.3333L39.3333 47.3333L40 48L41.3333 48.6667V45.6667L39.111 44H38.6665L37.3333 45.3333L38.6665 46.6667L40 45.3333Z" fill="#FFAD66"/>
<path d="M37.3333 49.3346V48.0013L36 46.668V49.3346L37.3333 50.668H38.6667L39.5555 50.2235L38.6667 49.3346H37.3333Z" fill="#FFAD66"/>
<path d="M52 48.6667L53.3333 48L54 47.3333L53.3333 45.3333L54.6667 46.6667L56 45.3333L54.6667 44H54.2222L52 45.6667V48.6667Z" fill="#FFAD66"/>
<path d="M56 49.3346H54.6667L53.7778 50.2235L54.6667 50.668H56L57.3333 49.3346V46.668L56 48.0013V49.3346Z" fill="#FFAD66"/>
<path d="M48 42.6654H49.3333L48 41.332V42.6654Z" fill="#6D8DE4"/>
<path d="M44 42.6654H46.6667V41.332H45.3333L44 42.6654Z" fill="#6D8DE4"/>
<path d="M40 42.6654V41.332H38.6667H38.3743L38.512 41.8827L41.3333 43.9987L40 42.6654Z" fill="#6D8DE4"/>
<path d="M52 43.9987L54.8213 41.8827L54.959 41.332H54.6667H53.3333L52 42.6654V43.9987Z" fill="#6D8DE4"/>
<path d="M52 40L53.3333 38.6667H54.6667L55.4338 39.4338L55.9671 37.3005L54.6667 36H53.3333L52 37.3333V38.6667V40Z" fill="#6D8DE4"/>
<path d="M45.3333 36L44 37.3333V38.6667L45.3333 36Z" fill="#6D8DE4"/>
<path d="M40 36H38.6667L37.3662 37.3005L37.8995 39.4338L38.6667 38.6667H40L40.8888 36.8889L40 36Z" fill="#6D8DE4"/>
<path d="M48 38.6675L48.8888 36.8897L48.4445 36.4453L48 37.3341V38.6675Z" fill="#6D8DE4"/>
<path d="M50.6666 32L51.9999 33.3333V32H50.6666Z" fill="#6D8DE4"/>
<path d="M37.3333 22.668V34.668L38.6665 33.3346H40L40.6665 34.0013L41.3333 33.3346V32.0013L42.6665 33.3346V32.0013L41.3333 29.3346V28.0013V26.668H40V25.3346L41.3333 24.0013H44L45.3333 25.3346H52L53.3333 26.668L53.3016 29.2711L52.6665 30.668L53.3333 32.0013V33.3346L54.6665 32.0013V33.3346L56 34.668V22.668H37.3333Z" fill="#6D8DE4"/>
<path d="M48 30.668H45.3333V32.0013L46.6665 33.3346L47.7029 32.0648L47.7085 32.0818L47.7141 32.0648L48 33.3346L49.3333 32.0013L48 30.668Z" fill="#6D8DE4"/>
<path d="M45.3333 41.3333H46.6667V40H44V42.6667L45.3333 41.3333Z" fill="white"/>
<path d="M49.3333 42.6667L50.6667 40H48V41.3333L49.3333 42.6667Z" fill="white"/>
<path d="M42.6665 42V40H41.3333V41.3333L42.6665 42Z" fill="white"/>
<path d="M52 42.6654L53.3333 41.332H52V42.6654Z" fill="white"/>
<path d="M43.9999 32H42.6666L43.9999 33.3333L44.2221 32.0635L45.3332 33.3333V32H43.9999Z" fill="#FFAD66"/>
<path d="M49.3333 33.3333L50.6665 32H49.3333V33.3333Z" fill="#FFAD66"/>
<path d="M52 33.3346L53.3333 32.0013L52.6667 30.668L52 32.0013V33.3346Z" fill="#FFAD66"/>
<path d="M53.3333 33.3333H54.6665V32L53.3333 33.3333Z" fill="#619B27"/>
<path d="M45.3333 33.3333H46.6665L45.3333 32V33.3333Z" fill="#619B27"/>
<path d="M47.7084 32.0795L47.7028 32.0625L46.6666 33.3323H47.9999L47.7142 32.0625L47.7084 32.0795Z" fill="#619B27"/>
<path d="M43.9999 33.3333L42.6666 32V33.3333L41.3332 32V33.3333L40.6666 34L41.3332 34.6667H43.9999L45.3332 33.3333L44.2221 32.0635L43.9999 33.3333Z" fill="#619B27"/>
<path d="M52 33.3333L50.6667 32L49.3333 33.3333V32L48 33.3333L49.3333 34.6667H52L53.3333 33.3333V32L52 33.3333Z" fill="#619B27"/>
<path d="M45.3333 32V30.6667H48L49.3333 32H50.6665H52L52.6665 30.6667L53.3016 29.2698L53.3333 26.6667L52 25.3333H45.3333L44 24H41.3333L42.6665 25.3333V26L41.3968 26.6667H41.3333V28V29.3333L42.6665 32H44H45.3333Z" fill="#C8C8C8"/>
<path d="M42.6667 26V25.3333L41.3333 24L40 25.3333V26.6667H41.3333H41.3968L42.6667 26Z" fill="#FFAD66"/>
<path d="M54 47.332L53.3333 47.9987L52 48.6654L50.6667 49.332H42.6667L41.3333 48.6654L40 47.9987L39.3333 47.332L38.6667 46.6654L37.3333 45.332L36 46.6654L37.3333 47.9987L38.6667 49.332L39.5555 50.2209L40 50.6654L44 51.9987H49.3333L53.3333 50.6654L53.7778 50.2209L54.6667 49.332L56 47.9987L57.3333 46.6654L56 45.332L54.6667 46.6654L54 47.332Z" fill="#FFD400"/>
<path d="M45.3333 36.0013L44 38.668V37.3346L45.3333 34.668L41.3333 36.0013L40.8888 36.8902L40 38.668L41.3333 40.0013H42.6667H44H46.6667H48H50.6667H52V38.668V37.3346L53.3333 34.668L49.3333 36.0013L48.8888 36.8902L48 38.668V37.3346L48.4445 36.4458L49.3333 34.668L45.3333 36.0013Z" fill="#FFD400"/>
<path d="M36 21.332V37.332L36.8333 40.6653L37.3333 42.6653L39.1111 43.9986L41.3333 45.6653L42.6666 46.6653L46.6666 47.9986L50.6666 46.6653L51.9999 45.6653L54.2221 43.9986L55.9999 42.6653L56.4999 40.6653L57.3332 37.332V21.332H36ZM56 34.6653L54.6667 33.332H53.3334L52.0001 34.6653H49.3334L48.4446 36.4431L48.8889 36.8875L49.3334 35.9986L53.3334 34.6653L52.0001 37.332L53.3334 35.9987H54.6667L55.9672 37.2992L55.4339 39.4325L54.6667 38.6653H53.3334L52.0001 39.9986H53.3334V41.3319H54.9591L54.8214 41.8826L52.0001 43.9986L50.6668 45.3319L46.6668 46.6652L42.6668 45.3319L41.3335 43.9986L38.5122 41.8826L38.3745 41.3319H40.0002L38.6669 39.9986H41.3336L40.0003 38.6653H38.667L37.8998 39.4325L37.3665 37.2992L38.667 35.9987H40.0003L40.8891 36.8876L41.3336 35.9987L45.3336 34.6654L44.0003 37.3321L45.3336 35.9988L49.3334 34.6653L48.0003 33.3322H45.3336L44.0003 34.6655H41.3336L40.6669 33.9988L40.0002 33.3321H38.6669L37.3336 34.6654V22.6654H56.0003L56 34.6653Z" fill="white"/>
<path d="M49.3332 42.6667H47.9999V41.3333V40H46.6666V41.3333V42.6667H43.9999V40H42.6666V42L41.3332 41.3333V40H38.6666L39.9999 41.3333V42.6667L41.3332 44L42.6666 45.3333L46.6666 46.6667L50.6666 45.3333L51.9999 44V42.6667V41.3333H53.3332V40H51.9999H50.6666L49.3332 42.6667Z" fill="#CC9500"/>
</g>
</svg>
