<svg width="64" height="64" viewBox="0 0 64 64" fill="none" xmlns="http://www.w3.org/2000/svg">
<g clip-path="url(#clip0_12133_19213)">
<mask id="mask0_12133_19213" style="mask-type:luminance" maskUnits="userSpaceOnUse" x="0" y="0" width="64" height="64">
<path d="M64 0H0V64H64V0Z" fill="white"/>
</mask>
<g mask="url(#mask0_12133_19213)">
<path d="M32 64C49.6731 64 64 49.6731 64 32C64 14.3269 49.6731 0 32 0C14.3269 0 0 14.3269 0 32C0 49.6731 14.3269 64 32 64Z" fill="#4DAFE3"/>
<path d="M20 6.6667H24.4036L32 1.6025V0C31.1335 0 30.2777 0.0444 29.4284 0.1119L20 6.3975V6.6667Z" fill="#F0263C"/>
<path d="M20 14.668V14.9371L29.5964 21.3346H32V19.7322L24.4036 14.668H20Z" fill="#F0263C"/>
<path d="M12 14.9371V14.668H7.59645L3.54415 17.3695C2.88725 18.6444 2.31165 19.9672 1.82825 21.3346H2.40375L12 14.9371Z" fill="#F0263C"/>
<path d="M13.3334 21.3321H18.6667V13.3321H32V7.99876H18.6667V2.91016C16.7831 3.77506 14.9987 4.81656 13.3334 6.01506V7.99876H10.8454C9.04316 9.58856 7.42306 11.3775 6.01636 13.3321H13.3335L13.3334 21.3321Z" fill="#F0263C"/>
<path d="M26.4614 0.488281C24.2186 0.879881 22.0564 1.50308 20 2.33578V4.79598L26.4614 0.488281Z" fill="#191977"/>
<path d="M32 18.1298V14.668H26.8073L32 18.1298Z" fill="#191977"/>
<path d="M4.80725 21.3342H12V16.5391L4.80725 21.3342Z" fill="#191977"/>
<path d="M32 6.66502V3.20312L26.8073 6.66502H32Z" fill="#191977"/>
<path d="M20 21.3342H27.1927L20 16.5391V21.3342Z" fill="#191977"/>
<path d="M18.6667 2.91278V8.00138H32V6.66808H26.8073L32 3.20628V1.60388L24.4036 6.66808H20V6.39898L29.4284 0.113281C28.4256 0.193081 27.4362 0.318681 26.4614 0.488881L20 4.79658V2.33638C19.5501 2.51858 19.1061 2.71108 18.6667 2.91278Z" fill="white"/>
<path d="M13.3333 6.01562C12.4708 6.63633 11.6404 7.29782 10.8453 7.99932H13.3333V6.01562Z" fill="white"/>
<path d="M18.6667 21.332H20V16.5369L27.1927 21.332H29.5964L20 14.9345V14.6654H24.4036L32 19.7296V18.1272L26.8073 14.6654H32V13.332H18.6667V21.332Z" fill="white"/>
<path d="M2.40369 21.332H4.80729L11.9999 16.5368V21.332H13.3332V13.332H6.01619C5.70219 13.7684 5.39929 14.2129 5.10719 14.6653C5.08579 14.6984 5.06459 14.7317 5.04339 14.7649C4.50429 15.6063 4.00399 16.4741 3.54399 17.3669L7.59629 14.6654H11.9998V14.9345L2.40369 21.332Z" fill="white"/>
<path d="M42.6667 32.0017L41.8097 31.1445L40.6667 32.6683L39.5238 31.1445L38.6667 32.0017L40 33.335H39.1112L40 34.6683H41.3335L42.2222 33.335H41.3335L42.6667 32.0017Z" fill="white"/>
<path d="M37.3333 33.332V30.6653H39.1667L38.6667 29.9987H42.6667L42.1667 30.6653H44V33.332L41.3333 35.9987H44.6667V29.332H36V35.9987H40L37.3333 33.332Z" fill="white"/>
<path d="M42.6667 38.668L42 40.668L44 40.0014L42.6667 42.668L44 44.0014L42.6667 45.3347L42 43.3347L40 42.668L39.3333 40.668L38 40.0014L40 39.3347L40.6667 40.668L42.6667 38.668H36L37.3333 42.668L41.3333 45.3347L44.6667 46.7633V38.668H42.6667Z" fill="white"/>
<path d="M47.3333 44.0014L48.8571 42.8585L48.6665 42.668V41.3347L50 40.0014L50.6665 39.3347L51.9048 40.5728L52.6665 40.0014H54L52.4762 41.1442L53.3333 42.0014L52.6665 42.668L51.3333 44.0014H50L49.4285 43.43L48.6665 44.0014H47.3333V46.7633L50.6665 45.3347L54.6665 42.668L56 38.668H47.3333V44.0014Z" fill="white"/>
<path d="M47.3333 35.9987H50.6665V33.9987L49.3333 34.6653L50 33.332H48L49.3333 31.9987H48L49.3333 30.6653H50.6665H52H53.3333L54.6665 31.9987H53.3333L54.6665 33.332H52.6665L53.3333 34.6653L52 33.9987V35.9987H56V29.332H47.3333V35.9987Z" fill="white"/>
<path d="M49.3333 30.668L48 32.0014H49.3333L48 33.3347H50L49.3333 34.668L50.6667 34.0014V30.668H49.3333Z" fill="#1E5B00"/>
<path d="M53.3333 34.668L52.6667 33.3347H54.6667L53.3333 32.0014H54.6667L53.3333 30.668H52V34.0014L53.3333 34.668Z" fill="#1E5B00"/>
<path d="M52 30.668H50.6667V34.0014V36.0014H52V34.0014V30.668Z" fill="#5A2919"/>
<path d="M42.222 33.332L41.3333 34.6653H40L39.111 33.332H37.3333L40 35.9987H41.3333L44 33.332H42.222Z" fill="#5A2919"/>
<path d="M40 33.3333L38.6665 32L39.5238 31.1428L40.6665 32.6666L41.8096 31.1428L42.6665 32L41.3333 33.3333H42.222H44V30.6666H42.1665L42.6665 30H38.6665L39.1665 30.6666H37.3333V33.3333H39.111H40Z" fill="#1E5B00"/>
<path d="M49.4285 43.427L48.8571 42.8555L47.3333 43.9984H48.6665L49.4285 43.427Z" fill="#960A3C"/>
<path d="M54 40H52.6667L51.9048 40.5714L52.4762 41.1428L54 40Z" fill="#960A3C"/>
<path d="M50 44H51.3335L52.6667 42.6666L50 40L48.6667 41.3333V42.6666L48.8573 42.8571L49.4286 43.4286L50 44Z" fill="#1E5B00"/>
<path d="M53.3333 41.9987L52.4762 41.1415L51.9048 40.5701L50.6667 39.332L50 39.9987L52.6667 42.6653L53.3333 41.9987Z" fill="#FFD400"/>
<path d="M40 39.3347L38 40.0014L39.3333 40.668L40 42.668L42 43.3347L42.6667 45.3347L44 44.0014L42.6667 42.668L44 40.0014L42 40.668L42.6667 38.668L40.6667 40.668L40 39.3347Z" fill="#C8C8C8"/>
<path d="M36 21.332V29.332H44.6667V35.9987H36V38.6654H44.6667V46.7607L46 47.3321L47.3333 46.7607V38.6654H56V35.9987H47.3333V29.332H56V21.332H36ZM53.3333 25.332L54.6666 26.6653V27.9986H51.9999L53.3332 26.6653H50.6665L47.9998 27.9986H45.3331L47.9998 26.6653H44.6665L41.3332 27.9986H37.3332V26.6653H39.9999L39.3332 24.6653H37.3332V23.332H39.9999L41.3332 25.332V22.6653H43.9999V23.9986H51.9999L48.6666 22.6653H51.9999L54.6666 23.9986L50.6666 25.3319L53.3333 25.332Z" fill="#F0263C"/>
<path d="M52 22.668H48.6665L52 24.0014H44V22.668H41.3333V25.3347L40 23.3347H37.3333V24.668H39.3333L40 26.668H37.3333V28.0014H41.3333L44.6665 26.668H48L45.3333 28.0014H47.3333H48L50.6665 26.668H53.3333L52 28.0014H53.3333H54.6665V26.668L53.3333 25.3347H50.6665L54.6665 24.0014L52 22.668Z" fill="#FFD400"/>
</g>
</g>
<defs>
<clipPath id="clip0_12133_19213">
<rect width="64" height="64" fill="white"/>
</clipPath>
</defs>
</svg>
