<svg width="64" height="64" viewBox="0 0 64 64" fill="none" xmlns="http://www.w3.org/2000/svg">
<mask id="mask0_12133_19214" style="mask-type:luminance" maskUnits="userSpaceOnUse" x="0" y="0" width="64" height="64">
<path d="M64 0H0V64H64V0Z" fill="white"/>
</mask>
<g mask="url(#mask0_12133_19214)">
<path d="M32 64C49.6731 64 64 49.6731 64 32C64 14.3269 49.6731 0 32 0C14.3269 0 0 14.3269 0 32C0 49.6731 14.3269 64 32 64Z" fill="white"/>
<path d="M32 64C43.8424 64 54.1747 57.562 59.7084 48H4.29175C9.82545 57.562 20.1576 64 32 64Z" fill="#F0263C"/>
<path d="M32 0C20.1576 0 9.82545 6.4379 4.29175 16H59.7085C54.1747 6.4379 43.8424 0 32 0Z" fill="#F0263C"/>
<path d="M38.6606 32L38.6595 33.3332L38.6695 33.3357H38.6595L38.6575 36H33.3264V33.3357H30.6642V36H25.3332V32H19.9999C19.9999 38.6274 25.3725 44 31.9999 44C38.6273 44 43.9999 38.6274 43.9999 32H38.6606ZM43.9121 33.3357L43.9218 33.3332L43.9214 33.3357H43.9121Z" fill="#2D25C5"/>
<path d="M29.3332 27.9999L34.6665 30.6666V23.9999C33.5599 23.9999 32.6665 23.1 32.6665 21.9999C32.6665 21.1732 33.1665 20.4666 33.8799 20.1599C33.8591 20.1565 33.8377 20.1553 33.8169 20.152C33.5544 20.1105 33.2894 20.0767 33.0221 20.0516C32.685 20.0199 32.3447 20 31.9998 20C31.6478 20 31.3012 20.0213 30.9578 20.0527C30.8585 20.0617 30.7584 20.0678 30.6599 20.0793C30.3899 20.1107 30.1237 20.153 29.8601 20.2013C29.6887 20.2328 29.5178 20.2656 29.3493 20.3035C29.344 20.3047 29.3385 20.3055 29.3331 20.3068L29.3332 27.9999Z" fill="#F0263C"/>
<path d="M26.6667 24.001V30.67H29.3334V20.3086C23.9913 21.5226 20.0001 26.2913 20.0001 32.0008H25.3334V24.0009L26.6667 24.001Z" fill="#FFAD66"/>
<path d="M44 32.0008C44 26.2912 40.0088 21.5226 34.6667 20.3086V30.6676L34.6573 30.67H37.3335V24.001H38.6667V32.0009L44 32.0008Z" fill="#FFAD66"/>
<path d="M33.3333 33.3331V31.9998H34.6667V33.3331V33.3357H37.3333V33.3332V33.332V30.669H34.6572L34.6667 30.6667L29.3333 28V30.6667V30.669H26.6667V33.332V33.3332V33.3357H29.3333V33.3331V32L29.3343 31.9998H30.6667V33.3331V33.3357H33.3265H33.3333V33.3331Z" fill="white"/>
<path d="M37.3333 30.669V33.332V33.3332V33.3357H34.6667V33.3331V31.9998H33.3333V33.3331V33.3357H33.3265V36H38.6576L38.6596 33.3357V33.3332L38.6606 32L38.6667 24H37.3333V30.669Z" fill="#F0263C"/>
<path d="M30.6668 31.9998H29.3344L29.3334 32V33.3331V33.3357H26.6668V33.3332V33.332V30.669V24H25.3334V31.9999V36H30.6644V34H30.6668V33.3357V33.3331V31.9998Z" fill="#F0263C"/>
</g>
</svg>
