<svg width="64" height="64" viewBox="0 0 64 64" fill="none" xmlns="http://www.w3.org/2000/svg">
<mask id="mask0_12133_19039" style="mask-type:luminance" maskUnits="userSpaceOnUse" x="0" y="0" width="64" height="64">
<path d="M64 0H0V64H64V0Z" fill="white"/>
</mask>
<g mask="url(#mask0_12133_19039)">
<path d="M33.3337 0.0351562V22.6681H1.3868C0.4875 25.6214 0 28.7541 0 32.0015C0 49.6746 14.3269 64.0015 32 64.0015C49.6731 64.0015 64 49.6746 64 32.0015C64 14.7757 50.3875 0.735156 33.3337 0.0351562Z" fill="#191977"/>
<path d="M10.6668 8.15625C6.70607 11.7022 3.63687 16.2196 1.82837 21.3348H10.6668V8.15625Z" fill="#191977"/>
<path d="M31.9998 0V21.3333H21.3331V1.828C17.3582 3.2334 13.7442 5.3992 10.6664 8.1547V21.3333H1.82792C1.67212 21.7737 1.52352 22.2172 1.38672 22.6662C1.38672 22.6663 1.38672 22.6661 1.38672 22.6662L33.3336 22.6666V0.0337C32.8906 0.0155 32.4471 0 31.9998 0Z" fill="white"/>
<path d="M32 21.3333V0C28.2588 0 24.6704 0.6482 21.3333 1.828V21.3333H32Z" fill="#F0263C"/>
<path d="M36 30.6667L38.6665 33.3334L36 36.0001L33.3333 33.3334L36 30.6667ZM56 30.6667L53.3333 33.3334L56 36.0001L58.6665 33.3334L56 30.6667ZM51.3333 42.6667L48.6665 45.3334L51.3333 48.0001L54 45.3334L51.3333 42.6667ZM46 46.5759L43.3333 49.2426L46 51.9093L48.6665 49.2426L46 46.5759ZM38 45.3334L40.6665 48.0001L43.3334 45.3334L40.6665 42.6667L38 45.3334ZM55.3333 41.3334H53.3333L52.3333 40.0001H49L46 45.3334L43 40.0001H39.6665L38.6665 41.3334H36.6665L41.3334 34.0001L44.6665 39.3334V30.6667H40.6665L38.6665 28H53.3334L51.3334 30.6667H47.3334V32H50.6665L49.3334 34H47.3334V39.3333L50.6665 34L55.3333 41.3334ZM42.6665 38.6667L41.3333 36.5759L40 38.6667H42.6665ZM52 38.6667L50.6665 36.5759L49.3333 38.6667H52Z" fill="white"/>
</g>
</svg>
