<svg width="64" height="64" viewBox="0 0 64 64" fill="none" xmlns="http://www.w3.org/2000/svg">
<mask id="mask0_12133_19245" style="mask-type:luminance" maskUnits="userSpaceOnUse" x="0" y="0" width="64" height="64">
<path d="M64 0H0V64H64V0Z" fill="white"/>
</mask>
<g mask="url(#mask0_12133_19245)">
<path d="M32 -0.0273438C23.1634 -0.0273438 15.1634 3.55436 9.37256 9.34516L28.0103 27.9829H29.1869L32.0001 19.325L34.8133 27.9829H43.9167L36.5519 33.3338L38.0875 38.06L54.6275 54.6C60.4184 48.8091 64.0001 40.8091 64.0001 31.9726C64 14.2995 49.6732 -0.0273438 32 -0.0273438Z" fill="#619B27"/>
<path d="M39.3648 41.9902L32 36.6393L24.6352 41.9902L27.4483 33.3323L20.0835 27.9815H28.0103L9.3726 9.34375C3.5817 15.1347 0 23.1347 0 31.9713C0 49.6444 14.3268 63.9713 32 63.9713C40.8366 63.9713 48.8366 60.3895 54.6274 54.5986L38.0874 38.0586L39.3648 41.9902Z" fill="#FFD400"/>
<path d="M27.4482 33.333L24.6352 41.9909L32 36.64L39.3648 41.9909L38.0874 38.0593L36.5518 33.333L43.9166 27.9821H34.8132L32 19.3242L29.1868 27.9821H28.0103H20.0834L27.4482 33.333Z" fill="#F0263C"/>
</g>
</svg>
