<svg width="64" height="64" viewBox="0 0 64 64" fill="none" xmlns="http://www.w3.org/2000/svg">
<mask id="mask0_12133_18992" style="mask-type:luminance" maskUnits="userSpaceOnUse" x="0" y="0" width="64" height="64">
<path d="M64 0H0V64H64V0Z" fill="white"/>
</mask>
<g mask="url(#mask0_12133_18992)">
<path d="M62.1785 21.3333C57.7837 8.906 45.9349 0 31.9999 0C18.0649 0 6.21611 8.906 1.82141 21.3333H62.1785Z" fill="#F0263C"/>
<path d="M62.1785 42.668H1.82141C6.21611 55.0953 18.0649 64.0013 31.9999 64.0013C45.9349 64.0013 57.7837 55.0953 62.1785 42.668Z" fill="#1E5B00"/>
<path d="M62.9887 24H1.01145C-0.33715 29.2424 -0.33715 34.7571 1.01145 39.9996H62.9887C64.3373 34.7572 64.3372 29.2425 62.9887 24Z" fill="#191977"/>
<path d="M62.1823 21.332H1.81755C1.50765 22.2107 1.24225 23.1011 1.01135 23.9987H62.9884C62.7575 23.1011 62.4923 22.2107 62.1823 21.332Z" fill="white"/>
<path d="M62.9885 40H1.01135C1.24225 40.8976 1.50765 41.788 1.81755 42.6667H62.1822C62.4921 41.788 62.7575 40.8976 62.9885 40Z" fill="white"/>
</g>
</svg>
