<svg width="64" height="64" viewBox="0 0 64 64" fill="none" xmlns="http://www.w3.org/2000/svg">
<mask id="mask0_12133_19052" style="mask-type:luminance" maskUnits="userSpaceOnUse" x="0" y="0" width="64" height="64">
<path d="M64 0H0V64H64V0Z" fill="white"/>
</mask>
<g mask="url(#mask0_12133_19052)">
<path d="M32 64C49.6731 64 64 49.6731 64 32C64 14.3269 49.6731 0 32 0C14.3269 0 0 14.3269 0 32C0 49.6731 14.3269 64 32 64Z" fill="white"/>
<path d="M36 28V0.2577C34.6886 0.0941 33.3557 0 32 0C30.6443 0 29.3114 0.0941 28 0.2577V28H0.2577C0.0941 29.3114 0 30.6443 0 32C0 33.3557 0.0941 34.6886 0.2577 36H28V63.7423C29.3114 63.906 30.6443 64 32 64C33.3557 64 34.6886 63.9059 36 63.7423V36H63.7423C63.906 34.6886 64 33.3557 64 32C64 30.6443 63.9059 29.3114 63.7423 28H36Z" fill="#F0263C"/>
<path d="M21.3333 13.3346L17.3333 14.668L18.6667 10.668H13.3333L14.6667 14.668L10.6667 13.3346V18.668L14.6667 17.3346L13.3333 21.3346H18.6667L17.3333 17.3346L21.3333 18.668V13.3346Z" fill="#F0263C"/>
<path d="M53.3335 13.3346L49.3335 14.668L50.6667 10.668H45.3335L46.6667 14.668L42.6667 13.3346V18.668L46.6667 17.3346L45.3335 21.3346H50.6667L49.3335 17.3346L53.3335 18.668V13.3346Z" fill="#F0263C"/>
<path d="M21.3333 45.3346L17.3333 46.668L18.6667 42.668H13.3333L14.6667 46.668L10.6667 45.3346V50.668L14.6667 49.3346L13.3333 53.3346H18.6667L17.3333 49.3346L21.3333 50.668V45.3346Z" fill="#F0263C"/>
<path d="M53.3335 45.3346L49.3335 46.668L50.6667 42.668H45.3335L46.6667 46.668L42.6667 45.3346V50.668L46.6667 49.3346L45.3335 53.3346H50.6667L49.3335 49.3346L53.3335 50.668V45.3346Z" fill="#F0263C"/>
</g>
</svg>
