<svg width="64" height="64" viewBox="0 0 64 64" fill="none" xmlns="http://www.w3.org/2000/svg">
<mask id="mask0_12133_19125" style="mask-type:luminance" maskUnits="userSpaceOnUse" x="0" y="0" width="64" height="64">
<path d="M64 0H0V64H64V0Z" fill="white"/>
</mask>
<g mask="url(#mask0_12133_19125)">
<path d="M32 0C14.3268 0 0 14.3269 0 32C0 35.7343 0.6462 39.3162 1.8218 42.6481H31.3334V41.3334H23.3334V40.0001H14.6667V38.6668L17.3334 37.3335V25.3335H16.0001V24.0002H14.6668V21.3335H16.0001V22.6668H17.3334V21.3335H18.6667V13.3335H17.3334V10.6668H18.6667V12.0001H20.3334V10.6668H22.3334V12.0001H24.0001V10.6668H25.3334V13.3335H24.0001V21.3335H25.3334V22.6668H26.6667V21.3335H28V11.3335H26.6667V8.0002H28V9.3335H29.3333V8.0002H31.3333V9.3335H32.6666V8.0002H34.6666V9.3335H35.9999V8.0002H37.3332V11.3335H35.9999V21.3335H37.3332V22.6668H38.6665V21.3335H39.9998V13.3335H38.6665V10.6668H39.9998V12.0001H41.6665V10.6668H43.6665V12.0001H45.3332V10.6668H46.6665V13.3335H45.3332V21.3335H46.6665V22.6668H47.9998V21.3335H49.3331V24.0002H47.9998V25.3335H46.6665V37.3335L49.3332 38.6668V40.0001H40.6665V41.3334H32.6665V42.6481H62.1781C63.3539 39.3162 63.9999 35.7343 63.9999 32C64 14.3269 49.6732 0 32 0Z" fill="white"/>
<path d="M32.6667 44.0004H33.3334L34.6667 45.3337H36V46.667H34.6667L33.3334 48.0003H32.6667V60.667H30V60.0003H28V60.667H26.6667V58.0003H28V58.667H30V58.0003H31.3333V57.3336H30V56.6669H28V57.3336H26.6667V54.6669H28V55.3336H30V54.6669H31.3333V48.0002H30.6666L29.3333 46.6669H28V45.3336H29.3333L30.6666 44.0003H31.3333V42.6484H1.82178C6.21028 55.0852 18.0612 64.0003 32 64.0003C45.9388 64.0003 57.7897 55.0852 62.1782 42.6484H32.6666L32.6667 44.0004Z" fill="#F0263C"/>
<path d="M29.3332 39.9999V38.6666H27.9999V31.9999L29.3332 29.3332H34.6665L35.9998 31.9999V38.6666H34.6665V39.9999H33.3333V41.3332H40.6665V39.9999H49.3333V38.6666L46.6665 37.3333V25.3333H47.9998V24H49.3331V21.3333H47.9998V22.6666H46.6665V21.3333H45.3333V13.3333H46.6665V10.6666H45.3333V11.9999H43.6665V10.6666H41.6665V11.9999H39.9998V10.6666H38.6665V13.3333H39.9998V21.3333H38.6665V22.6666H37.3333V21.3333H35.9999V11.3333H37.3333V8H35.9999V9.3333H34.6666V8H32.6666V9.3333H31.3333V8H29.3333V9.3333H28V8H26.6667V11.3333H28V21.3333H26.6667V22.6666H25.3334V21.3333H24.0001V13.3333H25.3334V10.6666H24.0001V11.9999H22.3334V10.6666H20.3334V11.9999H18.6667V10.6666H17.3334V13.3333H18.6667V21.3333H17.3334V22.6666H16.0001V21.3333H14.6668V24H16.0001V25.3333H17.3334V37.3333L14.6667 38.6666V39.9999H23.3334V41.3332H30.6667V39.9999H29.3332ZM40.6665 18.6666L41.9998 17.3333H43.3331L44.6664 18.6666V23.3333H40.6664L40.6665 18.6666ZM40.6665 33.9999L41.9998 32.6666H43.3331L44.6664 33.9999V38.6666H40.6664L40.6665 33.9999ZM33.3333 13.3332H34.6665V15.9999H33.3333V13.3332ZM31.3332 11.9999H32.6665V15.9999H31.3332V11.9999ZM32.6665 17.3332L33.9998 18.6665V23.3332H29.9998V18.6665L31.3331 17.3332H32.6665ZM29.3332 13.3332H30.6665V15.9999H29.3332V13.3332ZM23.3332 38.6665H19.3332V33.9998L20.6665 32.6665H21.9998L23.3331 33.9998L23.3332 38.6665ZM23.3332 23.3332H19.3332V18.6665L20.6665 17.3332H21.9998L23.3331 18.6665L23.3332 23.3332Z" fill="#F0263C"/>
<path d="M30.6667 38.668V40.0013H32H33.3333V38.668H30.6667Z" fill="#F0263C"/>
<path d="M20.6667 32.668L19.3333 34.0013V38.668H23.3333V34.0013L22 32.668H20.6667Z" fill="black"/>
<path d="M20.6667 17.332L19.3333 18.6654V23.332H23.3333V18.6654L22 17.332H20.6667Z" fill="black"/>
<path d="M44.6667 34.0013L43.3334 32.668H42L40.6667 34.0013V38.668H44.6667V34.0013Z" fill="black"/>
<path d="M44.6667 18.6654L43.3334 17.332H42L40.6667 18.6654V23.332H44.6667V18.6654Z" fill="black"/>
<path d="M30 23.332H34V18.6654L32.6667 17.332H31.3333L30 18.6654V23.332Z" fill="black"/>
<path d="M33.3333 38.6654H34.6667V37.332H36V31.9987L34.6667 29.332H29.3333L28 31.9987V37.332H29.3333V38.6654H30.6667H33.3333Z" fill="black"/>
<path d="M30.6666 13.332H29.3333V15.9987H30.6666V13.332Z" fill="black"/>
<path d="M32.6666 12H31.3333V16H32.6666V12Z" fill="black"/>
<path d="M34.6665 13.332H33.3333V15.9987H34.6665V13.332Z" fill="black"/>
<path d="M29.3333 37.332H28V38.6653H29.3333V37.332Z" fill="#FFD400"/>
<path d="M36 37.332H34.6667V38.6653H36V37.332Z" fill="#FFD400"/>
<path d="M30.6666 38.668H29.3333V40.0013H30.6666V38.668Z" fill="#FFD400"/>
<path d="M34.6665 38.668H33.3333V40.0013H34.6665V38.668Z" fill="#FFD400"/>
<path d="M30.6667 44L29.3333 45.3333H28V46.6667H29.3333L30.6667 48H31.3333V54.6667H30V55.3333H28V54.6667H26.6667V57.3333H28V56.6667H30V57.3333H31.3333V58H30V58.6667H28V58H26.6667V60.6667H28V60H30V60.6667H31.3333H32.6667V48H33.3333L34.6667 46.6667H36V45.3333H34.6667L33.3333 44H32.6667V42.6481V41.3333H33.3333V40H32H30.6667V41.3333H31.3333V42.6481V44H30.6667Z" fill="#FFD400"/>
</g>
</svg>
