<svg width="64" height="64" viewBox="0 0 64 64" fill="none" xmlns="http://www.w3.org/2000/svg">
<mask id="mask0_12133_19126" style="mask-type:luminance" maskUnits="userSpaceOnUse" x="0" y="0" width="64" height="64">
<path d="M64 0H0V64H64V0Z" fill="white"/>
</mask>
<g mask="url(#mask0_12133_19126)">
<path d="M32 63.9987C40.4686 63.9987 48.1632 60.7032 53.887 55.332H10.113C15.8368 60.7031 23.5314 63.9987 32 63.9987Z" fill="#2D25C5"/>
<path d="M4.67994 48.6667H59.3202C60.5901 46.5895 61.6236 44.3539 62.3976 42H1.60254C2.37654 44.3538 3.41004 46.5895 4.67994 48.6667Z" fill="#2D25C5"/>
<path d="M32 21.9987H62.3975C61.6235 19.6449 60.59 17.4092 59.3201 15.332H32V21.9987Z" fill="#2D25C5"/>
<path d="M53.887 8.66797H32V15.3347H59.3201C57.8144 12.8718 55.9809 10.633 53.887 8.66797Z" fill="white"/>
<path d="M32 28.6667H63.827C63.5884 26.362 63.0989 24.133 62.3976 22H32.0001L32 28.6667Z" fill="white"/>
<path d="M10.113 55.3347H53.887C55.981 53.3697 57.8144 51.131 59.3201 48.668H4.67993C6.18563 51.1309 8.01913 53.3697 10.113 55.3347Z" fill="white"/>
<path d="M1.6025 22C0.9011 24.133 0.4116 26.362 0.1731 28.6667C0.0596 29.7625 0 30.8742 0 32C0 33.1258 0.0596 34.2375 0.173 35.3333H13.3333V22H1.6025Z" fill="#2D25C5"/>
<path d="M63.827 28.6667H32V22H20V35.3333H63.827C63.9404 34.2375 64 33.1257 64 32C64 30.8743 63.9404 29.7625 63.827 28.6667Z" fill="#2D25C5"/>
<path d="M13.3333 6.01953C12.2035 6.83333 11.1259 7.71513 10.113 8.66573C8.01903 10.6307 6.18563 12.8694 4.67993 15.3324H13.3334L13.3333 6.01953Z" fill="#2D25C5"/>
<path d="M32 0C27.108 0 22.4775 1.1052 18.3328 3.0695C18.8806 2.8102 19.4356 2.5636 20 2.335V15.3333H32V8.6666H53.887C48.1632 3.2955 40.4686 0 32 0Z" fill="#2D25C5"/>
<path d="M20 35.3342V22.0009H32V15.3342H20V2.33594C19.4355 2.56454 18.8805 2.81114 18.3328 3.07044C18.2469 3.11104 18.1625 3.15404 18.0771 3.19544C17.6244 3.41464 17.178 3.64484 16.7375 3.88444C16.6254 3.94544 16.5131 4.00604 16.4018 4.06834C15.9342 4.33014 15.4733 4.60244 15.0206 4.88664C14.9734 4.91624 14.9249 4.94384 14.8779 4.97364C14.3739 5.29364 13.88 5.62834 13.3955 5.97524C13.3752 5.98974 13.3537 6.00254 13.3335 6.01714V15.3341H4.67987C3.40997 17.4113 2.37647 19.6469 1.60247 22.0008H13.3334V35.3341H0.172974C0.411574 37.6388 0.901074 39.8678 1.60237 42.0008H62.3975C63.0989 39.8678 63.5884 37.6388 63.8269 35.3341L20 35.3342Z" fill="white"/>
</g>
</svg>
