<svg width="64" height="64" viewBox="0 0 64 64" fill="none" xmlns="http://www.w3.org/2000/svg">
<mask id="mask0_12133_19185" style="mask-type:luminance" maskUnits="userSpaceOnUse" x="0" y="0" width="64" height="64">
<path d="M64 0H0V64H64V0Z" fill="white"/>
</mask>
<g mask="url(#mask0_12133_19185)">
<path d="M32 64C49.6731 64 64 49.6731 64 32C64 14.3269 49.6731 0 32 0C14.3269 0 0 14.3269 0 32C0 49.6731 14.3269 64 32 64Z" fill="#FFD400"/>
<path d="M23.3333 32.0007C23.3333 29.6113 24.3053 27.4446 25.8746 25.8753L13.1439 13.1445C8.31807 17.9702 5.33337 24.6369 5.33337 32.0007C5.33337 39.3645 8.31817 46.0311 13.1439 50.8569L25.8747 38.1261C24.3054 36.5568 23.3333 34.3901 23.3333 32.0007Z" fill="#1E5B00"/>
<path d="M32 0C14.3269 0 0 14.3269 0 32C0 49.6731 14.3269 64 32 64C49.6731 64 64 49.6731 64 32C64 14.3269 49.6731 0 32 0ZM32 58.6667C24.6362 58.6667 17.9696 55.6819 13.1439 50.8562C8.3181 46.0305 5.3334 39.3638 5.3334 32C5.3334 24.6362 8.3182 17.9696 13.1439 13.1438C17.9696 8.3181 24.6363 5.3333 32 5.3333C46.7275 5.3333 58.6667 17.2724 58.6667 32C58.6667 46.7276 46.7276 58.6667 32 58.6667Z" fill="#F0263C"/>
<path d="M32.0001 0.667969L30.0001 2.66794L32.0001 4.66793L34.0001 2.66795L32.0001 0.667969Z" fill="#FFD400"/>
<path d="M32 59.332L30 61.332L32 63.332L34 61.332L32 59.332Z" fill="#FFD400"/>
<path d="M41.3331 58L39.3333 59.9999L41.3331 61.9999L43.3331 59.9999L41.3331 58Z" fill="#FFD400"/>
<path d="M22.6667 58L20.6667 60L22.6667 62L24.6667 60L22.6667 58Z" fill="#FFD400"/>
<path d="M41.3331 2L39.3333 3.99998L41.3331 5.99996L43.3331 3.99998L41.3331 2Z" fill="#FFD400"/>
<path d="M22.6667 2L20.6667 3.99998L22.6667 5.99996L24.6667 3.99998L22.6667 2Z" fill="#FFD400"/>
<path d="M25.8747 25.8733C24.3054 27.4426 23.3334 29.6093 23.3334 31.9987C23.3334 34.3881 24.3054 36.5548 25.8747 38.1241C27.444 39.6934 29.6106 40.6654 32 40.6654C34.3894 40.6654 36.5561 39.6934 38.1253 38.1241C39.6946 36.5548 40.6666 34.3881 40.6666 31.9987C40.6666 29.6093 39.6946 27.4426 38.1253 25.8733C36.556 24.304 34.3893 23.332 31.9999 23.332C29.6105 23.332 27.444 24.304 25.8747 25.8733ZM39.7108 29.9987L34.9453 33.461L36.7655 39.0632L32 35.6009L27.2345 39.0632L29.0547 33.461L24.2892 29.9987H30.1797L32 24.3965L33.8203 29.9987H39.7108Z" fill="#F0263C"/>
<path d="M10.821 31.2469L11.8269 31.9038L13.3669 32.9096L14.7002 35.1422C15.9647 34.387 16.3774 32.7499 15.6224 31.4855L15.5207 31.3151C15.1504 30.695 14.6192 30.1868 13.9834 29.8444L8.08643 26.668V33.3659C8.08643 34.0882 8.28193 34.7969 8.65223 35.4168L8.75413 35.5872C9.50913 36.8517 11.1464 37.2646 12.4107 36.5094L11.0774 34.2768L10.9065 32.2568L10.821 31.2469Z" fill="#FFD400"/>
<path d="M13.5555 35.8251L13.3669 32.9089L11.8268 31.903L10.821 31.2461L10.9064 32.2561L11.0774 34.2761L13.5555 35.8251Z" fill="#F0263C"/>
<path d="M30.1797 30.0006H24.2892L29.0548 33.4629L27.2345 39.0651L32 35.6028L36.7655 39.0651L34.9452 33.4629L39.7108 30.0006H33.8203L32 24.3984L30.1797 30.0006Z" fill="#FFD400"/>
<path d="M40.6666 32.0007C40.6666 29.6113 39.6946 27.4446 38.1253 25.8753L50.856 13.1445C55.6818 17.9702 58.6665 24.6369 58.6665 32.0007C58.6665 39.3645 55.6817 46.0311 50.856 50.8569L38.1252 38.1261C39.6945 36.5568 40.6666 34.3901 40.6666 32.0007Z" fill="#1E5B00"/>
</g>
</svg>
