<svg width="64" height="64" viewBox="0 0 64 64" fill="none" xmlns="http://www.w3.org/2000/svg">
<mask id="mask0_12133_19186" style="mask-type:luminance" maskUnits="userSpaceOnUse" x="0" y="0" width="64" height="64">
<path d="M64 0H0V64H64V0Z" fill="white"/>
</mask>
<g mask="url(#mask0_12133_19186)">
<path d="M32 64C49.6731 64 64 49.6731 64 32C64 14.3269 49.6731 0 32 0C14.3269 0 0 14.3269 0 32C0 49.6731 14.3269 64 32 64Z" fill="white"/>
<path d="M45.3334 52H18.6667V54.6667H45.3334V52Z" fill="#FFE566"/>
<path d="M20 38.668H18.6667V44.0013H20V38.668Z" fill="black"/>
<path d="M20 45.332H18.6667V50.6653H20V45.332Z" fill="black"/>
<path d="M22.6667 38.668H21.3334V44.0013H22.6667V38.668Z" fill="black"/>
<path d="M22.6667 45.332H21.3334V50.6653H22.6667V45.332Z" fill="black"/>
<path d="M25.3333 38.668H24V44.0013H25.3333V38.668Z" fill="black"/>
<path d="M25.3333 45.332H24V50.6653H25.3333V45.332Z" fill="black"/>
<path d="M28 38.668H26.6667V44.0013H28V38.668Z" fill="black"/>
<path d="M28 45.332H26.6667V50.6653H28V45.332Z" fill="black"/>
<path d="M30.6667 38.668H29.3334V44.0013H30.6667V38.668Z" fill="black"/>
<path d="M30.6667 45.332H29.3334V50.6653H30.6667V45.332Z" fill="black"/>
<path d="M33.3333 38.668H32V44.0013H33.3333V38.668Z" fill="black"/>
<path d="M33.3333 45.332H32V50.6653H33.3333V45.332Z" fill="black"/>
<path d="M36 45.332H34.6667V50.6653H36V45.332Z" fill="black"/>
<path d="M38.6667 45.332H37.3334V50.6653H38.6667V45.332Z" fill="black"/>
<path d="M41.3333 45.332H40V50.6653H41.3333V45.332Z" fill="black"/>
<path d="M44 45.332H42.6667V50.6653H44V45.332Z" fill="black"/>
<path d="M31.4608 22.4031C31.4722 22.4184 31.4845 22.4329 31.4958 22.4482L31.5295 22.3516L31.4608 22.4031Z" fill="#619B27"/>
<path d="M40 17.335L29.3333 28.6684L18.6667 34.4866V37.335H45.3333V13.5703L40 17.335Z" fill="#619B27"/>
<path d="M31.4608 22.4044L31.5295 22.3529L34.6667 13.3333L40.2222 12H18.6667V20.3466C20.1792 19.2906 22.0155 18.6666 24 18.6666C27.0535 18.6666 29.7588 20.137 31.4608 22.4044Z" fill="#007ACC"/>
<path d="M29.3333 28.6681L31.9643 23.143C31.8186 22.9047 31.6615 22.6746 31.4957 22.4509C31.4844 22.4356 31.4721 22.4211 31.4607 22.4058C29.7587 20.1384 27.0535 18.668 23.9999 18.668C22.0154 18.668 20.179 19.2919 18.6666 20.348C16.2506 22.0348 14.6666 24.8313 14.6666 28.0014C14.6666 29.6718 15.1093 31.2367 15.8792 32.5922L29.3333 28.6681Z" fill="#FFE566"/>
<path d="M16.7166 33.8293L29.3333 28.668L15.8792 32.5921L13.3333 33.3346L6.8717 44.4115L14.6667 34.668L16.7166 33.8293Z" fill="#191977"/>
<path d="M36 14.6654L31.9644 23.1403L29.3333 28.6654L38 15.9987L51.3333 9.33203L36 14.6654Z" fill="#191977"/>
</g>
</svg>
