<svg width="64" height="64" viewBox="0 0 64 64" fill="none" xmlns="http://www.w3.org/2000/svg">
<mask id="mask0_12133_19215" style="mask-type:luminance" maskUnits="userSpaceOnUse" x="0" y="0" width="64" height="64">
<path d="M64 0H0V64H64V0Z" fill="white"/>
</mask>
<g mask="url(#mask0_12133_19215)">
<path d="M32 64C49.6731 64 64 49.6731 64 32C64 14.3269 49.6731 0 32 0C14.3269 0 0 14.3269 0 32C0 49.6731 14.3269 64 32 64Z" fill="#191977"/>
<path d="M32 4C47.4392 4 60 16.5608 60 32C60 47.4392 47.4392 60 32 60C16.5608 60 4 47.4392 4 32C4 16.5608 16.5608 4 32 4ZM32 0C14.3269 0 0 14.3269 0 32C0 49.6731 14.3269 64 32 64C49.6731 64 64 49.6731 64 32C64 14.3269 49.6731 0 32 0Z" fill="#F0263C"/>
<path d="M32.0361 15.3047C32.0361 15.3047 43.1304 22.271 43.1304 31.8918C43.1304 41.5126 32.0361 48.696 32.0361 48.696C32.0361 48.696 20.8695 40.8685 20.8695 31.8918C20.8695 22.9151 32.0361 15.3047 32.0361 15.3047Z" fill="#F0F0F0"/>
<path d="M29.0996 43.75C29.182 43.8304 29.2637 43.9095 29.345 43.9874L29.3463 43.9861C29.2639 43.9072 29.1831 43.8315 29.0996 43.75Z" fill="#191977"/>
<path d="M32.4717 46.0428C32.5321 45.9965 32.5944 45.9482 32.6585 45.8984C32.6115 45.935 32.5678 45.9684 32.5228 46.0031C32.5064 46.0157 32.4878 46.0304 32.4717 46.0428Z" fill="#191977"/>
<path d="M33.1021 45.5437C33.186 45.4759 33.2729 45.4045 33.3608 45.332C33.333 45.355 33.3081 45.3744 33.2807 45.3969C33.2213 45.4455 33.1594 45.4973 33.1021 45.5437Z" fill="#191977"/>
<path d="M33.3809 45.3165C33.4199 45.2843 33.4589 45.2519 33.4987 45.2188C33.4725 45.2407 33.4483 45.2599 33.4224 45.2815C33.409 45.2926 33.3942 45.3054 33.3809 45.3165Z" fill="#191977"/>
<path d="M33.5507 45.1738C33.6637 45.0791 33.7793 44.9807 33.8974 44.8789C33.8818 44.8924 33.8676 44.9039 33.8521 44.9172C33.7502 45.0048 33.6488 45.0916 33.5507 45.1738Z" fill="#191977"/>
<path d="M32.9049 45.7041C32.963 45.658 33.0216 45.6112 33.0818 45.5625C33.0388 45.5972 32.9996 45.6277 32.9578 45.6612C32.9407 45.6748 32.9217 45.6907 32.9049 45.7041Z" fill="#191977"/>
<path d="M32.7521 45.8248C32.7916 45.7937 32.831 45.7629 32.8717 45.7305C32.8512 45.7468 32.8336 45.76 32.8134 45.776C32.7935 45.7918 32.7718 45.8093 32.7521 45.8248Z" fill="#191977"/>
<path d="M38.073 40.4579L38.072 40.4592C38.1341 40.3761 38.1945 40.2914 38.2558 40.207C38.2366 40.2334 38.2184 40.2609 38.1992 40.2872C38.1572 40.3444 38.1153 40.4013 38.073 40.4579Z" fill="#191977"/>
<path d="M39.2803 38.6665C39.7827 37.823 40.2211 36.9312 40.5639 36C40.221 36.9315 39.7788 37.8225 39.2764 38.6665H39.2803Z" fill="#191977"/>
<path d="M40.564 35.9994C40.7243 35.5639 40.8631 35.12 40.977 34.668C40.966 34.7114 40.9487 34.7526 40.9373 34.7958C40.8297 35.2029 40.7089 35.6057 40.564 35.9994Z" fill="#191977"/>
<path d="M40.9775 34.6683C41.0292 34.4628 41.0755 34.2556 41.1166 34.0469C41.0751 34.2564 41.0206 34.462 40.9683 34.6683H40.9775Z" fill="#191977"/>
<path d="M35.5977 43.3004C35.54 43.3582 35.4817 43.4182 35.4243 43.4748C35.5782 43.3234 35.7331 43.1679 35.8887 43.0078C35.8418 43.0559 35.7958 43.1009 35.7491 43.1482C35.6984 43.1997 35.6484 43.2498 35.5977 43.3004Z" fill="#191977"/>
<path d="M22.7209 32.8564C22.7258 32.9038 22.7293 32.9512 22.7348 32.9985C22.7711 33.3068 22.822 33.6136 22.886 33.9185C22.8954 33.9633 22.9055 34.008 22.9155 34.0528C22.9861 34.369 23.0677 34.6836 23.1648 34.9951C23.1664 35.0004 23.1685 35.0057 23.1702 35.0111C23.2711 35.3332 23.3865 35.6521 23.5126 35.9681C23.5172 35.9794 23.5229 35.9903 23.5274 36.0016H26.6666V32.0016L29.5237 35.8111L30.6666 34.6682H31.1111L30.6666 33.3349V32.0016L29.3333 33.3349L28 32.0016L29.3333 30.6683L30.6666 32.0016V26.6683L29.3333 28.0016V29.3349L28 28.0016L29.3333 26.6683H28L26.6667 28.0016V26.6683L28 25.335H25.3333L26.6666 24.0017H29.3333L29.3479 22.6309L27.9999 21.335H29.3332L30.6665 22.6683V20.0016L31.9998 21.3349V22.6682L34.6665 21.3349H35.9998L33.3331 24.0016H36.6664L38.6664 25.3349H35.9997L37.333 26.6682V28.0015L35.9997 26.6682H33.9997L34.6664 28.0015L33.3331 29.3348V28.0015L31.9998 26.6682V33.3349L32.6665 34.6682H40.9681C41.0203 34.4619 41.0749 34.2563 41.1164 34.0468C41.1213 34.0218 41.127 33.997 41.1317 33.972C41.1912 33.6611 41.2364 33.3464 41.27 33.0291C41.2757 32.974 41.28 32.9187 41.285 32.8635C41.3136 32.5441 41.3332 32.2227 41.3332 31.8974C41.3332 24.8896 34.3736 19.3001 32.0607 17.6367C29.742 19.4085 22.6665 25.3535 22.6665 31.8974C22.6665 32.2185 22.6881 32.538 22.7209 32.8564ZM34.6666 33.3348L33.3333 32.0015L34.6666 30.6682L35.9999 32.0015L34.6666 33.3348ZM40.7372 32.0015L39.4039 33.3348L38.0706 32.0015L39.4039 30.6682L40.7372 32.0015ZM24.6666 30.6682L25.9999 32.0015L24.6666 33.3348L23.3333 32.0015L24.6666 30.6682Z" fill="#4DAFE3"/>
<path d="M24.6667 30.668L23.3334 32.0013L24.6667 33.3347L26 32.0013L24.6667 30.668Z" fill="#F0263C"/>
<path d="M29.3333 30.668L28 32.0013L29.3333 33.3347L30.6666 32.0013L29.3333 30.668Z" fill="#F0263C"/>
<path d="M34.6667 30.668L33.3334 32.0014L34.6667 33.3347L36 32.0014L34.6667 30.668Z" fill="#F0263C"/>
<path d="M39.4039 30.668L38.0706 32.0013L39.4039 33.3346L40.7372 32.0013L39.4039 30.668Z" fill="#F0263C"/>
<path d="M29.6666 36L30.6666 37.3333H31.9999L31.5554 36H29.6666Z" fill="#007ACC"/>
<path d="M33.2808 45.3979C33.3082 45.3754 33.333 45.356 33.3609 45.333C33.3677 45.3274 33.3742 45.3221 33.381 45.3164C33.3943 45.3054 33.4091 45.2924 33.4225 45.2812C33.3742 45.3212 33.3279 45.3594 33.2808 45.3979Z" fill="#007ACC"/>
<path d="M32.4196 46.0796C32.4369 46.0664 32.454 46.0534 32.4717 46.0398C32.4878 46.0275 32.5064 46.0126 32.5228 46C32.4885 46.0263 32.4527 46.0545 32.4196 46.0796Z" fill="#007ACC"/>
<path d="M30.6667 42.6666H33.3334L34.6667 41.3333H33.3334L32.0001 40H34.6668L32.0001 37.3333L30.6668 38.6666H26.6668L25.3335 37.3333H26.6668V36H23.5276C23.6452 36.2917 23.7713 36.5811 23.9077 36.8667C23.9195 36.8914 23.9315 36.9159 23.9434 36.9406C24.2181 37.5079 24.5267 38.0621 24.8612 38.6003C24.8737 38.6204 24.8861 38.6406 24.8986 38.6606C25.1877 39.1222 25.502 39.5644 25.821 40H29.3334L30.6667 41.3333H26.8654C27.1802 41.7097 27.4968 42.0835 27.816 42.4302C27.8325 42.4481 27.849 42.4659 27.8656 42.4838C28.2601 42.9106 28.6533 43.3131 29.0361 43.6886C29.0573 43.7094 29.0785 43.7303 29.0997 43.7509C29.1833 43.8324 29.2641 43.908 29.3464 43.9869L30.6667 42.6666Z" fill="#007ACC"/>
<path d="M34.6665 37.3334L36 38.6667H39.2764C39.7788 37.8227 40.221 36.9318 40.5639 36.0002L33.3333 36L34.6665 37.3334Z" fill="#007ACC"/>
<path d="M32.8134 45.7751C32.8337 45.7591 32.8512 45.7459 32.8717 45.7296C32.8826 45.721 32.894 45.7118 32.9049 45.7031C32.9217 45.6897 32.9407 45.6738 32.9578 45.6602C32.9091 45.6991 32.8605 45.7379 32.8134 45.7751Z" fill="#007ACC"/>
<path d="M25.9183 40.1406C25.9426 40.1732 25.9635 40.2092 25.9879 40.2416C25.9946 40.2506 26.0012 40.2597 26.008 40.2686C26.1994 40.5228 26.3945 40.772 26.5921 41.0157C26.5997 41.025 26.6073 41.0342 26.615 41.0435C26.651 41.0878 26.6886 41.1262 26.7247 41.1701C26.4504 40.8369 26.1808 40.4936 25.9183 40.1406Z" fill="#007ACC"/>
<path d="M33.8974 44.8796C33.9037 44.8742 33.9097 44.8687 33.916 44.8633C33.8941 44.8822 33.8737 44.8993 33.8521 44.9179C33.8676 44.9046 33.8818 44.893 33.8974 44.8796Z" fill="#007ACC"/>
<path d="M37.3333 38.668V40.0013L36 41.3346L34.6667 40.0013H32L33.3333 41.3346H34.6666L33.3333 42.6679H30.6666L29.3463 43.9882L29.345 43.9895C30.4415 45.0395 31.4266 45.8535 32.0615 46.3514C32.1472 46.2882 32.2409 46.2179 32.3385 46.144C32.3647 46.1242 32.3925 46.1029 32.4196 46.0823C32.4526 46.0571 32.4885 46.029 32.5228 46.0028C32.5677 45.9682 32.6115 45.9347 32.6585 45.8981C32.6895 45.874 32.7204 45.8499 32.7522 45.825C32.7719 45.8095 32.7935 45.792 32.8135 45.7762C32.8606 45.739 32.9092 45.7002 32.9579 45.6613C32.9997 45.6279 33.039 45.5973 33.0819 45.5626C33.0889 45.5571 33.0952 45.552 33.1022 45.5464C33.1596 45.5 33.2214 45.4482 33.2808 45.3996C33.3278 45.361 33.3742 45.323 33.4225 45.2831C33.4484 45.2616 33.4725 45.2423 33.4988 45.2204C33.5158 45.2062 33.5336 45.1909 33.5508 45.1765C33.6489 45.0943 33.7503 45.0075 33.8522 44.9199C33.8738 44.9013 33.8944 44.8842 33.9163 44.8653C33.9415 44.8436 33.9668 44.8216 33.9921 44.7995C34.1264 44.6828 34.2632 44.5621 34.4026 44.4366C34.4111 44.429 34.4194 44.4218 34.4278 44.4141C34.7357 44.1365 35.0548 43.8374 35.3794 43.5194C35.3945 43.5047 35.4094 43.4898 35.4245 43.475C35.482 43.4184 35.5402 43.3584 35.5979 43.3006C35.6485 43.25 35.6986 43.1999 35.7493 43.1484C35.796 43.1011 35.8421 43.0561 35.8889 43.008C35.8964 43.0003 35.9039 42.9927 35.9114 42.9849C36.2444 42.6418 36.5792 42.2795 36.9112 41.8992C36.9185 41.8907 36.9259 41.8821 36.9333 41.8736C37.0899 41.6937 37.2456 41.5096 37.3999 41.3218C37.4115 41.3076 37.4233 41.2935 37.435 41.2792C37.6515 41.0147 37.8634 40.74 38.0722 40.4608C38.0725 40.4604 38.0729 40.4599 38.0732 40.4595C38.1155 40.4029 38.1573 40.346 38.1993 40.2888C38.2185 40.2625 38.2367 40.235 38.2559 40.2086C38.4483 39.9435 38.639 39.6758 38.8212 39.3988C38.8372 39.3744 38.8532 39.35 38.8691 39.3255C39.0097 39.1097 39.1473 38.8909 39.2799 38.6683C39.2799 38.6681 39.2798 38.6685 39.2799 38.6683L37.3333 38.668Z" fill="#FFD400"/>
<path d="M26.7247 41.1709C26.7711 41.2273 26.8188 41.2775 26.8653 41.3333H30.6666L29.3333 40H25.8209C25.8546 40.046 25.8844 40.0958 25.9183 40.1414C26.1808 40.4945 26.4504 40.8377 26.7247 41.1709Z" fill="#FFD400"/>
<path d="M31.5555 36.0013L31.1112 34.668H30.6667L29.5238 35.8108L29.6667 36.0013H31.5555Z" fill="#C8C8C8"/>
<path d="M32.6666 34.6681L33.3333 36.0014H40.5639C40.7088 35.6076 40.8299 35.2047 40.9373 34.7975C40.9487 34.7543 40.966 34.7131 40.977 34.6697L40.9774 34.668L32.6666 34.6681Z" fill="#C8C8C8"/>
<path d="M30.6667 24H32L33.3333 25.3333L32 26.6667L33.3333 28V29.3333L34.6667 28L34 26.6667H36L37.3333 28V26.6667L36 25.3333H38.6667L36.6667 24H33.3333L36 21.3333H34.6667L32 22.6667V21.3333L30.6667 20V22.6667L29.3333 21.3333H28L29.348 22.6292L29.3333 24H26.6667L25.3333 25.3333H28L26.6667 26.6667V28L28 26.6667H29.3333L28 28L29.3333 29.3333V28L30.6667 26.6667L29.3333 25.3333L30.6667 24Z" fill="#619B27"/>
<path d="M32.0347 48C32.0347 48 42.6667 41.1173 42.6667 31.896C42.6667 22.6747 32.0347 16 32.0347 16C32.0347 16 21.3334 23.2946 21.3334 31.896C21.3334 40.4974 32.0347 48 32.0347 48ZM32.0609 17.6352C34.3737 19.2986 41.3334 24.8881 41.3334 31.8959C41.3334 32.2212 41.3139 32.5426 41.2852 32.862C41.2802 32.9173 41.2759 32.9726 41.2702 33.0276C41.2366 33.3449 41.1913 33.6596 41.1319 33.9705C41.1272 33.9955 41.1215 34.0203 41.1166 34.0453C41.0755 34.254 41.0292 34.4612 40.9775 34.6667C40.9773 34.6673 40.9773 34.6678 40.9771 34.6684C40.8632 35.1204 40.7244 35.5643 40.5641 35.9998C40.2213 36.931 39.7829 37.8231 39.2805 38.6667C39.2806 38.6665 39.2803 38.6669 39.2805 38.6667C39.1479 38.8894 39.01 39.1087 38.8694 39.3245C38.8534 39.349 38.8375 39.3734 38.8215 39.3978C38.7947 39.4384 38.7666 39.4774 38.7396 39.5178C38.7059 39.5684 38.6712 39.6178 38.6371 39.668C38.5126 39.851 38.3851 40.0301 38.2562 40.2076C38.1949 40.292 38.1345 40.3767 38.0724 40.4598C37.9194 40.6643 37.7644 40.8647 37.6071 41.0614C37.575 41.1016 37.5435 41.1426 37.5112 41.1824C37.4856 41.2139 37.4607 41.2469 37.4352 41.2782C37.4235 41.2925 37.4118 41.3066 37.4001 41.3208C37.2458 41.5085 37.0901 41.6926 36.9335 41.8726C36.9261 41.8811 36.9187 41.8898 36.9114 41.8982C36.7188 42.119 36.525 42.332 36.3312 42.5405C36.2979 42.5763 36.2649 42.6103 36.2317 42.6456C36.1249 42.7592 36.0182 42.8741 35.9116 42.9839C35.904 42.9916 35.8965 42.9992 35.8891 43.007C35.7334 43.167 35.5786 43.3225 35.4247 43.474C35.4096 43.4888 35.3947 43.5037 35.3796 43.5184C35.3062 43.5903 35.2343 43.658 35.1614 43.7279C35.1132 43.7743 35.065 43.821 35.0171 43.8665C34.8536 44.0215 34.6926 44.1712 34.5339 44.3156C34.511 44.3364 34.4877 44.3585 34.4649 44.3791C34.4527 44.3901 34.4401 44.4022 34.428 44.4131C34.4195 44.4207 34.4112 44.428 34.4028 44.4356C34.2634 44.5611 34.1266 44.6817 33.9923 44.7985C33.9669 44.8206 33.9417 44.8426 33.9165 44.8643C33.9102 44.8697 33.904 44.8752 33.8977 44.8806C33.7796 44.9824 33.6641 45.0808 33.551 45.1755C33.5338 45.1899 33.516 45.2051 33.499 45.2194C33.4592 45.2526 33.4202 45.2849 33.3812 45.3171C33.3744 45.3228 33.3679 45.328 33.3611 45.3337C33.2732 45.4062 33.1863 45.4776 33.1024 45.5454C33.0955 45.551 33.0891 45.5561 33.0821 45.5616C33.0219 45.6103 32.9633 45.657 32.9052 45.7032C32.8943 45.7119 32.8829 45.7211 32.872 45.7297C32.8312 45.762 32.7919 45.7929 32.7524 45.824C32.7207 45.8489 32.6897 45.873 32.6587 45.8971C32.5947 45.9469 32.5323 45.9952 32.4719 46.0415C32.4542 46.055 32.4372 46.0681 32.4198 46.0813C32.3928 46.1019 32.3649 46.1232 32.3387 46.143C32.2411 46.2169 32.1474 46.2872 32.0617 46.3504C31.4269 45.8525 30.4417 45.0384 29.3452 43.9885C29.2639 43.9107 29.1821 43.8315 29.0998 43.7511C29.0786 43.7305 29.0574 43.7096 29.0362 43.6888C28.6534 43.3133 28.2602 42.9109 27.8657 42.484C27.8492 42.4661 27.8327 42.4483 27.8161 42.4304C27.4949 42.0814 27.1747 41.7127 26.8578 41.3335H26.8519C26.8245 41.3007 26.799 41.264 26.7717 41.231C26.7196 41.1682 26.6667 41.1082 26.6151 41.0446C26.6075 41.0353 26.5998 41.0261 26.5922 41.0168C26.3945 40.7731 26.1995 40.5239 26.0081 40.2697C26.0013 40.2607 25.9947 40.2517 25.988 40.2427C25.9501 40.1922 25.9143 40.1393 25.8767 40.0884C25.8542 40.0581 25.83 40.0307 25.8077 40.0003H25.8132C25.4952 39.5661 25.1867 39.1209 24.8986 38.6609C24.8861 38.6408 24.8737 38.6207 24.8612 38.6006C24.5269 38.0625 24.218 37.5082 23.9434 36.9409C23.9315 36.9163 23.9195 36.8917 23.9077 36.867C23.7711 36.5811 23.6423 36.2923 23.5248 36.0003C23.5204 35.9892 23.5172 35.9778 23.5128 35.9668C23.3863 35.651 23.2712 35.332 23.1704 35.0098C23.1687 35.0045 23.1667 34.9992 23.165 34.9938C23.0678 34.6823 22.9863 34.3678 22.9157 34.0515C22.9058 34.0067 22.8957 33.9621 22.8862 33.9172C22.8222 33.6123 22.7713 33.3056 22.735 32.9972C22.7295 32.9499 22.726 32.9024 22.7211 32.8551C22.6883 32.5367 22.6668 32.2171 22.6668 31.896C22.6668 25.3521 29.7422 19.407 32.0609 17.6352Z" fill="#F0263C"/>
<path d="M23.5127 35.9648C23.5172 35.9759 23.5203 35.9873 23.5247 35.9983H23.5275C23.5229 35.987 23.5172 35.9761 23.5127 35.9648Z" fill="#F0263C"/>
<path d="M26.8577 41.332C27.1745 41.7112 27.4947 42.0799 27.816 42.4289C27.4968 42.0821 27.1802 41.7084 26.8654 41.332H26.8577Z" fill="#F0263C"/>
<path d="M24.8986 38.6602C25.1867 39.1202 25.4951 39.5654 25.8132 39.9996H25.821C25.502 39.5641 25.1878 39.1218 24.8986 38.6602Z" fill="#F0263C"/>
<path d="M23.5247 36C23.6422 36.292 23.771 36.5808 23.9076 36.8667C23.7711 36.581 23.6451 36.2916 23.5275 36H23.5247Z" fill="#F0263C"/>
<path d="M26.6151 41.043C26.6667 41.1066 26.7196 41.1666 26.7717 41.2294C26.7557 41.2101 26.7408 41.1889 26.7248 41.1695C26.6887 41.1256 26.6511 41.0873 26.6151 41.043Z" fill="#F0263C"/>
<path d="M25.8766 40.0898C25.9142 40.1407 25.95 40.1936 25.9879 40.2441C25.9635 40.2116 25.9426 40.1757 25.9183 40.1431C25.9047 40.1248 25.8901 40.1081 25.8766 40.0898Z" fill="#F0263C"/>
<path d="M34.4646 44.3802C34.4874 44.3597 34.5107 44.3375 34.5336 44.3167C34.6923 44.1723 34.8533 44.0226 35.0168 43.8676C35.0647 43.8221 35.1129 43.7754 35.1611 43.729C35.2339 43.6591 35.3059 43.5914 35.3793 43.5195C35.0547 43.8376 34.7357 44.1366 34.4277 44.4142C34.4398 44.4033 34.4524 44.3912 34.4646 44.3802Z" fill="#F0263C"/>
<path d="M37.5108 41.1835C37.543 41.1437 37.5746 41.1027 37.6067 41.0625C37.764 40.8658 37.919 40.6654 38.072 40.4609C37.8632 40.7402 37.6513 41.0148 37.4348 41.2793C37.4604 41.248 37.4853 41.215 37.5108 41.1835Z" fill="#F0263C"/>
<path d="M38.6366 39.6686C38.6708 39.6184 38.7054 39.569 38.7391 39.5184C38.7661 39.478 38.7943 39.439 38.821 39.3984C38.6388 39.6755 38.448 39.9432 38.2557 40.2082C38.3845 40.0307 38.512 39.8516 38.6366 39.6686Z" fill="#F0263C"/>
<path d="M36.2314 42.6458C36.2646 42.6104 36.2976 42.5764 36.3309 42.5407C36.5247 42.3322 36.7184 42.1192 36.9111 41.8984C36.5792 42.2787 36.2444 42.641 35.9113 42.9841C36.0178 42.8744 36.1246 42.7595 36.2314 42.6458Z" fill="#F0263C"/>
<path d="M26.7247 41.1719C26.7407 41.1913 26.7556 41.2125 26.7716 41.2318C26.7989 41.2648 26.8244 41.3015 26.8518 41.3343H26.8653C26.8188 41.2786 26.7711 41.2283 26.7247 41.1719Z" fill="#F0263C"/>
<path d="M25.8209 40H25.8076C25.8299 40.0304 25.8541 40.0578 25.8766 40.0881C25.8901 40.1065 25.9048 40.1231 25.9183 40.1414C25.8844 40.0957 25.8546 40.046 25.8209 40Z" fill="#F0263C"/>
<path d="M32 37.3333L34.6667 40L36 41.3333L37.3333 40V38.6667H36L34.6667 37.3333L33.3333 36L32.6667 34.6667L32 33.3333V29.3333V26.6667L33.3333 25.3333L32 24H30.6667L29.3333 25.3333L30.6667 26.6667V32V33.3333L31.1112 34.6667L31.5555 36L32 37.3333Z" fill="#5A2919"/>
<path d="M30.6666 37.3333L29.6666 36L29.5237 35.8095L26.6666 32V36V37.3333H30.6666Z" fill="white"/>
<path d="M26.6667 37.332H25.3333L26.6667 38.6654H30.6667L32 37.332H30.6667H26.6667Z" fill="#5A2919"/>
</g>
</svg>
