<svg width="64" height="64" viewBox="0 0 64 64" fill="none" xmlns="http://www.w3.org/2000/svg">
<mask id="mask0_12133_19101" style="mask-type:luminance" maskUnits="userSpaceOnUse" x="0" y="0" width="64" height="64">
<path d="M64 0H0V64H64V0Z" fill="white"/>
</mask>
<g mask="url(#mask0_12133_19101)">
<path d="M21.3333 1.828V62.1719C24.6704 63.3518 28.2588 64 32 64C35.7412 64 39.3295 63.3518 42.6667 62.1719V1.828C39.3295 0.6482 35.7412 0 32 0C28.2588 0 24.6705 0.6482 21.3333 1.828Z" fill="white"/>
<path d="M21.3333 62.172V1.82812C8.9061 6.22192 0 18.0681 0 32.0001C0 45.9321 8.9061 57.7783 21.3333 62.172Z" fill="#4DAFE3"/>
<path d="M42.6667 1.82812V62.172C55.0939 57.7782 64 45.932 64 32.0001C64 18.0682 55.0939 6.22192 42.6667 1.82812Z" fill="#4DAFE3"/>
<path d="M36.6667 31.3347L37.3335 30.668L36.6667 31.0014V31.3347Z" fill="#C8C8C8"/>
<path d="M35.3334 32.668L35.2382 32.6998L35.2729 32.7286L35.3334 32.668Z" fill="#C8C8C8"/>
<path d="M36 33.332V34.6653L36.4445 35.5542L36.8888 36.4431L37.3333 37.332L38.6667 35.9987L38.2222 35.5542L37.3333 34.6653L36 33.332Z" fill="#5A2919"/>
<path d="M28.4705 27.0588L28 26.6666L26 26L28.0931 27.8139L28.4705 27.0588Z" fill="#999999"/>
<path d="M34.8889 33.7045L35.2983 32.7493L35.2729 32.728L35.2382 32.6992L34.1482 33.0625L34.5567 33.4166L34.8889 33.7045Z" fill="#999999"/>
<path d="M36 34.6653V33.332L35.5348 34.2622L36 34.6653Z" fill="#999999"/>
<path d="M27.5556 35.5542L28.0001 34.6653V33.332L26.6668 34.6653L25.7779 35.5542L25.3334 35.9987L26.6668 37.332L27.1113 36.4431L27.5556 35.5542Z" fill="#5A2919"/>
<path d="M38.0001 26L36.0001 26.6666L35.1796 27.3504L35.6769 28.0134L38.0001 26Z" fill="#999999"/>
<path d="M29.3333 33.332H28V34.6653L29.4434 33.4145L29.3333 33.332Z" fill="#999999"/>
<path d="M34.6668 28H34.4002L33.3334 28.8889V29.3333L33.7143 29.7143L35.143 28.4762L34.6668 28Z" fill="#999999"/>
<path d="M36.0001 37.332H34.6668L32.0001 38.6653L29.3334 37.332H28.0001H26.6668H25.3334L26.6668 38.6653H28.0001V39.9987L29.3334 38.6653V39.9987L30.6668 38.6653L32.0001 39.9987L33.3334 38.6653L34.6668 39.9987V38.6653L36.0001 39.9987V38.6653H37.3334L38.6668 37.332H37.3334H36.0001Z" fill="#1E5B00"/>
<path d="M36.6668 35.9992L36.4446 35.5547L36.0001 35.9992L35.3334 36.6658L36.0001 37.3325L36.8889 36.4436L36.6668 35.9992Z" fill="#1E5B00"/>
<path d="M40.0001 30.6666V29.3333L41.3334 28H40.0001V26.6666L38.6668 25.3333L37.3334 24V25.3333L38.0001 26L38.6668 26.6666H37.3334L38.6668 28H37.3334L38.6668 29.3333V30.6666H37.3334L38.6668 32V33.3333L37.3334 32V34.6666L38.2223 35.5555L40.0001 34.6666H38.6668L41.3334 33.3333H40.0001L41.3334 32H40.0001L41.3334 30.6666H40.0001Z" fill="#1E5B00"/>
<path d="M28 35.9992L27.5555 35.5547L27.3333 35.9992L27.1112 36.4436L28 37.3325L28.6667 36.6658L28 35.9992Z" fill="#1E5B00"/>
<path d="M25.7778 35.5555L26.6667 34.6666V32L25.3333 33.3333V32L26.6667 30.6666H25.3333V29.3333L26.6667 28H25.3333L26.6667 26.6666H25.3333L26 26L26.6667 25.3333V24L25.3333 25.3333L24 26.6666V28H22.6667L24 29.3333V30.6666H22.6667L24 32H22.6667L24 33.3333H22.6667L25.3333 34.6666H24L25.7778 35.5555Z" fill="#1E5B00"/>
<path d="M32.0001 25.3333V24H30.6668L29.3334 25.3333H30.6668H32.0001Z" fill="#1E5B00"/>
<path d="M34.1818 36.9712L33.6577 36.5781L33.3333 37.3348L32 38.6681L34 37.3348L34.1818 36.9712Z" fill="#1E5B00"/>
<path d="M34.4001 27.9987H34.6667L35.1429 28.4749L36 29.332V30.6653L34.6667 31.9987L33.3333 33.332L34.1481 33.0604L35.2381 32.6971L35.3333 32.6653L35.2982 32.7472L34.8888 33.7024L34.0902 35.5663L34.6667 35.9987L35.5348 34.2622L36 33.332L36.6667 31.9987V31.332V30.9987V29.332L35.6768 28.0121L35.1795 27.3491L34.6667 26.6653L33.3333 25.332H32L33.3333 27.9987H34.4001Z" fill="#1E5B00"/>
<path d="M29.3333 32.0014L26.6667 30.668L28 32.0014H29.3333Z" fill="#C8C8C8"/>
<path d="M34.0903 35.5684L32.8889 34.6674L34.5567 33.4166L34.1482 33.0625L33.3334 33.3341H32.8889L32.0001 34.0008L31.1113 33.3341H29.3334L29.4435 33.4166L31.1113 34.6674L29.3334 36.0008V37.3341L32.0001 35.3341L33.6578 36.5774L34.1819 36.9705L34.6668 37.3341V36.0008L34.0903 35.5684Z" fill="#C8C8C8"/>
<path d="M34.6667 36V37.3333H36L35.3335 36.6666L34.6667 36Z" fill="#FFD400"/>
<path d="M28.6667 36.6666L28 37.3333H29.3333V36L28.6667 36.6666Z" fill="#FFD400"/>
<path d="M28 28.0014V29.3347L29.3333 32.0014H28V33.3347H29.3333H31.1112H32.8888H33.3333L34.6667 32.0014V30.668L33.7142 29.7157L33.3333 29.3347V28.8903V28.0014L32 26.668H28.6667L28.4705 27.0602L28.0931 27.8153L28 28.0014Z" fill="#FFE566"/>
<path d="M32 25.332H30.6667L32 26.6653L33.3333 27.9987L32 25.332Z" fill="#5A2919"/>
</g>
</svg>
