<svg width="64" height="64" viewBox="0 0 64 64" fill="none" xmlns="http://www.w3.org/2000/svg">
<mask id="mask0_12133_19127" style="mask-type:luminance" maskUnits="userSpaceOnUse" x="0" y="0" width="64" height="64">
<path d="M64 0H0V64H64V0Z" fill="white"/>
</mask>
<g mask="url(#mask0_12133_19127)">
<path d="M40 24V1.0082C37.443 0.3501 34.7624 0 32 0C29.2376 0 26.557 0.3501 24 1.0082V24H1.0082C0.3501 26.557 0 29.2376 0 32C0 34.7624 0.3501 37.443 1.0082 40H24V62.9918C26.557 63.6499 29.2376 64 32 64C34.7624 64 37.443 63.6499 40 62.9918V40H62.9918C63.6499 37.443 64 34.7624 64 32C64 29.2376 63.6499 26.557 62.9918 24H40Z" fill="#F0263C"/>
<path d="M53.3333 29.3333H34.6667V10.6667L37.3333 8H26.6667L29.3333 10.6667V29.3333H10.6667L8 26.6667V37.3333L10.6667 34.6667H29.3333V53.3333L26.6667 56H37.3333L34.6667 53.3333V34.6667H53.3333L56 37.3333V26.6667L53.3333 29.3333Z" fill="#FFD400"/>
<path d="M40 1.00781V23.9996H62.9918C60.0976 12.7548 51.2449 3.90211 40 1.00781Z" fill="white"/>
<path d="M40 62.9918C51.2448 60.0976 60.0975 51.2449 62.9918 40H40V62.9918Z" fill="white"/>
<path d="M24 23.9996V1.00781C12.7552 3.90211 3.90248 12.7548 1.00818 23.9996H24Z" fill="white"/>
<path d="M24 62.9918V40H1.00818C3.90238 51.2448 12.7551 60.0975 24 62.9918Z" fill="white"/>
</g>
</svg>
