<svg width="64" height="64" viewBox="0 0 64 64" fill="none" xmlns="http://www.w3.org/2000/svg">
<mask id="mask0_12133_18996" style="mask-type:luminance" maskUnits="userSpaceOnUse" x="0" y="0" width="64" height="64">
<path d="M64 0H0V64H64V0Z" fill="white"/>
</mask>
<g mask="url(#mask0_12133_18996)">
<path d="M0 31.9989C0 47.3853 10.8609 60.2308 25.3333 63.2985V0.699219C10.8609 3.76702 0 16.6125 0 31.9989Z" fill="#F0263C"/>
<path d="M16.8141 32.0446L18.9653 38.6654L13.3333 34.5735L7.7014 38.6654L9.8526 32.0446L4.2207 27.9528H11.1821L13.3333 21.332L15.4845 27.9528H22.446L16.8141 32.0446Z" fill="black"/>
<path d="M25.3333 32V63.2972C27.4837 63.7551 29.7128 64 32 64C49.6731 64 64 49.6731 64 32H25.3333Z" fill="#619B27"/>
<path d="M64 32C64 14.3269 49.6731 0 32 0C29.7128 0 27.4838 0.2449 25.3333 0.7028V32H64Z" fill="#FFD400"/>
</g>
</svg>
