<svg width="64" height="64" viewBox="0 0 64 64" fill="none" xmlns="http://www.w3.org/2000/svg">
<mask id="mask0_12133_19246" style="mask-type:luminance" maskUnits="userSpaceOnUse" x="0" y="0" width="64" height="64">
<path d="M64 0H0V64H64V0Z" fill="white"/>
</mask>
<g mask="url(#mask0_12133_19246)">
<path d="M32 64C49.6731 64 64 49.6731 64 32C64 14.3269 49.6731 0 32 0C14.3269 0 0 14.3269 0 32C0 49.6731 14.3269 64 32 64Z" fill="#619B27"/>
<path d="M32 31.9985L9.3788 9.37729L9.3726 9.37109C3.582 15.1619 0 23.1622 0 31.9985C0 40.8348 3.5815 48.8346 9.372 54.6253L9.3787 54.6196L32 31.9985Z" fill="#F0263C"/>
<path d="M12.1614 6.90234C12.1494 6.91184 12.1382 6.92224 12.1262 6.93164C12.1383 6.92204 12.1507 6.91264 12.1628 6.90304L12.1614 6.90234Z" fill="#FFD400"/>
<path d="M11.8341 7.17578C11.5842 7.37868 11.3368 7.58468 11.093 7.79458L35.2997 32.0013L11.0913 56.2096C11.2518 56.3485 11.4158 56.4834 11.5791 56.6191L58.8973 32.0013L11.8341 7.17578Z" fill="#FFD400"/>
<path d="M11.0931 7.79346L11.0907 7.79106L11.0889 7.78906C11.0402 7.83116 10.9931 7.87516 10.9445 7.91746C10.8342 8.01356 10.7259 8.11186 10.6167 8.20916C10.1926 8.58706 9.77416 8.97116 9.37256 9.37266L32 32.0001L9.37876 54.6213L9.37256 54.6275C9.92306 55.178 10.4996 55.7017 11.0888 56.2111L11.0914 56.2085L35.2998 32.0002L11.0931 7.79346Z" fill="black"/>
<path d="M13.9169 5.60156C13.3159 6.01406 12.7334 6.45096 12.1629 6.90246C12.1507 6.91206 12.1384 6.92146 12.1263 6.93106C12.0256 7.01106 11.9218 7.08726 11.8221 7.16836L11.8343 7.17476L58.8975 32.0002L11.5793 56.618L11.5664 56.6248C12.2341 57.1795 12.9284 57.7024 13.6403 58.2022L64 32.0003L13.9169 5.60156Z" fill="white"/>
</g>
</svg>
