<svg width="64" height="64" viewBox="0 0 64 64" fill="none" xmlns="http://www.w3.org/2000/svg">
<mask id="mask0_12133_19187" style="mask-type:luminance" maskUnits="userSpaceOnUse" x="0" y="0" width="64" height="64">
<path d="M64 0H0V64H64V0Z" fill="white"/>
</mask>
<g mask="url(#mask0_12133_19187)">
<path d="M20 21.3333H44V32H64C64 14.3269 49.6731 0 32 0C14.3269 0 0 14.3269 0 32H20V21.3333Z" fill="#2D25C5"/>
<path d="M44 32V42.6667H20V32H0C0 49.6731 14.3269 64 32 64C49.6731 64 64 49.6731 64 32H44Z" fill="#F0263C"/>
<path d="M20 21.332V31.9987V42.6654H44V31.9987V21.332H20Z" fill="white"/>
<path d="M33.3334 22.668H30.6667V24.0013H33.3334V22.668Z" fill="#2D25C5"/>
<path d="M40 40.0013L37.3333 41.3346L36 38.668H34.6667H34.1333L34.6667 41.3346H29.3333L29.8667 38.668H29.3333H28L26.6667 41.3346L24 40.0013L20 41.3346V42.668H44V41.3346L40 40.0013Z" fill="#1E5B00"/>
<path d="M28 38.6654H29.3333H29.8667L29.9395 38.3017L28 37.332H25.3333H22.6667V38.6654H24V39.9987L26.6667 41.332L28 38.6654Z" fill="#CC9500"/>
<path d="M34.0605 38.3017L34.1333 38.6654H34.6667H36L37.3333 41.332L40 39.9987V38.6654H41.3333V37.332H38.6667H36L34.0605 38.3017Z" fill="#CC9500"/>
<path d="M31.077 32.6154L31 33L28 32L29.3333 34.6667H26.6667L28 37.3333L29.9395 38.303L31.077 32.6154Z" fill="#F0263C"/>
<path d="M29.3333 34.6667L28 32L31 33L31.077 32.6154L31.1971 32.0143L31.2857 31.5714L25.3333 28L26.6667 30.6667H24L25.3333 33.3333H22.6667L25.3333 37.3333H28L26.6667 34.6667H29.3333Z" fill="#2D25C5"/>
<path d="M34.6667 34.6667L36 32L33 33L32.923 32.6154L34.0605 38.303L36 37.3333L37.3333 34.6667H34.6667Z" fill="#F0263C"/>
<path d="M38.6668 33.3333L40.0001 30.6667H37.3334L38.6668 28L32.7144 31.5714L32.803 32.0143L32.9231 32.6154L33.0001 33L36.0001 32L35.9806 32.0391L34.6668 34.6667H37.3334L36.0001 37.3333H38.6668L41.3334 33.3333H38.6668Z" fill="#2D25C5"/>
<path d="M32.8029 32.013L32.7143 31.5701L32.2667 29.332H31.7333L31.2857 31.5701L31.1971 32.013L31.077 32.6141L29.9395 38.3017L29.8667 38.6654L29.3333 41.332H34.6667L34.1333 38.6654L34.0605 38.3017L32.923 32.6141L32.8029 32.013Z" fill="#CC9500"/>
<path d="M34.6667 29.3346L33.3333 28.0013H36L34.6667 26.668H38.6667L36 25.3346L37.3333 22.668L32 24.4775L26.6667 22.668L28 25.3346L25.3333 26.668H29.3333L28 28.0013H30.6667L29.3333 29.3346H31.7333H32.2667H34.6667Z" fill="#1E5B00"/>
</g>
</svg>
