<svg width="64" height="64" viewBox="0 0 64 64" fill="none" xmlns="http://www.w3.org/2000/svg">
<mask id="mask0_12133_19102" style="mask-type:luminance" maskUnits="userSpaceOnUse" x="0" y="0" width="64" height="64">
<path d="M64 0H0V64H64V0Z" fill="white"/>
</mask>
<g mask="url(#mask0_12133_19102)">
<path d="M1.828 21.332C0.6482 24.6692 0 28.2575 0 31.9987C0 35.7399 0.6482 39.3282 1.828 42.6654H62.1719C63.3518 39.3283 64 35.7399 64 31.9987C64 28.2575 63.3518 24.6692 62.1719 21.332H1.828Z" fill="white"/>
<path d="M62.1718 42.668H1.82788C6.22168 55.0952 18.0679 64.0013 31.9999 64.0013C45.9319 64.0013 57.7781 55.0952 62.1718 42.668Z" fill="#4DAFE3"/>
<path d="M1.82788 21.3333H62.1718C57.7781 8.9061 45.9318 0 31.9999 0C18.068 0 6.22168 8.9061 1.82788 21.3333Z" fill="#4DAFE3"/>
<path d="M32.0001 28.332L28.3335 31.9986L32.0001 35.6652L35.6668 31.9986L32.0001 28.332Z" fill="#4DAFE3"/>
<path d="M13.9998 23.332L10.6665 26.6653L13.9998 29.9986L17.3331 26.6653L13.9998 23.332Z" fill="#4DAFE3"/>
<path d="M14 34L10.6667 37.3333L14 40.6666L17.3333 37.3333L14 34Z" fill="#4DAFE3"/>
<path d="M50 23.332L46.6667 26.6653L50 29.9986L53.3334 26.6653L50 23.332Z" fill="#4DAFE3"/>
<path d="M50 34L46.6667 37.3333L50 40.6666L53.3334 37.3333L50 34Z" fill="#4DAFE3"/>
</g>
</svg>
