<svg width="64" height="64" viewBox="0 0 64 64" fill="none" xmlns="http://www.w3.org/2000/svg">
<mask id="mask0_12133_19053" style="mask-type:luminance" maskUnits="userSpaceOnUse" x="0" y="0" width="64" height="64">
<path d="M64 0H0V64H64V0Z" fill="white"/>
</mask>
<g mask="url(#mask0_12133_19053)">
<path d="M32 64C49.6731 64 64 49.6731 64 32C64 14.3269 49.6731 0 32 0C14.3269 0 0 14.3269 0 32C0 49.6731 14.3269 64 32 64Z" fill="#F0263C"/>
<path d="M31.421 31.4575C30.879 30.3244 30.5955 29.0854 30.5955 27.8315C30.5955 27.5063 30.6196 27.1665 30.671 26.7618L30.7104 26.4539L31.1033 26.4764C31.1577 26.48 31.2117 26.4839 31.267 26.4839C33.6931 26.4839 35.6667 24.5103 35.6667 22.0842C35.6667 20.5852 34.9115 19.2033 33.6468 18.3873L33.3945 18.2249L33.5299 17.957C33.8209 17.3808 34.1699 16.846 34.5716 16.3597C34.362 16.3411 34.1627 16.332 33.9713 16.332C31.6012 16.332 29.3886 17.3968 27.9003 19.2532C27.7903 19.385 27.691 19.5172 27.5998 19.6546C26.6763 20.9752 26.1906 22.5143 26.1906 24.1126C26.1906 27.4661 28.3058 30.3845 31.421 31.4575Z" fill="white"/>
<path d="M27.6029 32.0495C27.294 31.9492 26.9782 31.8213 26.6091 31.6468L26.3285 31.5143L26.4704 31.1494C26.4909 31.0986 26.5114 31.0475 26.5287 30.9945C26.892 29.8767 26.7982 28.6846 26.2647 27.6374C25.7312 26.5902 24.8217 25.8135 23.7042 25.4506C22.2774 24.9871 20.7306 25.2784 19.5639 26.2289L19.3312 26.4184L19.1183 26.2071C18.6606 25.752 18.2596 25.2546 17.9214 24.7227C17.839 24.9161 17.7687 25.1023 17.7095 25.2852C16.9771 27.5391 17.3059 29.9727 18.6118 31.9616C18.7029 32.1074 18.798 32.2422 18.9005 32.3714C19.8709 33.6579 21.1847 34.5954 22.7049 35.0892C25.8953 36.126 29.324 35.0163 31.3068 32.3851C30.0607 32.5508 28.795 32.4369 27.6029 32.0495Z" fill="white"/>
<path d="M30.6868 36.1963C30.4964 36.4587 30.277 36.7194 29.997 37.0173L29.7838 37.2439L29.4827 36.9965C29.4401 36.9607 29.3977 36.9249 29.3522 36.892C27.389 35.4656 24.6322 35.9024 23.2061 37.8653C22.3252 39.0775 22.1237 40.6394 22.6674 42.043L22.7758 42.3229L22.5089 42.4599C21.9347 42.7548 21.3377 42.9827 20.7273 43.1399C20.8855 43.2779 21.0411 43.4023 21.1964 43.5149C23.1137 44.9078 25.5297 45.3473 27.8253 44.72C27.992 44.6783 28.1498 44.6295 28.3045 44.5719C29.8276 44.0468 31.1251 43.0869 32.0649 41.7936C34.0363 39.0804 34.0408 35.4762 32.1508 32.7773C31.9226 34.013 31.4238 35.182 30.6868 36.1963Z" fill="white"/>
<path d="M32.7865 32.0981C33.8913 32.6971 34.849 33.5327 35.5857 34.5467C35.7768 34.8097 35.9571 35.0988 36.1534 35.4569L36.3028 35.7297L35.974 35.94C35.9271 35.9693 35.8802 35.9983 35.8353 36.0311C34.8845 36.7219 34.2588 37.742 34.0752 38.9028C33.8913 40.0636 34.1703 41.2264 34.861 42.1772C35.7422 43.3901 37.1689 44.0668 38.668 43.9809L38.9675 43.9643L39.0157 44.2602C39.1189 44.8966 39.1511 45.5349 39.1121 46.1648C39.2928 46.0564 39.4591 45.947 39.6137 45.8344C41.5313 44.4412 42.6957 42.2791 42.808 39.9028C42.82 39.7309 42.8223 39.5662 42.8155 39.4012C42.7862 37.7902 42.2745 36.2593 41.3354 34.9663C39.364 32.2531 35.9378 31.1356 32.7865 32.0981Z" fill="white"/>
<path d="M32.3353 31.2812C33.2461 30.4156 34.3366 29.763 35.5287 29.3753C35.837 29.2754 36.1677 29.1933 36.5697 29.1168L36.8744 29.0589L36.975 29.4407C36.9883 29.4931 37.0014 29.5452 37.0183 29.5973C37.3813 30.7148 38.1579 31.6246 39.2051 32.1581C40.2526 32.692 41.4447 32.786 42.5625 32.4224C43.9876 31.9595 45.0684 30.8143 45.4538 29.3592L45.5306 29.0692L45.8268 29.1151C46.4645 29.2137 47.0817 29.3801 47.6683 29.6118C47.6211 29.407 47.5684 29.215 47.5091 29.0324C46.7767 26.7785 45.0801 25.0028 42.8548 24.1616C42.695 24.0971 42.5394 24.0438 42.3805 23.9998C40.8388 23.5288 39.2246 23.5431 37.7047 24.0369C34.5152 25.0734 32.393 27.9866 32.3353 31.2812Z" fill="white"/>
<path d="M31.3333 19.668L29.6666 21.3346L31.3333 23.0013L32.9999 21.3346L31.3333 19.668Z" fill="#F0263C"/>
<path d="M20.0642 28.8239L21.1343 30.924L23.2344 29.854L22.1643 27.7539L20.0642 28.8239Z" fill="#F0263C"/>
<path d="M25.2901 42.3686L27.618 41.9998L27.2493 39.6719L24.9213 40.0406L25.2901 42.3686Z" fill="#F0263C"/>
<path d="M39.7888 41.5873L40.1575 39.2593L37.8295 38.8906L37.4608 41.2186L39.7888 41.5873Z" fill="#F0263C"/>
<path d="M43.5237 27.5545L41.4236 26.4844L40.3535 28.5845L42.4536 29.6546L43.5237 27.5545Z" fill="#F0263C"/>
</g>
</svg>
