<svg width="64" height="64" viewBox="0 0 64 64" fill="none" xmlns="http://www.w3.org/2000/svg">
<g clip-path="url(#clip0_12133_19129)">
<mask id="mask0_12133_19129" style="mask-type:luminance" maskUnits="userSpaceOnUse" x="0" y="0" width="64" height="64">
<path d="M64 0H0V64H64V0Z" fill="white"/>
</mask>
<g mask="url(#mask0_12133_19129)">
<path d="M11.3333 7.57812C6.19015 11.9347 2.44545 17.8846 0.854248 24.6676H11.3333V7.57812Z" fill="#2D25C5"/>
<path d="M63.1458 24.6667C59.8295 10.5296 47.1485 0 32 0C29.9482 0 27.9443 0.2009 26 0.5699V24.6667H63.1458Z" fill="#2D25C5"/>
<path d="M0.854248 39.332C2.44545 46.115 6.19015 52.0648 11.3333 56.4214V39.332H0.854248Z" fill="#2D25C5"/>
<path d="M26 63.4288C27.9443 63.7978 29.9482 63.9987 32 63.9987C47.1485 63.9987 59.8294 53.4691 63.1458 39.332H26V63.4288Z" fill="#2D25C5"/>
<path d="M22 1.60156C19.6462 2.37556 17.4105 3.40906 15.3333 4.67896V28.6658H0.173C0.0596 29.7616 0 30.8733 0 31.9991C0 33.1249 0.0596 34.2367 0.173 35.3325H15.3333V59.3193C17.4105 60.5892 19.6461 61.6227 22 62.3967V35.3325H63.827C63.9404 34.2367 64 33.1249 64 31.9991C64 30.8733 63.9404 29.7616 63.827 28.6658H22V1.60156Z" fill="#F0263C"/>
<path d="M0.854296 39.332H11.3334V56.4214C12.5886 57.4846 13.9232 58.4567 15.3334 59.3188V35.332H0.173096C0.313996 36.6935 0.548096 38.0266 0.854296 39.332Z" fill="white"/>
<path d="M22 62.3962C23.2989 62.8233 24.6336 63.1694 26 63.4287V39.332H63.1458C63.452 38.0266 63.6861 36.6936 63.827 35.332H22V62.3962Z" fill="white"/>
<path d="M22 1.60291V28.6671H63.827C63.6861 27.3056 63.452 25.9725 63.1458 24.6671H26V0.570312C24.6336 0.829612 23.2989 1.17571 22 1.60291Z" fill="white"/>
<path d="M11.3334 24.6665H0.854296C0.548096 25.9719 0.313996 27.305 0.173096 28.6665H15.3334V4.67969C13.9232 5.54179 12.5886 6.51379 11.3334 7.57709V24.6665Z" fill="white"/>
</g>
</g>
<defs>
<clipPath id="clip0_12133_19129">
<rect width="64" height="64" fill="white"/>
</clipPath>
</defs>
</svg>
