<svg width="64" height="64" viewBox="0 0 64 64" fill="none" xmlns="http://www.w3.org/2000/svg">
<mask id="mask0_12133_19054" style="mask-type:luminance" maskUnits="userSpaceOnUse" x="0" y="0" width="64" height="64">
<path d="M64 0H0V64H64V0Z" fill="white"/>
</mask>
<g mask="url(#mask0_12133_19054)">
<path d="M32 64C49.6731 64 64 49.6731 64 32C64 14.3269 49.6731 0 32 0C14.3269 0 0 14.3269 0 32C0 49.6731 14.3269 64 32 64Z" fill="white"/>
<path d="M32 25.332C35.6819 25.332 38.6667 28.3168 38.6667 31.9987C38.6667 35.6806 35.6819 38.6653 32 38.6653C28.3181 38.6653 25.3333 35.6806 25.3333 31.9987C25.3333 28.3168 28.3181 25.332 32 25.332Z" fill="white"/>
<path d="M32 25.3333C35.6819 25.3333 38.6667 28.318 38.6667 32C38.6667 35.682 35.6819 38.6667 32 38.6667C28.3181 38.6667 25.3333 35.682 25.3333 32C25.3333 28.318 28.3181 25.3333 32 25.3333ZM32 24C27.5888 24 24 27.5888 24 32C24 36.4112 27.5888 40 32 40C36.4112 40 40 36.4112 40 32C40 27.5888 36.4112 24 32 24Z" fill="#191977"/>
<path d="M1.82812 21.3333H62.1719C57.7782 8.9061 45.9319 0 32 0C18.0681 0 6.22184 8.9061 1.82812 21.3333Z" fill="#FF7700"/>
<path d="M62.1719 42.668H1.82812C6.22192 55.0952 18.0681 64.0013 32 64.0013C45.9319 64.0013 57.7782 55.0952 62.1719 42.668Z" fill="#1E5B00"/>
<path d="M31.9998 36.0078C34.2089 36.0078 35.9998 34.2169 35.9998 32.0078C35.9998 29.7987 34.2089 28.0078 31.9998 28.0078C29.7906 28.0078 27.9998 29.7987 27.9998 32.0078C27.9998 34.2169 29.7906 36.0078 31.9998 36.0078Z" fill="#191977"/>
</g>
</svg>
