<svg width="64" height="64" viewBox="0 0 64 64" fill="none" xmlns="http://www.w3.org/2000/svg">
<mask id="mask0_12133_19056" style="mask-type:luminance" maskUnits="userSpaceOnUse" x="0" y="0" width="64" height="64">
<path d="M64 0H0V64H64V0Z" fill="white"/>
</mask>
<g mask="url(#mask0_12133_19056)">
<path d="M32 64C49.6731 64 64 49.6731 64 32C64 14.3269 49.6731 0 32 0C14.3269 0 0 14.3269 0 32C0 49.6731 14.3269 64 32 64Z" fill="white"/>
<path d="M28 20.0013V21.3346H29.3333V20.0013V18.668H28V20.0013Z" fill="#619B27"/>
<path d="M28 17.332H26.6667V18.6653H28V17.332Z" fill="#619B27"/>
<path d="M14.6667 20.0013V21.3346H16V20.0013V18.668H14.6667V20.0013Z" fill="#619B27"/>
<path d="M14.6667 17.332H13.3334V18.6653H14.6667V17.332Z" fill="#619B27"/>
<path d="M61.3335 19.207V21.3322H62.172C61.9172 20.6114 61.6374 19.903 61.3335 19.207Z" fill="#619B27"/>
<path d="M54.6667 20.0013V21.3346H56V20.0013V18.668H54.6667V20.0013Z" fill="#619B27"/>
<path d="M2.66675 21.3322V19.207C2.36275 19.903 2.08305 20.6115 1.82825 21.3322H2.66675Z" fill="#619B27"/>
<path d="M54.6668 17.332H53.3335V18.6653H54.6668V17.332Z" fill="#619B27"/>
<path d="M41.3335 20.0013V21.3346H42.6669V20.0013V18.668H41.3335V20.0013Z" fill="#619B27"/>
<path d="M41.3333 17.332H40V18.6653H41.3333V17.332Z" fill="#619B27"/>
<path d="M60.0001 16.5073C54.5424 6.665 44.0516 0 32.0001 0C19.9486 0 9.4578 6.665 4.0001 16.5073C3.8491 16.7796 3.7052 17.0562 3.5619 17.3333C3.3352 17.7721 3.1182 18.2164 2.9115 18.6666H4V19.9999H6.6667V18.6666H8V21.3333H9.3333V18.6666H10.6666V19.9999H13.3333V18.6666H12V17.3333H13.3333V16H17.3333V17.3333H20V16H24V17.3333H22.6667V18.6481H21.3334V17.3333H20L20.0001 18.6481H17.3334L17.3333 17.3333H16.0001V18.6666H17.3334V19.9999H20.0001V18.6666H21.3334V21.3333H22.6667V18.6666H24V19.9999H26.6667V18.6666H25.3334V17.3333H26.6667V16H30.6667V17.3333H33.3334V16H37.3334V17.3333H36.0001V18.6481H34.6668V17.3333H33.3334L33.3335 18.6481H30.6668L30.6667 17.3333H29.3335V18.6666H30.6668V19.9999H33.3335V18.6666H34.6668V21.3333H36.0001V18.6666H37.3334V19.9999H40.0001V18.6666H38.6668V17.3333H40.0001V16H44.0001V17.3333H46.6668V16H50.6668V17.3333H49.3335V18.6481H48.0002V17.3333H46.6668L46.6669 18.6481H44.0002L44.0001 17.3333H42.6669V18.6666H44.0002V19.9999H46.6669V18.6666H48.0002V21.3333H49.3335V18.6666H50.6668V19.9999H53.3335V18.6666H52.0002V17.3333H53.3335V16H57.3335V17.3333H60.0002V18.6481H57.3335V17.3333H56.0002V18.6666H57.3335V19.9999H60.0002V18.6666H61.0887C60.882 18.2163 60.665 17.772 60.4383 17.3333C60.2951 17.0562 60.1512 16.7796 60.0001 16.5073ZM10.6668 17.3333H9.3335V18.6481H8.0002V17.3333H6.6669V18.6481H4.0002V17.3333H6.6669V16H10.6669L10.6668 17.3333Z" fill="#619B27"/>
<path d="M41.3333 45.332H40V46.6653H41.3333V45.332Z" fill="#F0263C"/>
<path d="M42.6669 44.0013V42.668H41.3335V44.0013V45.3346H42.6669V44.0013Z" fill="#F0263C"/>
<path d="M54.6668 45.332H53.3335V46.6653H54.6668V45.332Z" fill="#F0263C"/>
<path d="M56 44.0013V42.668H54.6667V44.0013V45.3346H56V44.0013Z" fill="#F0263C"/>
<path d="M28 45.332H26.6667V46.6653H28V45.332Z" fill="#F0263C"/>
<path d="M29.3333 44.0013V42.668H28V44.0013V45.3346H29.3333V44.0013Z" fill="#F0263C"/>
<path d="M14.6667 45.332H13.3334V46.6653H14.6667V45.332Z" fill="#F0263C"/>
<path d="M16 44.0013V42.668H14.6667V44.0013V45.3346H16V44.0013Z" fill="#F0263C"/>
<path d="M60.0001 44.0014H57.3334V45.3347H56.0001V46.668H57.3334V45.3531H60.0001V46.668H57.3334V48.0013H53.3334V46.668H52.0001V45.3347H53.3334V44.0014H50.6667V45.3347H49.3334V42.668H48.0001V45.3347H46.6668V44.0014H44.0001V45.3347H42.6668V46.668H44.0001V45.3531H46.6668V46.668H48.0001V45.3531H49.3334V46.668H50.6667V48.0013H46.6667L46.6668 46.668H44.0001L44 48.0013H40V46.668H38.6667V45.3347H40V44.0014H37.3333V45.3347H36V42.668H34.6667V45.3347H33.3334V44.0014H30.6667V45.3347H29.3334V46.668H30.6667V45.3531H33.3334V46.668H34.6667V45.3531H36V46.668H37.3333V48.0013H33.3333L33.3334 46.668H30.6667L30.6666 48.0013H26.6666V46.668H25.3333V45.3347H26.6666V44.0014H23.9999V45.3347H22.6666V42.668H21.3333V45.3347H20V44.0014H17.3333V45.3347H16V46.668H17.3333V45.3531H20V46.668H21.3333V45.3531H22.6666V46.668H23.9999V48.0013H19.9999L20 46.668H17.3333L17.3332 48.0013H13.3332V46.668H11.9999V45.3347H13.3332V44.0014H10.6665V45.3347H9.33318V42.668H7.99988V45.3347H6.66658V44.0014H3.99988V45.3347H2.91138C3.11808 45.785 3.33508 46.2293 3.56178 46.668C3.70498 46.9452 3.84888 47.2217 3.99998 47.494C9.45768 57.3362 19.9485 64.0013 32 64.0013C44.0515 64.0013 54.5423 57.3363 60 47.494C60.151 47.2217 60.2949 46.9451 60.4382 46.668C60.6649 46.2293 60.8819 45.7849 61.0886 45.3347H60.0001V44.0014ZM10.6668 48.0014H6.66678V46.6681H4.00008V45.3532H6.66678V46.6681H8.00008V45.3532H9.33338V46.6681H10.6667L10.6668 48.0014Z" fill="#F0263C"/>
<path d="M61.3335 42.668V44.7932C61.6375 44.0972 61.9172 43.3887 62.172 42.668H61.3335Z" fill="#F0263C"/>
<path d="M2.66675 44.7932V42.668H1.82825C2.08305 43.3888 2.36285 44.0972 2.66675 44.7932Z" fill="#F0263C"/>
<path d="M32.0001 25.3333H33.3334L34.6668 24H29.3334L30.6668 25.3333H32.0001Z" fill="#F0263C"/>
<path d="M25.3333 33.332V29.332L26.6667 27.9987L29.3333 25.332L26.6667 26.6654L24 29.332V33.332L26.6667 35.9987L25.3333 33.332Z" fill="#F0263C"/>
<path d="M37.3335 27.9987L38.6667 29.332V33.332L37.3335 35.9987L40 33.332V29.332L37.3335 26.6654L34.6667 25.332L37.3335 27.9987Z" fill="#F0263C"/>
<path d="M30.6667 35.9987L29.3333 34.6654L28 30.6654L29.3333 26.6654L28 27.9987L26.6667 30.6654V33.332L28 35.9987L30.6667 37.332L28 38.6654H30.6667L32 39.9987L33.3333 38.6654H36L33.3333 37.332L36 35.9987L37.3333 33.332V30.6654L36 27.9987L34.6667 26.6654L36 30.6654L34.6667 34.6654L33.3333 35.9987V26.6654L32 25.332L30.6667 26.6654V35.9987Z" fill="#F0263C"/>
</g>
</svg>
