<svg width="64" height="64" viewBox="0 0 64 64" fill="none" xmlns="http://www.w3.org/2000/svg">
<mask id="mask0_12133_19057" style="mask-type:luminance" maskUnits="userSpaceOnUse" x="0" y="0" width="64" height="64">
<path d="M64 0H0V64H64V0Z" fill="white"/>
</mask>
<g mask="url(#mask0_12133_19057)">
<path d="M1.8281 42.6654C0.6482 39.3282 0 35.7399 0 31.9987C0 28.2575 0.6482 24.6692 1.8281 21.332" fill="white"/>
<path d="M0 31.9987C0 35.7399 0.6482 39.3282 1.8281 42.6654H62.1719C63.3518 39.3283 64 35.7399 64 31.9987C64 28.2575 63.3518 24.6692 62.1719 21.332H1.8281C0.6482 24.6692 0 28.2575 0 31.9987Z" fill="white"/>
<path d="M1.82812 21.3333H62.1719C57.7782 8.9061 45.9319 0 32 0C18.0681 0 6.22184 8.9061 1.82812 21.3333Z" fill="#F0263C"/>
<path d="M62.1719 42.668H1.82812C6.22192 55.0952 18.0681 64.0013 32 64.0013C45.9319 64.0013 57.7782 55.0952 62.1719 42.668Z" fill="black"/>
<path d="M32 26.668V37.3346H34.6667V34.668H33.3333V26.668H32Z" fill="#1E5B00"/>
<path d="M46.6665 26.668V37.3346H49.3331V34.668H47.9998V26.668H46.6665Z" fill="#1E5B00"/>
<path d="M30.6667 36.0013V30.668H28V32.0013H22.6667L26.6667 28.0013V26.668H25.3333L20 32.0013V33.3346H28V34.668H18.6667V32.0013H17.3333V34.668L14.6667 33.3346H13.3333V40.0013L14.6667 37.3346H30.6667V36.0013Z" fill="#1E5B00"/>
<path d="M17.3333 38.668H16V40.0013H17.3333V38.668Z" fill="#1E5B00"/>
<path d="M37.3333 37.3346V34.668H38.6665V33.3346L40 32.0013V34.668H41.3333V30.668L42.6665 29.3346V34.668H44V28.0013L45.3333 26.668V37.3346H37.3333Z" fill="#1E5B00"/>
<path d="M42.6665 26.668H38.6665V28.0013H42.6665V26.668Z" fill="#1E5B00"/>
</g>
</svg>
