<svg width="64" height="64" viewBox="0 0 64 64" fill="none" xmlns="http://www.w3.org/2000/svg">
<mask id="mask0_12133_19132" style="mask-type:luminance" maskUnits="userSpaceOnUse" x="0" y="0" width="64" height="64">
<path d="M64 0H0V64H64V0Z" fill="white"/>
</mask>
<g mask="url(#mask0_12133_19132)">
<path d="M32 0C14.3268 0 0 14.3269 0 32C0 49.6731 14.3268 64 32 64C49.6732 64 64 49.6731 64 32C64 14.3269 49.6732 0 32 0ZM53.3333 18.6667L48 21.3334V33.3334L46.6667 34.6667L44 36H36L33.4642 37.4641L27.8213 41.9042L35.2376 47.7256L38.2137 47.9042L39.2137 46.1721L40.9456 47.1721L39.9456 48.9042L38.2137 47.9042L38.7017 49.7256L34.035 57.8085L32.8804 57.1418L33.2377 51.1897L22.8454 45.1897L22.3573 43.3683L22.5358 40.3922L25.2025 35.7734L26.5358 33.464V30.5358L25.512 23.4289L16.7623 26.9409L15.1196 29.4289L16.1196 31.161L14.3877 32.161L13.3877 30.4289L15.1196 29.4289L13.2983 28.9409L8.6316 20.858L9.7862 20.1913L14.7623 23.4768L25.1546 17.4768L26.9761 17.9648L29.4642 19.6075L32.1309 24.2263L33.4642 26.5357L36 27.9998L42.6667 30.6665L44 21.3332L42.6667 18.6665H40.6667V16.6665H42.6667V18.6665L44 17.3332H53.3333V18.6667Z" fill="#F0263C"/>
<path d="M42.6665 18.6654L44 21.332L42.6665 30.6654L36 27.9987L35.908 28.1482L35.952 28.1773L33.5424 31.9939L33.5404 31.9974L33.5396 31.9987L33.5406 32.0006L33.5415 32.0019L35.952 35.8201L35.908 35.8492L36 35.9987H38.6665H44L46.6665 34.6654L48 33.332V21.332L53.3333 18.6654V17.332H44L42.6665 18.6654Z" fill="white"/>
<path d="M26.7145 30.4877L31.2266 30.6663L31.2288 30.6664H31.2301L31.2311 30.6648L31.2324 30.6624L33.3333 26.6664L33.3805 26.69L33.4642 26.5356L32.1309 24.2262L29.4642 19.6074L26.9761 17.9647L25.1546 17.4766L14.7624 23.4766L9.78631 20.1911L8.63171 20.8578L13.2983 28.9407L15.1196 29.4287L16.7624 26.9407L25.512 23.4287L26.5358 30.5356L26.7114 30.5405L26.7145 30.4877Z" fill="white"/>
<path d="M33.3333 37.332L31.2324 33.336L31.2308 33.3329L31.2301 33.332H31.2288L31.223 33.3322L26.7145 33.5107L26.7114 33.4579L26.5358 33.4628L25.2025 35.7722L22.5358 40.391L22.3573 43.3671L22.8454 45.1884L33.2376 51.1884L32.8804 57.1405L34.035 57.8072L38.7017 49.7243L38.2137 47.903L35.2376 47.7243L27.8213 41.903L33.4642 37.4628L33.3805 37.3084L33.3333 37.332Z" fill="white"/>
<path d="M42.6667 16.668H40.6667V18.668H42.6667V16.668Z" fill="#FFD400"/>
<path d="M35.9521 35.8207L33.5415 32.0025L33.5407 32.0012L33.5396 31.9993L33.5404 31.998L33.5425 31.9945L35.9521 28.1779L35.908 28.1488L36 27.9993L33.4642 26.5352L33.3805 26.6896L33.3333 26.666L31.2324 30.662L31.2311 30.6644L31.2301 30.666H31.2288L31.2266 30.6659L26.7145 30.4873L26.7114 30.5401L26.5358 30.5352V33.4634L26.7114 33.4585L26.7145 33.5113L31.223 33.3328L31.2288 33.3326H31.2301L31.2308 33.3335L31.2324 33.3366L33.3333 37.3326L33.3805 37.309L33.4642 37.4634L36 35.9993L35.908 35.8498L35.9521 35.8207Z" fill="#FFD400"/>
<path d="M15.1196 29.4297L13.3877 30.4297L14.3877 32.1617L16.1197 31.1617L15.1196 29.4297Z" fill="#FFD400"/>
<path d="M39.2138 46.1719L38.2137 47.9039L39.9457 48.9039L40.9457 47.1719L39.2138 46.1719Z" fill="#FFD400"/>
</g>
</svg>
