<svg width="64" height="64" viewBox="0 0 64 64" fill="none" xmlns="http://www.w3.org/2000/svg">
<mask id="mask0_12133_19059" style="mask-type:luminance" maskUnits="userSpaceOnUse" x="0" y="0" width="64" height="64">
<path d="M64 0H0V64H64V0Z" fill="white"/>
</mask>
<g mask="url(#mask0_12133_19059)">
<path d="M32 0C24.6404 0 17.8663 2.4907 12.4602 6.6667H51.5399C46.1337 2.4907 39.3596 0 32 0Z" fill="white"/>
<path d="M32 63.9987C39.3596 63.9987 46.1337 61.508 51.5398 57.332H12.4602C17.8663 61.5079 24.6405 63.9987 32 63.9987Z" fill="white"/>
<path d="M0 31.9987C0 38.9673 2.2345 45.4105 6.0163 50.6654H57.9837C61.7656 45.4105 64 38.9673 64 31.9987C64 25.0301 61.7655 18.587 57.9837 13.332H6.0163C2.2345 18.587 0 25.03 0 31.9987Z" fill="white"/>
<path d="M51.5398 6.66797H12.4602C10.0032 8.56587 7.83156 10.8123 6.01636 13.3347H57.9838C56.1685 10.8124 53.9968 8.56597 51.5398 6.66797Z" fill="#2D25C5"/>
<path d="M12.4603 57.3347H51.54C53.997 55.4368 56.1686 53.1903 57.9838 50.668H6.01636C7.83166 53.1903 10.0033 55.4367 12.4603 57.3347Z" fill="#2D25C5"/>
<path d="M41.1243 31.9994L45.7378 24.0085H36.5107L31.9998 16.1953L27.4889 24.0085H18.2618L22.8753 31.9994L18.2618 39.9903H27.4889L31.9998 47.8035L36.5107 39.9903H45.7378L41.1243 31.9994ZM43.4286 25.3418L40.3546 30.6661L37.2806 25.3418H43.4286ZM39.5848 31.9994L35.741 38.657H28.2587L24.4149 31.9994L28.2587 25.3418H35.741L39.5848 31.9994ZM31.9999 18.862L34.9713 24.0085H29.0286L31.9999 18.862ZM20.5712 25.3418H26.7192L23.6452 30.6661L20.5712 25.3418ZM20.5712 38.6569L23.6452 33.3326L26.7192 38.6569H20.5712ZM31.9999 45.1367L29.0285 39.9902H34.9712L31.9999 45.1367ZM40.3546 33.3326L43.4286 38.6569H37.2806L40.3546 33.3326Z" fill="#2D25C5"/>
</g>
</svg>
