<svg width="64" height="64" viewBox="0 0 64 64" fill="none" xmlns="http://www.w3.org/2000/svg">
<mask id="mask0_12133_18997" style="mask-type:luminance" maskUnits="userSpaceOnUse" x="0" y="0" width="64" height="64">
<path d="M64 0H0V64H64V0Z" fill="white"/>
</mask>
<g mask="url(#mask0_12133_18997)">
<path d="M42.6667 62.172V1.82812C55.0939 6.22192 64 18.0681 64 32.0001C64 45.932 55.0939 57.7783 42.6667 62.172Z" fill="#619B27"/>
<path d="M21.3333 1.828C24.6705 0.6482 28.2588 0 32 0C35.7412 0 39.3295 0.6482 42.6667 1.828V62.1719C39.3296 63.3518 35.7412 64 32 64C28.2588 64 24.6705 63.3518 21.3333 62.1719V1.828Z" fill="white"/>
<path d="M21.3333 1.82812V62.172C8.9061 57.7783 0 45.932 0 32.0001C0 18.0682 8.9061 6.22192 21.3333 1.82812Z" fill="#FF7700"/>
</g>
</svg>
