<svg width="64" height="64" viewBox="0 0 64 64" fill="none" xmlns="http://www.w3.org/2000/svg">
<g clip-path="url(#clip0_12133_19188)">
<mask id="mask0_12133_19188" style="mask-type:luminance" maskUnits="userSpaceOnUse" x="0" y="0" width="64" height="64">
<path d="M64 0H0V64H64V0Z" fill="white"/>
</mask>
<g mask="url(#mask0_12133_19188)">
<path d="M60.7062 46.1419C62.8118 41.8765 64 37.0773 64 31.9987C64 26.9201 62.8118 22.1209 60.7062 17.8555L40.67 31.9987L60.7062 46.1419Z" fill="black"/>
<path d="M3.2938 17.8555C1.1882 22.1209 0 26.9201 0 31.9987C0 37.0773 1.1882 41.8765 3.2938 46.1419L23.33 31.9987L3.2938 17.8555Z" fill="black"/>
<path d="M54.9324 9.6924C49.1187 3.717 40.9955 0 32 0C23.0045 0 14.8813 3.717 9.06763 9.6924L32 25.8799L54.9324 9.6924Z" fill="#1E5B00"/>
<path d="M9.06775 54.3086C14.8814 60.2841 23.0045 64.001 32 64.001C40.9955 64.001 49.1187 60.284 54.9324 54.3086L32 38.1211L9.06775 54.3086Z" fill="#1E5B00"/>
<path d="M40.67 31.999L60.7062 17.8558C59.2141 14.8331 57.2583 12.0822 54.9324 9.69141L32 25.8789L9.06762 9.69141C6.74162 12.0821 4.78592 14.833 3.29382 17.8558L23.33 31.999L3.29382 46.1422C4.78592 49.1649 6.74172 51.9158 9.06772 54.3066L32 38.1191L54.9324 54.3066C57.2584 51.9159 59.2141 49.165 60.7062 46.1422L40.67 31.999Z" fill="#FFD400"/>
</g>
</g>
<defs>
<clipPath id="clip0_12133_19188">
<rect width="64" height="64" fill="white"/>
</clipPath>
</defs>
</svg>
