<svg width="64" height="64" viewBox="0 0 64 64" fill="none" xmlns="http://www.w3.org/2000/svg">
<g clip-path="url(#clip0_12133_19134)">
<mask id="mask0_12133_19134" style="mask-type:luminance" maskUnits="userSpaceOnUse" x="0" y="0" width="64" height="64">
<path d="M64 0H0V64H64V0Z" fill="white"/>
</mask>
<g mask="url(#mask0_12133_19134)">
<path d="M7.92834 10.9281L32 27.9199L56.0717 10.9281C50.2063 4.2332 41.6001 0 32 0C22.3999 0 13.7937 4.2332 7.92834 10.9281Z" fill="white"/>
<path d="M37.7802 32.0017L59.9215 16.3725C58.8275 14.4223 57.535 12.6 56.0716 10.9297L31.9999 27.9215L7.92827 10.9298C6.46487 12.6001 5.17247 14.4224 4.07837 16.3726L26.2197 32.0018L4.07837 47.631C5.17237 49.5812 6.46487 51.4035 7.92827 53.0738L32 36.082L56.0717 53.0738C57.5351 51.4035 58.8276 49.5812 59.9216 47.631L37.7802 32.0017Z" fill="#F0263C"/>
<path d="M37.3333 5.33457V6.66797L36 5.33457V4.00127H34.6667V5.33457L33.3333 6.66797H32.6667L33.3333 5.33457V4.00127L32 2.66797L30.6667 4.00127V5.33457L31.3333 6.66797H30.6667L29.3333 5.33457V4.00127H28V5.33457L26.6667 6.66797V5.33457L24.6667 4.00127L25.3333 6.66797L26.6667 9.33457H32H37.3333L38.6667 6.66797L39.3333 4.00127L37.3333 5.33457Z" fill="#FFD400"/>
<path d="M37.3333 9.33203H32H26.6667L26 11.9987V15.9987L26.6667 18.6654L29.3333 22.6654L32 24.6654L34.6667 22.6654L37.3333 18.6654L38 15.9987V11.9987L37.3333 9.33203Z" fill="#F0263C"/>
<path d="M29.3333 12.0013V10.668H30.6667V12.0013H36L33.3333 10.668H36L37.3333 12.0013L36 13.3346V14.668L34.6667 13.3346L33.3333 14.668V13.3346H29.3333L28 14.668V13.3346L26.6667 10.668" fill="#FFD400"/>
<path d="M29.3333 16.0013V14.668H30.6667V16.0013H36L33.3333 14.668H36L37.3333 16.0013L36 17.3346V18.668L34.6667 17.3346L33.3333 18.668V17.3346H29.3333L28 18.668V17.3346L26.6667 14.668" fill="#FFD400"/>
<path d="M28 18.668L30.6667 20.0013V18.668H32V20.0013H33.3333L32 18.668H33.3333L34.6667 20.0013V21.3346V22.668L33.3333 21.3346L32 22.668V21.3346H30.6667L29.3333 22.668V21.3346L28 18.668Z" fill="#FFD400"/>
<path d="M37.7802 32.0003L59.9215 47.6295C62.5149 43.0065 64 37.6782 64 32.0003C64 26.3224 62.5149 20.9941 59.9215 16.3711L37.7802 32.0003Z" fill="white"/>
<path d="M4.0785 16.3711C1.4851 20.9941 0 26.3224 0 32.0003C0 37.6782 1.4851 43.0065 4.0785 47.6295L26.2198 32.0003L4.0785 16.3711Z" fill="white"/>
<path d="M7.92834 53.0738C13.7937 59.7686 22.3999 64.0019 32 64.0019C41.6001 64.0019 50.2063 59.7687 56.0717 53.0738L32 36.082L7.92834 53.0738Z" fill="white"/>
</g>
</g>
<defs>
<clipPath id="clip0_12133_19134">
<rect width="64" height="64" fill="white"/>
</clipPath>
</defs>
</svg>
