<svg width="64" height="64" viewBox="0 0 64 64" fill="none" xmlns="http://www.w3.org/2000/svg">
<mask id="mask0_12133_19062" style="mask-type:luminance" maskUnits="userSpaceOnUse" x="0" y="0" width="64" height="64">
<path d="M64 0H0V64H64V0Z" fill="white"/>
</mask>
<g mask="url(#mask0_12133_19062)">
<path d="M32 64C49.6731 64 64 49.6731 64 32C64 14.3269 49.6731 0 32 0C14.3269 0 0 14.3269 0 32C0 49.6731 14.3269 64 32 64Z" fill="#007ACC"/>
<path d="M42.6666 34C47.0849 34 50.6666 30.4183 50.6666 26C50.6666 21.5817 47.0849 18 42.6666 18C38.2483 18 34.6666 21.5817 34.6666 26C34.6666 30.4183 38.2483 34 42.6666 34Z" fill="#FFD400"/>
<path d="M42.6665 13.332L41.3333 15.9987H44L42.6665 13.332Z" fill="#FFD400"/>
<path d="M46.9989 14.0977L44.8339 16.1475L47.3398 17.0596L46.9989 14.0977Z" fill="#FFD400"/>
<path d="M50.8086 16.2969L48.0732 17.4826L50.1159 19.1967L50.8086 16.2969Z" fill="#FFD400"/>
<path d="M53.6363 19.668L50.6603 19.8466L51.9936 22.156L53.6363 19.668Z" fill="#FFD400"/>
<path d="M55.1409 23.7993L52.2832 22.9492L52.7463 25.5754L55.1409 23.7993Z" fill="#FFD400"/>
<path d="M55.1409 28.198L52.7463 26.4219L52.2832 29.0481L55.1409 28.198Z" fill="#FFD400"/>
<path d="M53.6363 32.3318L51.9936 29.8438L50.6603 32.1532L53.6363 32.3318Z" fill="#FFD400"/>
<path d="M50.8086 35.7045L50.1159 32.8047L48.0732 34.5188L50.8086 35.7045Z" fill="#FFD400"/>
<path d="M46.9989 37.9033L47.3398 34.9414L44.8339 35.8535L46.9989 37.9033Z" fill="#FFD400"/>
<path d="M42.6665 38.6667L44 36H41.3333L42.6665 38.6667Z" fill="#FFD400"/>
<path d="M38.3344 37.9033L40.4994 35.8535L37.9935 34.9414L38.3344 37.9033Z" fill="#FFD400"/>
<path d="M34.5247 35.7045L37.2602 34.5188L35.2174 32.8047L34.5247 35.7045Z" fill="#FFD400"/>
<path d="M31.697 32.3318L34.6731 32.1532L33.3397 29.8438L31.697 32.3318Z" fill="#FFD400"/>
<path d="M30.1924 28.198L33.0501 29.0481L32.5871 26.4219L30.1924 28.198Z" fill="#FFD400"/>
<path d="M30.1924 23.7993L32.5871 25.5754L33.0501 22.9492L30.1924 23.7993Z" fill="#FFD400"/>
<path d="M31.697 19.668L33.3397 22.156L34.6731 19.8466L31.697 19.668Z" fill="#FFD400"/>
<path d="M34.5247 16.2969L35.2174 19.1967L37.2602 17.4826L34.5247 16.2969Z" fill="#FFD400"/>
<path d="M38.3344 14.0977L37.9935 17.0596L40.4994 16.1475L38.3344 14.0977Z" fill="#FFD400"/>
<path d="M25.3333 28H26.6667L28 30.6667V29.3333L29.3333 30.6667V33.3333L32 37.3333L36 40L41.3333 41.3333H42.6667H45.3333L49.3333 40L53.3333 37.3333L56 33.3333V30.6667L57.3333 29.3333V30.6667L58.6667 28H60V30.6667H61.3333L60 33.3333H61.3333V34.6667L58.6667 36H60V37.3333L57.3333 38.6667H58.6667L54.6667 42.6667L50.6667 44L53.3333 41.3333L56 38.6667L57.3333 34.6667L54.6667 37.3333L52 40L48 41.3333L44 42.6667L40 45.3333H42.6667L44 46.6667H46.6667L48 45.3333H53.3333L50.6667 46.6667L49.3333 48H46.6667L41.3333 49.3333L40 48L42.6667 46.6667H38H36L37.3333 45.3333H38.6667L40 44L41.3333 42.6667L36 41.3333L32 38.6667L28 34.6667V37.3333L30.6667 40L34.6667 44L29.3333 41.3333L26.6667 38.6667V37.3333L25.3333 36H26.6667L24 33.3333H25.3333L24 30.6667H25.3333V28Z" fill="#FFD400"/>
<path d="M10.6667 53.3318L9.33345 49.3318L10.6667 45.3318L9.33345 43.9985L10.6667 42.6652L9.33345 38.6652L10.6667 34.6652V33.3319H9.33345V34.6652H8.00015V33.3319H9.33345V30.6652H8.00015V29.3319H9.33345V30.6652H10.6667V29.3319L9.33345 25.3319L10.6667 21.3319L9.33345 19.9986L10.6667 18.6653L9.33345 14.6653L10.6667 10.6653V9.33203H9.41385C8.98085 9.76353 8.56275 10.2097 8.15485 10.6653H9.33335V11.9986H8.00005V10.8439C7.58845 11.3105 7.19145 11.7896 6.80735 12.2799L8.00005 14.6653H5.33335L5.96145 13.4093C4.75055 15.1023 3.70185 16.9173 2.83535 18.8339L4.00005 19.9986L2.66675 21.3319L4.00005 25.3319L2.66675 29.3319V30.6652H4.00005V29.3319H5.33335V30.6652H4.00005V33.3319H5.33335V34.6652H4.00005V33.3319H2.66675V34.6652L4.00005 38.6652L2.66675 42.6652L4.00005 43.9985L2.83535 45.1632C3.70185 47.0799 4.75055 48.8948 5.96145 50.5878L5.33345 49.3318H8.00015L6.80745 51.7172C7.19155 52.2074 7.58855 52.6866 8.00015 53.1532V51.9985H9.33345V53.3318H8.15495C8.56285 53.7874 8.98085 54.2336 9.41395 54.6651H10.6668L10.6667 53.3318ZM9.33345 42.6651H8.00015V39.9984L9.33345 42.6651ZM6.66675 29.3318L5.33345 25.3318H8.00015L6.66675 29.3318ZM8.00005 23.9985V21.3318H9.33335L8.00005 23.9985ZM8.00005 15.9985L9.33335 18.6652H8.00005V15.9985ZM6.66675 18.6652L8.00005 19.9985L6.66675 21.3318L5.33345 19.9985L6.66675 18.6652ZM5.33345 15.9985V18.6652H4.00015L5.33345 15.9985ZM4.00015 21.3318H5.33345V23.9985L4.00015 21.3318ZM6.66685 30.6651L8.00015 31.9984L6.66685 33.3317L5.33355 31.9984L6.66685 30.6651ZM6.66685 34.6651L8.00015 38.6651H5.33345L6.66685 34.6651ZM5.33355 39.9984V42.6651H4.00025L5.33355 39.9984ZM5.33355 47.9984L4.00025 45.3317H5.33355V47.9984ZM6.66685 45.3317L5.33355 43.9984L6.66685 42.6651L8.00015 43.9984L6.66685 45.3317ZM8.00015 47.9984V45.3317H9.33345L8.00015 47.9984Z" fill="#FFD400"/>
<path d="M6.66669 18.668L5.33337 20.0014L6.6667 21.3347L8.00002 20.0014L6.66669 18.668Z" fill="#007ACC"/>
<path d="M8.00007 14.6667L6.80737 12.2812C6.51727 12.6513 6.23537 13.0277 5.96147 13.4107L5.33337 14.6667H8.00007Z" fill="#007ACC"/>
<path d="M9.3333 12.0013V10.668H8.1548C8.1022 10.7267 8.0521 10.7875 8 10.8466V12.0013H9.3333Z" fill="#007ACC"/>
<path d="M5.3333 16L4 18.6667H5.3333V16Z" fill="#007ACC"/>
<path d="M8 16V18.6667H9.3333L8 16Z" fill="#007ACC"/>
<path d="M6.66677 29.332L8.00007 25.332H5.33337L6.66677 29.332Z" fill="#007ACC"/>
<path d="M5.3333 33.332H4V34.6653H5.3333V33.332Z" fill="#007ACC"/>
<path d="M9.3333 33.332H8V34.6653H9.3333V33.332Z" fill="#007ACC"/>
<path d="M5.3333 29.332H4V30.6653H5.3333V29.332Z" fill="#007ACC"/>
<path d="M9.3333 29.332H8V30.6653H9.3333V29.332Z" fill="#007ACC"/>
<path d="M6.66669 30.668L5.33337 32.0013L6.66669 33.3347L8.00001 32.0013L6.66669 30.668Z" fill="#007ACC"/>
<path d="M5.3333 21.332H4L5.3333 23.9987V21.332Z" fill="#007ACC"/>
<path d="M8 23.9987L9.3333 21.332H8V23.9987Z" fill="#007ACC"/>
<path d="M6.66669 42.668L5.33337 44.0013L6.66669 45.3347L8.00001 44.0013L6.66669 42.668Z" fill="#007ACC"/>
<path d="M5.33337 49.332L5.96137 50.588C6.23517 50.971 6.51717 51.3473 6.80727 51.7174L7.99997 49.332H5.33337Z" fill="#007ACC"/>
<path d="M9.3333 52H8V53.1547C8.0521 53.2138 8.1022 53.2747 8.1548 53.3333H9.3333V52Z" fill="#007ACC"/>
<path d="M8 45.332V47.9987L9.3333 45.332H8Z" fill="#007ACC"/>
<path d="M5.3333 47.9987V45.332H4L5.3333 47.9987Z" fill="#007ACC"/>
<path d="M6.66677 34.668L5.33337 38.668H8.00007L6.66677 34.668Z" fill="#007ACC"/>
<path d="M8 42.6667H9.3333L8 40V42.6667Z" fill="#007ACC"/>
<path d="M5.3333 40L4 42.6667H5.3333V40Z" fill="#007ACC"/>
</g>
</svg>
