<svg width="64" height="64" viewBox="0 0 64 64" fill="none" xmlns="http://www.w3.org/2000/svg">
<mask id="mask0_12133_18998" style="mask-type:luminance" maskUnits="userSpaceOnUse" x="0" y="0" width="64" height="64">
<path d="M64 0H0V64H64V0Z" fill="white"/>
</mask>
<g mask="url(#mask0_12133_18998)">
<path d="M32 64C49.6731 64 64 49.6731 64 32C64 14.3269 49.6731 0 32 0C14.3269 0 0 14.3269 0 32C0 49.6731 14.3269 64 32 64Z" fill="white"/>
<path d="M0 32.0013C0 35.2486 0.4875 38.3813 1.3868 41.3346H62.6132C63.5125 38.3813 64 35.2486 64 32.0013C64 28.754 63.5125 25.6212 62.6132 22.668H1.3868C0.4875 25.6212 0 28.7539 0 32.0013Z" fill="#F0263C"/>
<path d="M31.9999 0C18.5718 0 7.08296 8.2747 2.33496 20H61.6649C56.9169 8.2747 45.428 0 31.9999 0Z" fill="black"/>
<path d="M31.9999 64C45.428 64 56.9169 55.7253 61.6649 44H2.33496C7.08296 55.7253 18.5718 64 31.9999 64Z" fill="#1E5B00"/>
<path d="M27.2698 17.605L27.3333 14.668L24 10.668V16.0013L26.0638 18.1881L27.3425 21.6543L28.2574 20.2819L27.2698 17.605Z" fill="white"/>
<path d="M38.5381 52.0001H39.9592L36.4905 42.5977L35.5756 43.97L38.5381 52.0001Z" fill="white"/>
<path d="M24.0408 52.0001H25.4619L28.4244 43.97L27.5095 42.5977L24.0408 52.0001Z" fill="white"/>
<path d="M40 16.0013V10.668L36.6667 14.668L36.7302 17.605L35.7426 20.2819L36.6575 21.6543L37.9362 18.1881L40 16.0013Z" fill="white"/>
<path d="M32 14.668L28.2574 20.282L27.3425 21.6543L26.6667 22.668V41.3347L27.5095 42.5989L28.4244 43.9712L32 49.3346L35.5756 43.9712L36.4905 42.5989L37.3333 41.3347V22.668L36.6575 21.6543L35.7426 20.282L32 14.668ZM29.3333 20.0013H30.6666V28.0013H29.3333V20.0013ZM29.3333 44.0013V36.0013H30.6666V44.0013H29.3333ZM29.3333 32.0013C29.3333 30.5285 30.5272 29.3346 32 29.3346C33.4728 29.3346 34.6667 30.5285 34.6667 32.0013C34.6667 33.4741 33.4728 34.668 32 34.668C30.5272 34.668 29.3333 33.4741 29.3333 32.0013ZM34.6666 44.0013H33.3333V36.0013H34.6666V44.0013ZM34.6666 28.0013H33.3333V20.0013H34.6666V28.0013Z" fill="#F0263C"/>
<path d="M40 37.3346V26.668L37.3333 22.668V41.3346L40 37.3346Z" fill="black"/>
<path d="M24 26.668V37.3346L26.6667 41.3346V22.668L24 26.668Z" fill="black"/>
<path d="M32 34.6654C33.4728 34.6654 34.6667 33.4715 34.6667 31.9987C34.6667 30.5259 33.4728 29.332 32 29.332C30.5272 29.332 29.3333 30.5259 29.3333 31.9987C29.3333 33.4715 30.5272 34.6654 32 34.6654Z" fill="white"/>
<path d="M34.6665 20H33.3333V28H34.6665V20Z" fill="white"/>
<path d="M30.6666 20H29.3333V28H30.6666V20Z" fill="white"/>
<path d="M34.6665 36H33.3333V44H34.6665V36Z" fill="white"/>
<path d="M30.6666 36H29.3333V44H30.6666V36Z" fill="white"/>
</g>
</svg>
