<svg width="64" height="64" viewBox="0 0 64 64" fill="none" xmlns="http://www.w3.org/2000/svg">
<mask id="mask0_12133_19216" style="mask-type:luminance" maskUnits="userSpaceOnUse" x="0" y="0" width="64" height="64">
<path d="M64 0H0V64H64V0Z" fill="white"/>
</mask>
<g mask="url(#mask0_12133_19216)">
<path d="M11.2155 33.4512C13.5345 32.7377 15.9323 32 18.6667 32C21.4011 32 23.7989 32.7376 26.1179 33.4512C28.1492 34.0762 30.0678 34.6667 32.0001 34.6667C33.9324 34.6667 35.851 34.0762 37.8823 33.4512C40.2013 32.7377 42.5991 32 45.3335 32C48.0679 32 50.4657 32.7376 52.7847 33.4512C54.816 34.0762 56.7346 34.6667 58.6669 34.6667C60.4109 34.6667 62.1444 34.1851 63.9589 33.6319C63.9861 33.0913 64.0002 32.5473 64.0002 32.0001C64 14.3269 49.6732 0 32 0C14.3268 0 0 14.3269 0 32C0 32.5473 0.0142 33.0913 0.0413 33.6318C1.8558 34.1851 3.5893 34.6666 5.3333 34.6666C7.2656 34.6666 9.1842 34.0762 11.2155 33.4512Z" fill="#F0263C"/>
<path d="M52.7845 38.7832C50.4655 38.0697 48.0677 37.332 45.3333 37.332C42.5989 37.332 40.2011 38.0696 37.8821 38.7832C35.8508 39.4082 33.9322 39.9987 31.9999 39.9987C30.0676 39.9987 28.149 39.4082 26.1177 38.7832C23.7987 38.0697 21.4009 37.332 18.6665 37.332C15.9321 37.332 13.5343 38.0696 11.2153 38.7832C9.184 39.4082 7.2654 39.9987 5.3331 39.9987C3.8411 39.9987 2.3567 39.6457 0.822998 39.1975C1.2887 41.2226 1.9454 43.1735 2.7753 45.0316C3.6322 45.2133 4.4815 45.3321 5.3331 45.3321C7.2654 45.3321 9.184 44.7416 11.2153 44.1166C13.5343 43.4031 15.9321 42.6654 18.6665 42.6654C21.4009 42.6654 23.7987 43.403 26.1177 44.1166C28.149 44.7416 30.0676 45.3321 31.9999 45.3321C33.9322 45.3321 35.8508 44.7416 37.8821 44.1166C40.2011 43.4031 42.5989 42.6654 45.3333 42.6654C48.0677 42.6654 50.4655 43.403 52.7845 44.1166C54.8158 44.7416 56.7344 45.3321 58.6667 45.3321C59.5183 45.3321 60.3675 45.2134 61.2245 45.0316C62.0544 43.1735 62.7112 41.2227 63.1768 39.1975C61.6431 39.6456 60.1586 39.9987 58.6667 39.9987C56.7344 39.9987 54.8158 39.4082 52.7845 38.7832Z" fill="#191977"/>
<path d="M52.7846 44.1192C50.4656 43.4057 48.0678 42.668 45.3334 42.668C42.599 42.668 40.2012 43.4056 37.8822 44.1192C35.8509 44.7442 33.9323 45.3347 32 45.3347C30.0677 45.3347 28.1491 44.7442 26.1178 44.1192C23.7988 43.4057 21.401 42.668 18.6666 42.668C15.9322 42.668 13.5344 43.4056 11.2154 44.1192C9.18409 44.7442 7.26549 45.3347 5.33319 45.3347C4.48159 45.3347 3.63239 45.216 2.77539 45.0342C3.66209 47.0194 4.74419 48.8968 5.99869 50.6435C7.70769 50.5299 9.41749 50.0056 11.2153 49.4525C13.5343 48.739 15.9321 48.0013 18.6665 48.0013C21.4009 48.0013 23.7987 48.7389 26.1177 49.4525C28.149 50.0775 30.0676 50.668 31.9999 50.668C33.9322 50.668 35.8508 50.0775 37.8821 49.4525C40.2011 48.739 42.5989 48.0013 45.3333 48.0013C48.0677 48.0013 50.4655 48.7389 52.7845 49.4525C54.5824 50.0057 56.2921 50.53 58.0011 50.6435C59.2557 48.8968 60.3377 47.0194 61.2244 45.0342C60.3675 45.2159 59.5182 45.3347 58.6666 45.3347C56.7343 45.3347 54.8159 44.7442 52.7846 44.1192Z" fill="white"/>
<path d="M45.3334 48C42.599 48 40.2012 48.7376 37.8822 49.4512C35.8509 50.0762 33.9323 50.6667 32 50.6667C30.0677 50.6667 28.1491 50.0762 26.1178 49.4512C23.7988 48.7377 21.401 48 18.6666 48C15.9322 48 13.5344 48.7376 11.2154 49.4512C9.41748 50.0044 7.70778 50.5287 5.99878 50.6422C7.17028 52.2732 8.49068 53.7883 9.94128 55.1697C10.362 55.0459 10.7857 54.9166 11.2154 54.7844C13.5344 54.0709 15.9322 53.3332 18.6666 53.3332C21.401 53.3332 23.7988 54.0708 26.1178 54.7844C28.1491 55.4094 30.0677 55.9999 32 55.9999C33.9323 55.9999 35.8509 55.4094 37.8822 54.7844C40.2012 54.0709 42.599 53.3332 45.3334 53.3332C48.0678 53.3332 50.4656 54.0708 52.7846 54.7844C53.2143 54.9166 53.638 55.0458 54.0587 55.1697C55.5094 53.7882 56.8297 52.2731 58.0012 50.6422C56.2922 50.5286 54.5824 50.0043 52.7846 49.4512C50.4656 48.7377 48.0678 48 45.3334 48Z" fill="#191977"/>
<path d="M45.3332 53.332C42.5988 53.332 40.201 54.0696 37.882 54.7832C35.8507 55.4082 33.9321 55.9987 31.9998 55.9987C30.0675 55.9987 28.1489 55.4082 26.1176 54.7832C23.7986 54.0697 21.4008 53.332 18.6664 53.332C15.932 53.332 13.5342 54.0696 11.2152 54.7832C10.7855 54.9154 10.3618 55.0446 9.94116 55.1685C11.4802 56.6342 13.1636 57.948 14.9702 59.0863C16.1452 58.8349 17.367 58.6654 18.6663 58.6654C21.4007 58.6654 23.7985 59.403 26.1175 60.1166C28.1488 60.7416 30.0674 61.3321 31.9997 61.3321C33.932 61.3321 35.8506 60.7416 37.8819 60.1166C40.2009 59.4031 42.5987 58.6654 45.3331 58.6654C46.6324 58.6654 47.8543 58.8349 49.0292 59.0863C50.8358 57.948 52.5193 56.6342 54.0583 55.1685C53.6376 55.0447 53.2139 54.9154 52.7842 54.7832C50.4652 54.0697 48.0676 53.332 45.3332 53.332Z" fill="white"/>
<path d="M37.8822 60.1192C35.8509 60.7442 33.9323 61.3347 32 61.3347C30.0677 61.3347 28.1491 60.7442 26.1178 60.1192C23.7988 59.4057 21.401 58.668 18.6666 58.668C17.3673 58.668 16.1454 58.8375 14.9705 59.0889C19.9033 62.1966 25.7392 64.0013 32 64.0013C38.2608 64.0013 44.0967 62.1966 49.0295 59.0889C47.8545 58.8375 46.6327 58.668 45.3334 58.668C42.599 58.668 40.2012 59.4056 37.8822 60.1192Z" fill="#191977"/>
<path d="M18.1423 35.8811L11.6762 34.6687L18.1423 33.4563L15.2478 32.3672C13.8494 32.6482 12.5186 33.052 11.2156 33.453C9.18428 34.078 7.26568 34.6685 5.33338 34.6685C3.58938 34.6685 1.85588 34.1869 0.0413818 33.6337C0.137082 35.5392 0.408382 37.3973 0.823282 39.2007C2.35698 39.6489 3.84138 40.0019 5.33338 40.0019C7.26568 40.0019 9.18428 39.4114 11.2156 38.7864C11.8522 38.5906 12.4959 38.3944 13.1495 38.2106L11.9849 38.198L18.1423 35.8811Z" fill="white"/>
<path d="M58.6667 34.6686C56.7344 34.6686 54.8158 34.0781 52.7845 33.4531C51.4813 33.0521 50.1504 32.6482 48.7516 32.3672L45.858 33.4559L52.3243 34.6683L45.8582 35.8807L52.0156 38.1976L50.8489 38.2102C51.5032 38.3941 52.1474 38.5904 52.7844 38.7864C54.8157 39.4114 56.7343 40.0019 58.6666 40.0019C60.1585 40.0019 61.643 39.6488 63.1767 39.2007C63.5916 37.3974 63.8629 35.5392 63.9586 33.6337C62.1441 34.187 60.4107 34.6686 58.6667 34.6686Z" fill="white"/>
<path d="M26.1178 33.4524C28.1491 34.0774 30.0677 34.6679 32 34.6679C33.9323 34.6679 35.8509 34.0774 37.8822 33.4524C40.2012 32.7389 42.599 32.0013 45.3334 32.0013C46.531 32.0013 47.6615 32.1475 48.7517 32.3666L52.0157 31.1385L45.4371 31.0673L51.0987 27.7165L44.6078 28.7888L49.6015 24.5057L43.3953 26.6888L47.5695 21.6037L41.8368 24.8313L45.0643 19.0985L39.9792 23.2727L42.1623 17.0666L37.8793 22.0603L38.9516 15.5694L35.6007 21.231L35.5296 14.6525L33.2127 20.81L32.0003 14.3438L30.7879 20.81L28.471 14.6526L28.3999 21.231L25.0492 15.5696L26.1215 22.0605L21.8383 17.0668L24.0216 23.2729L18.9363 19.0988L22.164 24.8315L16.4314 21.6039L20.6054 26.689L14.3993 24.5059L19.393 28.7891L12.9021 27.7168L18.5637 31.0676L11.9852 31.1389L15.2481 32.3666C16.3386 32.1475 17.4691 32.0012 18.667 32.0012C21.4014 32.0012 23.7988 32.7388 26.1178 33.4524Z" fill="#FFD400"/>
<path d="M14.6667 6.66797H18.6667L21.3333 5.33467H26.6667L32 8.00127L36 4.00127L38.6667 2.66797L46.6667 4.00127L41.3333 5.33467L40 6.66797L38.6667 8.00127L36 9.33467H45.3333L40 10.668H44L37.3333 12.0013H34.6667L30.6667 13.3347H26.6667L24 12.0013H18.6667L20 10.668H24L26.6667 9.33467H28L25.3333 8.00127H22.6667L21.3333 9.33467H18.6667L14.6667 6.66797Z" fill="#FFD400"/>
</g>
</svg>
