<svg width="64" height="64" viewBox="0 0 64 64" fill="none" xmlns="http://www.w3.org/2000/svg">
<mask id="mask0_12133_19135" style="mask-type:luminance" maskUnits="userSpaceOnUse" x="0" y="0" width="64" height="64">
<path d="M64 0H0V64H64V0Z" fill="white"/>
</mask>
<g mask="url(#mask0_12133_19135)">
<path d="M32 64C49.6731 64 64 49.6731 64 32C64 14.3269 49.6731 0 32 0C14.3269 0 0 14.3269 0 32C0 49.6731 14.3269 64 32 64Z" fill="#2D25C5"/>
<path d="M32 20H33.3333L34.6667 21.3333L33.3333 22.6667H34.6667H36L38.6667 24V25.3333H40L41.3333 26.6667V28L42.6667 29.3333H44V30.6667L45.3333 33.3333H48V34.6667H50.6667V37.3333L49.3333 38.6667L48 40V41.3333L46.6667 42.6667V44L48 45.3333H45.3333H42.6667V46.6667L41.3333 48H42.6667V49.3333H40V48L38.6667 46.6667L36 48L33.3333 49.3333H32L30.6667 50.6667V52H32V53.3333L30.6667 54.6667H28L26.6667 53.3333L28 52V50.6667L26.6667 49.3333V48V46.6667L25.3333 45.3333L24 44L22.6667 42.6667H21.3333V41.3333L20 40V38.6667L17.3333 37.3333V34.6667L16 33.3333V32H20L21.3333 30.6667H22.6667L26.6667 29.3333L25.3333 28L26.6667 26.6667L28 25.3333V26.6667L29.3333 25.3333V24L28 22.6667V21.3333L32 20Z" fill="#CC9500"/>
<path d="M37.3333 9.33203L34 12.6653L37.3333 15.9986L40.6666 12.6653L37.3333 9.33203Z" fill="white"/>
<path d="M26.6666 9.33203L23.3333 12.6653L26.6666 15.9986L29.9999 12.6653L26.6666 9.33203Z" fill="white"/>
<path d="M17.9999 11.332L14.6666 14.6653L17.9999 17.9986L21.3332 14.6653L17.9999 11.332Z" fill="white"/>
<path d="M9.99993 14L6.66663 17.3333L9.99993 20.6666L13.3332 17.3333L9.99993 14Z" fill="white"/>
<path d="M53.9999 14L50.6666 17.3333L53.9999 20.6666L57.3332 17.3333L53.9999 14Z" fill="white"/>
<path d="M45.9999 11.332L42.6666 14.6653L45.9999 17.9986L49.3332 14.6653L45.9999 11.332Z" fill="white"/>
</g>
</svg>
