<svg width="64" height="64" viewBox="0 0 64 64" fill="none" xmlns="http://www.w3.org/2000/svg">
<mask id="mask0_12133_19064" style="mask-type:luminance" maskUnits="userSpaceOnUse" x="0" y="0" width="64" height="64">
<path d="M64 0H0V64H64V0Z" fill="white"/>
</mask>
<g mask="url(#mask0_12133_19064)">
<path d="M32 64C49.6731 64 64 49.6731 64 32C64 14.3269 49.6731 0 32 0C14.3269 0 0 14.3269 0 32C0 49.6731 14.3269 64 32 64Z" fill="#F0263C"/>
<path d="M46.3522 33.1296L52 32L46.3522 30.8704L51.7537 28.8713L45.9989 28.6392L51.0212 25.8197L45.3008 26.4906L49.8201 22.9202L44.2751 24.4778L48.1803 20.2443L42.9473 22.6501L46.1421 17.8579L41.3499 21.0527L43.7557 15.8197L39.5222 19.7249L41.0798 14.1799L37.5094 18.6992L38.1803 12.9788L35.3608 18.0011L35.1287 12.2462L33.1296 17.6477L32 12L30.8704 17.6477L28.8713 12.2462L28.6392 18.0011L25.8197 12.9788L26.4906 18.6992L22.9202 14.1799L24.4778 19.7249L20.2443 15.8197L22.6501 21.0527L17.8579 17.8579L21.0527 22.6501L15.8197 20.2443L19.7249 24.4778L14.1799 22.9202L18.6992 26.4906L12.9788 25.8197L18.0011 28.6392L12.2463 28.8713L17.6478 30.8704L12 32L17.6478 33.1296L12.2463 35.1287L18.0011 35.3608L12.9788 38.1803L18.6992 37.5094L14.1799 41.0798L19.7249 39.5222L15.8197 43.7557L21.0527 41.3499L17.8579 46.1421L22.6501 42.9473L20.2443 48.1803L24.4778 44.2751L22.9202 49.8201L26.4906 45.3007L25.8197 51.0211L28.6392 45.9989L28.8713 51.7537L30.8704 46.3523L32 52L33.1296 46.3523L35.1287 51.7537L35.3608 45.9989L38.1803 51.0211L37.5094 45.3007L41.0798 49.8201L39.5222 44.2751L43.7557 48.1803L41.3499 42.9473L46.1421 46.1421L42.9473 41.3499L48.1803 43.7557L44.2751 39.5222L49.8201 41.0798L45.3008 37.5094L51.0212 38.1803L45.9989 35.3608L51.7537 35.1287L46.3522 33.1296Z" fill="#FFD400"/>
<path d="M37.8507 21.5277C37.5173 21.341 37.174 21.1705 36.822 21.0157C35.3454 20.3665 33.7165 20 32.0001 20C30.2837 20 28.6547 20.3665 27.1782 21.0157C26.8261 21.1705 26.4829 21.341 26.1495 21.5277C22.4824 23.581 20.0002 27.4983 20.0002 31.9999C20.0002 32.7147 20.0743 33.411 20.1941 34.0915C20.315 34.7782 20.4958 35.4424 20.7282 36.0836C20.9204 36.6138 21.14 37.1304 21.4017 37.6227C21.6654 38.1185 21.9686 38.5883 22.2967 39.0397C22.5749 39.4225 22.875 39.787 23.1955 40.1338C23.5381 40.5045 23.8973 40.8589 24.2837 41.184C24.6322 41.4771 24.9968 41.7507 25.3775 42.0031C25.7842 42.273 26.2123 42.511 26.6519 42.7306C28.2638 43.5357 30.0759 43.9999 32.0002 43.9999C33.9245 43.9999 35.7366 43.5357 37.3485 42.7306C37.7881 42.511 38.2162 42.273 38.623 42.0031C39.0036 41.7506 39.3682 41.477 39.7167 41.184C40.1031 40.8589 40.4623 40.5045 40.8049 40.1338C41.1254 39.787 41.4255 39.4225 41.7037 39.0397C42.0318 38.5883 42.335 38.1186 42.5987 37.6227C42.8604 37.1303 43.08 36.6137 43.2722 36.0836C43.5046 35.4424 43.6854 34.7782 43.8063 34.0915C43.9262 33.411 44.0002 32.7148 44.0002 31.9999C44.0002 27.4983 41.5177 23.581 37.8507 21.5277ZM42.1315 28.6758C41.4999 28.8818 40.8765 29.0988 40.2683 29.3359C39.8896 28.9184 39.5006 28.5137 39.1013 28.1214C39.8982 27.8129 40.7136 27.5289 41.5545 27.2793C41.7771 27.7288 41.9732 28.1931 42.1315 28.6758ZM40.8046 25.9821C39.8114 26.2884 38.8446 26.6299 37.9106 27.0148C37.4656 26.6241 37.0102 26.2462 36.5424 25.8841C37.5855 25.4473 38.6645 25.0576 39.7862 24.7255C40.1544 25.1195 40.4989 25.5357 40.8046 25.9821ZM27.5717 27.6714C28.0293 27.2895 28.5028 26.9276 28.9845 26.5763C29.5388 26.8462 30.0809 27.132 30.6107 27.4337C30.1179 27.7706 29.6388 28.1247 29.169 28.4907C28.647 28.2041 28.1158 27.9293 27.5717 27.6714ZM27.95 29.4962C27.5184 29.8725 27.098 30.2626 26.6879 30.6656C26.1925 30.4105 25.6867 30.169 25.1723 29.9388C25.562 29.5252 25.96 29.1217 26.3715 28.7351C26.9076 28.9758 27.4357 29.227 27.95 29.4962ZM30.3768 25.6272C30.905 25.2895 31.4457 24.9677 32.0002 24.6638C32.5546 24.9678 33.0953 25.2895 33.6236 25.6272C33.0704 25.9153 32.5294 26.219 32.0002 26.5382C31.4711 26.219 30.9301 25.9153 30.3768 25.6272ZM33.4642 29.2898C32.965 29.5999 32.4774 29.9247 32.0002 30.2629C31.523 29.9247 31.0354 29.5998 30.5362 29.2898C31.0111 28.9357 31.5015 28.6011 32.0002 28.2773C32.4989 28.6011 32.9893 28.9357 33.4642 29.2898ZM29.3117 30.2551C29.8083 30.5509 30.2905 30.865 30.7648 31.1893C30.3198 31.5422 29.8849 31.9079 29.4609 32.2871C28.9957 31.9792 28.519 31.686 28.034 31.4036C28.4499 31.0082 28.8734 30.6225 29.3117 30.2551ZM32.0002 32.0866C32.445 32.4286 32.8775 32.7861 33.3008 33.1551C32.8579 33.4829 32.4233 33.8211 32.0002 34.1737C31.5771 33.8211 31.1425 33.4829 30.6996 33.1551C31.1229 32.7861 31.5554 32.4286 32.0002 32.0866ZM33.2356 31.1893C33.7099 30.865 34.1921 30.5509 34.6887 30.2551C35.1269 30.6225 35.5505 31.0082 35.9664 31.4037C35.4814 31.6861 35.0046 31.9793 34.5395 32.2872C34.1155 31.908 33.6806 31.5421 33.2356 31.1893ZM34.8313 28.4907C34.3616 28.1247 33.8824 27.7706 33.3896 27.4337C33.9195 27.1321 34.4615 26.8463 35.0158 26.5763C35.4975 26.9276 35.971 27.2895 36.4286 27.6714C35.8845 27.9293 35.3532 28.2041 34.8313 28.4907ZM37.6289 28.7352C38.0404 29.1217 38.4384 29.5253 38.8281 29.9389C38.3137 30.1691 37.8078 30.4106 37.3125 30.6657C36.9023 30.2628 36.482 29.8726 36.0504 29.4963C36.5647 29.2271 37.0929 28.9759 37.6289 28.7352ZM38.5499 23.5932C37.3843 23.9718 36.2499 24.3922 35.1676 24.8808C34.6473 24.5253 34.1163 24.1834 33.5706 23.8605C34.6343 23.3594 35.7407 22.9141 36.8909 22.5275C37.4786 22.8315 38.0323 23.1894 38.5499 23.5932ZM32.0003 21.3334C32.9798 21.3334 33.924 21.4764 34.8251 21.7237C33.8524 22.1081 32.91 22.5326 32.0003 22.9995C31.0906 22.5326 30.1482 22.1081 29.1755 21.7237C30.0765 21.4765 31.0208 21.3334 32.0003 21.3334ZM27.1097 22.5275C28.2599 22.9141 29.3663 23.3594 30.43 23.8605C29.8843 24.1834 29.3533 24.5253 28.833 24.8808C27.7506 24.3922 26.6163 23.9718 25.4507 23.5932C25.9683 23.1894 26.522 22.8316 27.1097 22.5275ZM24.2142 24.7256C25.3359 25.0577 26.415 25.4474 27.458 25.8842C26.9902 26.2463 26.5348 26.6242 26.0898 27.0149C25.1558 26.63 24.1889 26.2885 23.1958 25.9822C23.5015 25.5358 23.846 25.1196 24.2142 24.7256ZM22.4459 27.2794C23.2868 27.529 24.1022 27.8131 24.8991 28.1215C24.4998 28.5138 24.1109 28.9185 23.7321 29.336C23.1239 29.0989 22.5005 28.8819 21.8689 28.6759C22.0272 28.1932 22.2233 27.7289 22.4459 27.2794ZM21.3337 32.0001C21.3337 31.35 21.4011 30.7165 21.5126 30.0985C21.9171 30.2332 22.3177 30.3731 22.7131 30.5199C22.2393 31.1 21.7893 31.7089 21.3505 32.3312C21.3471 32.2202 21.3337 32.1118 21.3337 32.0001ZM21.6482 34.53C22.4177 33.3088 23.2453 32.157 24.1445 31.0925C24.6448 31.3075 25.136 31.5347 25.6178 31.7741C24.3736 33.1318 23.2485 34.6356 22.2232 36.2582C21.9822 35.7056 21.7936 35.1266 21.6482 34.53ZM23.016 37.7345C24.1724 35.7945 25.4888 34.0449 26.959 32.485C27.4347 32.7537 27.9011 33.0343 28.3571 33.3282C26.6951 34.9792 25.2121 36.8516 23.9089 38.9386C23.5835 38.5594 23.2864 38.1571 23.016 37.7345ZM24.9677 40.006C26.3048 37.814 27.8502 35.8705 29.5942 34.1739C30.0315 34.4909 30.4603 34.8189 30.8779 35.161C29.0823 36.8227 27.486 38.7319 26.0848 40.8745C25.6912 40.6116 25.3219 40.3174 24.9677 40.006ZM32.0003 42.6668C30.3374 42.6668 28.7695 42.2753 27.3667 41.5965C28.721 39.5438 30.2648 37.7182 32.0003 36.1319C33.7358 37.7182 35.2796 39.5437 36.6339 41.5965C35.2311 42.2753 33.6632 42.6668 32.0003 42.6668ZM37.9158 40.8744C36.5146 38.7318 34.9182 36.8226 33.1227 35.1609C33.5403 34.8188 33.9691 34.4909 34.4064 34.1738C36.1505 35.8704 37.6959 37.8139 39.0329 40.0059C38.6787 40.3174 38.3093 40.6116 37.9158 40.8744ZM40.0917 38.9386C38.7886 36.8516 37.3056 34.9792 35.6435 33.3282C36.0996 33.0343 36.5659 32.7537 37.0416 32.485C38.5118 34.0449 39.8282 35.7945 40.9846 37.7345C40.7143 38.1571 40.4172 38.5595 40.0917 38.9386ZM41.7776 36.2582C40.7523 34.6356 39.6272 33.1319 38.383 31.7741C38.8649 31.5348 39.356 31.3076 39.8563 31.0925C40.7555 32.157 41.583 33.3088 42.3526 34.53C42.2073 35.1266 42.0186 35.7056 41.7776 36.2582ZM41.2876 30.5199C41.683 30.3731 42.0837 30.2332 42.4881 30.0985C42.5996 30.7165 42.667 31.35 42.667 32.0001C42.667 32.1119 42.6537 32.2203 42.6502 32.3312C42.2114 31.7089 41.7614 31.1 41.2876 30.5199Z" fill="#F0263C"/>
</g>
</svg>
