<svg width="64" height="64" viewBox="0 0 64 64" fill="none" xmlns="http://www.w3.org/2000/svg">
<mask id="mask0_12133_19136" style="mask-type:luminance" maskUnits="userSpaceOnUse" x="0" y="0" width="64" height="64">
<path d="M64 0H0V64H64V0Z" fill="white"/>
</mask>
<g mask="url(#mask0_12133_19136)">
<path d="M32 63.9987C47.855 63.9987 61.009 52.4651 63.5492 37.332H0.450806C2.99101 52.4651 16.1449 63.9987 32 63.9987Z" fill="#F0263C"/>
<path d="M32 0C16.145 0 2.99101 11.5335 0.450806 26.6667H63.5491C61.009 11.5335 47.855 0 32 0Z" fill="#F0263C"/>
<path d="M63.5492 26.668H0.4508C0.1595 28.4033 0 30.1832 0 32.0013C0 33.8194 0.1595 35.5993 0.4508 37.3346H63.5491C63.8404 35.5993 63.9999 33.8193 63.9999 32.0013C63.9999 30.1833 63.8405 28.4033 63.5492 26.668Z" fill="white"/>
</g>
</svg>
