<svg width="64" height="64" viewBox="0 0 64 64" fill="none" xmlns="http://www.w3.org/2000/svg">
<mask id="mask0_12133_19066" style="mask-type:luminance" maskUnits="userSpaceOnUse" x="0" y="0" width="64" height="64">
<path d="M64 0H0V64H64V0Z" fill="white"/>
</mask>
<g mask="url(#mask0_12133_19066)">
<path d="M32 0C20.1576 0 9.82545 6.4379 4.29175 16H59.7085C54.1747 6.4379 43.8424 0 32 0Z" fill="#F0263C"/>
<path d="M32 64C43.8424 64 54.1747 57.562 59.7084 48H4.29175C9.82545 57.562 20.1576 64 32 64Z" fill="#F0263C"/>
<path d="M59.7083 16H4.2917C1.5671 20.7079 0 26.1693 0 32C0 37.8307 1.5671 43.2921 4.2917 48H59.7084C62.4329 43.2921 64.0001 37.8307 64.0001 32C64.0001 26.1693 62.4329 20.7079 59.7083 16Z" fill="white"/>
<path d="M36 37.332H44L40 31.9879L42.6666 31.8754L38.6666 27.9815H41.3333L36 22.6654H38.6666L32 17.332L25.3333 22.6654H28L22.6666 27.9815H25.3333L21.3333 31.8754L24 31.9879L20 37.332H28V42.6654L25.3333 45.332L30.6666 43.9987H33.3333L38.6666 45.332L36 42.6654V37.332Z" fill="#619B27"/>
</g>
</svg>
