<svg width="64" height="64" viewBox="0 0 64 64" fill="none" xmlns="http://www.w3.org/2000/svg">
<mask id="mask0_12133_18999" style="mask-type:luminance" maskUnits="userSpaceOnUse" x="0" y="0" width="64" height="64">
<path d="M64 0H0V64H64V0Z" fill="white"/>
</mask>
<g mask="url(#mask0_12133_18999)">
<path d="M62.1719 42.668H1.828C6.2218 55.0952 18.068 64.0013 32 64.0013C45.932 64.0013 57.7782 55.0952 62.1719 42.668Z" fill="#619B27"/>
<path d="M1.828 21.332C0.6482 24.6692 0 28.2575 0 31.9987C0 35.7399 0.6482 39.3282 1.828 42.6654H62.1719C63.3518 39.3283 64 35.7399 64 31.9987C64 28.2575 63.3518 24.6692 62.1719 21.332H1.828Z" fill="white"/>
<path d="M1.828 21.3333H62.1719C57.7782 8.9061 45.9319 0 32 0C18.0681 0 6.2218 8.9061 1.828 21.3333Z" fill="#191977"/>
<path d="M40 35.9987H38.6667L34 31.9987L36 27.9987V25.332L34.6667 22.6653L32 21.332L29.3333 22.6653L28 25.332V27.9987L30 31.9987L25.3333 35.9987H24L22.6667 38.6654L24 39.9987L29.3333 41.332H34.6666L39.9999 39.9987L41.3332 38.6654L40 35.9987ZM33.3333 27.9987H34.6666L33.3333 25.332V22.6653L34.6666 25.332V27.9987L33.3333 30.6654V27.9987ZM29.3333 27.9987V25.332L30.6666 22.6653V25.332L29.3333 27.9987H30.6666V30.6654L29.3333 27.9987ZM24 37.332H26.6667L24 38.6653V37.332ZM25.3333 38.6653H28L26.6667 39.9986L25.3333 38.6653ZM28 39.9986L29.3333 38.6653L30.6666 39.9986H28ZM30.6667 38.6653H33.3334L32.0001 39.9986L30.6667 38.6653ZM33.3334 39.9986L34.6667 38.6653L36 39.9986H33.3334ZM37.3334 39.9986L36.0001 38.6653H38.6668L37.3334 39.9986ZM40.0001 38.6653L37.3334 37.332H40.0001V38.6653Z" fill="black"/>
</g>
</svg>
