<svg width="64" height="64" viewBox="0 0 64 64" fill="none" xmlns="http://www.w3.org/2000/svg">
<mask id="mask0_12133_19000" style="mask-type:luminance" maskUnits="userSpaceOnUse" x="0" y="0" width="64" height="64">
<path d="M64 0H0V64H64V0Z" fill="white"/>
</mask>
<g mask="url(#mask0_12133_19000)">
<path d="M0.144409 28.9996H23.9999V1.00781C11.135 4.31911 1.40671 15.4308 0.144409 28.9996Z" fill="#191977"/>
<path d="M49.166 5C44.2046 1.8389 38.3188 0 32 0C29.2368 0 26.5565 0.3517 24 1.0118V5H49.166Z" fill="#F0263C"/>
<path d="M24 11H56.134C54.1151 8.6818 51.7693 6.6586 49.166 5H24V11Z" fill="white"/>
<path d="M24 17H60.2674C59.1187 14.8398 57.7277 12.83 56.134 11H24V17Z" fill="#F0263C"/>
<path d="M24 23H62.7078C62.0941 20.903 61.2749 18.8946 60.2674 17H24V23Z" fill="white"/>
<path d="M24 29H63.8555C63.6635 26.9363 63.273 24.9312 62.7079 23H24V29Z" fill="#F0263C"/>
<path d="M63.8555 29H0.1445C0.0526 29.9882 0 30.9878 0 32C0 33.0122 0.0526 34.0118 0.1445 35H63.8554C63.9473 34.0118 63.9999 33.0122 63.9999 32C63.9999 30.9878 63.9474 29.9882 63.8555 29Z" fill="white"/>
<path d="M1.29211 41H62.7078C63.273 39.0688 63.6634 37.0638 63.8554 35H0.144409C0.336409 37.0638 0.726909 39.0688 1.29211 41Z" fill="#F0263C"/>
<path d="M3.73264 47H60.2675C61.275 45.1054 62.0943 43.097 62.7079 41H1.29224C1.90584 43.097 2.72514 45.1054 3.73264 47Z" fill="white"/>
<path d="M7.86594 53H56.1339C57.7276 51.17 59.1186 49.1602 60.2673 47H3.73254C4.88124 49.1602 6.27224 51.17 7.86594 53Z" fill="#F0263C"/>
<path d="M14.8341 59H49.1661C51.7694 57.3414 54.1152 55.3182 56.1341 53H7.86609C9.88499 55.3182 12.2308 57.3414 14.8341 59Z" fill="white"/>
<path d="M32 64C38.3188 64 44.2046 62.1611 49.166 59H14.834C19.7954 62.1611 25.6812 64 32 64Z" fill="#F0263C"/>
<path d="M17.4811 18.8106L21.9999 15.3334H16.406L14.6666 9.74609L12.9271 15.3334H7.33325L11.8521 18.8106L9.99994 24.4128L14.6666 20.9505L19.3332 24.4128L17.4811 18.8106Z" fill="white"/>
</g>
</svg>
