<svg width="64" height="64" viewBox="0 0 64 64" fill="none" xmlns="http://www.w3.org/2000/svg">
<mask id="mask0_12133_19001" style="mask-type:luminance" maskUnits="userSpaceOnUse" x="0" y="0" width="64" height="64">
<path d="M64 0H0V64H64V0Z" fill="white"/>
</mask>
<g mask="url(#mask0_12133_19001)">
<path d="M59.7084 16C54.1748 6.4379 43.8424 0 32 0C20.1576 0 9.82535 6.4379 4.29175 16H59.7084Z" fill="#F0263C"/>
<path d="M4.29175 48C9.82545 57.562 20.1576 64 32 64C43.8424 64 54.1747 57.562 59.7084 48H4.29175Z" fill="#1E5B00"/>
<path d="M59.7083 16H4.2917C1.5671 20.7079 0 26.1693 0 32C0 37.8307 1.5671 43.2921 4.2917 48H59.7084C62.4329 43.2921 64.0001 37.8307 64.0001 32C64.0001 26.1693 62.4329 20.7079 59.7083 16Z" fill="black"/>
<path d="M34.6667 42.6667C28.7757 42.6667 24 37.8911 24 32C24 26.1089 28.7756 21.3333 34.6667 21.3333C36.052 21.3333 37.3716 21.6058 38.586 22.0864C36.6625 20.7725 34.3402 20 31.8346 20C25.2072 20 19.8346 25.3726 19.8346 32C19.8346 38.6274 25.2072 44 31.8346 44C34.3401 44 36.6624 43.2275 38.5859 41.9136C37.3715 42.3942 36.052 42.6667 34.6667 42.6667Z" fill="white"/>
<path d="M47.095 31.8933L50.7215 36.535L45.0593 34.9114L41.7653 39.7948L41.5598 33.9079L35.8975 32.2843L41.4327 30.2696L41.2271 24.3828L44.8537 29.0245L50.3889 27.0099L47.095 31.8933Z" fill="white"/>
</g>
</svg>
