<svg width="64" height="64" viewBox="0 0 64 64" fill="none" xmlns="http://www.w3.org/2000/svg">
<mask id="mask0_12133_19137" style="mask-type:luminance" maskUnits="userSpaceOnUse" x="0" y="0" width="64" height="64">
<path d="M64 0H0V64H64V0Z" fill="white"/>
</mask>
<g mask="url(#mask0_12133_19137)">
<path d="M32 64C49.6731 64 64 49.6731 64 32H0C0 49.6731 14.3269 64 32 64Z" fill="#F0263C"/>
<path d="M32 0C14.3269 0 0 14.3269 0 32H64C64 14.3269 49.6731 0 32 0Z" fill="#191977"/>
<path d="M26.6667 21.3333H25.3334L24.0001 22.6666V21.3333H22.6668L25.3335 17.3333L24.0001 21.3333H25.3334L26.6668 20V17.3333L25.3335 16H20.0002L18.6669 18.6667V21.3334H20.0002L22.6669 17.3334L21.3336 21.3334L20.0003 22.6667L17.3336 21.3334L14.6669 22.6667L13.3336 21.3334L12.0003 17.3334L14.667 21.3334H16.0003V18.6667L14.667 16H9.33374L8.00044 17.3333V20L10.6671 21.3333L9.33384 17.3333L12.0005 21.3333H10.6671L10.6672 22.6666L9.33394 21.3333H6.66724L9.33394 26.6666L12.0006 25.3333H13.3339L12.0006 22.6666H13.3339V25.3333H17.3339L16.0006 22.6666L17.3339 23.3333L18.6672 22.6666L17.3339 25.3333H21.3339V22.6666H22.6672L21.3339 25.3333H22.6672L25.3339 26.6666L28.0006 21.3333H26.6667ZM8.00004 22.6666H9.33334L10.6666 25.3333L8.00004 22.6666ZM24 25.3333L25.3333 22.6666H26.6666L24 25.3333Z" fill="#FFD400"/>
<path d="M18.6667 21.3333L17.6667 17.3333L17.5999 17.0667L18.6667 16L17.7777 15.1111L18.6667 13.3333L17.3333 12L16 13.3333L16.889 15.1111L16 16L17.0667 17.0667L17 17.3333L16 21.3333L17.3333 20L18.6667 21.3333Z" fill="#FFD400"/>
<path d="M14.6667 22.6654L17.3333 21.332L20 22.6654L21.3333 21.332L22.6667 17.332L20 21.332H18.6667L17.3333 19.9987L16 21.332H14.6667L12 17.332L13.3333 21.332L14.6667 22.6654Z" fill="black"/>
<path d="M10.6667 22.6667V21.3333L8 20V21.3333H9.3333L10.6667 22.6667Z" fill="black"/>
<path d="M9.33325 17.332L10.6666 21.332H11.9999L9.33325 17.332Z" fill="black"/>
<path d="M24 22.6654L25.3333 21.332H24V22.6654Z" fill="black"/>
<path d="M22.6667 21.332H24L25.3333 17.332L22.6667 21.332Z" fill="black"/>
<path d="M17.3333 23.3346L16 22.668L17.3333 25.3346L18.6667 22.668L17.3333 23.3346Z" fill="black"/>
<path d="M12 22.668L13.3333 25.3346V22.668H12Z" fill="black"/>
<path d="M21.3333 22.668V25.3346L22.6667 22.668H21.3333Z" fill="black"/>
<path d="M9.3333 22.668H8L10.6667 25.3346L9.3333 22.668Z" fill="black"/>
<path d="M24 25.3346L26.6667 22.668H25.3333L24 25.3346Z" fill="black"/>
<path d="M21.3332 25.332H17.3332H13.3332H11.9999L9.33325 26.6654L11.9999 27.9987H22.6666L25.3332 26.6654L22.6666 25.332H21.3332Z" fill="black"/>
<path d="M16 17.3333L14.6667 16L16 18.6667V21.3333L17 17.3333H16Z" fill="black"/>
<path d="M20 16L18.6667 17.3333H17.6667L18.6667 21.3333V18.6667L20 16Z" fill="black"/>
<path d="M25.3333 21.3333H26.6667V20L25.3333 21.3333Z" fill="black"/>
</g>
</svg>
