<svg width="64" height="64" viewBox="0 0 64 64" fill="none" xmlns="http://www.w3.org/2000/svg">
<mask id="mask0_12133_19138" style="mask-type:luminance" maskUnits="userSpaceOnUse" x="0" y="0" width="64" height="64">
<path d="M64 0H0V64H64V0Z" fill="white"/>
</mask>
<g mask="url(#mask0_12133_19138)">
<path d="M62.1718 42.668H1.82788C6.22168 55.0952 18.0679 64.0013 31.9999 64.0013C45.9319 64.0013 57.7781 55.0952 62.1718 42.668Z" fill="#F0263C"/>
<path d="M1.828 21.332C0.6482 24.6692 0 28.2575 0 31.9987C0 35.7399 0.6482 39.3282 1.828 42.6654H62.1719C63.3518 39.3283 64 35.7399 64 31.9987C64 28.2575 63.3518 24.6692 62.1719 21.332H1.828Z" fill="#1E5B00"/>
<path d="M1.82788 21.3333H62.1718C57.7781 8.9061 45.9318 0 31.9999 0C18.068 0 6.22168 8.9061 1.82788 21.3333Z" fill="#FFD400"/>
</g>
</svg>
