<svg width="64" height="64" viewBox="0 0 64 64" fill="none" xmlns="http://www.w3.org/2000/svg">
<mask id="mask0_12133_19068" style="mask-type:luminance" maskUnits="userSpaceOnUse" x="0" y="0" width="64" height="64">
<path d="M64 0H0V64H64V0Z" fill="white"/>
</mask>
<g mask="url(#mask0_12133_19068)">
<path d="M32 64C49.6731 64 64 49.6731 64 32C64 14.3269 49.6731 0 32 0C14.3269 0 0 14.3269 0 32C0 49.6731 14.3269 64 32 64Z" fill="#1E5B00"/>
<path d="M15.4099 49.332H48.5901C49.2499 48.7003 49.877 48.0349 50.4614 47.332H13.5386C14.1231 48.0349 14.7501 48.7003 15.4099 49.332Z" fill="white"/>
<path d="M32 56.0013C37.7135 56.0013 42.9578 54.0013 47.0791 50.668H16.9209C21.0422 54.0014 26.2865 56.0013 32 56.0013Z" fill="white"/>
<path d="M32 40.7637L37.8275 43.3343H53.1579C53.3918 42.8984 53.6092 42.4525 53.8164 42.001H38.1725L32 39.2383L25.8275 42.001H10.1836C10.3909 42.4525 10.6082 42.8984 10.8421 43.3343H26.1725L32 40.7637Z" fill="white"/>
<path d="M12.5122 46.0013H51.4878C51.8002 45.5671 52.0998 45.1232 52.3832 44.668H11.6168C11.9002 45.1232 12.1998 45.5671 12.5122 46.0013Z" fill="white"/>
<path d="M42.4401 38.4194C46.0806 37.1366 48.7038 34.3818 49.689 31.2707C46.9711 29.4644 43.2004 28.9626 39.5599 30.2454C37.8529 30.8469 36.3733 31.7749 35.1776 32.9086C35.9134 31.3505 36.3334 29.5657 36.3334 27.6657C36.3334 23.8058 34.607 20.4162 32.0001 18.4531C29.3932 20.4162 27.6668 23.8058 27.6668 27.6657C27.6668 29.5656 28.0868 31.3505 28.8226 32.9085C27.6268 31.7747 26.1473 30.8468 24.4403 30.2453C20.7998 28.9625 17.0291 29.4643 14.3112 31.2706C15.2964 34.3818 17.9196 37.1366 21.5601 38.4193C25.2006 39.702 29.2823 39.1386 32.0002 37.3323C34.7181 39.1387 38.7996 39.7022 42.4401 38.4194Z" fill="white"/>
<path d="M32 7.33203L28.3334 10.9986L32 14.6653L35.6666 10.9986L32 7.33203Z" fill="#FFD400"/>
<path d="M22 12L19 14.9999L22 17.9999L24.9999 14.9999L22 12Z" fill="#FFD400"/>
<path d="M16 19.332L13.3333 21.9987L16 24.6653L18.6666 21.9987L16 19.332Z" fill="#FFD400"/>
<path d="M48 19.332L45.3333 21.9986L48 24.6652L50.6665 21.9986L48 19.332Z" fill="#FFD400"/>
<path d="M42.6667 12L39.6667 15L42.6667 17.9999L45.6666 15L42.6667 12Z" fill="#FFD400"/>
</g>
</svg>
