<svg width="64" height="64" viewBox="0 0 64 64" fill="none" xmlns="http://www.w3.org/2000/svg">
<mask id="mask0_12133_19069" style="mask-type:luminance" maskUnits="userSpaceOnUse" x="0" y="0" width="64" height="64">
<path d="M64 0H0V64H64V0Z" fill="white"/>
</mask>
<g mask="url(#mask0_12133_19069)">
<path d="M49.686 5.3333C44.6189 1.9659 38.54 0 32 0V5.3333H49.686Z" fill="#F0263C"/>
<path d="M49.686 5.33203H32V10.6653H55.8453C54.03 8.63763 51.9606 6.84363 49.686 5.33203Z" fill="white"/>
<path d="M32 16.0013H59.7083C58.6024 14.0904 57.3087 12.3026 55.8452 10.668H31.9999L32 16.0013Z" fill="#F0263C"/>
<path d="M32 21.3333H62.1719C61.5129 19.4695 60.6847 17.6871 59.7083 16H32V21.3333Z" fill="white"/>
<path d="M32 26.6653H63.5492C63.2411 24.8298 62.7784 23.0473 62.172 21.332H32.0001L32 26.6653Z" fill="#F0263C"/>
<path d="M32 32.0013H64C64 30.1832 63.8405 28.4033 63.5492 26.668H32V32.0013Z" fill="white"/>
<path d="M0 32C0 33.8181 0.1595 35.598 0.4508 37.3333H63.5491C63.8404 35.598 63.9999 33.818 63.9999 32H0Z" fill="#F0263C"/>
<path d="M1.82811 42.6653H62.1719C62.7784 40.9499 63.241 39.1675 63.5491 37.332H0.450806C0.758906 39.1675 1.22171 40.95 1.82811 42.6653Z" fill="white"/>
<path d="M4.29172 48.0013H59.7084C60.6848 46.3141 61.513 44.5318 62.172 42.668H1.82812C2.48712 44.5318 3.31532 46.3142 4.29172 48.0013Z" fill="#F0263C"/>
<path d="M8.15475 53.3333H55.8452C57.3087 51.6987 58.6025 49.9109 59.7084 48H4.29175C5.39765 49.9109 6.69125 51.6987 8.15475 53.3333Z" fill="white"/>
<path d="M14.314 58.6653H49.6859C51.9605 57.1537 54.0299 55.3597 55.8452 53.332H8.15466C9.96996 55.3597 12.0394 57.1537 14.314 58.6653Z" fill="#F0263C"/>
<path d="M14.314 58.668C19.3811 62.0354 25.46 64.0013 32 64.0013C38.54 64.0013 44.6189 62.0354 49.686 58.668H14.314Z" fill="white"/>
<path d="M14.314 5.3333C12.0394 6.8449 9.97 8.6389 8.1547 10.6666C6.6912 12.3012 5.3975 14.089 4.2916 15.9999C3.3152 17.687 2.487 19.4694 1.828 21.3332C1.2215 23.0486 0.7589 24.831 0.4508 26.6665C0.1595 28.402 0 30.1819 0 32H32V0C25.46 0 19.3811 1.9659 14.314 5.3333Z" fill="#191977"/>
<path d="M24 23.9986C26.9455 23.9986 29.3333 21.6108 29.3333 18.6653C29.3333 15.7198 26.9455 13.332 24 13.332C21.0545 13.332 18.6667 15.7198 18.6667 18.6653C18.6667 21.6108 21.0545 23.9986 24 23.9986Z" fill="#FFD400"/>
<path d="M10.6666 18.6654C10.6666 14.2471 14.2483 10.6654 18.6666 10.6654C19.7195 10.6654 20.7224 10.8741 21.6432 11.2438C20.0749 10.0494 18.1235 9.33203 16 9.33203C10.8453 9.33203 6.66675 13.5108 6.66675 18.6654C6.66675 23.82 10.8454 27.9987 16 27.9987C18.1235 27.9987 20.075 27.2814 21.6433 26.0869C20.7225 26.4566 19.7196 26.6654 18.6667 26.6654C14.2484 26.6654 10.6666 23.0837 10.6666 18.6654Z" fill="#FFD400"/>
</g>
</svg>
