<svg width="64" height="64" viewBox="0 0 64 64" fill="none" xmlns="http://www.w3.org/2000/svg">
<mask id="mask0_12133_19003" style="mask-type:luminance" maskUnits="userSpaceOnUse" x="0" y="0" width="64" height="64">
<path d="M64 0H0V64H64V0Z" fill="white"/>
</mask>
<g mask="url(#mask0_12133_19003)">
<path d="M1.8281 42.6654C0.6482 39.3282 0 35.7399 0 31.9987C0 28.2575 0.6482 24.6692 1.8281 21.332" fill="white"/>
<path d="M1.82812 21.3333C6.22184 8.9061 18.0681 0 32 0L1.82812 21.3333Z" fill="#F0263C"/>
<path d="M32 64.0013C18.0681 64.0013 6.22184 55.0952 1.82812 42.668L32 64.0013Z" fill="#1E5B00"/>
<path d="M0 31.9987C0 35.7399 0.6482 39.3282 1.8281 42.6654H62.1719C63.3518 39.3283 64 35.7399 64 31.9987C64 28.2575 63.3518 24.6692 62.1719 21.332H1.8281C0.6482 24.6692 0 28.2575 0 31.9987Z" fill="#F0263C"/>
<path d="M1.82812 21.3333H62.1719C57.7782 8.9061 45.9319 0 32 0C18.0681 0 6.22184 8.9061 1.82812 21.3333Z" fill="black"/>
<path d="M62.1719 42.668H1.82812C6.22192 55.0952 18.0681 64.0013 32 64.0013C45.9319 64.0013 57.7782 55.0952 62.1719 42.668Z" fill="#619B27"/>
<path d="M32 9.3334C38.2169 9.3334 43.521 13.2061 45.6556 18.6667H49.1797C46.9049 11.3329 40.0819 6 32 6C23.9181 6 17.0951 11.3328 14.8203 18.6667H18.3444C20.479 13.206 25.7831 9.3334 32 9.3334Z" fill="#F0263C"/>
<path d="M32 12C27.2922 12 23.2342 14.7204 21.2693 18.6667H42.7307C40.7658 14.7205 36.7078 12 32 12Z" fill="#F0263C"/>
</g>
</svg>
