<svg width="64" height="64" viewBox="0 0 64 64" fill="none" xmlns="http://www.w3.org/2000/svg">
<mask id="mask0_12133_19070" style="mask-type:luminance" maskUnits="userSpaceOnUse" x="0" y="0" width="64" height="64">
<path d="M64 0H0V64H64V0Z" fill="white"/>
</mask>
<g mask="url(#mask0_12133_19070)">
<path d="M32 64C49.6731 64 64 49.6731 64 32C64 14.3269 49.6731 0 32 0C14.3269 0 0 14.3269 0 32C0 49.6731 14.3269 64 32 64Z" fill="#F0263C"/>
<path d="M54.6665 16H9.33325V48H54.6665V16Z" fill="#1E5B00"/>
<path d="M29.3583 31.9987C29.3583 26.7994 33.0801 22.4744 38.0037 21.5291C37.3544 21.4042 36.6863 21.332 36 21.332C30.1089 21.332 25.3333 26.1076 25.3333 31.9987C25.3333 37.8898 30.1089 42.6654 36 42.6654C36.6862 42.6654 37.3543 42.5932 38.0036 42.4683C33.08 41.523 29.3583 37.198 29.3583 31.9987Z" fill="white"/>
</g>
</svg>
