<svg width="64" height="64" viewBox="0 0 64 64" fill="none" xmlns="http://www.w3.org/2000/svg">
<mask id="mask0_12133_19005" style="mask-type:luminance" maskUnits="userSpaceOnUse" x="0" y="0" width="64" height="64">
<path d="M64 0H0V64H64V0Z" fill="white"/>
</mask>
<g mask="url(#mask0_12133_19005)">
<path d="M42.6667 1.82812V62.172C55.0939 57.7782 64 45.932 64 32C64 18.0681 55.0939 6.22184 42.6667 1.82812Z" fill="#F0263C"/>
<path d="M21.3333 62.172C24.6704 63.3519 28.2588 64 32 64C35.7412 64 39.3295 63.3518 42.6667 62.172V1.8281C39.3295 0.6482 35.7412 0 32 0C28.2588 0 24.6705 0.6482 21.3333 1.8281V62.172Z" fill="#FFD400"/>
<path d="M21.3333 62.172V1.82812C8.9061 6.22184 0 18.0681 0 32C0 45.932 8.9061 57.7782 21.3333 62.172Z" fill="#619B27"/>
</g>
</svg>
