<svg width="64" height="64" viewBox="0 0 64 64" fill="none" xmlns="http://www.w3.org/2000/svg">
<mask id="mask0_12133_19141" style="mask-type:luminance" maskUnits="userSpaceOnUse" x="0" y="0" width="64" height="64">
<path d="M64 0H0V64H64V0Z" fill="white"/>
</mask>
<g mask="url(#mask0_12133_19141)">
<path d="M0 32C0 49.6731 14.3269 64 32 64V0C14.3269 0 0 14.3269 0 32Z" fill="white"/>
<path d="M32 0V64C49.6731 64 64 49.6731 64 32C64 14.3269 49.6731 0 32 0Z" fill="#F0263C"/>
<path d="M21.3333 13.332V9.33203H13.3333V13.332H9.33325V21.332H13.3333V25.332H21.3333V21.332H25.3333V13.332H21.3333ZM24 19.9987H20V23.9987H14.6667V19.9987H10.6667V14.6654H14.6667V10.6654H20V14.6654H24V19.9987Z" fill="#F0263C"/>
<path d="M19.9999 14.668V10.668H14.6666V14.668H10.6666V20.0013H14.6666V24.0013H19.9999V20.0013H23.9999V14.668H19.9999Z" fill="white"/>
</g>
</svg>
