<svg width="64" height="64" viewBox="0 0 64 64" fill="none" xmlns="http://www.w3.org/2000/svg">
<mask id="mask0_12133_19217" style="mask-type:luminance" maskUnits="userSpaceOnUse" x="0" y="0" width="64" height="64">
<path d="M64 0H0V64H64V0Z" fill="white"/>
</mask>
<g mask="url(#mask0_12133_19217)">
<path d="M32 0C14.3269 0 0 14.3269 0 32C0 39.3143 2.4593 46.0513 6.5889 51.4409L62.9487 23.8481C59.3433 10.1241 46.8555 0 32 0Z" fill="#191977"/>
<path d="M32 63.9987C47.0496 63.9987 59.6657 53.6069 63.0818 39.6094L10.3347 55.5434C16.0346 60.791 23.6416 63.9987 32 63.9987Z" fill="#191977"/>
<path d="M63.9833 31.3396C63.9309 28.7559 63.5788 26.2463 62.9486 23.8477L6.58887 51.4406C7.10847 52.1187 7.65157 52.7778 8.22277 53.4115L63.9833 31.3396Z" fill="#FF7700"/>
<path d="M64 31.9987V31.332L63.9833 31.3386C63.9878 31.5589 64 31.7773 64 31.9987Z" fill="white"/>
<path d="M8.22266 53.4117C8.89286 54.1555 9.59816 54.8666 10.3347 55.5446L63.0818 39.6106C63.6773 37.1705 64 34.6234 64 31.9999C64 31.7785 63.9878 31.5601 63.9833 31.3398L8.22266 53.4117Z" fill="white"/>
<path d="M15.3132 20.3063L15.9715 11.8867L16.6297 20.3063L18.582 15.5637L17.9014 20.6471L21.0146 16.5713L19.0416 21.3053L23.1036 18.1742L19.9725 22.2362L24.7065 20.2632L20.6307 23.3764L25.7141 22.6958L20.9715 24.6481L29.3911 25.3063L20.9715 25.9646L25.7141 27.9168L20.6307 27.2362L24.7065 30.3495L19.9725 28.3764L23.1036 32.4384L19.0416 29.3073L21.0146 34.0413L17.9014 29.9656L18.582 35.0489L16.6297 30.3063L15.9715 38.726L15.3132 30.3063L13.361 35.0489L14.0416 29.9656L10.9283 34.0413L12.9014 29.3073L8.83938 32.4384L11.9705 28.3764L7.23648 30.3495L11.3122 27.2362L6.22888 27.9168L10.9715 25.9646L2.55188 25.3063L10.9715 24.6481L6.22888 22.6958L11.3122 23.3764L7.23648 20.2632L11.9705 22.2362L8.83938 18.1742L12.9014 21.3053L10.9283 16.5713L14.0416 20.6471L13.361 15.5637L15.3132 20.3063Z" fill="white"/>
</g>
</svg>
