<svg width="64" height="64" viewBox="0 0 64 64" fill="none" xmlns="http://www.w3.org/2000/svg">
<mask id="mask0_12133_19006" style="mask-type:luminance" maskUnits="userSpaceOnUse" x="0" y="0" width="64" height="64">
<path d="M64 0H0V64H64V0Z" fill="white"/>
</mask>
<g mask="url(#mask0_12133_19006)">
<path d="M32.0001 0C21.2956 0 11.8257 5.2613 6.01636 13.3333H57.9838C52.1745 5.2613 42.7046 0 32.0001 0Z" fill="#F0263C"/>
<path d="M6.01636 50.668C11.8257 58.74 21.2956 64.0013 32.0001 64.0013C42.7046 64.0013 52.1745 58.74 57.9838 50.668H6.01636Z" fill="#F0263C"/>
<path d="M64 31.9987C64 25.03 61.7655 18.587 57.9837 13.332H6.0163C2.2345 18.587 0 25.03 0 31.9987C0 38.9674 2.2345 45.4104 6.0163 50.6654H57.9837C61.7656 45.4105 64 38.9674 64 31.9987Z" fill="#1E5B00"/>
<path d="M32 39.3394C20.909 39.3394 11.7605 31.5068 10.2452 21.332C10.0935 22.3209 10 23.3281 10 24.3578C10 35.9415 19.8497 45.332 32 45.332C44.1503 45.332 54 35.9416 54 24.3578C54 23.3281 53.9066 22.3209 53.7548 21.332C52.2396 31.5068 43.091 39.3394 32 39.3394Z" fill="#FFD400"/>
<path d="M34.8145 26.1426L39.3333 22.6654H33.7395L32 17.0781L30.2605 22.6654H24.6667L29.1855 26.1426L27.3333 31.7447L32 28.2824L36.6667 31.7447L34.8145 26.1426Z" fill="#FFD400"/>
<path d="M32 39.3394C20.909 39.3394 11.7605 31.5068 10.2452 21.332C10.0935 22.3209 10 23.3281 10 24.3578C10 35.9415 19.8497 45.332 32 45.332C44.1503 45.332 54 35.9416 54 24.3578C54 23.3281 53.9066 22.3209 53.7548 21.332C52.2396 31.5068 43.091 39.3394 32 39.3394Z" fill="#FFD400"/>
</g>
</svg>
