<svg width="64" height="64" viewBox="0 0 64 64" fill="none" xmlns="http://www.w3.org/2000/svg">
<mask id="mask0_12133_19190" style="mask-type:luminance" maskUnits="userSpaceOnUse" x="0" y="0" width="64" height="64">
<path d="M64 0H0V64H64V0Z" fill="white"/>
</mask>
<g mask="url(#mask0_12133_19190)">
<path d="M21.3333 62.172V1.82812C8.9061 6.22192 0 18.0681 0 32.0001C0 45.9321 8.9061 57.7783 21.3333 62.172Z" fill="#1E5B00"/>
<path d="M42.6667 1.828C39.3295 0.6482 35.7412 0 32 0C28.2588 0 24.6705 0.6482 21.3333 1.828V62.1719C24.6704 63.3518 28.2588 64 32 64C35.7412 64 39.3295 63.3518 42.6667 62.1719V1.828Z" fill="white"/>
<path d="M42.6667 1.82812V62.172C55.0939 57.7782 64 45.932 64 32.0001C64 18.0682 55.0939 6.22192 42.6667 1.82812Z" fill="#F0263C"/>
<path d="M29.3333 28.0002V29.3335L30.6666 30.6668L29.3333 33.3335H33.3333V34.6668H36L34.6667 32.0001H36L37.3507 34.6441C38.1774 33.5338 38.6666 32.1574 38.6666 30.6667C38.6666 26.9848 35.6818 24 31.9999 24V26.6667L30.6084 25.3334H29.3333L28 26.6667H29.3333V28.0002Z" fill="#CC9500"/>
<path d="M28 36L29.3333 38.6667H30.6667V37.3333L28 36Z" fill="#4DAFE3"/>
<path d="M33.3333 38.6667H34.6665L36 36L33.3333 37.3333V38.6667Z" fill="#4DAFE3"/>
<path d="M32 34.668H25.3333L26.6667 36.0013H28H36H37.3333L38.6667 34.668H36H33.3333H32Z" fill="#1E5B00"/>
<path d="M33.3334 37.332H30.6667V38.6653H33.3334V37.332Z" fill="#FFD400"/>
<path d="M33.3333 33.332H32V34.6653H33.3333V33.332Z" fill="#FFD400"/>
<path d="M28 33.3333H29.3333V32L28 33.3333Z" fill="#FFD400"/>
<path d="M26.6667 33.332H28L29.3333 31.9987L29.0929 30.7162L28 30.6654V29.332H29.3333V27.9987L28 26.6654L26.6667 25.332V26.6654L28 27.9987L26.6667 29.332V30.6654L28 31.9987H26.6667H25.3333V29.332H24V30.6654L25.3333 33.332H26.6667Z" fill="#1E5B00"/>
<path d="M39.8796 33.332C39.2418 37.1094 35.9561 39.9987 32 39.9987C28.0439 39.9987 24.7582 37.1095 24.1204 33.332H22.7727C23.4213 37.8533 27.2993 41.332 32 41.332C36.7007 41.332 40.5787 37.8533 41.2273 33.332H39.8796Z" fill="#1E5B00"/>
</g>
</svg>
