<svg width="64" height="64" viewBox="0 0 64 64" fill="none" xmlns="http://www.w3.org/2000/svg">
<mask id="mask0_12133_19218" style="mask-type:luminance" maskUnits="userSpaceOnUse" x="0" y="0" width="64" height="64">
<path d="M64 0H0V64H64V0Z" fill="white"/>
</mask>
<g mask="url(#mask0_12133_19218)">
<path d="M32 64C49.6731 64 64 49.6731 64 32C64 14.3269 49.6731 0 32 0C14.3269 0 0 14.3269 0 32C0 49.6731 14.3269 64 32 64Z" fill="#4DAFE3"/>
<path d="M50.2044 29.0546L53.6668 24.2891V30.1795L59.2689 31.9998L53.6668 33.8201V39.7105L50.2044 34.945L44.6023 36.7653L48.0646 31.9998L44.6023 27.2343L50.2044 29.0546Z" fill="white"/>
<path d="M13.7957 29.0546L10.3333 24.2891V30.1795L4.7312 31.9998L10.3333 33.8201V39.7105L13.7957 34.945L19.3978 36.7653L15.9355 31.9998L19.3978 27.2343L13.7957 29.0546Z" fill="white"/>
<path d="M34.9452 13.7325L36.7655 19.3346L32 15.8723L27.2345 19.3346L29.0548 13.7325L24.2893 10.2701H30.1797L32 4.66797L33.8203 10.2701H39.7107L34.9452 13.7325Z" fill="white"/>
<path d="M34.9069 50.2352L36.6652 44.6133L31.9382 48.128L27.1348 44.7184L29.0168 50.3002L24.2897 53.8149L30.1799 53.7499L32.0618 59.3316L33.8201 53.7097L39.7103 53.6448L34.9069 50.2352Z" fill="white"/>
</g>
</svg>
