<svg width="64" height="64" viewBox="0 0 64 64" fill="none" xmlns="http://www.w3.org/2000/svg">
<mask id="mask0_12133_19142" style="mask-type:luminance" maskUnits="userSpaceOnUse" x="0" y="0" width="64" height="64">
<path d="M64 0H0V64H64V0Z" fill="white"/>
</mask>
<g mask="url(#mask0_12133_19142)">
<path d="M32 0C28.2588 0 24.6705 0.6482 21.3333 1.8281V62.172C24.6704 63.3519 28.2588 64 32 64C35.7412 64 39.3295 63.3518 42.6667 62.172V1.8281C39.3295 0.6482 35.7412 0 32 0Z" fill="#FFD400"/>
<path d="M42.6667 1.82812V62.172C55.0939 57.7782 64 45.932 64 32C64 18.068 55.0939 6.22183 42.6667 1.82812Z" fill="#F0263C"/>
<path d="M0 32C0 45.932 8.9061 57.7782 21.3333 62.172V1.82812C8.9061 6.22183 0 18.0681 0 32Z" fill="#2D25C5"/>
<path d="M24 39.9987L25.7778 37.332H24V39.9987Z" fill="#CC9500"/>
<path d="M40 40.0018V32.8906L37.7544 36.6334L40 40.0018Z" fill="#CC9500"/>
<path d="M37.3332 30.6654L36.6666 34.6654L37.1666 35.6654L39.9999 31.6178V29.332V23.9987L38.6666 21.332L35.9999 22.6654V23.9987L34.6666 25.332H37.3332V30.6654Z" fill="#CC9500"/>
<path d="M24.6667 31.9987H26.6667L25.3333 33.332H26.6667L25.3333 34.6654L26.6667 35.9987L27.3333 34.6654L26.6667 30.6654V25.332H29.3333L28 23.9987V22.6654L25.3333 21.332L24 23.9987V30.6654L25.3333 29.332L24.6667 31.9987Z" fill="#CC9500"/>
<path d="M34.6667 25.3333L33.3333 24V22.6667L34.6667 21.3333L32 20H30.6667V21.3333V24L29.3333 25.3333H32H34.6667Z" fill="#CC9500"/>
<path d="M24 36V37.3333L25.3333 36H24Z" fill="#CC9500"/>
<path d="M31 36.668L30 38.668L28 40.0013L29.3333 41.3346L30.6667 40.0013L31.3333 38.668V40.0013L30.6667 41.3346L32 42.668L33.3333 41.3346L32.6667 40.0013V38.668L33.3333 40.0013L34.6667 41.3346L36 40.0013L34 38.668L33 36.668L32 37.3346L31 36.668Z" fill="#CC9500"/>
<path d="M35.3333 35.332L34 35.9987L36 37.332L36.549 36.5477L35.3333 35.332Z" fill="#F0263C"/>
<path d="M36 38.6654H38.6667L37.3333 37.332H36V38.6654Z" fill="#F0263C"/>
<path d="M25.3333 38.6654H28V37.332H26.6667L25.3333 38.6654Z" fill="#F0263C"/>
<path d="M28 35.9987V37.332L30 35.9987L28.6667 35.332L28 35.9987Z" fill="#F0263C"/>
<path d="M26.6666 30.6654H27.3332L27.9999 29.9987L29.3332 30.6654H29.9999L30.6666 29.332L27.9999 27.9987V26.6654L29.3332 25.332H26.6666V30.6654Z" fill="#F0263C"/>
<path d="M32 29.332L34.6667 27.9987V25.332H32L33.3333 26.6654L32 27.9987L30.6667 26.6654L32 25.332H29.3333V27.9987L32 29.332Z" fill="#F0263C"/>
<path d="M36 27.9987L33.3333 29.332L34 30.6654H34.6665L36 29.9987L36.6665 30.6654H37.3333V25.332H34.6665L36 26.6654V27.9987Z" fill="#F0263C"/>
<path d="M33.9999 34.0013L35.3332 32.668L36.6666 34.0013H35.3332V35.3346L36.6666 34.668L37.3332 30.668H36.6666L35.9999 31.3346L34.6666 30.668H33.9999L34.6666 32.0013H32.6666V33.3346L33.3332 34.668L31.9999 36.0013L30.6666 34.668L31.3332 33.3346V32.0013H29.3332L29.9999 30.668H29.3332L27.9999 31.3346L27.3332 30.668H26.6666L27.3332 34.668L27.7777 34.8901L27.9999 34.668V35.0013L28.6666 35.3346L29.9999 36.0013L30.9999 36.668L31.9999 37.3346L32.9999 36.668L33.9999 36.0013L35.3332 35.3346L33.9999 34.0013Z" fill="#2D25C5"/>
<path d="M31.9999 25.332L30.6666 26.6653L31.9999 27.9986L33.3333 26.6653L31.9999 25.332Z" fill="#FFD400"/>
<path d="M27.3333 30.6667L28 31.3333L29.3333 30.6667L28 30L27.3333 30.6667Z" fill="#FFD400"/>
<path d="M36.6667 34.0013L35.3333 32.668L34 34.0013L35.3333 35.3346V34.0013H36.6667Z" fill="#FFD400"/>
<path d="M34.6666 30.6667L35.9999 31.3333L36.6666 30.6667L35.9999 30L34.6666 30.6667Z" fill="#FFD400"/>
<path d="M28 27.9987L30.6667 29.332L30 30.6654L29.3333 31.9987H31.3333V33.332L30.6667 34.6654L32 35.9987L33.3333 34.6654L32.6667 33.332V31.9987H34.6667L34 30.6654L33.3333 29.332L36 27.9987V26.6654L34.6667 25.332V27.9987L32 29.332L29.3333 27.9987V25.332L28 26.6654V27.9987Z" fill="#FFD400"/>
<path d="M28 34.9987V34.6654L27.7778 34.8875L26.6667 35.9987L25.3333 34.6654L26.6667 33.332H25.3333L26.6667 31.9987H24.6667L25.3333 29.332L24 30.6654H21.3333L24 33.332L21.4925 33.3402L24 34.6654L22.6667 35.9987H24H25.3333L24 37.332H25.7778H26.6667H28V35.9987V34.9987Z" fill="#619B27"/>
<path d="M42.6667 30.6667L41.3333 28L40 29.3333L40.6667 30.6667L40 31.6191L37.1667 35.6667L36.549 36.549L36 37.3333H37.3333L37.7544 36.6316L40 32.8888L41.3333 30.6667H42.6667Z" fill="#FFAD66"/>
<path d="M29.3333 21.3333H30.6667V20L29.3333 21.3333Z" fill="#F0263C"/>
<path d="M27 33.5586L25.5858 34.9728L27 36.387L28.4142 34.9728L27 33.5586Z" fill="#FFD400"/>
</g>
</svg>
