<svg width="64" height="64" viewBox="0 0 64 64" fill="none" xmlns="http://www.w3.org/2000/svg">
<mask id="mask0_12133_19071" style="mask-type:luminance" maskUnits="userSpaceOnUse" x="0" y="0" width="64" height="64">
<path d="M64 0H0V64H64V0Z" fill="white"/>
</mask>
<g mask="url(#mask0_12133_19071)">
<path d="M21.3333 62.172V1.82812C8.9061 6.22192 0 18.0681 0 32.0001C0 45.9321 8.9061 57.7783 21.3333 62.172Z" fill="#F0263C"/>
<path d="M42.6667 1.828C39.3295 0.6482 35.7412 0 32 0C28.2588 0 24.6705 0.6482 21.3333 1.828V62.1719C24.6704 63.3518 28.2588 64 32 64C35.7412 64 39.3295 63.3518 42.6667 62.1719V1.828Z" fill="#007ACC"/>
<path d="M42.6667 1.82812V62.172C55.0939 57.7782 64 45.932 64 32.0001C64 18.0682 55.0939 6.22192 42.6667 1.82812Z" fill="#F0263C"/>
<path d="M7.99995 28H5.33325V46H7.99995V28Z" fill="#FFD400"/>
<path d="M18.6667 28H16V46H18.6667V28Z" fill="#FFD400"/>
<path d="M11.9999 39.3334C13.4727 39.3334 14.6666 38.1395 14.6666 36.6667C14.6666 35.1939 13.4727 34 11.9999 34C10.5271 34 9.33325 35.1939 9.33325 36.6667C9.33325 38.1395 10.5271 39.3334 11.9999 39.3334Z" fill="#FFD400"/>
<path d="M11.9999 23.3334C13.4727 23.3334 14.6666 22.1395 14.6666 20.6667C14.6666 19.1939 13.4727 18 11.9999 18C10.5271 18 9.33325 19.1939 9.33325 20.6667C9.33325 22.1395 10.5271 23.3334 11.9999 23.3334Z" fill="#FFD400"/>
<path d="M15.6634 21.0625C15.6291 23.0579 14.0036 24.6656 12 24.6656C9.9964 24.6656 8.3708 23.0579 8.3366 21.0625C8.1213 21.5536 8 22.0951 8 22.6656C8 24.8747 9.7909 26.6656 12 26.6656C14.2091 26.6656 16 24.8747 16 22.6656C16 22.0951 15.8787 21.5536 15.6634 21.0625Z" fill="#FFD400"/>
<path d="M13.3333 15.9987C13.3333 16.4896 12.7363 17.332 12 17.332C11.2637 17.332 10.6667 16.4896 10.6667 15.9987C10.6667 15.1098 12 13.332 12 13.332C12 13.332 13.3333 15.1098 13.3333 15.9987Z" fill="#FFD400"/>
<path d="M14.6665 31.332H9.33325V32.6653H14.6665V31.332Z" fill="#FFD400"/>
<path d="M14.6665 40.668H9.33325V42.0013H14.6665V40.668Z" fill="#FFD400"/>
<path d="M14.6666 43.332H9.33325L11.9999 45.9987L14.6666 43.332Z" fill="#FFD400"/>
<path d="M9.33325 28H14.6666L11.9999 30.6667L9.33325 28Z" fill="#FFD400"/>
</g>
</svg>
