<svg width="64" height="64" viewBox="0 0 64 64" fill="none" xmlns="http://www.w3.org/2000/svg">
<mask id="mask0_12133_19191" style="mask-type:luminance" maskUnits="userSpaceOnUse" x="0" y="0" width="64" height="64">
<path d="M64 0H0V64H64V0Z" fill="white"/>
</mask>
<g mask="url(#mask0_12133_19191)">
<path d="M32 64C49.6731 64 64 49.6731 64 32C64 14.3269 49.6731 0 32 0C14.3269 0 0 14.3269 0 32C0 49.6731 14.3269 64 32 64Z" fill="#191977"/>
<path d="M32 8.00138V6.66808H26.8073L32 3.20628V1.60388L24.4036 6.66808H20V6.39898L29.4284 0.113281C28.4256 0.193081 27.4362 0.318681 26.4614 0.488881L20 4.79658V2.33638C19.5501 2.51858 19.1061 2.71108 18.6667 2.91278V8.00138H32Z" fill="white"/>
<path d="M13.3333 6.01562C12.4708 6.63633 11.6404 7.29782 10.8453 7.99932H13.3333V6.01562Z" fill="white"/>
<path d="M18.6667 21.332H20V16.5369L27.1927 21.332H29.5964L20 14.9345V14.6654H24.4036L32 19.7296V18.1272L26.8073 14.6654H32V13.332H18.6667V21.332Z" fill="white"/>
<path d="M6.01639 13.332C5.70239 13.7684 5.39949 14.2129 5.10739 14.6653C5.08599 14.6984 5.06479 14.7317 5.04359 14.7649C4.50449 15.6063 4.00419 16.4741 3.54419 17.3669L7.59649 14.6654H12.0001V14.9345L2.40369 21.332H4.80729L12 16.5368V21.332H13.3333V13.332H6.01639Z" fill="white"/>
<path d="M20 6.6667H24.4036L32 1.6025V0C31.1335 0 30.2777 0.0444 29.4284 0.1119L20 6.3975V6.6667Z" fill="#F0263C"/>
<path d="M20 14.668V14.9371L29.5964 21.3346H32V19.7322L24.4036 14.668H20Z" fill="#F0263C"/>
<path d="M12 14.9371V14.668H7.59645L3.54415 17.3695C2.88725 18.6444 2.31165 19.9672 1.82825 21.3346H2.40375L12 14.9371Z" fill="#F0263C"/>
<path d="M13.3334 21.3321H18.6667V13.3321H32V7.99876H18.6667V2.91016C16.7831 3.77506 14.9987 4.81656 13.3334 6.01506V7.99876H10.8454C9.04316 9.58856 7.42306 11.3775 6.01636 13.3321H13.3335L13.3334 21.3321Z" fill="#F0263C"/>
<path d="M44.5635 37.1211L42.8425 38.6415H45.6839L44.5635 37.1211Z" fill="#4DAFE3"/>
<path d="M45.3506 36L45.9999 36.9725V36H45.3506Z" fill="#4DAFE3"/>
<path d="M46 27.9766H45.3333V30.6433H46V27.9766Z" fill="#4DAFE3"/>
<path d="M53.4222 44.2682L54.8213 43.2188L50.0398 46.805L53.4222 44.2682Z" fill="#4DAFE3"/>
<path d="M48 29.31V27.9766H47.3333V30.6433H48V29.31Z" fill="#4DAFE3"/>
<path d="M37.3333 36.0013V38.5038L37.3683 38.644H41.1096L43.9999 35.9773L45.3333 35.9752V34.668H46V31.9773H45.3333H44V30.644V27.9773H40V26.644H46V23.9773H47.3333V26.644H48H50.6665H53.3333V27.9773H50.6665V29.3107H49.3333V30.644H50.6665L51.3939 38.644H55.965L56 38.5038V36.0013V22.668H37.3333V36.0013Z" fill="#4DAFE3"/>
<path d="M36 21.332V38.6653L37.3333 43.9986L42.6666 47.9986L46.6633 49.3308L46.6666 49.3319L46.6699 49.3308L50.6666 47.9986L55.9999 43.9986L57.3332 38.6653V21.332H36ZM56 35.9987V38.5012L55.965 38.6414L54.8213 43.216L53.4222 44.2654L50.0398 46.8022L46.6667 47.9265L43.2936 46.8022L38.5121 43.216L37.3684 38.6414L37.3334 38.5012V22.6653H56.0001L56 35.9987Z" fill="white"/>
<path d="M52 45.3112H47.3333H46.6667H46H45.3333L40 40.2984V39.6683L41.1096 38.6445H37.3683L38.512 43.2191L43.2935 46.8053L46.6667 47.9297L50.0398 46.8053L54.8213 43.2191L55.965 38.6445H51.3939L52 45.3112Z" fill="#CC4B00"/>
<path d="M45.6838 38.6445H42.8426L41.3333 39.9778L45.3333 43.9778H46V39.0733L45.6838 38.6445Z" fill="#CC4B00"/>
<path d="M53.3332 26.6445H50.6665V27.9778H53.3332V26.6445Z" fill="#5A2919"/>
<path d="M49.3333 27.9778V29.3112H50.6667V27.9778V26.6445H48V27.9778H49.3333Z" fill="#FFD400"/>
<path d="M48 27.9766V29.31V30.6433H49.3333V29.31V27.9766H48Z" fill="#F0F0F0"/>
<path d="M45.3333 30.6433V27.9766H44V30.6433V31.9766H45.3333H46V30.6433H45.3333Z" fill="white"/>
<path d="M40 40.2954L45.3333 45.3082L46 45.3081V43.9748H45.3333L41.3333 39.9748L42.8426 38.6415L44.5636 37.1211L45.684 38.6415L46 39.0703V36.9713L45.3507 35.9988H45.3333V35.9727L43.9999 35.9748L41.1096 38.6415L40 39.6653V40.2954Z" fill="#FFD400"/>
<path d="M47.3333 30.6445V34.6685H49.3333V31.9778H50.6665V34.6685L49.3333 36.0018H47.3333V45.3112H52L51.3939 38.6445L50.6665 30.6445H49.3333H48H47.3333Z" fill="#619B27"/>
<path d="M47.3333 34.6673V30.6433V27.9766H48V26.6433H47.3333V23.9766H46V26.6433H40V27.9766H44H45.3333H46V30.6433V31.9766V34.6673H47.3333Z" fill="#5A2919"/>
<path d="M47.3333 36H46V36.9725V39.0715V43.976V45.3093L46.6667 45.3094H47.3333V36Z" fill="#5A2919"/>
<path d="M45.3507 36.0006H46H47.3333H49.3333L50.6665 34.6673V31.9766H49.3333V34.6673H47.3333H46H45.3333V35.9745V36.0006H45.3507Z" fill="white"/>
</g>
</svg>
