<svg width="64" height="64" viewBox="0 0 64 64" fill="none" xmlns="http://www.w3.org/2000/svg">
<mask id="mask0_12133_19144" style="mask-type:luminance" maskUnits="userSpaceOnUse" x="0" y="0" width="64" height="64">
<path d="M64 0H0V64H64V0Z" fill="white"/>
</mask>
<g mask="url(#mask0_12133_19144)">
<path d="M32 64C49.6731 64 64 49.6731 64 32C64 14.3269 49.6731 0 32 0C14.3269 0 0 14.3269 0 32C0 49.6731 14.3269 64 32 64Z" fill="#F0263C"/>
<path d="M32 2.6667C48.1745 2.6667 61.3333 15.8256 61.3333 32C61.3333 48.1744 48.1744 61.3333 32 61.3333C15.8256 61.3333 2.6667 48.1744 2.6667 32C2.6667 15.8256 15.8255 2.6667 32 2.6667ZM32 0C14.3269 0 0 14.3269 0 32C0 49.6731 14.3269 64 32 64C49.6731 64 64 49.6731 64 32C64 14.3269 49.6731 0 32 0Z" fill="#FFD400"/>
<path d="M25.7388 39.0288L22.6667 41.3329L23.9873 42.6536L21.3978 45.1945L17.3333 38.6914H16V40.0247L20 46.4247V48.0121H20.9922L22.6667 50.6913H24V49.358L22.6794 47.2449V46.6535L25.3332 43.9995L26.6665 45.3328L28.8279 41.7307C27.5998 41.1955 26.3585 40.4537 25.7388 39.0288Z" fill="#FFD400"/>
<path d="M26.0565 32.4999L25.8255 31.489L22.6667 30.7442L24 29.3707V26.7405L17.3333 17.3438L13.3333 25.3351V32.0798L20 38.7423H25.6304C25.4445 38.2174 25.3334 37.6119 25.3334 36.8953C25.3334 34.9146 25.9081 32.9683 26.0565 32.4999Z" fill="#FFD400"/>
<path d="M35.1721 41.7332L37.3335 45.3353L38.6668 44.0019L41.3333 46.6686H42.6666V46.6749H45.3333V45.3416H42.6666V45.3354L40.0126 42.656L41.3332 41.3354L38.2611 39.0312C37.6414 40.4562 36.4002 41.1981 35.1721 41.7332Z" fill="#FFD400"/>
<path d="M38.6667 36.8953C38.6667 37.6119 38.5555 38.2174 38.3697 38.7423H44.0001L50.6668 32.0799V25.3351L46.6668 17.3438L40.0001 26.7404V29.3706L41.3334 30.7442L38.1746 31.489L37.9436 32.4998C38.092 32.9681 38.6667 34.9146 38.6667 36.8953Z" fill="#FFD400"/>
<path d="M32.0008 43.8345H31.9993C31.9993 43.3028 31.0596 42.6787 29.9366 42.1914L28 48.0012V50.6931L32 52.0012L36 50.6931V48.0012L34.0634 42.1914C32.9404 42.6788 32.0008 43.3029 32.0008 43.8345Z" fill="#FFD400"/>
<path d="M38.6667 36.895C38.6667 34.9143 38.092 32.9679 37.9436 32.4995L38.1746 31.4886L38.6667 29.3347L37.163 26.668H26.8372L25.3335 29.3347L25.8256 31.4886L26.0566 32.4995C25.9082 32.9678 25.3335 34.9143 25.3335 36.895C25.3335 37.6116 25.4447 38.2171 25.6305 38.742C25.6652 38.8399 25.6989 38.9387 25.7389 39.0307C26.3586 40.4557 27.5999 41.1975 28.828 41.7326C29.0771 41.8412 29.3255 41.9413 29.5681 42.037C29.693 42.0862 29.8152 42.1388 29.9368 42.1916C31.0598 42.679 31.9995 43.3031 31.9995 43.8347H32.001C32.001 43.303 32.9407 42.6789 34.0637 42.1916C34.1853 42.1388 34.3074 42.0863 34.4324 42.037C34.675 41.9413 34.9234 41.8412 35.1725 41.7326C36.4006 41.1974 37.6419 40.4556 38.2616 39.0307C38.3016 38.9387 38.3353 38.8399 38.37 38.742C38.5559 38.2171 38.6667 37.6116 38.6667 36.895ZM34.1307 40.7214C34.0682 40.7465 34.0069 40.7716 33.9432 40.7967C33.7585 40.8695 33.5834 40.9433 33.4146 41.0179C32.8594 41.2631 32.3878 41.5179 31.9999 41.7884C31.9231 41.7341 31.8362 41.6815 31.7523 41.6284C31.2892 41.3388 30.7292 41.0617 30.0572 40.7968C28.0722 40.0139 26.6666 39.276 26.6666 36.8951C26.6666 35.0803 27.2174 33.2506 27.3274 32.9023L27.4374 32.5563L26.7479 29.5407L27.6157 28.0016H36.3846L37.2518 29.5407L36.563 32.5567L36.673 32.9024C36.7648 33.1928 37.1593 34.5167 37.2886 36.0019H37.2932C37.2958 36.0313 37.2948 36.0619 37.2972 36.0914C37.3183 36.3569 37.3331 36.6253 37.3331 36.8952C37.3331 39.2003 36.0183 39.9667 34.1307 40.7214Z" fill="#CC9500"/>
<path d="M33.4146 41.0153C33.5835 40.9408 33.7584 40.8669 33.9431 40.7941C34.0068 40.769 34.0681 40.7439 34.1306 40.7188C34.0692 40.7432 34.0092 40.7679 33.9467 40.7924C33.7608 40.8658 33.5846 40.9402 33.4146 41.0153Z" fill="#007ACC"/>
<path d="M30.0599 40.7945C28.0732 40.0145 26.6665 39.2745 26.6665 36.8945C26.6665 39.2754 28.0721 40.0133 30.0571 40.7962C30.7291 41.0611 31.2892 41.3383 31.7522 41.6278C31.2909 41.3354 30.7312 41.0596 30.0599 40.7945Z" fill="#007ACC"/>
<path d="M37.2887 36.0003C37.1594 34.5151 36.7649 33.1912 36.6731 32.9008L36.5631 32.5551L37.2519 29.5391L36.3847 28H27.6158L26.748 29.5391L27.4375 32.5547L27.3275 32.9007C27.2175 33.249 26.6667 35.0788 26.6667 36.8935C26.6667 36.5935 26.68 36.2935 26.7134 36.0002L37.2887 36.0003ZM28 29.3365H30.6667V32H34.6667V30.6698H36V36H34.6667V34.6667H29.3334V36H28.0001L28 29.3365Z" fill="#007ACC"/>
<path d="M37.3332 36.8933C37.3332 36.6234 37.3189 36.3546 37.2973 36.0895C37.2949 36.06 37.2959 36.0294 37.2933 36H26.7132C26.6798 36.2933 26.6665 36.5933 26.6665 36.8933C26.6665 39.2733 28.0732 40.0133 30.0599 40.7933C30.7312 41.0584 31.291 41.3342 31.7523 41.6266C31.8361 41.6797 31.923 41.7323 31.9999 41.7866C32.3878 41.5161 32.8594 41.2613 33.4146 41.0161C33.5845 40.941 33.7608 40.8667 33.9467 40.7933C34.0092 40.7687 34.0694 40.7442 34.1308 40.7197C36.0183 39.9651 37.3332 39.1984 37.3332 36.8933Z" fill="#619B27"/>
<path d="M28 34.6661V35.9994H29.3333V34.6661H34.6667V35.9994H36V34.6661V32.0025V31.9994V30.6692H34.6667V31.9994H30.6667V29.3359H28V31.9994V32.0025V34.6661Z" fill="#FFD400"/>
<path d="M42.6667 45.3385H45.3335V45.3322V42.6719H42.6667V45.257V45.3322V45.3385Z" fill="#007ACC"/>
<path d="M29.3334 20H25.3334V22.7041H28.0001V26.6667H31.9999L29.3334 20Z" fill="#FFD400"/>
<path d="M32.0001 26.6654H35.9999V22.7028H38.6666V19.9987H34.6667V18.6654L36 15.9987V14.6654L33.3333 13.332H30.6667L28 14.6654V15.9987L29.3333 18.6654V19.9987H34.6667L32.0001 26.6654Z" fill="#FFD400"/>
</g>
</svg>
