<svg width="64" height="64" viewBox="0 0 64 64" fill="none" xmlns="http://www.w3.org/2000/svg">
<mask id="mask0_12133_19009" style="mask-type:luminance" maskUnits="userSpaceOnUse" x="0" y="0" width="64" height="64">
<path d="M64 0H0V64H64V0Z" fill="white"/>
</mask>
<g mask="url(#mask0_12133_19009)">
<path d="M32 64C49.6731 64 64 49.6731 64 32C64 14.3269 49.6731 0 32 0C14.3269 0 0 14.3269 0 32C0 49.6731 14.3269 64 32 64Z" fill="#F0263C"/>
<path d="M44.5878 49.287L31.9999 40.2955L19.412 49.287L24.2535 34.7626L11.5461 25.6858H27.2792L31.9999 11.5234L36.7206 25.6858H52.4537L39.7463 34.7626L44.5878 49.287ZM33.7203 39.0666L40.7454 44.0845L38.0436 35.9787L33.7203 39.0666ZM25.9563 35.9787L23.2545 44.0845L30.2796 39.0666L25.9563 35.9787ZM26.6181 33.9937L31.9999 37.8378L37.3817 33.9937L35.2792 27.6858H28.7206L26.6181 33.9937ZM37.3873 27.6858L39.0846 32.7773L46.2129 27.6858H37.3873ZM17.787 27.6858L24.9153 32.7773L26.6126 27.6858H17.787ZM29.3873 25.6858H34.6126L32 17.8479L29.3873 25.6858Z" fill="#1E5B00"/>
</g>
</svg>
