<svg width="64" height="64" viewBox="0 0 64 64" fill="none" xmlns="http://www.w3.org/2000/svg">
<g clip-path="url(#clip0_12133_19010)">
<mask id="mask0_12133_19010" style="mask-type:luminance" maskUnits="userSpaceOnUse" x="0" y="0" width="64" height="64">
<path d="M64 0H0V64H64V0Z" fill="white"/>
</mask>
<g mask="url(#mask0_12133_19010)">
<path d="M21.3334 42.668L9.37915 54.6222C15.1683 60.4146 23.1628 64.0013 32 64.0013C45.9319 64.0013 57.7783 55.0952 62.172 42.668H21.3334Z" fill="#FFD400"/>
<path d="M21.3334 21.3333L9.37915 9.3791C15.1683 3.5867 23.1628 0 32 0C45.9319 0 57.7783 8.9061 62.172 21.3333H21.3334Z" fill="#1E5B00"/>
<path d="M62.1719 21.332H21.3333L32 31.9987L21.3333 42.6654H62.1719C63.3518 39.3283 64 35.7399 64 31.9987C64 28.2575 63.3518 24.6692 62.1719 21.332Z" fill="black"/>
<path d="M32 31.9985L21.3333 21.3318L18.6666 18.6651L9.3788 9.37729L9.3726 9.37109C3.5817 15.162 0 23.162 0 31.9985C0 40.835 3.5817 48.835 9.3726 54.6259L9.3788 54.6197L18.6666 45.3319L21.3333 42.6652L32 31.9985Z" fill="#F0263C"/>
<path d="M1.33325 29.332L3.57855 31.1559L2.66665 29.332H1.33325Z" fill="#FFD400"/>
<path d="M14.1333 30.6654H16L17.3333 31.9987L17.7703 33.3095L22.6667 29.332H14.6667L13.7544 30.2443L14.1333 30.6654Z" fill="#FFD400"/>
<path d="M7.99992 30.667H9.33322L10.5262 29.4739L9.62152 28.4688L9.33322 29.3335H6.66662L4.27612 31.7241L6.22962 33.311L6.66662 32.0002L7.99992 30.667Z" fill="#FFD400"/>
<path d="M9.33325 37.332H7.99995H6.89275L5.33325 42.6654L11.4097 38.0751L10.6667 37.332H9.33325Z" fill="#FFD400"/>
<path d="M14 27.332L12 21.332L10.3063 26.4131L12.4912 28.8408L14 27.332Z" fill="#FFD400"/>
<path d="M12.5902 38.0751L18.6666 42.6654L17.1071 37.332H13.3332L12.5902 38.0751Z" fill="#FFD400"/>
<path d="M14.1333 30.668L13.7544 30.2469L14.6667 29.3346L16 28.0013H17.3333L21.3333 22.668L17.3333 25.3346H16V26.668H14.6667L14 27.3346L12.4912 28.8434L10.3063 26.4157L9.33325 25.3346L7.99995 24.0013L6.66665 25.3346H5.33325L2.66665 29.3346L3.57855 31.1585L3.99995 32.0013L4.27615 31.7251L6.66665 29.3346L7.99995 28.0013V26.668L9.62155 28.4698L10.5263 29.475L9.33325 30.668L6.66665 33.3346L5.99995 34.0013L5.33325 34.668L1.33325 37.3346L3.99995 40.0013L5.77775 37.3346L6.66665 36.0013L7.99995 37.3346H9.33325L7.99995 36.0013L9.33325 34.668V33.3346L10.6667 34.668L13.3333 36.0013V33.3346H10.6667L12 32.0013L12.4211 31.5802L17.6 37.3346L20 40.0013L21.3333 38.668L18.5098 35.5307L14.1333 30.668Z" fill="black"/>
<path d="M62.1721 21.3347C61.8507 20.4258 61.4877 19.5372 61.0886 18.668H18.6667L21.3334 21.3347H62.1721Z" fill="white"/>
<path d="M61.0886 45.3347C61.4876 44.4656 61.8506 43.577 62.172 42.668H21.3333L18.6666 45.3347H61.0886Z" fill="white"/>
<path d="M6.6667 32.0013L6.2297 33.3121L6 34.0013L6.6667 33.3346L9.3333 30.668H8L6.6667 32.0013Z" fill="white"/>
<path d="M6.89283 37.3333H8.00003L6.66673 36L5.77783 37.3333H6.89283Z" fill="white"/>
<path d="M17.7703 33.3121L17.3333 32.0013L16 30.668H14.1333L18.5098 35.5307L17.7703 33.3121Z" fill="white"/>
<path d="M10.6667 34.6659L9.3333 33.3325V34.6659L8 35.9992L9.3333 37.3325H10.6667L11.4097 38.0756L12 38.6659L12.5903 38.0756L13.3333 37.3325H17.1072H17.6L12.4211 31.5781L12 31.9992L10.6667 33.3325H13.3333V35.9992L10.6667 34.6659Z" fill="white"/>
</g>
</g>
<defs>
<clipPath id="clip0_12133_19010">
<rect width="64" height="64" fill="white"/>
</clipPath>
</defs>
</svg>
