<svg width="64" height="64" viewBox="0 0 64 64" fill="none" xmlns="http://www.w3.org/2000/svg">
<mask id="mask0_12133_19072" style="mask-type:luminance" maskUnits="userSpaceOnUse" x="0" y="0" width="64" height="64">
<path d="M64 0H0V64H64V0Z" fill="white"/>
</mask>
<g mask="url(#mask0_12133_19072)">
<path d="M23.9676 36.8294L10.9708 27.3867H27.0357L29.003 21.332H1.8281C0.6482 24.6692 0 28.2575 0 31.9987C0 35.7399 0.6482 39.3282 1.8281 42.6654H22.0714L23.9676 36.8294Z" fill="#619B27"/>
<path d="M62.1718 21.332H34.9969L36.9642 27.3867H53.0291L40.0323 36.8294L41.9285 42.6653H62.1718C63.3517 39.3282 63.9999 35.7398 63.9999 31.9986C63.9999 28.2574 63.3517 24.6692 62.1718 21.332Z" fill="#619B27"/>
<path d="M32 12.1094L34.997 21.3334H62.1719C57.7782 8.9061 45.9319 0 32 0C18.0681 0 6.22183 8.9061 1.82812 21.3333H29.003L32 12.1094Z" fill="#FFD400"/>
<path d="M44.9968 52.1107L32 42.668L19.0032 52.1107L22.0714 42.668H1.82812C6.22192 55.0952 18.0681 64.0013 32 64.0013C45.9319 64.0013 57.7782 55.0952 62.1719 42.668H41.9286L44.9968 52.1107Z" fill="#F0263C"/>
<path d="M29.003 21.3333L27.0357 27.388H10.9707L23.9676 36.8307L22.0714 42.6667L19.0032 52.1094L32 42.6667L44.9968 52.1094L41.9286 42.6667L40.0324 36.8307L53.0293 27.388H36.9643L34.997 21.3333L32 12.1094L29.003 21.3333Z" fill="white"/>
</g>
</svg>
