<svg width="64" height="64" viewBox="0 0 64 64" fill="none" xmlns="http://www.w3.org/2000/svg">
<g clip-path="url(#clip0_12133_19011)">
<mask id="mask0_12133_19011" style="mask-type:luminance" maskUnits="userSpaceOnUse" x="0" y="0" width="64" height="64">
<path d="M64 0H0V64H64V0Z" fill="white"/>
</mask>
<g mask="url(#mask0_12133_19011)">
<path d="M45.7941 3.1187C33.8982 -2.5626 19.2221 -0.483294 9.36945 9.3694C-0.483255 19.2221 -2.56265 33.8983 3.11875 45.7942L45.7941 3.1187Z" fill="#191977"/>
<path d="M60.8813 18.207L18.2058 60.8825C30.1017 66.5638 44.7778 64.4845 54.6305 54.6318C64.4833 44.779 66.5627 30.1029 60.8813 18.207Z" fill="#1E5B00"/>
<path d="M48.253 4.43359L4.43201 48.2545C7.18601 52.9155 11.086 56.8155 15.747 59.5695L59.568 15.7485C56.814 11.0875 52.914 7.18749 48.253 4.43359Z" fill="#F0263C"/>
<path d="M21.7943 18.8826L25.9993 17.3295L21.7943 15.7763L24.6594 12.3288L20.2411 13.0863L20.9986 8.66803L17.5511 11.5331L15.9979 7.32812L14.4448 11.5331L10.9972 8.66803L11.7547 13.0863L7.33646 12.3288L10.2016 15.7763L5.99646 17.3295L10.2016 18.8826L7.33646 22.3302L11.7547 21.5727L10.9972 25.9909L14.4448 23.1258L15.9979 27.3309L17.5511 23.1258L20.9986 25.9909L20.2411 21.5727L24.6594 22.3302L21.7943 18.8826ZM15.9979 23.1636C12.781 23.1636 10.1638 20.5467 10.1638 17.3295C10.1638 14.1123 12.781 11.4954 15.9979 11.4954C19.2148 11.4954 21.832 14.1123 21.832 17.3295C21.832 20.5467 19.2148 23.1636 15.9979 23.1636Z" fill="#FFD400"/>
<path d="M15.9978 22.1641C18.6676 22.1641 20.8318 19.9999 20.8318 17.3301C20.8318 14.6604 18.6676 12.4961 15.9978 12.4961C13.3281 12.4961 11.1638 14.6604 11.1638 17.3301C11.1638 19.9999 13.3281 22.1641 15.9978 22.1641Z" fill="#FFD400"/>
<path d="M15.9979 11.4961C12.781 11.4961 10.1638 14.113 10.1638 17.3302C10.1638 20.5474 12.781 23.1643 15.9979 23.1643C19.2148 23.1643 21.832 20.5474 21.832 17.3302C21.832 14.113 19.2148 11.4961 15.9979 11.4961ZM15.9979 22.1643C13.3325 22.1643 11.1639 19.996 11.1639 17.3303C11.1639 14.6646 13.3325 12.4963 15.9979 12.4963C18.6633 12.4963 20.8319 14.6646 20.8319 17.3303C20.8319 19.996 18.6633 22.1643 15.9979 22.1643Z" fill="#191977"/>
<path d="M4.43201 48.254L48.253 4.43309C47.455 3.96159 46.6377 3.51949 45.7971 3.11719L3.11621 45.7981C3.51851 46.6387 3.96051 47.456 4.43201 48.254Z" fill="white"/>
<path d="M18.2028 60.8829L60.8839 18.202C60.4816 17.3614 60.0395 16.5441 59.568 15.7461L15.7469 59.5671C16.5449 60.0386 17.3622 60.4806 18.2028 60.8829Z" fill="white"/>
</g>
</g>
<defs>
<clipPath id="clip0_12133_19011">
<rect width="64" height="64" fill="white"/>
</clipPath>
</defs>
</svg>
