<svg width="64" height="64" viewBox="0 0 64 64" fill="none" xmlns="http://www.w3.org/2000/svg">
<mask id="mask0_12133_19219" style="mask-type:luminance" maskUnits="userSpaceOnUse" x="0" y="0" width="64" height="64">
<path d="M64 0H0V64H64V0Z" fill="white"/>
</mask>
<g mask="url(#mask0_12133_19219)">
<path d="M32 64C49.6731 64 64 49.6731 64 32C64 14.3269 49.6731 0 32 0C14.3269 0 0 14.3269 0 32C0 49.6731 14.3269 64 32 64Z" fill="#191977"/>
<path d="M0 31.9987C0 32.8976 0.0465 33.7852 0.1192 34.6654H63.8808C63.9535 33.7852 64 32.8977 64 31.9987C64 31.0997 63.9535 30.2122 63.8808 29.332H0.1192C0.0465 30.2122 0 31.0998 0 31.9987Z" fill="#FFD400"/>
<path d="M25.1485 46.7142L30.6666 45.3346L25.1485 43.9551L29.2376 40.0013L23.7689 41.5657L25.3333 36.097L21.3795 40.1861L20 34.668L18.6204 40.1861L14.6666 36.097L16.231 41.5657L10.7624 40.0013L14.8515 43.9551L9.33325 45.3346L14.8515 46.7142L10.7624 50.668L16.231 49.1036L14.6666 54.5722L18.6204 50.4832L20 56.0013L21.3795 50.4832L25.3333 54.5722L23.7689 49.1036L29.2376 50.668L25.1485 46.7142Z" fill="white"/>
</g>
</svg>
