<svg width="64" height="64" viewBox="0 0 64 64" fill="none" xmlns="http://www.w3.org/2000/svg">
<mask id="mask0_12133_19073" style="mask-type:luminance" maskUnits="userSpaceOnUse" x="0" y="0" width="64" height="64">
<path d="M64 0H0V64H64V0Z" fill="white"/>
</mask>
<g mask="url(#mask0_12133_19073)">
<path d="M32 64C49.6731 64 64 49.6731 64 32C64 14.3269 49.6731 0 32 0C14.3269 0 0 14.3269 0 32C0 49.6731 14.3269 64 32 64Z" fill="white"/>
<path d="M18.6667 32.0007H48L18.8352 2.83594C17.8631 3.27544 16.9174 3.76144 16 4.29234C15.0812 4.82404 14.1914 5.39944 13.3333 6.01694C5.2613 11.8263 0 21.2962 0 32.0007C0 42.7052 5.2613 52.1751 13.3333 57.9844C14.1914 58.602 15.0811 59.1773 16 59.7091C17.0347 60.3079 18.1043 60.852 19.2081 61.3341C23.1266 63.0454 27.4508 64.0008 32 64.0008C36.5492 64.0008 40.8734 63.0454 44.7919 61.3341C45.5282 61.0125 46.2502 60.6646 46.9564 60.2905L18.6667 32.0007Z" fill="#F0263C"/>
<path d="M54.438 34.6676L21.532 1.76172C20.6131 2.07982 19.714 2.43892 18.8352 2.83622L48 32.001H18.6667L46.9564 60.2907C47.7703 59.8595 48.5614 59.3923 49.3317 58.8948L25.1046 34.6677L54.438 34.6676Z" fill="#191977"/>
<path d="M16 53.3334C19.6819 53.3334 22.6667 50.3486 22.6667 46.6667C22.6667 42.9848 19.6819 40 16 40C12.318 40 9.33325 42.9848 9.33325 46.6667C9.33325 50.3486 12.318 53.3334 16 53.3334Z" fill="white"/>
<path d="M23.7378 16.6667C23.1539 18.9307 21.6043 20.8022 19.5566 21.8248C19.8381 21.2773 20 20.6581 20 20C20 17.7909 18.2091 16 16 16C13.7909 16 12 17.7909 12 20C12 20.658 12.1618 21.2773 12.4434 21.8248C10.3957 20.8022 8.8461 18.9307 8.2622 16.6667C8.097 17.307 8 17.9748 8 18.6667C8 23.085 11.5817 26.6667 16 26.6667C20.4183 26.6667 24 23.085 24 18.6667C24 17.9748 23.903 17.307 23.7378 16.6667Z" fill="white"/>
</g>
</svg>
