<svg width="64" height="64" viewBox="0 0 64 64" fill="none" xmlns="http://www.w3.org/2000/svg">
<mask id="mask0_12133_19222" style="mask-type:luminance" maskUnits="userSpaceOnUse" x="0" y="0" width="64" height="64">
<path d="M64 0H0V64H64V0Z" fill="white"/>
</mask>
<g mask="url(#mask0_12133_19222)">
<path d="M32 64C49.6731 64 64 49.6731 64 32C64 14.3269 49.6731 0 32 0C14.3269 0 0 14.3269 0 32C0 49.6731 14.3269 64 32 64Z" fill="#191977"/>
<path d="M32 8.00138V6.66808H26.8073L32 3.20628V1.60388L24.4036 6.66808H20V6.39898L29.4284 0.113281C28.4256 0.193081 27.4362 0.318681 26.4614 0.488881L20 4.79658V2.33638C19.5501 2.51858 19.1061 2.71108 18.6667 2.91278V8.00138H32Z" fill="white"/>
<path d="M13.3333 6.01562C12.4708 6.63633 11.6404 7.29782 10.8453 7.99932H13.3333V6.01562Z" fill="white"/>
<path d="M18.6667 21.332H20V16.5369L27.1927 21.332H29.5964L20 14.9345V14.6654H24.4036L32 19.7296V18.1272L26.8073 14.6654H32V13.332H18.6667V21.332Z" fill="white"/>
<path d="M6.01639 13.332C5.70239 13.7684 5.39949 14.2129 5.10739 14.6653C5.08599 14.6984 5.06479 14.7317 5.04359 14.7649C4.50449 15.6063 4.00419 16.4741 3.54419 17.3669L7.59649 14.6654H12.0001V14.9345L2.40369 21.332H4.80729L12 16.5368V21.332H13.3333V13.332H6.01639Z" fill="white"/>
<path d="M20 6.6667H24.4036L32 1.6025V0C31.1335 0 30.2777 0.0444 29.4284 0.1119L20 6.3975V6.6667Z" fill="#F0263C"/>
<path d="M20 14.668V14.9371L29.5964 21.3346H32V19.7322L24.4036 14.668H20Z" fill="#F0263C"/>
<path d="M12 14.9371V14.668H7.59645L3.54415 17.3695C2.88725 18.6444 2.31165 19.9672 1.82825 21.3346H2.40375L12 14.9371Z" fill="#F0263C"/>
<path d="M13.3334 21.3321H18.6667V13.3321H32V7.99876H18.6667V2.91016C16.7831 3.77506 14.9987 4.81656 13.3334 6.01506V7.99876H10.8454C9.04316 9.58856 7.42306 11.3775 6.01636 13.3321H13.3335L13.3334 21.3321Z" fill="#F0263C"/>
<path d="M51.7712 49.9509L48 46.1797L44.2288 49.9509L48 53.7221L51.7712 49.9509Z" fill="#F0263C"/>
<path d="M48 46.1811L51.7712 49.9523L48 53.7235L44.2288 49.9523L48 46.1811ZM48 45.2383L43.2859 49.9523L48 54.6663L52.7141 49.9523L48 45.2383Z" fill="white"/>
<path d="M41.1008 23.3325L38.6666 20.8984L36.2325 23.3325L38.6666 25.7667L41.1008 23.3325Z" fill="#F0263C"/>
<path d="M38.6667 20.8991L41.1009 23.3333L38.6667 25.7675L36.2325 23.3333L38.6667 20.8991ZM35.3334 23.3333L38.6667 26.6666L42 23.3333L38.6667 20L35.3334 23.3333Z" fill="white"/>
<path d="M50.4343 12.6685L48.0001 10.2344L45.566 12.6685L48.0001 15.1027L50.4343 12.6685Z" fill="#F0263C"/>
<path d="M48 10.2312L50.4342 12.6654L48 15.0996L45.5658 12.6654L48 10.2312ZM48 9.33203L44.6667 12.6653L48 15.9986L51.3335 12.6653L48 9.33203Z" fill="white"/>
<path d="M58.4343 22.0006L56.0001 19.5664L53.566 22.0006L56.0001 24.4347L58.4343 22.0006Z" fill="#F0263C"/>
<path d="M56 19.5672L58.4342 22.0014L56 24.4356L53.5658 22.0014L56 19.5672ZM56 18.668L52.6667 22.0013L56 25.3346L59.3335 22.0013L56 18.668Z" fill="white"/>
</g>
</svg>
