<svg width="64" height="64" viewBox="0 0 64 64" fill="none" xmlns="http://www.w3.org/2000/svg">
<mask id="mask0_12133_19221" style="mask-type:luminance" maskUnits="userSpaceOnUse" x="0" y="0" width="64" height="64">
<path d="M64 0H0V64H64V0Z" fill="white"/>
</mask>
<g mask="url(#mask0_12133_19221)">
<path d="M62.1719 21.332H36.5894C39.1237 24.1629 40.6667 27.9 40.6667 31.9987C40.6667 36.0974 39.1237 39.8345 36.5894 42.6654H62.1719C63.3518 39.3283 64 35.7399 64 31.9987C64 28.2575 63.3517 24.6692 62.1719 21.332Z" fill="#F0263C"/>
<path d="M8.6667 31.9987C8.6667 27.9 10.2097 24.1629 12.744 21.332H1.8281C0.6483 24.6692 0 28.2575 0 31.9987C0 35.7399 0.6483 39.3282 1.8281 42.6654H12.744C10.2097 39.8345 8.6667 36.0974 8.6667 31.9987Z" fill="#F0263C"/>
<path d="M24.6667 16C29.4046 16 33.6597 18.061 36.5894 21.3333H62.1719C57.7782 8.9061 45.932 0 32 0C18.068 0 6.22183 8.9061 1.82812 21.3333H12.744C15.6737 18.0609 19.9288 16 24.6667 16Z" fill="#2D25C5"/>
<path d="M25.3333 47.9844V48.0013H24V47.9844C19.5308 47.801 15.5354 45.7859 12.744 42.668H1.82812C6.22183 55.0952 18.068 64.0013 32 64.0013C45.932 64.0013 57.7782 55.0952 62.1719 42.668H36.5894C33.798 45.786 29.8025 47.801 25.3333 47.9844Z" fill="#619B27"/>
<path d="M24.6668 16C19.9289 16 15.6738 18.061 12.7441 21.3333C10.2098 24.1642 8.66675 27.9013 8.66675 32C8.66675 36.0987 10.2098 39.8358 12.7441 42.6667C15.5355 45.7847 19.5309 47.7997 24.0001 47.9831V48H25.3334V47.9831C29.8026 47.7997 33.798 45.7846 36.5894 42.6667C39.1237 39.8358 40.6667 36.0987 40.6667 32C40.6667 27.9013 39.1237 24.1642 36.5894 21.3333C33.6597 18.0609 29.4047 16 24.6668 16ZM10 32C10 24.1234 16.2096 17.6989 24.0001 17.3502V19.5556L22.6668 20.0001V21.3334L24.0001 20.8889V22.7892C23.225 23.0647 22.6668 23.7972 22.6668 24.6667C22.6668 25.5362 23.2251 26.2687 24.0001 26.5442V26.6667H22.2223L21.3335 24H20.0002L21.3335 28H24.0002V29.3333H21.3335V30.6666H24.0002V30.7482C23.2251 30.9319 22.6669 31.4202 22.6669 31.9999C22.6669 32.5796 23.2252 33.0679 24.0002 33.2516V33.3332H21.3335V34.6665H24.0002V35.9998H21.3335L20.0002 39.9998H21.3335L22.2223 37.3331H24.0001V37.4556C23.225 37.7311 22.6668 38.4636 22.6668 39.3331C22.6668 40.2026 23.2251 40.9351 24.0001 41.2106V42.6664H22.6668L19.5758 45.7574C13.9853 43.6879 10 38.31 10 32ZM39.3334 32C39.3334 38.31 35.3482 43.6882 29.7577 45.7577L26.6667 42.6667H25.3334V41.2109C26.1085 40.9354 26.6667 40.2029 26.6667 39.3334C26.6667 38.4639 26.1084 37.7314 25.3334 37.4559V37.3334H27.1112L28 40.0001H29.3333L28 36.0001H25.3333V34.6668H28V33.3335H25.3333V33.2519C26.1084 33.0682 26.6666 32.5799 26.6666 32.0002C26.6666 31.4205 26.1083 30.9322 25.3333 30.7485V30.6669H28V29.3336H25.3333V28.0003H28L29.3333 24.0003H28L27.1112 26.667H25.3334V26.5445C26.1085 26.269 26.6667 25.5365 26.6667 24.667C26.6667 23.7975 26.1084 23.065 25.3334 22.7895V20.4448L26.6667 20.0003V18.667L25.3334 19.1115V17.3506C33.1239 17.6994 39.3334 24.1234 39.3334 32Z" fill="black"/>
<path d="M25.3334 19.1129L26.6667 18.6684V20.0017L25.3334 20.4462V22.7909C26.1085 23.0664 26.6667 23.7989 26.6667 24.6684C26.6667 25.5379 26.1084 26.2704 25.3334 26.5459V26.6684H27.1112L28 24.0017H29.3333L28 28.0017H25.3333V29.335H28V30.6683H25.3333V30.7499C26.1084 30.9336 26.6666 31.4219 26.6666 32.0016C26.6666 32.5813 26.1083 33.0696 25.3333 33.2533V33.3349H28V34.6682H25.3333V36.0015H28L29.3333 40.0015H28L27.1112 37.3348H25.3334V37.4573C26.1085 37.7328 26.6667 38.4653 26.6667 39.3348C26.6667 40.2043 26.1084 40.9368 25.3334 41.2123V42.6681H26.6667L29.7577 45.7591C35.3482 43.6896 39.3334 38.3114 39.3334 32.0014C39.3334 24.1248 33.1239 17.7003 25.3334 17.3516V19.1129Z" fill="#FFD400"/>
<path d="M22.6667 42.6678H24V41.212C23.2249 40.9365 22.6667 40.204 22.6667 39.3345C22.6667 38.465 23.225 37.7325 24 37.457V37.3345H22.2222L21.3334 40.0012H20.0001L21.3334 36.0012H24.0001V34.6679H21.3334V33.3346H24.0001V33.253C23.225 33.0693 22.6668 32.581 22.6668 32.0013C22.6668 31.4216 23.2251 30.9333 24.0001 30.7496V30.668H21.3334V29.3347H24.0001V28.0014H21.3334L20.0001 24.0014H21.3334L22.2222 26.6681H24V26.5456C23.2249 26.2701 22.6667 25.5376 22.6667 24.6681C22.6667 23.7986 23.225 23.0661 24 22.7906V20.8903L22.6667 21.3348V20.0015L24 19.557V17.3516C16.2095 17.7004 10 24.1248 10 32.0014C10 38.3114 13.9852 43.6896 19.5757 45.7591L22.6667 42.6678Z" fill="#FFD400"/>
</g>
</svg>
