<svg width="64" height="64" viewBox="0 0 64 64" fill="none" xmlns="http://www.w3.org/2000/svg">
<mask id="mask0_12133_19104" style="mask-type:luminance" maskUnits="userSpaceOnUse" x="0" y="0" width="64" height="64">
<path d="M64 0H0V64H64V0Z" fill="white"/>
</mask>
<g mask="url(#mask0_12133_19104)">
<path d="M1.8281 21.332C0.6482 24.6692 0 28.2575 0 31.9987C0 35.7399 0.6482 39.3282 1.8281 42.6654H62.1719C63.3518 39.3283 64 35.7399 64 31.9987C64 28.2575 63.3518 24.6692 62.1719 21.332H1.8281Z" fill="white"/>
<path d="M32 0C18.068 0 6.22202 8.9061 1.82812 21.3333H62.1719C57.778 8.9061 45.932 0 32 0Z" fill="#007ACC"/>
<path d="M32 64.0013C45.932 64.0013 57.778 55.0952 62.1719 42.668H1.82812C6.22202 55.0952 18.068 64.0013 32 64.0013Z" fill="#007ACC"/>
<path d="M32 40.4987C29.334 40.4987 26.9577 39.2596 25.3997 37.332H24.1438C25.8547 39.8446 28.7376 41.4987 31.9999 41.4987C35.2622 41.4987 38.1451 39.8446 39.856 37.332H38.6001C37.0422 39.2596 34.6661 40.4987 32 40.4987Z" fill="#CC9500"/>
<path d="M32 28.332C31.138 28.332 30.3464 28.6329 29.7197 29.1325L26.652 34.6544L29.3333 31.9987L30 33.332L30.6667 31.9987L31.3334 33.332L32.0001 31.9987L32.6668 33.332L33.3335 31.9987L34.0002 33.332L34.6669 31.9987L37.3544 34.6654L34.2805 29.1325C33.6539 28.6329 32.862 28.332 32 28.332ZM32.6667 30.6653H31.3334V29.332H32.6667V30.6653Z" fill="#4DAFE3"/>
<path d="M31.9999 27.6686C32.5829 27.6686 33.1386 27.7859 33.6467 27.9956L31.9999 25.0312L30.3531 27.9956C30.8612 27.7859 31.4169 27.6686 31.9999 27.6686Z" fill="#4DAFE3"/>
<path d="M31.3271 34.6602L31.3333 34.6664V34.6602H31.3271Z" fill="#4DAFE3"/>
<path d="M32.6666 34.665V34.6602H32.6617L32.6666 34.665Z" fill="#4DAFE3"/>
<path d="M29.9926 34.6602L30.0001 34.6678V34.6602H29.9926Z" fill="#4DAFE3"/>
<path d="M26.652 34.6562L26.6458 34.6672L26.6569 34.6562H26.652Z" fill="#4DAFE3"/>
<path d="M32.6667 34.668H31.3333H30H26.6458L26.1829 35.5013H37.8171L37.3542 34.668H37.3333H32.6667Z" fill="#9063CD"/>
<path d="M33.3335 32L32.6667 33.3333L33.3335 34V32Z" fill="#FFE566"/>
<path d="M31.3271 34.6605H31.3333V33.3333L30.6667 32V34L31.3271 34.6605Z" fill="#FFE566"/>
<path d="M29.9925 34.6591H30V33.3333L29.3333 32V34L29.9925 34.6591Z" fill="#FFE566"/>
<path d="M29.3333 32L26.652 34.6557H26.6569L29.3333 32Z" fill="#FFE566"/>
<path d="M34.6667 32L34 33.3333L34.6667 34V32Z" fill="#FFE566"/>
<path d="M32.6618 34.6619H32.6667V33.3333L32 32V34L32.6618 34.6619Z" fill="#FFE566"/>
<path d="M33.6468 27.9951C33.1387 27.7854 32.583 27.668 32 27.668C31.417 27.668 30.8613 27.7854 30.3532 27.9951L29.7197 29.1352C30.3463 28.6356 31.138 28.3347 32 28.3347C32.862 28.3347 33.6536 28.6356 34.2803 29.1352L33.6468 27.9951Z" fill="#191977"/>
<path d="M40.5 32H41.5C41.5 26.7617 37.2383 22.5 32 22.5C26.7617 22.5 22.5 26.7617 22.5 32H23.5C23.5 27.4153 27.1514 23.6766 31.6973 23.5153L24.4838 36.5H39.5164L32.3029 23.5153C36.8488 23.6765 40.5 27.4152 40.5 32ZM37.3542 34.6667L37.8171 35.5H26.183L26.6459 34.6667L26.6521 34.6558L29.7198 29.1339L30.3533 27.9938L32.0001 25.0294L33.6469 27.9938L34.2804 29.1339L37.3542 34.6667Z" fill="#CC9500"/>
<path d="M32.6666 29.332H31.3333V30.6653H32.6666V29.332Z" fill="#F0263C"/>
<path d="M29.9925 34.6591L29.3333 34V32L26.6569 34.6557L26.6458 34.6667H30L29.9925 34.6591Z" fill="#B5D279"/>
<path d="M30 34.6667H31.3333L31.3271 34.6605L30.6667 34V32L30 33.3333V34.6591V34.6667Z" fill="#B5D279"/>
<path d="M31.3333 34.6667H32.6667L32.6618 34.6619L32 34V32L31.3333 33.3333V34.6605V34.6667Z" fill="#B5D279"/>
<path d="M34.6667 34L34 33.3333L33.3335 32V34L32.6667 33.3333V34.6619V34.6667H37.3335H37.3542L34.6667 32V34Z" fill="#B5D279"/>
</g>
</svg>
