<svg width="64" height="64" viewBox="0 0 64 64" fill="none" xmlns="http://www.w3.org/2000/svg">
<mask id="mask0_12133_19012" style="mask-type:luminance" maskUnits="userSpaceOnUse" x="0" y="0" width="64" height="64">
<path d="M64 0H0V64H64V0Z" fill="white"/>
</mask>
<g mask="url(#mask0_12133_19012)">
<path d="M1.8281 21.332C0.6482 24.6692 0 28.2575 0 31.9987C0 35.7399 0.6482 39.3282 1.8281 42.6654H62.1719C63.3518 39.3283 64 35.7399 64 31.9987C64 28.2575 63.3518 24.6692 62.1719 21.332H1.8281Z" fill="white"/>
<path d="M1.82812 21.3333H62.1719C57.7782 8.9061 45.9319 0 32 0C18.0681 0 6.22183 8.9061 1.82812 21.3333Z" fill="#FF7700"/>
<path d="M62.1719 42.668H1.82812C6.22192 55.0952 18.0681 64.0013 32 64.0013C45.9319 64.0013 57.7782 55.0952 62.1719 42.668Z" fill="#619B27"/>
<path d="M32 40.3346C36.6023 40.3346 40.3333 36.6036 40.3333 32.0013C40.3333 27.3989 36.6023 23.668 32 23.668C27.3976 23.668 23.6667 27.3989 23.6667 32.0013C23.6667 36.6036 27.3976 40.3346 32 40.3346Z" fill="#FF7700"/>
</g>
</svg>
