<svg width="64" height="64" viewBox="0 0 64 64" fill="none" xmlns="http://www.w3.org/2000/svg">
<mask id="mask0_12133_19223" style="mask-type:luminance" maskUnits="userSpaceOnUse" x="0" y="0" width="64" height="64">
<path d="M64 0H0V64H64V0Z" fill="white"/>
</mask>
<g mask="url(#mask0_12133_19223)">
<path d="M32 64C49.6731 64 64 49.6731 64 32C64 14.3269 49.6731 0 32 0C14.3269 0 0 14.3269 0 32C0 49.6731 14.3269 64 32 64Z" fill="#FFD400"/>
<path d="M12.6667 31.9999H24.5354L12.6667 23.9805V31.9999Z" fill="#191977"/>
<path d="M32 11.3315V4.60938L22.0514 11.3315H32Z" fill="#191977"/>
<path d="M22.328 1.49219C18.8038 2.60849 15.5452 4.31889 12.6667 6.50509V8.02009L22.328 1.49219Z" fill="#191977"/>
<path d="M3.3333 23.9805L0.6008 25.8268C0.2102 27.8249 0 29.8875 0 31.9999H3.3333V23.9805Z" fill="#191977"/>
<path d="M32 27.3901V20.668H22.0514L32 27.3901Z" fill="#191977"/>
<path d="M12.6667 20.668V22.3728L26.9169 32.0013H32V28.9992L19.6698 20.668H12.6667Z" fill="#F0263C"/>
<path d="M3.33334 20.668H2.07214C1.66964 21.7303 1.31764 22.8173 1.02844 23.9302L3.33334 22.3728V20.668Z" fill="#F0263C"/>
<path d="M12.6667 11.3333H19.6698L32 3.002V0C29.9832 0 28.0131 0.1953 26.0999 0.5521L12.6667 9.6286V11.3333Z" fill="#F0263C"/>
<path d="M11.3333 7.57812C10.4977 8.28592 9.70059 9.03653 8.94189 9.82513C9.81039 9.95823 10.6202 10.2692 11.3333 10.7204V7.57812Z" fill="#F0263C"/>
<path d="M8.00005 22.2507C6.77305 22.2507 5.63225 21.8921 4.66675 21.2812V32.0007H11.3334V21.2812C10.3679 21.8921 9.22695 22.2507 8.00005 22.2507ZM8.00005 29.1674L5.33335 26.5007L8.00005 23.834L10.6667 26.5007L8.00005 29.1674Z" fill="#F0263C"/>
<path d="M14.25 16.0014C14.25 17.2284 13.8913 18.3692 13.2805 19.3347H32V12.668H13.2805C13.8913 13.6335 14.25 14.7745 14.25 16.0014ZM21 13.3347L23.6667 16.0014L21 18.6681L18.3333 16.0014L21 13.3347Z" fill="#F0263C"/>
<path d="M2.65991 19.2227C2.64381 19.2597 2.62601 19.2958 2.61011 19.3329H2.71961C2.69731 19.2977 2.68161 19.2584 2.65991 19.2227Z" fill="#F0263C"/>
<path d="M13.2805 12.6654H32V11.3321H22.0514L32 4.60998V3.00078L19.6698 11.3321H12.6667V9.62728L26.0999 0.550781C24.8145 0.790481 23.5544 1.10168 22.328 1.49018L12.6667 8.01808V6.50308C12.212 6.84838 11.7685 7.20728 11.3334 7.57588V10.7182C12.1186 11.2149 12.7838 11.8803 13.2805 12.6654Z" fill="white"/>
<path d="M11.3333 21.2791V31.9986H12.6666V23.9792L24.5353 31.9986H26.9169L12.6667 22.3701V20.6653H19.6698L32 28.9966V27.3874L22.0514 20.6653H32V19.332H13.2805C12.7838 20.1172 12.1184 20.7824 11.3333 21.2791Z" fill="white"/>
<path d="M3.33333 31.9986H4.66663V21.2791C3.88143 20.7824 3.21623 20.1171 2.71953 19.332H2.61003C2.42043 19.7712 2.24233 20.2162 2.07213 20.6653H3.33333V22.3701L1.02843 23.9275C0.86603 24.5525 0.72583 25.1863 0.60083 25.8256L3.33333 23.9793V31.9986Z" fill="white"/>
<path d="M20.9999 13.332L18.3333 15.9986L20.9999 18.6653L23.6665 15.9986L20.9999 13.332Z" fill="#FFD400"/>
<path d="M8.00002 23.832L5.33337 26.4986L8.00001 29.1652L10.6667 26.4986L8.00002 23.832Z" fill="#FFD400"/>
<path d="M4.66671 21.2803C5.63221 21.8911 6.77311 22.2498 8.00001 22.2498C9.22691 22.2498 10.3678 21.8911 11.3333 21.2803C12.1185 20.7836 12.7837 20.1183 13.2804 19.3332C13.8912 18.3677 14.2499 17.2268 14.2499 15.9999C14.2499 14.773 13.8912 13.6321 13.2804 12.6666C12.7837 11.8814 12.1184 11.2162 11.3333 10.7195C10.6202 10.2684 9.81041 9.95742 8.94191 9.82422C8.65011 10.1275 8.36271 10.4348 8.08291 10.7495L13.3333 15.9999L8.00001 21.3332L3.71031 17.0435C3.33361 17.7546 2.98331 18.4814 2.65991 19.223C2.68151 19.2586 2.69731 19.298 2.71961 19.3332C3.21631 20.1184 3.88161 20.7836 4.66671 21.2803Z" fill="#191977"/>
<path d="M13.3333 16.0004L8.08293 10.75C6.38653 12.6579 4.91553 14.7691 3.71033 17.044L8.00003 21.3337L13.3333 16.0004Z" fill="#FFD400"/>
</g>
</svg>
