<svg width="64" height="64" viewBox="0 0 64 64" fill="none" xmlns="http://www.w3.org/2000/svg">
<mask id="mask0_12133_19224" style="mask-type:luminance" maskUnits="userSpaceOnUse" x="0" y="0" width="64" height="64">
<path d="M64 0H0V64H64V0Z" fill="white"/>
</mask>
<g mask="url(#mask0_12133_19224)">
<path d="M32 0C27.2398 0 22.7268 1.0472 18.6667 2.9114V61.0886C22.7268 62.9528 27.2399 64 32 64C36.7601 64 41.2732 62.9528 45.3333 61.0886V2.9114C41.2732 1.0472 36.7602 0 32 0Z" fill="white"/>
<path d="M44 44.0006L41.3407 43.9932L42.6666 42.6673H39.9999L41.3332 41.334L42.6665 40.0007H39.9998V38.6674H41.3331L39.9998 37.3341H38.6665L39.9998 36.0008L41.3331 34.6675H33.3331V33.3342H39.9998L41.3331 32.0009H39.9998V30.6676L41.3331 29.3343H33.3331V28.001H39.9998V25.3343L38.6665 24.001H33.3332V22.6677H38.6665L37.3332 21.3344H35.9999L37.3332 20.0011V18.6678H33.3332V17.3345H37.3332L35.9999 16.0012H33.3332V14.6679H35.9999L34.6666 13.3346H33.3333V12.0013H34.6666L33.3333 10.668H30.6666L29.3333 12.0013H30.6666V13.3346H29.3333L28 14.6679H30.6667V16.0012H28L26.6667 17.3345H30.6667V18.6678H26.6667L28 20.0011H30.6667V21.3344H25.3334V22.6677H30.6667V24.001H26.6667L24 25.3343H25.3333V26.6676L24 28.0009H30.6667V29.3342H24V30.6675H25.3333V32.0008H22.6666V33.3341H21.3333V34.6674H22.6666V36.0007H30.6666V37.334H23.9999V38.6673H21.3332V40.0006H23.9999V41.3339H19.9999L21.3332 42.6672V44.0005L19.9999 45.3338L26.6666 45.3507V46.6671H22.6666L19.9999 48.0004H30.6666V52.0004L29.3333 56.0004H34.6666L33.3333 50.6671V48.0004H40L41.3333 46.6671H44V45.3338H41.4428L44 44.0006ZM33.3333 20.0006H34.6666V21.3339H33.3333V20.0006ZM36 25.3339V26.6672H33.3333V25.3339H36ZM29.3333 26.6672V25.3339H30.6666V26.6672H29.3333ZM34.6666 42.6672H33.3333V41.3339H34.6666V42.6672ZM35.9999 30.6672V32.0005H33.3332V30.6672H35.9999ZM29.3332 30.6672H30.6665V32.0005H29.3332V30.6672ZM26.6665 34.6672V33.3339H30.6665V34.6672H26.6665ZM33.3332 36.0005H34.6665L35.9998 37.3338H33.3331L33.3332 36.0005ZM27.9999 41.3338H30.6666V42.6671H27.9999V41.3338Z" fill="#1E5B00"/>
<path d="M45.3333 2.91406V61.0845C56.3469 56.0281 64 44.9119 64 31.9993C64 19.0867 56.347 7.97046 45.3333 2.91406Z" fill="#1E5B00"/>
<path d="M18.6667 2.91406C7.653 7.97046 0 19.0867 0 31.9993C0 44.9119 7.653 56.0281 18.6667 61.0845V2.91406Z" fill="#1E5B00"/>
</g>
</svg>
