<svg width="64" height="64" viewBox="0 0 64 64" fill="none" xmlns="http://www.w3.org/2000/svg">
<mask id="mask0_12133_19225" style="mask-type:luminance" maskUnits="userSpaceOnUse" x="0" y="0" width="64" height="64">
<path d="M64 0H0V64H64V0Z" fill="white"/>
</mask>
<g mask="url(#mask0_12133_19225)">
<path d="M32 64C49.6731 64 64 49.6731 64 32C64 14.3269 49.6731 0 32 0C14.3269 0 0 14.3269 0 32C0 49.6731 14.3269 64 32 64Z" fill="#2D25C5"/>
<path d="M44.5463 45.8838L46.6667 48.0008L46.6656 43.6172C46.0214 44.4293 45.3144 45.1893 44.5463 45.8838Z" fill="#619B27"/>
<path d="M44 50.6675L44.0018 46.3555C43.39 46.8677 42.7435 47.339 42.0688 47.7707L44 50.6675Z" fill="#FF99CC"/>
<path d="M18.6642 45.1227C18.0359 44.4842 17.4531 43.8011 16.921 43.0781L13.3334 46.6657L18.6639 45.6019V45.3324L18.6642 45.1227Z" fill="#FF99CC"/>
<path d="M18.6642 45.125L18.6638 45.3347V48.0014L22.6666 50.6681L21.9445 47.7798C20.7526 47.0187 19.6519 46.1284 18.6642 45.125Z" fill="#619B27"/>
<path d="M14.666 34.6654L13.289 31.9102C13.2888 31.9399 13.2867 31.9691 13.2867 31.9988C13.2867 33.5083 13.4703 34.9743 13.8077 36.3803L14.666 34.6654Z" fill="#F0F0F0"/>
<path d="M19.0176 22.6579H18.6665L17.4534 20.2305C15.2384 22.9651 13.7775 26.335 13.3907 30.0258L16.0212 31.341C16.1521 28.1062 17.2434 25.1205 19.0176 22.6579Z" fill="#F0F0F0"/>
<path d="M21.3332 20.0793C24.1635 17.5432 27.9007 15.9987 31.9999 15.9971V14.6636L34.4319 13.4477C33.6353 13.3443 32.8247 13.2852 31.9999 13.2852C26.8531 13.2852 22.1925 15.3639 18.8094 18.7264L21.3332 19.9883V20.0793Z" fill="#F0F0F0"/>
<path d="M45.863 24.0014C47.2247 26.3551 48.0078 29.0853 48.0078 32H49.3334L50.5504 34.4341C50.654 33.6368 50.7132 32.8255 50.7132 32C50.7132 28.2664 49.6153 24.7912 47.7313 21.8711L46.6667 24.0014H45.863Z" fill="#F0F0F0"/>
<path d="M44.0001 21.412V21.3307L46.4487 20.1064C43.916 17.0328 40.4201 14.7854 36.4244 13.8164L35.1768 16.3127C38.6617 17.0133 41.7345 18.8473 44.0001 21.412Z" fill="#F0F0F0"/>
<path d="M16.9792 37.5117L14.5389 38.7312C15.1411 40.2924 15.9445 41.7531 16.9208 43.0798C17.4529 43.8029 18.0357 44.4859 18.664 45.1244C19.6516 46.1278 20.7525 47.018 21.9444 47.7791C23.4616 48.7481 25.1269 49.5033 26.9002 50.0047L27.2208 47.2737C22.4766 45.7888 18.6826 42.155 16.9792 37.5117Z" fill="#F0F0F0"/>
<path d="M47.0306 37.5156C45.3245 42.16 41.5267 45.7938 36.7786 47.2755L37.0992 50.0023C38.8778 49.4995 40.5478 48.7412 42.0687 47.7681C42.7434 47.3364 43.3899 46.8651 44.0017 46.3529C44.1859 46.1987 44.3682 46.0423 44.5462 45.8813C45.3143 45.1867 46.0212 44.4268 46.6654 43.6147C47.8282 42.1486 48.7754 40.5051 49.4603 38.7299L47.0306 37.5156Z" fill="#F0F0F0"/>
<path d="M19.9985 23.5798V22.6774H20.6813C20.6861 22.6716 20.6911 22.666 20.6959 22.6602H19.0177C17.2435 25.1229 16.1523 28.1085 16.0214 31.3433L17.3332 31.9993V32.0007H17.336C17.336 28.8659 18.323 25.9633 19.9985 23.5798Z" fill="#F0263C"/>
<path d="M44 23.5756V21.4117C41.7344 18.847 38.6616 17.013 35.1768 16.3125L34.6667 17.3333H33.3348V17.3979C37.7437 17.796 41.5876 20.1449 44 23.5756Z" fill="#F0263C"/>
<path d="M46.6638 31.9986H48.0077C48.0077 29.0839 47.2246 26.3537 45.8629 24H45.3347V25.8999C46.1857 27.7575 46.6638 29.8217 46.6638 31.9986Z" fill="#F0263C"/>
<path d="M30.6309 17.4033L30.6652 17.3346H32V16C27.9009 16.0016 24.1637 17.546 21.3333 20.0822V21.9448C23.7133 19.4213 26.9768 17.7418 30.6309 17.4033Z" fill="#F0263C"/>
<path d="M17.3362 32H17.3334V34.6667H17.3349V37.3334L16.9794 37.511C18.6828 42.1542 22.4769 45.7881 27.2211 47.273L27.3803 45.9169C21.5462 43.981 17.3362 38.4838 17.3362 32Z" fill="#CC9500"/>
<path d="M46.6639 34.6674V32C46.6639 38.4842 42.4535 43.9816 36.6187 45.9172L36.7787 47.2773C41.5267 45.7957 45.3246 42.1618 47.0307 37.5174L46.6639 37.3341V34.6674Z" fill="#CC9500"/>
<path d="M33.3348 17.3984V19.999L33.2983 20.0172C36.9317 20.4066 40.0813 22.4084 42.0171 25.2952L42.6652 23.999H44V23.5761C41.5876 20.1454 37.7437 17.7965 33.3348 17.3984Z" fill="#F0F0F0"/>
<path d="M22.6681 22.677L23.2129 23.7668C24.7971 22.0767 26.8588 20.8474 29.1871 20.2898L30.6308 17.4023C26.9767 17.7408 23.7133 19.4202 21.3333 21.9437V22.6597H20.6959C20.691 22.6655 20.6861 22.6711 20.6813 22.6769L22.6681 22.677Z" fill="#F0F0F0"/>
<path d="M19.946 31.999C19.946 29.8511 20.5142 27.8386 21.4989 26.0921L19.9986 25.3424V23.5781C18.3231 25.9616 17.3362 28.8642 17.3362 31.999C17.3362 38.4828 21.5461 43.98 27.3802 45.9158L27.6935 43.2468C23.1661 41.5118 19.946 37.1367 19.946 31.999Z" fill="#F0F0F0"/>
<path d="M46.6638 32.001C46.6638 29.824 46.1858 27.7599 45.3348 25.9023V26.6677L43.2529 27.7081C43.7627 29.0433 44.0541 30.4866 44.0541 32.001C44.0541 37.1393 40.8332 41.5149 36.3049 43.2494L36.6187 45.9182C42.4534 43.9826 46.6638 38.4852 46.6638 32.001Z" fill="#F0F0F0"/>
<path d="M44.054 32.0012C44.054 30.4868 43.7627 29.0435 43.2528 27.7083L39.9985 29.3346L42.0171 25.2975C40.0814 22.4107 36.9317 20.4089 33.2983 20.0195L27.9985 22.6679L29.1871 20.2907C26.8588 20.8483 24.7971 22.0776 23.2129 23.7677L25.3347 28.0112L21.4988 26.0942C20.5141 27.8408 19.9459 29.8532 19.9459 32.0011C19.9459 37.1388 23.166 41.5139 27.6935 43.2489L28.367 37.511L27.2352 38.3333L28.856 33.3449L28.9379 32.6468L24.2904 29.2702H29.2625L26.6659 26.6736V22.6865H37.3298V26.6736L34.7399 29.2702H39.7095L35.0584 32.6494L35.138 33.3268L36.7648 38.3333L35.6298 37.5087L36.3048 43.2495C40.8331 41.515 44.054 37.1395 44.054 32.0012Z" fill="#2D25C5"/>
<path d="M36.6187 45.9179L36.3049 43.2491L35.6298 37.5083L32 34.8711L28.367 37.5106L27.6935 43.2485L27.3802 45.9175L27.221 47.2736L26.9004 50.0046L26.6659 52.0025L30.6709 53.3422H33.3354L37.3341 52.0025L37.0993 50.0047L36.7786 47.278L36.6187 45.9179Z" fill="#999999"/>
<path d="M28.938 32.6445L28.856 33.3426L29.0552 32.7297L28.938 32.6445Z" fill="#999999"/>
<path d="M35.138 33.3258L35.0584 32.6484L34.9448 32.731L35.138 33.3258Z" fill="#999999"/>
<path d="M32 23.6661L33.82 29.2674H34.7399L37.3298 26.6707V22.6836H26.6659V26.6707L29.2625 29.2674H30.18L32 23.6661Z" fill="#999999"/>
<path d="M35.1379 33.3259L34.9447 32.7311L35.0583 32.6485L39.7095 29.2693H34.7398H33.8199L31.9999 23.668L30.1799 29.2693H29.2624H24.2903L28.9379 32.6459L29.0551 32.7311L28.8559 33.344L27.2351 38.3324L28.3669 37.5101L31.9999 34.8706L35.6297 37.5078L36.7647 38.3324L35.1379 33.3259Z" fill="#F0F0F0"/>
<path d="M46.6653 34.668H46.6638V37.3347L47.0306 37.518L49.4604 38.7322L52 40.0013L50.222 36.4454L46.6653 34.668Z" fill="#FF99CC"/>
<path d="M44 21.4121V23.576V23.9989H45.3348V24.0003H45.863H46.6667L47.7313 21.87L49.3333 18.6641L46.4486 20.1065L44 21.3308V21.4121Z" fill="#FF99CC"/>
<path d="M32 16.0001V17.3347H33.3348V17.3362H34.6667L35.1768 16.3153L36.4243 13.8191L37.3333 12L34.432 13.4507L32 14.6666V16.0001Z" fill="#FF99CC"/>
<path d="M19.0177 22.6604H20.696H21.3333V21.9443V20.0818V19.9908L18.8095 18.7289L16 17.3242L17.4536 20.233L18.6667 22.6604H19.0177Z" fill="#FF99CC"/>
<path d="M17.3333 34.6668V32.0001V31.9987L16.0215 31.3427L13.391 30.0275L12 29.332L13.2891 31.9115L14.666 34.6668H17.3333Z" fill="#FF99CC"/>
<path d="M42.0171 25.2962L39.9985 29.3333L43.2528 27.7071L45.3348 26.6667V25.9013V24.0014V24H44H42.6652L42.0171 25.2962Z" fill="#619B27"/>
<path d="M17.3348 37.3346V34.668H17.3333H14.666L13.8078 36.3828L11.9985 40.0013L14.5391 38.7317L16.9793 37.5122L17.3348 37.3346Z" fill="#619B27"/>
<path d="M30.6309 17.4007L29.1872 20.2882L27.9985 22.6654L33.2983 20.0169L33.3348 19.9987V17.3981V17.3335V17.332H32H30.6652L30.6309 17.4007Z" fill="#619B27"/>
<path d="M20.6813 22.6758H19.9985V23.5782V25.3424L21.4989 26.0922L25.3348 28.0091L23.213 23.7656L22.6681 22.6758H20.6813Z" fill="#619B27"/>
<path d="M48.0077 32H46.6638V34.6667L46.6653 34.6674L50.222 36.4448L52 37.3333L50.5504 34.4341L49.3333 32H48.0077Z" fill="#619B27"/>
</g>
</svg>
