<svg width="64" height="64" viewBox="0 0 64 64" fill="none" xmlns="http://www.w3.org/2000/svg">
<mask id="mask0_12133_19074" style="mask-type:luminance" maskUnits="userSpaceOnUse" x="0" y="0" width="64" height="64">
<path d="M64 0H0V64H64V0Z" fill="white"/>
</mask>
<g mask="url(#mask0_12133_19074)">
<path d="M57.9837 50.6654C61.7656 45.4105 64 38.9674 64 31.9987C64 25.03 61.7655 18.587 57.9837 13.332H6.0163C2.2345 18.587 0 25.03 0 31.9987C0 38.9674 2.2345 45.4104 6.0163 50.6654H57.9837Z" fill="#F0263C"/>
<path d="M8.15466 10.6667H55.8452C49.9859 4.1219 41.4757 0 32 0C22.5243 0 14.0141 4.1219 8.15466 10.6667Z" fill="#2D25C5"/>
<path d="M55.8453 53.332H8.15466C14.014 59.8768 22.5242 63.9987 32 63.9987C41.4758 63.9987 49.9859 59.8768 55.8453 53.332Z" fill="#2D25C5"/>
<path d="M18.6667 45.3346C26.0305 45.3346 32 39.3651 32 32.0013C32 24.6375 26.0305 18.668 18.6667 18.668C11.3029 18.668 5.33337 24.6375 5.33337 32.0013C5.33337 39.3651 11.3029 45.3346 18.6667 45.3346Z" fill="white"/>
<path d="M8.15476 53.3347H55.8453C56.6051 52.4861 57.3169 51.5946 57.9837 50.668H6.01636C6.68316 51.5946 7.39506 52.486 8.15476 53.3347Z" fill="white"/>
<path d="M6.01636 13.3347H57.9838C57.317 12.4081 56.6051 11.5167 55.8454 10.668H8.15476C7.39496 11.5166 6.68316 12.4081 6.01636 13.3347Z" fill="white"/>
<path d="M23.4861 33.5673L26.4647 42.7344L18.6667 37.0688L10.8686 42.7344L13.8472 33.5673L6.04907 27.9016H15.6881L18.6667 18.7344L21.6453 27.9016H31.2842L23.4861 33.5673Z" fill="#F0263C"/>
</g>
</svg>
