<svg width="64" height="64" viewBox="0 0 64 64" fill="none" xmlns="http://www.w3.org/2000/svg">
<mask id="mask0_12133_19146" style="mask-type:luminance" maskUnits="userSpaceOnUse" x="0" y="0" width="64" height="64">
<path d="M64 0H0V64H64V0Z" fill="white"/>
</mask>
<g mask="url(#mask0_12133_19146)">
<path d="M42.6156 33.0093C42.647 32.6768 42.6667 32.3408 42.6667 32.0003C42.6667 31.6598 42.647 31.3238 42.6156 30.9913L63.8534 28.9727C63.5118 25.3344 62.5582 21.8761 61.1013 18.695L41.6908 27.5696C41.4082 26.9541 41.0705 26.3705 40.6808 25.8244L58.0691 13.4536C53.1528 6.55589 45.5749 1.68708 36.8284 0.363281L33.3183 21.4239C32.8854 21.3702 32.4473 21.3336 32 21.3336C31.5527 21.3336 31.1147 21.3701 30.6817 21.4239L27.1716 0.363281C18.4251 1.68708 10.8472 6.55588 5.93091 13.4537L23.3192 25.8245C22.9296 26.3706 22.5919 26.9541 22.3092 27.5697L2.89881 18.695C1.44191 21.8761 0.488206 25.3343 0.146606 28.9726L21.3844 30.9912C21.353 31.3237 21.3333 31.6597 21.3333 32.0002C21.3333 32.3407 21.353 32.6767 21.3844 33.0092L0.146606 35.028C0.488206 38.6663 1.44181 42.1246 2.89871 45.3057L22.3092 36.4311C22.5918 37.0466 22.9295 37.6302 23.3192 38.1763L5.93091 50.5471C10.8472 57.4449 18.4251 62.3137 27.1715 63.6375L30.6816 42.5769C31.1145 42.6306 31.5526 42.6672 31.9999 42.6672C32.4472 42.6672 32.8852 42.6307 33.3182 42.5769L36.8283 63.6375C45.5748 62.3137 53.1526 57.4449 58.0689 50.5471L40.6806 38.1763C41.0702 37.6302 41.4079 37.0467 41.6906 36.4311L61.1011 45.3057C62.558 42.1246 63.5116 38.6664 63.8532 35.028L42.6156 33.0093Z" fill="#F0263C"/>
<path d="M32 42.6684C31.5527 42.6684 31.1147 42.6319 30.6817 42.5781L27.1716 63.6387C28.7465 63.8771 30.3587 64.0017 32 64.0017C33.6413 64.0017 35.2535 63.8771 36.8284 63.6387L33.3183 42.5781C32.8854 42.6318 32.4473 42.6684 32 42.6684Z" fill="#FFD400"/>
<path d="M32 21.3333C32.4473 21.3333 32.8853 21.3698 33.3183 21.4236L36.8284 0.363C35.2535 0.1246 33.6414 0 32 0C30.3586 0 28.7465 0.1246 27.1716 0.363L30.6817 21.4236C31.1146 21.3699 31.5527 21.3333 32 21.3333Z" fill="#FFD400"/>
<path d="M42.6668 32.0005C42.6668 32.3411 42.6471 32.677 42.6157 33.0095L63.8535 35.0281C63.9471 34.031 64.0001 33.022 64.0001 32.0004C64.0001 30.9788 63.9471 29.9698 63.8535 28.9727L42.6157 30.9913C42.6471 31.3238 42.6668 31.66 42.6668 32.0005Z" fill="#FFD400"/>
<path d="M21.3333 32.0004C21.3333 31.6598 21.353 31.3239 21.3844 30.9914L0.1466 28.9727C0.053 29.9698 0 30.9788 0 32.0004C0 33.022 0.053 34.031 0.1466 35.0281L21.3844 33.0095C21.353 32.677 21.3333 32.3409 21.3333 32.0004Z" fill="#FFD400"/>
<path d="M40.6807 38.1748L58.069 50.5456C59.2374 48.9062 60.2544 47.1531 61.1012 45.3043L41.6907 36.4297C41.4081 37.0452 41.0704 37.6287 40.6807 38.1748Z" fill="#FFD400"/>
<path d="M23.3193 25.8238L5.93088 13.4531C4.76248 15.0925 3.74548 16.8456 2.89868 18.6944L22.3092 27.569C22.5918 26.9535 22.9296 26.3699 23.3193 25.8238Z" fill="#FFD400"/>
<path d="M41.6907 27.569L61.1012 18.6944C60.2544 16.8456 59.2374 15.0925 58.069 13.4531L40.6807 25.8239C41.0703 26.37 41.408 26.9534 41.6907 27.569Z" fill="#FFD400"/>
<path d="M22.3093 36.4297L2.8988 45.3043C3.7456 47.1531 4.7626 48.9062 5.931 50.5456L23.3193 38.1748C22.9297 37.6287 22.592 37.0453 22.3093 36.4297Z" fill="#FFD400"/>
<path d="M32 40C36.4183 40 40 36.4183 40 32C40 27.5817 36.4183 24 32 24C27.5817 24 24 27.5817 24 32C24 36.4183 27.5817 40 32 40Z" fill="#FFD400"/>
</g>
</svg>
