<svg width="64" height="64" viewBox="0 0 64 64" fill="none" xmlns="http://www.w3.org/2000/svg">
<g clip-path="url(#clip0_12133_19075)">
<mask id="mask0_12133_19075" style="mask-type:luminance" maskUnits="userSpaceOnUse" x="0" y="0" width="64" height="64">
<path d="M64 0H0V64H64V0Z" fill="white"/>
</mask>
<g mask="url(#mask0_12133_19075)">
<path d="M32 64.0013C45.9319 64.0013 57.7782 55.0952 62.1719 42.668H32V64.0013Z" fill="#619B27"/>
<path d="M62.1719 21.3334C57.7782 8.9061 45.9319 0 32 0V21.3333L62.1719 21.3334Z" fill="white"/>
<path d="M62.1719 21.3334H32V0C17.2798 0 4.881 9.9392 1.1488 23.4727C1.1377 23.5128 1.1345 23.5531 1.127 23.5932C0.397 26.2727 0 29.0891 0 32C0 35.7412 0.6483 39.3296 1.8281 42.6667C6.2218 55.0939 18.068 64 32 64V42.6667H62.1719C63.3518 39.3296 64 35.7412 64 32C64 28.2588 63.3517 24.6705 62.1719 21.3334Z" fill="#F0263C"/>
<path d="M10.6667 10.668V13.3347H14.6667V12.668H16V11.3347H14.6667V10.668H10.6667Z" fill="white"/>
<path d="M21.3332 14.6667V13.3872L21.3572 13.3882L25.9999 6.6667L26.6666 4L23.9999 6.6667L21.3332 11.1112V9.3334L19.9999 5.3334L18.6666 9.3334V11.1112L15.9999 6.6667L14.5288 5.1957C14.2704 5.3644 14.0143 5.536 13.7612 5.7121L13.9999 6.6668L18.6426 13.3883L11.9999 14.6668L17.3332 16.0001L12.6665 20.0001L10.6665 21.3334L13.2156 21.3454L19.9998 16.0001L26.784 21.3454L29.3331 21.3334L27.3331 20.0001L21.3332 14.6667Z" fill="white"/>
<path d="M20 4L18.6667 5.3334H20H21.3333L20 4Z" fill="white"/>
<path d="M29.3333 13.3347V10.668H25.3333V11.3347H24V12.668H25.3333V13.3347H29.3333Z" fill="white"/>
</g>
</g>
<defs>
<clipPath id="clip0_12133_19075">
<rect width="64" height="64" fill="white"/>
</clipPath>
</defs>
</svg>
