<svg width="64" height="64" viewBox="0 0 64 64" fill="none" xmlns="http://www.w3.org/2000/svg">
<mask id="mask0_12133_19077" style="mask-type:luminance" maskUnits="userSpaceOnUse" x="0" y="0" width="64" height="64">
<path d="M64 0H0V64H64V0Z" fill="white"/>
</mask>
<g mask="url(#mask0_12133_19077)">
<path d="M32 64C49.6731 64 64 49.6731 64 32C64 14.3269 49.6731 0 32 0C14.3269 0 0 14.3269 0 32C0 49.6731 14.3269 64 32 64Z" fill="white"/>
<path d="M64 32C64 14.3269 49.6731 0 32 0C26.1693 0 20.7079 1.5671 16 4.2917V59.7084C20.7079 62.4329 26.1693 64.0001 32 64.0001C49.6731 64.0001 64 49.6731 64 32Z" fill="#1E5B00"/>
<path d="M29.3333 26.6652C29.3333 23.6137 30.1883 20.7622 31.6707 18.3359C27.0708 21.1462 24 26.2135 24 31.9985C24 40.835 31.1635 47.9985 40 47.9985C45.7851 47.9985 50.8523 44.9277 53.6626 40.3278C51.2362 41.8102 48.3848 42.6652 45.3333 42.6652C36.4968 42.6652 29.3333 35.5017 29.3333 26.6652Z" fill="white"/>
<path d="M48 18.668L44 22.6681L48 26.6681L52.0001 22.6681L48 18.668Z" fill="white"/>
</g>
</svg>
