<svg width="64" height="64" viewBox="0 0 64 64" fill="none" xmlns="http://www.w3.org/2000/svg">
<mask id="mask0_12133_19226" style="mask-type:luminance" maskUnits="userSpaceOnUse" x="0" y="0" width="64" height="64">
<path d="M64 0H0V64H64V0Z" fill="white"/>
</mask>
<g mask="url(#mask0_12133_19226)">
<path d="M32 64C49.6731 64 64 49.6731 64 32C64 14.3269 49.6731 0 32 0C14.3269 0 0 14.3269 0 32C0 49.6731 14.3269 64 32 64Z" fill="#007ACC"/>
<path d="M28.6667 48C37.5033 48 44.6667 40.8366 44.6667 32C44.6667 23.1634 37.5033 16 28.6667 16C19.8302 16 12.6667 23.1634 12.6667 32C12.6667 40.8366 19.8302 48 28.6667 48Z" fill="#FFE566"/>
</g>
</svg>
