<svg width="64" height="64" viewBox="0 0 64 64" fill="none" xmlns="http://www.w3.org/2000/svg">
<mask id="mask0_12133_19227" style="mask-type:luminance" maskUnits="userSpaceOnUse" x="0" y="0" width="64" height="64">
<path d="M64 0H0V64H64V0Z" fill="white"/>
</mask>
<g mask="url(#mask0_12133_19227)">
<path d="M32 0C49.6732 0 64 14.3268 64 32C64 40.8366 60.4183 48.8366 54.6274 54.6274L9.37256 9.3726C15.1634 3.5817 23.1634 0 32 0Z" fill="#F0263C"/>
<path d="M0 31.9985C0 23.1619 3.5817 15.1619 9.3726 9.37109L54.6275 54.626C48.8366 60.4169 40.8366 63.9986 32.0001 63.9986C14.3268 63.9985 0 49.6717 0 31.9985Z" fill="black"/>
<path d="M22.6666 32L20 34.6667L22.6666 37.3333L25.3333 34.6667L22.6666 32Z" fill="white"/>
<path d="M8.66664 32.668L6 35.3347L8.66664 38.0013L11.3333 35.3347L8.66664 32.668Z" fill="white"/>
<path d="M15.9999 22.7188L13.3333 25.3855L15.9999 28.0521L18.6665 25.3855L15.9999 22.7188Z" fill="white"/>
<path d="M15.9999 45.1211L13.3333 47.7877L15.9999 50.4544L18.6665 47.7877L15.9999 45.1211Z" fill="white"/>
<path d="M19.3333 40L18 41.3333L19.3333 42.6666L20.6666 41.3333L19.3333 40Z" fill="white"/>
<path d="M50.6667 19.9987L46.6667 14.6654L42.6667 15.9987V9.33203H41.3333L38.6667 13.332V17.1576L36 14.6654H33.3333V16.0542H34.619L37.3333 18.6654H32L29.3333 22.6654V23.9987H36L37.3333 22.6654L40 26.6654L45.3333 29.332V25.332L43.989 22.7218L46.6667 23.9987L49.3333 27.3124V30.6654L46.6667 33.332V34.6654H48L50.6667 31.9987V26.6654L48.6667 23.9987H50.6667V19.9987Z" fill="#FFD400"/>
</g>
</svg>
