<svg width="64" height="64" viewBox="0 0 64 64" fill="none" xmlns="http://www.w3.org/2000/svg">
<mask id="mask0_12133_19248" style="mask-type:luminance" maskUnits="userSpaceOnUse" x="0" y="0" width="64" height="64">
<path d="M64 0H0V64H64V0Z" fill="white"/>
</mask>
<g mask="url(#mask0_12133_19248)">
<path d="M1.8281 21.332C0.6482 24.6692 0 28.2575 0 31.9987C0 35.7399 0.6482 39.3282 1.8281 42.6654H62.1719C63.3518 39.3283 64 35.7399 64 31.9987C64 28.2575 63.3518 24.6692 62.1719 21.332H1.8281Z" fill="white"/>
<path d="M1.82812 21.3333H62.1719C57.7782 8.9061 45.9319 0 32 0C18.0681 0 6.22184 8.9061 1.82812 21.3333Z" fill="#F0263C"/>
<path d="M62.1719 42.668H1.82812C6.22192 55.0952 18.0681 64.0013 32 64.0013C45.9319 64.0013 57.7782 55.0952 62.1719 42.668Z" fill="#2D25C5"/>
<path d="M31.9999 40.9758C27.0507 40.9758 23.024 36.9491 23.024 31.9996C23.024 27.0501 27.0507 23.0234 31.9999 23.0234C36.9491 23.0234 40.9758 27.0501 40.9758 31.9996C40.9758 36.9491 36.9491 40.9758 31.9999 40.9758ZM31.9999 23.6425C27.3918 23.6425 23.6425 27.3915 23.6425 31.9996C23.6425 36.6077 27.3918 40.3567 31.9999 40.3567C36.608 40.3567 40.3573 36.6077 40.3573 31.9996C40.3573 27.3915 36.608 23.6425 31.9999 23.6425Z" fill="black"/>
<path d="M34.3333 32.0014L32 29.668L29.6667 32.0014L32 34.3347L34.3333 32.0014Z" fill="#FFD400"/>
<path d="M32 35.9987L29.3333 34.6654L28.6667 33.332V31.9987V30.6654L30.6667 29.332H29.3333L31.3333 27.9987H30L29.3333 27.332L28 29.332H27.3333L28 30.6654H26.6667L28 31.9987H26.6667L28 33.9987H27.3333L28.6667 35.9987H29.3333V37.332L32 35.9987Z" fill="#1E5B00"/>
<path d="M32 35.9987L34.6667 34.6654L35.3333 33.332V31.9987V30.6654L33.3333 29.332H34.6667L32.6667 27.9987H34L34.6667 27.332L36 29.332H36.6667L36 30.6654H37.3333L36 31.9987H37.3333L36 33.9987H36.6667L35.3333 35.9987H34.6667V37.332L32 35.9987Z" fill="#1E5B00"/>
<path d="M32.0001 25.9817C32.5022 25.9817 32.9874 26.0505 33.4537 26.1672L33.7768 24.8751C33.2068 24.7324 32.6137 24.6484 32.0001 24.6484C31.3865 24.6484 30.7934 24.7325 30.2234 24.8751L30.5465 26.1672C31.0128 26.0505 31.498 25.9817 32.0001 25.9817Z" fill="#999999"/>
<path d="M26 31.9813C26 29.6368 27.3548 27.6075 29.3198 26.6209L28.7243 25.4297C26.3226 26.6356 24.6667 29.1158 24.6667 31.9813C24.6667 33.6301 25.2202 35.1483 26.1423 36.3746L27.2074 35.5759C26.453 34.5726 26 33.3303 26 31.9813Z" fill="#999999"/>
<path d="M39.3334 31.9813C39.3334 29.1159 37.6775 26.6356 35.2758 25.4297L34.6803 26.6209C36.6453 27.6075 38.0001 29.6368 38.0001 31.9813C38.0001 33.3303 37.5471 34.5726 36.7927 35.5758L37.8578 36.3745C38.7798 35.1483 39.3334 33.6301 39.3334 31.9813Z" fill="#999999"/>
</g>
</svg>
