<svg width="64" height="64" viewBox="0 0 64 64" fill="none" xmlns="http://www.w3.org/2000/svg">
<mask id="mask0_12133_19249" style="mask-type:luminance" maskUnits="userSpaceOnUse" x="0" y="0" width="64" height="64">
<path d="M64 0H0V64H64V0Z" fill="white"/>
</mask>
<g mask="url(#mask0_12133_19249)">
<path d="M42.6667 1.83594V62.1798C55.0939 57.786 64 45.9398 64 32.0079C64 18.076 55.0939 6.22964 42.6667 1.83594Z" fill="#F0263C"/>
<path d="M21.3333 62.1797V1.83594C8.9061 6.22964 0 18.0758 0 32.0078C0 45.9398 8.9061 57.786 21.3333 62.1797Z" fill="#F0263C"/>
<path d="M42.6667 1.85544C39.3295 0.675543 35.7412 0.0273438 32 0.0273438C28.2588 0.0273438 24.6705 0.675543 21.3333 1.85534V62.1992C24.6704 63.3791 28.2588 64.0273 32 64.0273C35.7412 64.0273 39.3295 63.3791 42.6667 62.1992V1.85544Z" fill="white"/>
<path d="M35.9687 25.4336L33.3333 26.6922L32 26.6732L30.6667 26.6922L28 25.3398L26.6667 26.6731V32.0064H37.3334V26.6731L35.9687 25.4336ZM30.6666 30.6732H27.9999V28.0065H30.6666V30.6732ZM35.9999 30.6732H33.3333V28.0065H35.9999V30.6732Z" fill="#CC9500"/>
<path d="M36 28.0078H33.3333V30.6745H36V28.0078Z" fill="white"/>
<path d="M30.6667 28.0078H28V30.6745H30.6667V28.0078Z" fill="white"/>
<path d="M31.9999 32.0078H26.6666V36.0268V37.3602L27.9999 38.6935H29.3332L31.9999 40.0268L34.6666 38.6935L35.9904 38.684L35.9828 38.6992L35.9999 38.6935L37.3332 37.3602V36.0268V32.0078H31.9999Z" fill="#F0263C"/>
<path d="M34.6666 38.6931L31.9999 40.0264L29.3332 38.6931H27.9999L29.3332 41.3407L26.6666 41.3598V42.6931H37.3332V41.3598L34.6666 41.3407L35.9828 38.6988L35.9904 38.6836L34.6666 38.6931Z" fill="#CC9500"/>
<path d="M25.3333 38.6758L24 37.3424L25.3333 34.6758H24L25.3333 30.6758H24L25.3333 28.0091H24V26.6758L25.3333 22.6758L22.6667 24.0091V28.0091L21.3333 26.6758V29.3424L22.6667 33.3424H21.3333L22.6667 36.0091H21.3333L22.6667 38.6758L25.3542 41.3216L29.3333 41.3424L26.6667 40.0091L25.3333 38.6758Z" fill="#619B27"/>
<path d="M42.6666 26.6758L41.3332 28.0091V24.0091L38.6666 22.6758L39.9999 26.6758V28.0091H38.6666L39.9999 30.6758H38.6666L39.9999 34.6758H38.6666L39.9999 37.3424L38.6666 38.6758L37.3332 40.0091L34.6666 41.3424L38.6457 41.3216L41.3332 38.6758L42.6666 36.0091H41.3332L42.6666 33.3424H41.3332L42.6666 29.3424V26.6758Z" fill="#619B27"/>
<path d="M28 37.3594H33.3333L36 34.6927V33.3594H29.3333L28 34.6927V37.3594Z" fill="#CC9500"/>
<path d="M32 26.6744C30.7135 26.6744 29.6667 25.6275 29.6667 24.3411C29.6667 23.0547 30.7136 22.0078 32 22.0078C33.2864 22.0078 34.3333 23.0547 34.3333 24.3411C34.3333 25.6275 33.2864 26.6744 32 26.6744ZM32 23.3411C31.4486 23.3411 31 23.7897 31 24.3411C31 24.8925 31.4486 25.3411 32 25.3411C32.5514 25.3411 33 24.8925 33 24.3411C33 23.7897 32.5514 23.3411 32 23.3411Z" fill="#CC9500"/>
<path d="M30.6667 28.0078H28V30.6745H30.6667V28.0078Z" fill="#4DAFE3"/>
</g>
</svg>
