<svg width="64" height="64" viewBox="0 0 64 64" fill="none" xmlns="http://www.w3.org/2000/svg">
<mask id="mask0_12133_19079" style="mask-type:luminance" maskUnits="userSpaceOnUse" x="0" y="0" width="64" height="64">
<path d="M64 0H0V64H64V0Z" fill="white"/>
</mask>
<g mask="url(#mask0_12133_19079)">
<path d="M64 32C64 14.3269 49.6731 0 32 0C23.1633 0 15.1689 3.5872 9.37878 9.3788L32 32H64Z" fill="#2D25C5"/>
<path d="M32 32L9.37878 54.6212C15.1689 60.4129 23.1633 64 32 64C49.6731 64 64 49.6731 64 32H32Z" fill="#F0263C"/>
<path d="M32 31.9985L9.3788 9.37729L9.3726 9.37109C3.5817 15.162 0 23.162 0 31.9985C0 40.835 3.5817 48.835 9.3726 54.6259L9.3788 54.6197L32 31.9985Z" fill="white"/>
<path d="M26.6666 29.332L24 31.9987L26.6666 34.6653L29.3333 31.9987L26.6666 29.332Z" fill="#FFD400"/>
<path d="M7.99989 13.332L5.33325 15.9986L7.99989 18.6653L10.6665 15.9986L7.99989 13.332Z" fill="#FFD400"/>
<path d="M7.99989 45.332L5.33325 47.9986L7.9999 50.6652L10.6665 47.9986L7.99989 45.332Z" fill="#FFD400"/>
<path d="M16.5569 29.3301L19.5426 26.3444L17.657 24.4588L14.6713 27.4445C14.2577 27.2008 13.809 27.0127 13.3335 26.8877V22.668H10.6668V26.8776C10.1862 27.0001 9.73225 27.1863 9.31405 27.4297L6.34325 24.4589L4.45765 26.3445L7.41895 29.3058C7.16815 29.7261 6.97485 30.1831 6.84725 30.6681H2.66675V33.3348H6.83715C6.96205 33.8248 7.15365 34.2869 7.40405 34.7119L4.45755 37.6584L6.34315 39.544L9.28965 36.5975C9.71455 36.8479 10.1767 37.0396 10.6668 37.1644V41.3348H13.3335V37.1543C13.8185 37.0268 14.2754 36.8334 14.6958 36.5826L17.6571 39.5439L19.5427 37.6583L16.5719 34.6875C16.8153 34.2693 17.0015 33.8154 17.124 33.3348H21.3336V30.6681H17.1139C16.9889 30.1926 16.8006 29.7436 16.5569 29.3301Z" fill="#FFD400"/>
</g>
</svg>
