<svg width="64" height="64" viewBox="0 0 64 64" fill="none" xmlns="http://www.w3.org/2000/svg">
<mask id="mask0_12133_19228" style="mask-type:luminance" maskUnits="userSpaceOnUse" x="0" y="0" width="64" height="64">
<path d="M64 0H0V64H64V0Z" fill="white"/>
</mask>
<g mask="url(#mask0_12133_19228)">
<path d="M32 64C49.6731 64 64 49.6731 64 32C64 14.3269 49.6731 0 32 0C14.3269 0 0 14.3269 0 32C0 49.6731 14.3269 64 32 64Z" fill="#191977"/>
<path d="M35.9995 37.3333L38.6662 40H41.3329L40.0006 38.6678L40.0001 37.3345H37.3334L37.3326 36.0003L35.9995 37.3333Z" fill="#619B27"/>
<path d="M36 40L38.6667 41.3345L39.9935 43.9881L40 46.6678L38.6667 49.3345L42.6661 49.3333V46.6667L39.9994 44V41.3333L41.3328 40H38.6661H36Z" fill="#FFD400"/>
<path d="M59.9991 37.332V34.6654L55.9991 33.332L54.6667 33.3332V34.6665L58.6657 35.9987L59.9991 37.332Z" fill="#619B27"/>
<path d="M57.3323 40L59.9989 37.3333L58.6658 36L58.6665 37.3345H55.9999V38.6678L54.6655 40H56.6665H57.3323Z" fill="#FFD400"/>
<path d="M55.9991 41.3333V44L53.3325 46.6667V49.3333L57.3334 49.3345L56.0001 46.6678L56.0052 43.9877L57.3334 41.3345L60.0001 40.0012L54.6658 40L55.9991 41.3333Z" fill="#619B27"/>
<path d="M38.6662 30.668V32.0013L39.9995 33.3346L35.9995 34.668V37.3346L37.3326 36.0013L41.3334 34.6691V33.3358H42.6668L43.9995 33.3326V30.668H38.6662Z" fill="#FFD400"/>
<path d="M38.666 29.3333L41.3327 26.6667H38.666L37.3327 24V25.3333V28H34.666L37.3327 30.6667L38.666 32V30.6667V29.3333Z" fill="#619B27"/>
<path d="M34.666 24L34.6666 26.6678L35.9999 25.3333H37.3327V24H34.666Z" fill="#FFD400"/>
<path d="M54.6656 33.3321L55.999 31.9988V30.6658L52 30.6666L49.3333 28L52.0339 33.3311L54.6656 33.3321Z" fill="#619B27"/>
<path d="M57.3325 30.6667L59.9991 28H57.3325V25.3333V24L55.9991 26.6667H53.3325L55.9991 29.3333V30.667V32L57.3325 30.6667Z" fill="#FFD400"/>
<path d="M58.6668 25.3345L60.0001 26.6678L59.9991 24H57.3325V25.3333L58.6668 25.3345Z" fill="#619B27"/>
<path d="M42.5454 43.3953L42.6667 44.0014L44.0001 46.6681L45.3334 48.0014L48.0001 49.3347L50.6667 48.0014L52.0001 46.6681L53.3334 44.0014L53.4547 43.3953L48.0001 34.668L42.5454 43.3953ZM50.6569 41.3334V42.6667H48.6667V45.5006L50.6667 44.0013H52.0001V45.3346H50.6667L48.0001 48.0013L45.3334 45.3346H44.0001V44.0013H45.3334L47.3334 45.502V42.6666H45.3248V41.3333H47.3334V38.6666H48.6666V41.3333L50.6569 41.3334Z" fill="#619B27"/>
<path d="M47.3333 38.668V41.3347H45.3249V42.668H47.3333V45.5034L45.3333 44.0027H44V45.336H45.3333L48 48.0027L50.6667 45.336H52V44.0027H50.6667L48.6667 45.5019V42.668H50.6569V41.3347H48.6667V38.668H47.3333Z" fill="#FFD400"/>
<path d="M49.3334 33.3359H48.6667L53.7668 41.8359L54.6667 37.3359V34.6692V33.3359H49.3334Z" fill="#6D8DE4"/>
<path d="M46.6665 33.3359H44H41.3333V34.6692V37.3359L42.2332 41.8359L47.3333 33.3359H46.6665Z" fill="#6D8DE4"/>
<path d="M48.0001 33.3359H47.3334L42.2334 41.8359L42.5455 43.3965L48.0001 34.6692L53.4547 43.3965L53.7668 41.8359L48.6668 33.3359H48.0001Z" fill="#FFD400"/>
<path d="M47.3333 33.3343H48L52.0343 33.3331L52.0339 33.3321L49.3333 28.001H48H46.6665H45.3333H44.0014V26.6676H45.3333H46.6665H48H49.3333L52.0021 24.001L45.3333 24L44 25.3343V26.6665L43.9995 27.9924L41.3333 30.6586L43.9998 30.6646L44 32.001V33.3343H46.6665H47.3333Z" fill="#999999"/>
<path d="M45.3334 26.668H44.0017V28.0013H45.3334V26.668Z" fill="#619B27"/>
<path d="M48 26.668H46.6667V28.0013H48V26.668Z" fill="#619B27"/>
<path d="M46.6665 26.668H45.3333V28.0013H46.6665V26.668Z" fill="#FFD400"/>
<path d="M49.3333 26.668H48V28.0013H49.3333V26.668Z" fill="#FFD400"/>
<path d="M32 8.00138V6.66808H26.8073L32 3.20628V1.60388L24.4036 6.66808H20V6.39898L29.4284 0.113281C28.4256 0.193081 27.4362 0.318681 26.4614 0.488881L20 4.79658V2.33638C19.5501 2.51858 19.1061 2.71108 18.6667 2.91278V8.00138H32Z" fill="white"/>
<path d="M13.3332 6.01562C12.4707 6.63633 11.6403 7.29782 10.8452 7.99932H13.3332V6.01562Z" fill="white"/>
<path d="M18.6667 21.332H20V16.5369L27.1927 21.332H29.5964L20 14.9345V14.6654H24.4036L32 19.7296V18.1272L26.8073 14.6654H32V13.332H18.6667V21.332Z" fill="white"/>
<path d="M6.01626 13.332C5.70226 13.7684 5.39936 14.2129 5.10726 14.6653C5.08586 14.6984 5.06466 14.7317 5.04346 14.7649C4.50436 15.6063 4.00406 16.4741 3.54406 17.3669L7.59636 14.6654H12V14.9345L2.40356 21.332H4.80716L11.9999 16.5368V21.332H13.3332V13.332H6.01626Z" fill="white"/>
<path d="M20 6.6667H24.4036L32 1.6025V0C31.1335 0 30.2777 0.0444 29.4284 0.1119L20 6.3975V6.6667Z" fill="#F0263C"/>
<path d="M20 14.668V14.9371L29.5964 21.3346H32V19.7322L24.4036 14.668H20Z" fill="#F0263C"/>
<path d="M11.9999 14.9371V14.668H7.59632L3.54403 17.3695C2.88713 18.6444 2.31152 19.9672 1.82812 21.3346H2.40363L11.9999 14.9371Z" fill="#F0263C"/>
<path d="M13.3334 21.3321H18.6667V13.3321H32V7.99876H18.6667V2.91016C16.7831 3.77506 14.9987 4.81656 13.3334 6.01506V7.99876H10.8454C9.04316 9.58856 7.42306 11.3775 6.01636 13.3321H13.3335L13.3334 21.3321Z" fill="#F0263C"/>
</g>
</svg>
