<svg width="64" height="64" viewBox="0 0 64 64" fill="none" xmlns="http://www.w3.org/2000/svg">
<mask id="mask0_12133_19150" style="mask-type:luminance" maskUnits="userSpaceOnUse" x="0" y="0" width="64" height="64">
<path d="M64 0H0V64H64V0Z" fill="white"/>
</mask>
<g mask="url(#mask0_12133_19150)">
<path d="M64 32C64 14.3269 49.6731 0 32 0C28.2588 0 24.6705 0.6482 21.3333 1.828V62.1719C24.6704 63.3518 28.2588 64 32 64C49.6731 64 64 49.6731 64 32Z" fill="#F0263C"/>
<path d="M0 32.0001C0 45.932 8.9061 57.7783 21.3333 62.172V1.82812C8.9061 6.22192 0 18.0681 0 32.0001Z" fill="#1E5B00"/>
<path d="M21.3333 18.668C14.7059 18.668 9.33325 24.0406 9.33325 30.668C9.33325 37.2954 14.7059 42.668 21.3333 42.668C27.9607 42.668 33.3333 37.2955 33.3333 30.668C33.3333 24.0405 27.9607 18.668 21.3333 18.668ZM30.5094 32.0013L29.2352 32.6384C29.1506 33.2211 29.0061 33.7889 28.8148 34.3393L31.7709 32.8612C31.5208 34.0529 31.0629 35.1659 30.4505 36.1758L28.7639 34.4892C28.6003 34.9349 28.4043 35.368 28.1726 35.7835L29.2526 36.8633L27.2301 37.1522C26.6946 37.7906 26.074 38.3239 25.4018 38.7601L28.7973 38.275C27.021 40.0182 24.6387 41.1365 22 41.3008V39.9573C21.7785 39.9779 21.5573 40.0012 21.3333 40.0012C21.1093 40.0012 20.8881 39.9778 20.6666 39.9573V41.3008C18.0278 41.1365 15.6456 40.0181 13.8692 38.275L17.2647 38.7601C16.5925 38.3239 15.9719 37.7907 15.4364 37.1522L13.4139 36.8633L14.4939 35.7835C14.2621 35.368 14.0662 34.9349 13.9026 34.4892L12.216 36.1758C11.6035 35.1659 11.1457 34.0528 10.8956 32.8612L13.8518 34.3393C13.6606 33.7889 13.5161 33.2211 13.4314 32.6384L12.1572 32.0013L13.3382 31.4108C13.3375 31.3651 13.3333 31.3199 13.3333 31.274V29.9226L10.6956 31.2413C10.6854 31.0503 10.6665 30.8615 10.6665 30.6679C10.6665 29.6541 10.8177 28.6766 11.0831 27.7468L13.3332 29.247V27.6445L12.1704 26.8694L13.3332 26.4818V25.0801L11.9941 25.5246C12.3704 24.844 12.8228 24.2126 13.3332 23.6338V22.6678H14.3012C16.024 21.1554 18.2347 20.1864 20.6666 20.0349V22.6678H21.9999V20.0349C24.4318 20.1864 26.6424 21.1554 28.3651 22.6678H29.3332V23.634C29.8428 24.212 30.2946 24.8425 30.6706 25.5219L29.3332 25.0761V26.4817L30.496 26.8693L29.3332 27.6444V29.2468L31.5833 27.7467C31.8487 28.6764 31.9999 29.654 31.9999 30.6678C31.9999 30.8614 31.9811 31.0501 31.9708 31.2412L29.3332 29.9225V31.2739C29.3332 31.3198 29.3289 31.3649 29.3283 31.4107L30.5094 32.0013Z" fill="#FFD400"/>
<path d="M26.6232 31.9987H24V29.332H26.6667V25.332H22.6667V27.9987H20V25.332H16V29.332H18.6667V31.9987H16.0435C16.0684 32.2295 16.1028 32.4569 16.1502 32.679C16.1554 32.7035 16.1586 32.729 16.1641 32.7534C16.3424 33.5439 16.6594 34.2732 17.0814 34.9078C17.1439 35.0018 17.215 35.0873 17.282 35.1769C17.6075 35.6123 17.9792 36.0019 18.3984 36.3196C18.6517 36.5115 18.9241 36.6706 19.2048 36.8117C19.4189 36.9193 19.6395 37.0114 19.867 37.0865C20.1354 37.175 20.4091 37.2487 20.6928 37.2879C20.9028 37.317 21.1165 37.3319 21.3332 37.3319C21.7666 37.3319 22.1881 37.2721 22.5917 37.1595C22.9954 37.0469 23.3812 36.8814 23.7434 36.6701C23.9245 36.5644 24.0996 36.4473 24.2681 36.3196C24.6873 36.0019 25.059 35.6123 25.3845 35.1769C25.4515 35.0873 25.5227 35.0017 25.5851 34.9078C26.0071 34.2732 26.324 33.5439 26.5024 32.7534C26.5079 32.729 26.5111 32.7036 26.5163 32.679C26.5637 32.4569 26.5983 32.2295 26.6232 31.9987ZM20 29.332H22.6667V31.9987H20V29.332ZM22.6667 35.9987H20V33.332H22.6667V35.9987Z" fill="white"/>
<path d="M17.3333 24.0013L16 25.3346H20H21.3333L20 24.0013L21.3333 22.668H20.6667H16L17.3333 24.0013Z" fill="#F0263C"/>
<path d="M27.9999 24.0013L26.6666 25.3346V29.3346V30.668L27.9999 29.3346L29.3332 30.668V29.9226V29.247V27.6446V26.4819V25.3346V25.0763V23.6342V22.668H28.3651H26.6666L27.9999 24.0013Z" fill="#F0263C"/>
<path d="M22.6667 24.0013L21.3333 25.3346H22.6667H26.6667L25.3333 24.0013L26.6667 22.668H22H21.3333L22.6667 24.0013Z" fill="#F0263C"/>
<path d="M16 30.668V29.3346V25.3346L14.6667 24.0013L16 22.668H14.3013H13.3333V23.6339V25.0802V25.3346V26.4819V27.6446V29.2471V29.9226V30.668L14.6667 29.3346L16 30.668Z" fill="#F0263C"/>
<path d="M29.3332 30.6681L27.9999 32.0014L26.6666 30.6681V31.2741V32.0014H26.6231C26.5982 32.2322 26.5638 32.4596 26.5164 32.6817C26.5112 32.7062 26.508 32.7317 26.5025 32.7561C26.3242 33.5466 26.0072 34.2759 25.5852 34.9105C25.5227 35.0045 25.4516 35.09 25.3846 35.1796C25.0591 35.615 24.6874 36.0046 24.2682 36.3223C24.0997 36.45 23.9246 36.5671 23.7435 36.6728C23.3814 36.8841 22.9955 37.0496 22.5918 37.1622C22.1882 37.2748 21.7667 37.3346 21.3333 37.3346C21.1166 37.3346 20.9029 37.3197 20.6929 37.2906C20.4092 37.2514 20.1354 37.1777 19.8671 37.0892C19.6395 37.0142 19.419 36.922 19.2049 36.8144C18.9241 36.6733 18.6517 36.5142 18.3985 36.3223C17.9793 36.0046 17.6076 35.615 17.2821 35.1796C17.2151 35.09 17.1439 35.0044 17.0815 34.9105C16.6595 34.2759 16.3426 33.5466 16.1642 32.7561C16.1587 32.7317 16.1555 32.7063 16.1503 32.6817C16.1029 32.4596 16.0685 32.2322 16.0436 32.0014H16.0001V31.2741V30.668L14.6668 32.0013L13.3335 30.668V31.2741C13.3335 31.32 13.3378 31.3651 13.3384 31.4109C13.3443 31.8246 13.3729 32.235 13.4316 32.6385C13.5163 33.2212 13.6608 33.789 13.852 34.3394C13.8693 34.3892 13.8847 34.4398 13.9029 34.4893C14.0665 34.935 14.2624 35.3681 14.4942 35.7836C14.6087 35.9888 14.7303 36.1905 14.8611 36.387C15.0399 36.6559 15.2335 36.9098 15.4368 37.1522C15.9722 37.7906 16.5929 38.3239 17.2651 38.7601C18.297 39.4297 19.4568 39.8449 20.6669 39.9574C20.8884 39.978 21.1096 40.0013 21.3336 40.0013C21.5576 40.0013 21.7788 39.9779 22.0003 39.9574C23.2105 39.8449 24.3703 39.4297 25.4022 38.7601C26.0744 38.3239 26.695 37.7907 27.2305 37.1522C27.4338 36.9098 27.6274 36.6559 27.8062 36.3869C27.9369 36.1903 28.0586 35.9887 28.173 35.7835C28.4048 35.368 28.6008 34.9349 28.7643 34.4892C28.7825 34.4397 28.7979 34.3891 28.8152 34.3393C29.0064 33.7889 29.1509 33.2211 29.2356 32.6384C29.2942 32.2349 29.3229 31.8245 29.3288 31.4108C29.3295 31.3651 29.3337 31.3199 29.3337 31.274L29.3332 30.6681ZM17.3332 38.0014L18.6665 36.6681L19.9998 38.0014L18.6665 39.3347L17.3332 38.0014ZM25.3332 38.0014L23.9999 39.3347L22.6666 38.0014L23.9999 36.6681L25.3332 38.0014Z" fill="#F0263C"/>
<path d="M22.6667 27.9987V25.332H21.3333H20V27.9987H22.6667Z" fill="#2D25C5"/>
<path d="M22.6667 29.332H20V31.9987H22.6667V29.332Z" fill="#2D25C5"/>
<path d="M18.6667 31.9987V29.332H16V30.6654V31.2714V31.9987H16.0435H18.6667Z" fill="#2D25C5"/>
<path d="M26.6667 29.332H24V31.9987H26.6232H26.6667V31.2714V30.6654V29.332Z" fill="#2D25C5"/>
<path d="M22.6667 33.332H20V35.9987H22.6667V33.332Z" fill="#2D25C5"/>
<path d="M21.3332 22.668L19.9999 24.0013L21.3332 25.3346L22.6665 24.0013L21.3332 22.668Z" fill="#FFD400"/>
<path d="M15.9999 22.668L14.6666 24.0013L15.9999 25.3347L17.3333 24.0013L15.9999 22.668Z" fill="#FFD400"/>
<path d="M14.6667 29.332L13.3334 30.6653L14.6667 31.9986L16 30.6653L14.6667 29.332Z" fill="#FFD400"/>
<path d="M18.6667 36.668L17.3334 38.0013L18.6667 39.3346L20 38.0013L18.6667 36.668Z" fill="#FFD400"/>
<path d="M23.9999 36.668L22.6666 38.0013L23.9999 39.3346L25.3333 38.0013L23.9999 36.668Z" fill="#FFD400"/>
<path d="M27.9999 29.332L26.6666 30.6653L27.9999 31.9986L29.3333 30.6653L27.9999 29.332Z" fill="#FFD400"/>
<path d="M26.6666 22.668L25.3333 24.0013L26.6666 25.3347L27.9999 24.0013L26.6666 22.668Z" fill="#FFD400"/>
</g>
</svg>
