<svg width="64" height="64" viewBox="0 0 64 64" fill="none" xmlns="http://www.w3.org/2000/svg">
<mask id="mask0_12133_19192" style="mask-type:luminance" maskUnits="userSpaceOnUse" x="0" y="0" width="64" height="64">
<path d="M64 0H0V64H64V0Z" fill="white"/>
</mask>
<g mask="url(#mask0_12133_19192)">
<path d="M32 64C49.6731 64 64 49.6731 64 32C64 14.3269 49.6731 0 32 0C14.3269 0 0 14.3269 0 32C0 49.6731 14.3269 64 32 64Z" fill="white"/>
<path d="M9.37889 9.3789L12 12H56.9717C51.1071 4.6872 42.1034 0 32 0C22.6112 0 14.1667 4.0433 8.31299 10.484C8.65739 10.1051 9.01079 9.7343 9.37259 9.3727L9.37889 9.3789Z" fill="#F0263C"/>
<path d="M25.3333 25.3315L32 31.9982L25.3333 38.6649H63.2996C63.7555 36.5139 64 34.285 64 31.9982C64 29.0858 63.175 24.743 63.2996 25.3315H25.3333Z" fill="#F0263C"/>
<path d="M9.37886 54.6211L9.37256 54.6273C15.1635 60.4183 23.1635 64 32 64C42.1034 64 51.1071 59.3128 56.9717 52H12L9.37886 54.6211Z" fill="#F0263C"/>
<path d="M32 31.9985L9.3788 9.37729L9.3726 9.37109C3.5817 15.162 0 23.162 0 31.9985C0 40.835 3.5817 48.835 9.3726 54.6259L9.3788 54.6197L32 31.9985Z" fill="#2D25C5"/>
<path d="M16.2785 33.0567L18.0987 38.6589L13.3332 35.1965L8.56776 38.6589L10.388 33.0567L5.62256 29.5944H11.513L13.3332 23.9922L15.1535 29.5944H21.044L16.2785 33.0567Z" fill="white"/>
</g>
</svg>
