<svg width="64" height="64" viewBox="0 0 64 64" fill="none" xmlns="http://www.w3.org/2000/svg">
<mask id="mask0_12133_19015" style="mask-type:luminance" maskUnits="userSpaceOnUse" x="0" y="0" width="64" height="64">
<path d="M64 0H0V64H64V0Z" fill="white"/>
</mask>
<g mask="url(#mask0_12133_19015)">
<path d="M48.253 4.43359L4.43201 48.2547C7.18601 52.9157 11.086 56.8157 15.747 59.5697L59.568 15.7486C56.814 11.0876 52.914 7.18759 48.253 4.43359Z" fill="#FFD400"/>
<path d="M45.7971 3.11597L45.7781 3.11117C33.885 -2.56063 19.2178 -0.479132 9.36947 9.36927C-0.483326 19.222 -2.56263 33.8982 3.11877 45.7942L3.12207 45.7909L3.11617 45.7971C3.51847 46.6377 3.96057 47.455 4.43207 48.253L48.253 4.43187C47.455 3.96037 46.6377 3.51827 45.7971 3.11597Z" fill="#619B27"/>
<path d="M60.882 18.2065L60.8839 18.2021C60.4816 17.3615 60.0395 16.5442 59.568 15.7461L15.7469 59.5673C16.5449 60.0388 17.3622 60.4809 18.2028 60.8832L18.2059 60.8805C30.1018 66.5619 44.7778 64.4827 54.6305 54.63C64.4828 44.7776 66.5624 30.1021 60.882 18.2065Z" fill="#F0263C"/>
</g>
</svg>
