<svg width="64" height="64" viewBox="0 0 64 64" fill="none" xmlns="http://www.w3.org/2000/svg">
<mask id="mask0_12133_19016" style="mask-type:luminance" maskUnits="userSpaceOnUse" x="0" y="0" width="64" height="64">
<path d="M64 0H0V64H64V0Z" fill="white"/>
</mask>
<g mask="url(#mask0_12133_19016)">
<path d="M0 32H64C64 14.3269 49.6731 0 32 0C14.3269 0 0 14.3269 0 32Z" fill="#007ACC"/>
<path d="M4.2917 48H59.7084C62.4329 43.2921 64.0001 37.8307 64.0001 32H0C0 37.8307 1.5671 43.2921 4.2917 48Z" fill="#FFD400"/>
<path d="M4.29175 48C9.82545 57.562 20.1576 64 32 64C43.8424 64 54.1747 57.562 59.7084 48H4.29175Z" fill="#1E5B00"/>
<path d="M42.6664 21.341C44.1391 21.341 45.333 20.1471 45.333 18.6744C45.333 17.2017 44.1391 16.0078 42.6664 16.0078C41.1936 16.0078 39.9998 17.2017 39.9998 18.6744C39.9998 20.1471 41.1936 21.341 42.6664 21.341Z" fill="#FFD400"/>
<path d="M42.6667 10.668C38.2555 10.668 34.6667 14.2568 34.6667 18.668C34.6667 23.0792 38.2555 26.668 42.6667 26.668C47.0779 26.668 50.6667 23.0792 50.6667 18.668C50.6667 14.2568 47.078 10.668 42.6667 10.668ZM42.5338 23.675C39.7734 23.6017 37.5952 21.3046 37.6684 18.5441C37.7416 15.7837 40.0386 13.6053 42.7991 13.6785C45.5596 13.7518 47.738 16.0489 47.6647 18.8094C47.5915 21.5699 45.2943 23.7482 42.5338 23.675Z" fill="#FFD400"/>
</g>
</svg>
