<svg width="64" height="64" viewBox="0 0 64 64" fill="none" xmlns="http://www.w3.org/2000/svg">
<mask id="mask0_12133_19196" style="mask-type:luminance" maskUnits="userSpaceOnUse" x="0" y="0" width="64" height="64">
<path d="M64 0H0V64H64V0Z" fill="white"/>
</mask>
<g mask="url(#mask0_12133_19196)">
<path d="M32 0C14.3269 0 0 14.3269 0 32C0 49.6731 14.3269 64 32 64C49.6731 64 64 49.6731 64 32C64 14.3269 49.6731 0 32 0ZM16 54.6667L32 9.3333L48 54.6666L16 54.6667Z" fill="#4DAFE3"/>
<path d="M16 54.6654L21.656 46.6527L32 17.3444L42.344 46.6527L48 54.6654L32 9.33203L16 54.6654Z" fill="white"/>
<path d="M42.344 46.6521L32 17.3438L21.656 46.6521L32 31.9981L42.344 46.6521Z" fill="black"/>
<path d="M32 32L21.656 46.654L16 54.6667H48L42.344 46.654L32 32Z" fill="#FFD400"/>
</g>
</svg>
