<svg width="64" height="64" viewBox="0 0 64 64" fill="none" xmlns="http://www.w3.org/2000/svg">
<mask id="mask0_12133_19018" style="mask-type:luminance" maskUnits="userSpaceOnUse" x="0" y="0" width="64" height="64">
<path d="M64 0H0V64H64V0Z" fill="white"/>
</mask>
<g mask="url(#mask0_12133_19018)">
<path d="M32 64C49.6731 64 64 49.6731 64 32C64 14.3269 49.6731 0 32 0C14.3269 0 0 14.3269 0 32C0 49.6731 14.3269 64 32 64Z" fill="#2D25C5"/>
<path d="M32 8.00138V6.66808H26.8073L32 3.20628V1.60388L24.4036 6.66808H20V6.39898L29.4284 0.113281C28.4256 0.193081 27.4362 0.318681 26.4614 0.488881L20 4.79658V2.33638C19.5501 2.51858 19.1061 2.71108 18.6667 2.91278V8.00138H32Z" fill="white"/>
<path d="M13.3333 6.01562C12.4708 6.63633 11.6404 7.29782 10.8453 7.99932H13.3333V6.01562Z" fill="white"/>
<path d="M18.6667 21.332H20V16.5369L27.1927 21.332H29.5964L20 14.9345V14.6654H24.4036L32 19.7296V18.1272L26.8073 14.6654H32V13.332H18.6667V21.332Z" fill="white"/>
<path d="M6.01626 13.332C5.70226 13.7684 5.39936 14.2129 5.10726 14.6653C5.08586 14.6984 5.06466 14.7317 5.04346 14.7649C4.50436 15.6063 4.00406 16.4741 3.54406 17.3669L7.59636 14.6654H12V14.9345L2.40356 21.332H4.80716L11.9999 16.5368V21.332H13.3332V13.332H6.01626Z" fill="white"/>
<path d="M20 6.6667H24.4036L32 1.6025V0C31.1335 0 30.2777 0.0444 29.4284 0.1119L20 6.3975V6.6667Z" fill="#F0263C"/>
<path d="M20 14.668V14.9371L29.5964 21.3346H32V19.7322L24.4036 14.668H20Z" fill="#F0263C"/>
<path d="M12.0001 14.9371V14.668H7.59645L3.54415 17.3695C2.88725 18.6444 2.31165 19.9672 1.82825 21.3346H2.40375L12.0001 14.9371Z" fill="#F0263C"/>
<path d="M13.3332 21.3321H18.6665V13.3321H31.9998V7.99876H18.6665V2.91016C16.7829 3.77506 14.9985 4.81656 13.3332 6.01506V7.99876H10.8452C9.04302 9.58856 7.42294 11.3775 6.01624 13.3321H13.3333L13.3332 21.3321Z" fill="#F0263C"/>
<path d="M47.3333 41.332L46.3333 40.332L45.3333 41.332H45.2445L45.3333 42.6654H47.3333L47.4222 41.332H47.3333Z" fill="#007ACC"/>
<path d="M50.6667 40.0013L49.3333 38.668L48.6667 39.3346H48.4445L48.4889 40.0013H50L48.6667 41.3346H48.5778L48.6667 42.668H49.3333L50.6667 41.3346L50.7692 40.0013H50.6667Z" fill="#007ACC"/>
<path d="M44.0891 41.3333H44L42.6667 40L44 42.6667L44.0891 41.3333Z" fill="#007ACC"/>
<path d="M47.5111 39.9987L47.5555 39.332H47.3333L46.3333 38.332L45.3333 39.332H45.1112L45.1556 39.9987H46H46.6667H47.5111Z" fill="#007ACC"/>
<path d="M48.1333 34.6667L48.2222 36H49.3333H50H51.0768L51.1283 35.3333H50.6667L49.3333 34L48.6667 34.6667H48.1333Z" fill="#007ACC"/>
<path d="M51.8975 40.0013L51.9505 40.6927L53.3333 40.0013V38.668L52 40.0013H51.8975Z" fill="#007ACC"/>
<path d="M44.8444 35.3333L44.8888 36H46H46.6667H47.7778L47.8667 34.6667H47.3333L46.6667 34L45.3333 35.3333H44.8444Z" fill="#007ACC"/>
<path d="M48.3112 37.332L48.3555 37.9987H50L49.3333 38.6654H50.8717L50.9743 37.332H50.6667L49.6667 36.332L48.6667 37.332H48.3112Z" fill="#007ACC"/>
<path d="M47.6445 37.9987L47.6888 37.332H47.3333L46.3333 36.332L45.3333 37.332H44.9779L45.0221 37.9987H46H46.6667H47.6445Z" fill="#007ACC"/>
<path d="M46.6665 32H44H37.3333V33.3333L38.6665 37.3333L40 34.6667L41.3333 36L42.6665 40H44.1777L44.222 39.3333H44L42.6665 38H44.3111L44.3554 37.3333H44L42.6665 36H44.4445L44.4888 35.3333H44L42.6665 34H44.5778L44.6665 32.6667L44.7555 34H46.6665L46 33.3333H47.9556L48 32.6667L48.0443 33.3333H50L49.3333 34H51.2308L51.3333 32.6667L51.4359 34H53.3333L52 35.3333H51.5382L51.5898 36H53.3333L52 37.3333H51.6924L51.7948 38.6667H53.3333V37.3333H55.9277L56 37.1169V32H49.3333H46.6665Z" fill="#007ACC"/>
<path d="M53.7778 38.6666L54.4001 40.5332L54.7952 40.7309L55.8918 37.4414L54.6667 38.6666H53.7778Z" fill="#007ACC"/>
<path d="M47.3333 28.668L46 31.3346L46.6667 32.0013L47.3333 31.3346V28.668Z" fill="#FFE566"/>
<path d="M51.8358 22.668H41.4976L37.3333 23.709V32.0013H44L45.3333 31.3346L46.6665 28.668L44.6665 27.3346V26.0013L44 24.668H41.3333L43.3333 24.0013L44 23.3346H45.3333L46 24.668L46.6665 26.0013H48L49.3333 27.3346L52 28.668L50 29.3346L48.6665 28.668H48V31.3346L49.3333 32.0013H56V23.709L51.8358 22.668Z" fill="#FFE566"/>
<path d="M41.3333 43.9987V42.6654H42.6665L41.3333 41.332L44 42.6654L42.6665 39.9987L41.3333 35.9987L40 34.6654L38.6665 37.332L37.3333 33.332V37.1156L39.832 44.6118L41.6095 46.3892L42.6665 45.332L41.3333 43.9987Z" fill="#CC9500"/>
<path d="M51.6926 37.3347H52L53.3335 36.0014H51.59L51.5384 35.3347H52L53.3335 34.0014H51.4358L51.3335 32.6681L51.2309 34.0014H49.3335L50.6666 35.3347H51.1283L51.077 36.0014H48.2221L48.1334 34.6681H48.6666L49.3335 34.0014L50 33.3347H48.0444L48 32.668L47.9557 33.3347H46L46.6667 34.0014L47.3335 34.6681H47.8668L47.778 36.0014H44.889L44.8447 35.3347H45.3335L46.6667 34.0014H44.7556L44.6667 32.6681L44.5779 34.0014H42.6667L44 35.3347H44.4889L44.4445 36.0014H42.6667L44 37.3347H44.3555L44.3112 38.0014H42.6667L44 39.3347H44.2222L44.1778 40.0014H42.6667L44 41.3347H44.0891L44 42.668H45.3335L45.2444 41.3347H45.3335L46.3335 40.3347L47.3335 41.3347H47.4222L47.3335 42.668H48.6666L48.5779 41.3347H48.6666L50 40.0014H48.4888L48.4445 39.3347H48.6666L49.3335 38.668L50 38.0013H48.3555L48.3112 37.3346H48.6667L49.6667 36.3346L50.6667 37.3346H50.9743L50.8718 38.6679L49.3335 38.668L50.6667 40.0012H50.7692L50.6667 41.3345L51.9506 40.6925L51.8975 40.0011H52L53.3335 38.6678H51.7949L51.6926 37.3347ZM47.5112 40.0014H45.1558L45.1112 39.3347H45.3335L46.3335 38.3347L47.3335 39.3347H47.5556L47.5112 40.0014ZM47.6446 38.0014H45.0224L44.9781 37.3347H45.3335L46.3335 36.3347L47.3335 37.3347H47.6889L47.6446 38.0014Z" fill="#FFD400"/>
<path d="M54.4002 40.5346L53.7779 38.668H53.3334V40.0013L54.4002 40.5346Z" fill="#FFD400"/>
<path d="M44 44.0013L42.6665 42.668H41.3333V44.0013L42.6665 45.3346L41.6095 46.3918L42.0149 46.7973L46.6665 47.9602L51.3184 46.7973L53.5013 44.6144L53.7057 44.0013H45.3333H44Z" fill="#4DAFE3"/>
<path d="M46 31.3346L47.3333 28.668H46.6667L45.3333 31.3346L44 32.0013H46.6667L46 31.3346Z" fill="#999999"/>
<path d="M45.3333 25.9987L46.6665 27.332L48 28.6654H48.6665L50 29.332L52 28.6654L49.3333 27.332L48 25.9987H46.6665L46 24.6654L45.3333 23.332H44L43.3333 23.9987L41.3333 24.6654H44H45.3333V25.9987Z" fill="#999999"/>
<path d="M47.3335 31.3346L46.6667 32.0013H49.3335L48 31.3346V28.668H47.3335V31.3346Z" fill="#999999"/>
<path d="M48 28.668L46.6667 27.3346L45.3333 26.0013V24.668H44L44.6667 26.0013V27.3346L46.6667 28.668H47.3333H48Z" fill="#C8C8C8"/>
<path d="M53.3333 40L51.9505 40.6914L50.6665 41.3333L49.3333 42.6667H48.6665H47.3333H45.3333H44L41.3333 41.3333L42.6665 42.6667L44 44H45.3333H53.7057L54.7952 40.731L54.4001 40.5333L53.3333 40Z" fill="black"/>
<path d="M52 21.332H41.3333L36 22.6653V37.332L38.6667 45.332L41.3334 47.9987L46.6667 49.332L52 47.9987L54.6667 45.332L57.3334 37.332V22.6653L52 21.332ZM56 37.1156L55.9279 37.332H56L55.8918 37.4402L54.7953 40.7297L53.7058 43.9987L53.5014 44.6118L51.3185 46.7947L46.6668 47.9576L42.0151 46.7947L41.6097 46.3892L39.8322 44.6118L37.3335 37.1157V23.7064L41.4977 22.6654H51.8359L56.0001 23.7064L56 37.1156Z" fill="white"/>
<path d="M53.3333 38.6654H53.7778H54.6665L55.8918 37.4402L56 37.332H55.9277H53.3333V38.6654Z" fill="white"/>
</g>
</svg>
