<svg width="64" height="64" viewBox="0 0 64 64" fill="none" xmlns="http://www.w3.org/2000/svg">
<mask id="mask0_12133_19199" style="mask-type:luminance" maskUnits="userSpaceOnUse" x="0" y="0" width="64" height="64">
<path d="M64 0H0V64H64V0Z" fill="white"/>
</mask>
<g mask="url(#mask0_12133_19199)">
<path d="M32 64C49.6731 64 64 49.6731 64 32C64 14.3269 49.6731 0 32 0C14.3269 0 0 14.3269 0 32C0 49.6731 14.3269 64 32 64Z" fill="#FFD400"/>
<path d="M0 32.0011C0 43.8435 6.4379 54.1756 15.9998 59.7093V4.29297C6.4379 9.82667 0 20.1587 0 32.0011Z" fill="#191977"/>
<path d="M47.9998 4.29297V59.7098C57.5602 54.1772 63.9974 43.8476 63.9998 32.0078V31.9949C63.9974 20.1551 57.5602 9.82557 47.9998 4.29297Z" fill="#619B27"/>
<path d="M21.3333 32.0073L26 24L30.6667 32.0075L26 40L21.3333 32.0073ZM38 40L42.6667 32.0075L38 24L33.3333 32.0073L38 40ZM32 49.3333L36.6667 41.3408L32 33.3333L27.3333 41.3406L32 49.3333Z" fill="#619B27"/>
<path d="M32 64C49.6731 64 64 49.6731 64 32C64 14.3269 49.6731 0 32 0C14.3269 0 0 14.3269 0 32C0 49.6731 14.3269 64 32 64Z" fill="#FFD400"/>
<path d="M0 32.0011C0 43.8435 6.4379 54.1756 15.9998 59.7093V4.29297C6.4379 9.82667 0 20.1587 0 32.0011Z" fill="#191977"/>
<path d="M47.9998 4.29297V59.7098C57.5602 54.1772 63.9974 43.8476 63.9998 32.0078V31.9949C63.9974 20.1551 57.5602 9.82557 47.9998 4.29297Z" fill="#619B27"/>
<path d="M21.3333 32.0073L26 24L30.6667 32.0075L26 40L21.3333 32.0073ZM38 40L42.6667 32.0075L38 24L33.3333 32.0073L38 40ZM32 49.3333L36.6667 41.3408L32 33.3333L27.3333 41.3406L32 49.3333Z" fill="#619B27"/>
</g>
</svg>
