<svg width="64" height="64" viewBox="0 0 64 64" fill="none" xmlns="http://www.w3.org/2000/svg">
<mask id="mask0_12133_19195" style="mask-type:luminance" maskUnits="userSpaceOnUse" x="0" y="0" width="64" height="64">
<path d="M64 0H0V64H64V0Z" fill="white"/>
</mask>
<g mask="url(#mask0_12133_19195)">
<path d="M45.7942 3.1187C33.8983 -2.5626 19.2222 -0.483294 9.3694 9.3694C-0.483294 19.2221 -2.5626 33.8983 3.1187 45.7942L45.7942 3.1187Z" fill="#619B27"/>
<path d="M60.8813 18.207L18.2058 60.8824C30.1017 66.5637 44.7778 64.4844 54.6305 54.6317C64.4833 44.7789 66.5627 30.1029 60.8813 18.207Z" fill="#F0263C"/>
<path d="M48.253 4.43359L4.43201 48.2546C7.18601 52.9156 11.086 56.8156 15.747 59.5696L59.568 15.7486C56.814 11.0876 52.914 7.18749 48.253 4.43359Z" fill="black"/>
<path d="M45.7971 3.11719L3.11621 45.7981C3.51851 46.6387 3.96061 47.456 4.43211 48.254L48.253 4.43299C47.455 3.96149 46.6377 3.51949 45.7971 3.11719Z" fill="#FFD400"/>
<path d="M59.568 15.7461L15.7469 59.5671C16.5449 60.0386 17.3622 60.4807 18.2028 60.883L60.8839 18.202C60.4816 17.3614 60.0395 16.5441 59.568 15.7461Z" fill="#FFD400"/>
<path d="M44.4922 21.6617L49.7406 24.3359L43.9227 25.2575L43.0012 31.0753L40.327 25.827L34.509 26.7484L38.6742 22.5833L36 17.3347L41.2484 20.0089L45.4136 15.8438L44.4922 21.6617Z" fill="white"/>
<path d="M25.8255 40.4741L31.0739 43.1483L25.256 44.0698L24.3345 49.8878L21.6603 44.6393L15.8424 45.5608L20.0076 41.3956L17.3333 36.1471L22.5818 38.8214L26.747 34.6562L25.8255 40.4741Z" fill="white"/>
</g>
</svg>
