<svg width="64" height="64" viewBox="0 0 64 64" fill="none" xmlns="http://www.w3.org/2000/svg">
<mask id="mask0_12133_19194" style="mask-type:luminance" maskUnits="userSpaceOnUse" x="0" y="0" width="64" height="64">
<path d="M64 0H0V64H64V0Z" fill="white"/>
</mask>
<g mask="url(#mask0_12133_19194)">
<path d="M32 64C49.6731 64 64 49.6731 64 32C64 14.3269 49.6731 0 32 0C14.3269 0 0 14.3269 0 32C0 49.6731 14.3269 64 32 64Z" fill="white"/>
<path d="M41.3333 27.9987V21.332H22.6666V27.9987H41.3333ZM37.3333 22.6654L39.3333 24.6654L37.3333 26.6654L35.3333 24.6654L37.3333 22.6654ZM32 22.6654L34 24.6654L32 26.6654L30 24.6654L32 22.6654ZM26.6667 22.6654L28.6667 24.6654L26.6667 26.6654L24.6667 24.6654L26.6667 22.6654Z" fill="#2D25C5"/>
<path d="M36 20.0001L41.3333 21.3334L44 14.6667L38.6667 13.3334V14.6667H36V12H28V14.6667H25.3333V13.3334L20 14.6667L22.6667 21.3334L28 20.0001H36ZM40 16.0001L41.3333 17.3334L40 18.6667L38.6667 17.3334L40 16.0001ZM32 14.6668L33.3333 16.0001L32 17.3334L30.6667 16.0001L32 14.6668ZM24 18.6668L22.6667 17.3335L24 16.0002L25.3333 17.3335L24 18.6668Z" fill="#FFD400"/>
<path d="M35.9999 20H27.9999L22.6666 21.3333H41.3332L35.9999 20Z" fill="#999999"/>
<path d="M24 37.3347L25.3333 38.668L29.3333 41.3347L32.0317 42.7583L34.6666 41.3347L38.6666 38.668L40.6666 36.0013L41.3333 34.668H22.6666L23.3333 36.0013L24 37.3347ZM34.6667 36.0014H37.3334V38.6681H34.6667V36.0014ZM30.6667 38.6681H33.3334V41.3348H30.6667V38.6681ZM26.6667 36.0014H29.3334V38.6681H26.6667V36.0014Z" fill="#2D25C5"/>
<path d="M32 22.668L30 24.668L32 26.668L34 24.668L32 22.668Z" fill="#FFD400"/>
<path d="M31.9999 14.668L30.6666 16.0013L31.9999 17.3346L33.3333 16.0013L31.9999 14.668Z" fill="#999999"/>
<path d="M23.9999 16L22.6666 17.3333L23.9999 18.6667L25.3333 17.3333L23.9999 16Z" fill="#999999"/>
<path d="M39.9999 16L38.6666 17.3333L39.9999 18.6667L41.3333 17.3333L39.9999 16Z" fill="#999999"/>
<path d="M37.3331 22.668L35.3333 24.668L37.3331 26.668L39.3331 24.668L37.3331 22.668Z" fill="#FFD400"/>
<path d="M26.6667 22.668L24.6667 24.668L26.6667 26.668L28.6667 24.668L26.6667 22.668Z" fill="#FFD400"/>
<path d="M44 39.332L45.3333 38.6654V37.7866L44 37.332V39.332Z" fill="#F0263C"/>
<path d="M46.6666 39.1405L47.9999 38.6968L46.6666 38.2422V39.1405Z" fill="#F0263C"/>
<path d="M17.3333 38.7266V38.2422L16 38.6968L17.3333 39.1405V38.7266Z" fill="#F0263C"/>
<path d="M18.6666 37.7866V38.6654L19.9999 39.332V37.332L18.6666 37.7866Z" fill="#F0263C"/>
<path d="M44 42.6654L40 41.332V45.332L44 42.6654Z" fill="#F0263C"/>
<path d="M20 42.6654L24 45.332V41.332L20 42.6654Z" fill="#F0263C"/>
<path d="M22.6666 35.9987V34.6654V33.332L21.3332 35.9987L19.9999 34.6654L18.6666 35.9987L21.3332 37.332L22.6666 35.9987Z" fill="#FFD400"/>
<path d="M18.6667 35.9986L20 34.6653L22.6667 31.9986V30.6653L21.3334 27.9986L19.3334 26.6653L18.6667 25.332V23.9987L20 22.6654L18.6667 21.3321H17.3334L16.6667 22.6654L16 23.9987V25.332L14.6667 23.9987L16 21.332L10.6667 22.6653L9.33337 27.9986L12.0001 30.6653H13.3334L12.0001 31.9986H14.6668L13.3335 33.3319H14.6668V34.6652L12.0001 38.6652H14.6668L16.6668 36.6652L17.3335 37.3319H18.6668L18.6667 35.9986ZM17.3334 27.9986L18.6667 29.3319H17.3334V27.9986Z" fill="#C8C8C8"/>
<path d="M22.6666 28.0013V26.668L19.9999 22.668L18.6666 24.0013L22.6666 28.0013Z" fill="#FFD400"/>
<path d="M41.3333 33.332V34.6654V35.9987L42.6665 37.332L44 36.6654L45.3333 35.9987L44 34.6654L42.6665 35.9987L41.3333 33.332Z" fill="#FFD400"/>
<path d="M54.6667 27.9986L53.3334 22.6653L48.0001 21.332L49.3334 23.9987L48.0001 25.332V23.9987L47.3334 22.6654L46.6667 21.3321H45.3334L44.0001 22.6654L45.3334 23.9987V25.332L44.6667 26.6653L42.6667 27.9986L41.3334 30.6653V31.9986L44.0001 34.6653L45.3334 35.9986V37.3319H46.6667L47.3334 36.6652L49.3334 38.6652H52.0001L49.3334 34.6652V33.3319H50.6667L49.3334 31.9986H52.0001L50.6668 30.6653H52.0001L54.6667 27.9986ZM46.6667 29.3319H45.3334L46.6667 27.9986V29.3319Z" fill="#C8C8C8"/>
<path d="M41.3333 28.0013L45.3333 24.0013L44 22.668L41.3333 26.668V27.3346V28.0013Z" fill="#FFD400"/>
<path d="M45.3333 37.7866V38.6654L44 39.332L42.6667 39.9987L43.2272 40.279L40 41.332L44 42.6654L40 45.332L37.2313 46.6654H26.6667L24 45.332L20 42.6654L24 41.332L20.7728 40.279L21.3333 39.9987L20 39.332L18.6667 38.6654V37.7866V37.332H17.3333V38.2411V38.7255V39.1394L16 38.6957V42.6654L20 43.9987V46.6654L24 49.332L28 50.6719H36L40 49.332L44 46.6654V43.9987L48 42.6654V38.6957L46.6667 39.1394V38.2411V37.332H45.3333V37.7866Z" fill="#FFD400"/>
<path d="M29.3333 36H26.6666V38.6667H29.3333V36Z" fill="#FFD400"/>
<path d="M37.3333 36H34.6666V38.6667H37.3333V36Z" fill="#FFD400"/>
<path d="M33.3333 38.668H30.6666V41.3347H33.3333V38.668Z" fill="#FFD400"/>
<path d="M41.3334 28H22.6667V34.6667H41.3334V28Z" fill="#F0263C"/>
<path d="M32 34.0014L29.3333 31.3347L32 28.668L34.6667 31.3347L32 34.0014Z" fill="#F0F0F0"/>
</g>
</svg>
