<svg width="64" height="64" viewBox="0 0 64 64" fill="none" xmlns="http://www.w3.org/2000/svg">
<mask id="mask0_12133_19153" style="mask-type:luminance" maskUnits="userSpaceOnUse" x="0" y="0" width="64" height="64">
<path d="M64 0H0V64H64V0Z" fill="white"/>
</mask>
<g mask="url(#mask0_12133_19153)">
<path d="M32 0C14.3269 0 0 14.3269 0 32H64C64 14.3269 49.6731 0 32 0Z" fill="white"/>
<path d="M32 42.6667L29.3333 41.3333L28 40V41.3333H26.6667V42.6667H32Z" fill="#4DAFE3"/>
<path d="M40 40.0013L38.6665 38.668L37.3333 41.3346H40V40.0013Z" fill="#4DAFE3"/>
<path d="M40 32V34.6667L41.3333 32H40Z" fill="#4DAFE3"/>
<path d="M42.6667 34.6667H44L45.3335 32H44L42.6667 33.3333V34.6667Z" fill="#4DAFE3"/>
<path d="M25.3333 38.668L24 40.0013V41.3346H26.6667L25.3333 38.668Z" fill="#4DAFE3"/>
<path d="M22.6667 32L24 34.6667V32H22.6667Z" fill="#4DAFE3"/>
<path d="M37.3333 41.3333H36V40L34.6667 41.3333L32 42.6667H37.3333V41.3333Z" fill="#4DAFE3"/>
<path d="M24 37.3333L21.3333 36L22.6667 38.6667L24 37.3333Z" fill="#4DAFE3"/>
<path d="M21.3333 34.6667V33.3333L20 32H18.6667L20 34.6667H21.3333Z" fill="#4DAFE3"/>
<path d="M41.3333 38.6667L42.6667 36L40 37.3333L41.3333 38.6667Z" fill="#4DAFE3"/>
<path d="M48 32L46.6667 34.6667L45.3334 36L44.0001 37.3333L46.6668 38.6666L45.3335 39.9999H42.6668L44.0001 41.3332H45.3334V43.9999L42.6667 42.6666H40V43.9999H37.3333V45.3332H26.6666V43.9999H23.9999V42.6666H21.3332L18.6665 43.9999V41.3332H19.9998L21.3331 39.9999H18.6664L17.3331 38.6666L19.9998 37.3333L18.6665 36L17.3332 34.6667L15.9999 32H0C0 49.6731 14.3269 64 32 64C49.6731 64 64 49.6731 64 32H48Z" fill="#4DAFE3"/>
<path d="M26.6667 34.668H28V29.3346H29.3333V34.668H30.6667V29.3346H33.3333V34.668H34.6667V29.3346H36V34.668H37.3333V28.0013H34.6667L32 26.668L29.3333 28.0013H26.6667V34.668Z" fill="#4DAFE3"/>
<path d="M25.3333 30.668L24 31.3347V34.668H25.3333V36.0013L26.6666 37.3346L27.9999 40.0013L29.3332 41.3346L31.9999 42.6679L34.6666 41.3346L35.9999 40.0013L37.3332 37.3346L38.6665 36.0013V34.668H39.9998V31.3347L38.6665 30.668V28.0013L39.9998 29.3346V28.0013L37.3331 25.3346H35.9998V24.0013L37.3331 22.668L38.6664 21.3347L35.9997 18.668H33.333V16.0013L31.9997 14.668L30.6664 16.0013V18.668H27.9997L25.333 21.3347L26.6663 22.668L27.9996 24.0013V25.3346H26.6663L23.9996 28.0013V29.3346L25.3329 28.0013L25.3333 30.668ZM34 20.0013H35.3333L36.6666 21.3346L35.3333 22.6679H34V20.0013ZM29.3333 20.0013H30.6666V22.668H29.3333L28 21.3347L29.3333 20.0013ZM29.3333 28.0013L32 26.668L34.6667 28.0013H37.3334V34.668L34.6667 38.668L32 40.668L29.3333 38.668L26.6666 34.668V28.0013H29.3333Z" fill="#CC9500"/>
<path d="M34.6667 34.668H33.3333H30.6667H29.3333H28H26.6667L29.3333 38.668L32 40.668L34.6667 38.668L37.3333 34.668H36H34.6667Z" fill="#1E5B00"/>
<path d="M30.6667 22.6667V20H29.3333L28 21.3333L29.3333 22.6667H30.6667Z" fill="white"/>
<path d="M36.6667 21.3333L35.3333 20H34V22.6667H35.3333L36.6667 21.3333Z" fill="white"/>
<path d="M18.6667 36.0014L20 37.3347L17.3333 38.668L18.6666 40.0013H21.3333L20 41.3346H18.6667V44.0013L21.3334 42.668H22.6667V41.3347H24V40.0014L25.3333 38.6681L26.6666 41.3348H27.9999V40.0015L26.6666 37.3348L25.3333 36.0015V34.6682H24L22.6667 32.0015L24 31.3348L25.3333 30.6681V28.0014L24 29.3347L22.6667 30.668V28.0013L24 26.668L25.3333 25.3347V22.668L22.6666 24.0013L21.3333 25.3346V30.6679L20 28.0012H18.6667V29.3345L20 32.0012L21.3333 33.3345V34.6678H20L18.6667 32.0011H16L17.3333 34.6678L18.6667 36.0014ZM24 37.3347L22.6667 38.668L21.3334 36.0013L24 37.3347Z" fill="#1E5B00"/>
<path d="M38.6667 30.6678L40 31.3345L41.3333 32.0012L40 34.6679H38.6667V36.0012L37.3334 37.3345L36.0001 40.0012V41.3345H37.3334L38.6667 38.6678L40 40.0011V41.3344H41.3333V42.6677H42.6666L45.3333 44.001V41.3343H44L42.6667 40.001H45.3334L46.6667 38.6677L44 37.3344L45.3333 36.0011L46.6666 34.6678L47.9999 32.0011H45.3332L43.9999 34.6678H42.6666V33.3345L43.9999 32.0012L45.3332 29.3345V28.0012H43.9999L42.6666 30.6679V25.3346L41.3333 24.0013L38.6666 22.668V25.3347L39.9999 26.668L41.3332 28.0013V30.668L39.9999 29.3347L38.6666 28.0014L38.6667 30.6678ZM41.3334 38.6678L40.0001 37.3345L42.6668 36.0012L41.3334 38.6678Z" fill="#1E5B00"/>
<path d="M40 41.332H37.3333V42.6654H32H26.6667V41.332H24H22.6667V42.6654H24V43.9987H26.6667V45.332H37.3333V43.9987H40V42.6654H41.3333V41.332H40Z" fill="white"/>
<path d="M29.3333 29.332H28V34.6653H29.3333V29.332Z" fill="white"/>
<path d="M36 29.332H34.6667V34.6653H36V29.332Z" fill="white"/>
<path d="M33.3334 29.332H30.6667V34.6653H33.3334V29.332Z" fill="white"/>
</g>
</svg>
