<svg width="64" height="64" viewBox="0 0 64 64" fill="none" xmlns="http://www.w3.org/2000/svg">
<g clip-path="url(#clip0_12133_19081)">
<mask id="mask0_12133_19081" style="mask-type:luminance" maskUnits="userSpaceOnUse" x="0" y="0" width="64" height="64">
<path d="M64 0H0V64H64V0Z" fill="white"/>
</mask>
<g mask="url(#mask0_12133_19081)">
<path d="M32 64C49.6731 64 64 49.6731 64 32C64 14.3269 49.6731 0 32 0C14.3269 0 0 14.3269 0 32C0 49.6731 14.3269 64 32 64Z" fill="#1E5B00"/>
<path d="M48 42.668H46.6667V44.0013H12L16 46.668H46.6667V48.0013H48V46.668H49.3333L50.6667 48.0013H52V44.0013H48V42.668Z" fill="white"/>
<path d="M54.6666 17.332V25.332L53.3333 23.9987V17.332H52V22.6654L50.6666 21.332V17.332H49.3333V19.9987L46.6666 17.332V18.6654V19.9987L48 21.332L49.3333 22.6654V26.6654L48 29.332L46.6666 27.9987H45.3333V29.332L44 30.6654L42.6666 29.332H41.3333L42.6666 31.9987H44H45.3333L46.6666 30.6654H49.3333L50.6666 27.9987V23.9987L52 25.332V29.332L53.3333 26.6654L54.6666 27.9987L52 30.6654V31.9987H53.3333L56 29.332V17.332H54.6666Z" fill="white"/>
<path d="M10.6667 22.6654L12 23.9987V26.6654H13.3333V23.9987L14.6667 22.6654H16V17.332H14.6667V20.6654V21.332H13.3333V17.332H12V21.332H10.6667V18.6654H9.3333V21.332H8V23.9987H9.3333L10.6667 22.6654Z" fill="white"/>
<path d="M17.3333 30.6654L18.6667 29.332V26.6654V25.332H22.6667V23.9987H18.6667V17.332H17.3333V23.9987H14.6667V26.6654H15.708L14.6667 27.9987H13.3333V29.332H14.6667L16 27.9987L17.1167 26.6654H17.3333V27.9987L14.6667 30.6654H13.3333L12 29.332V27.9987H10.6667V30.6654L12 31.9987H16L17.3333 30.6654Z" fill="white"/>
<path d="M21.3333 26.668H20V28.0013H21.3333V26.668Z" fill="white"/>
<path d="M22.6667 18.6654V17.332H21.3333V18.6654L20 19.9987V21.332L21.3333 19.9987L22.6667 18.6654Z" fill="white"/>
<path d="M22.6666 21.332H21.3333V22.6653H22.6666V21.332Z" fill="white"/>
<path d="M9.3333 29.332H8V30.6654L9.3333 31.9987H10.6667L9.3333 30.6654V29.332Z" fill="white"/>
<path d="M33.3333 17.332H32V19.9987V21.332L30.6667 19.9987V17.332H29.3333V19.9987L28 21.332V18.6654L26.6667 17.332L25.3333 21.332V18.6654H24V21.332L25.3333 22.6654L26.6667 21.332L28 22.6654H29.3333V21.332H30.6667V22.6654H32L33.3333 21.332V17.332Z" fill="white"/>
<path d="M34.6666 32.0013H36V30.668H33.3333L34.6666 32.0013Z" fill="white"/>
<path d="M41.3333 17.332H40V25.332L38.6667 22.6654L37.3333 19.9987V17.332H36V18.6654L34.6667 17.332V19.9987L36 21.332V25.332V26.6654H32L33.3333 25.332L34.6667 23.9987L33.3333 22.6654H32V23.9987L30.6667 25.332L29.3333 26.6654V27.9987H32L30.6667 29.332V30.6654L28 27.9987V23.9987H26.6667V26.6654V27.9987L24 30.6654H22.6667L24 29.332L25.3333 27.9987V25.332V23.9987H24V27.9987H22.6667L18.6667 30.6654V31.9987H20L21.3333 30.6654L22.6667 31.9987H25.3333L28 29.332V30.6654L29.3333 31.9987H30.6667H32V29.332L36 27.9987V30.6654L37.3333 29.332V22.6654L40 27.9987L38.6667 30.6654H37.3333L38.6667 31.9987H40L41.3333 29.332V17.332Z" fill="white"/>
<path d="M44 17.332H42.6667V27.9987H44V17.332Z" fill="white"/>
<path d="M45.3333 22.6654H46.6666L48 21.332H45.3333V22.6654Z" fill="white"/>
<path d="M48 24H45.3333V25.3333H46.6666L48 24Z" fill="white"/>
<path d="M9.3333 25.332L8 26.6654V27.9987L10.6667 25.332H9.3333Z" fill="white"/>
</g>
</g>
<defs>
<clipPath id="clip0_12133_19081">
<rect width="64" height="64" fill="white"/>
</clipPath>
</defs>
</svg>
