<svg width="64" height="64" viewBox="0 0 64 64" fill="none" xmlns="http://www.w3.org/2000/svg">
<mask id="mask0_12133_19019" style="mask-type:luminance" maskUnits="userSpaceOnUse" x="0" y="0" width="64" height="64">
<path d="M64 0H0V64H64V0Z" fill="white"/>
</mask>
<g mask="url(#mask0_12133_19019)">
<path d="M32 64C35.7412 64 39.3295 63.3518 42.6667 62.1719V1.8281C39.3295 0.6482 35.7412 0 32 0C28.2588 0 24.6705 0.6482 21.3333 1.8281V62.1719C24.6704 63.3518 28.2588 64 32 64Z" fill="#FFD400"/>
<path d="M21.3333 62.1719V1.82812C8.9061 6.22184 0 18.0681 0 32C0 45.9319 8.9061 57.7782 21.3333 62.1719Z" fill="#1E5B00"/>
<path d="M42.6667 1.82812V62.1719C55.0939 57.7781 64 45.9319 64 32C64 18.0681 55.0939 6.22184 42.6667 1.82812Z" fill="#F0263C"/>
<path d="M35.7485 34.2046L38.0652 41.3346L32 36.928L25.9348 41.3346L28.2515 34.2046L22.1864 29.798H29.6833L32 22.668L34.3167 29.798H41.8137L35.7485 34.2046Z" fill="#1E5B00"/>
</g>
</svg>
