<svg width="64" height="64" viewBox="0 0 64 64" fill="none" xmlns="http://www.w3.org/2000/svg">
<mask id="mask0_12133_19154" style="mask-type:luminance" maskUnits="userSpaceOnUse" x="0" y="0" width="64" height="64">
<path d="M64 0H0V64H64V0Z" fill="white"/>
</mask>
<g mask="url(#mask0_12133_19154)">
<path d="M62.1719 21.332H1.8281C0.6483 24.6691 0 28.2575 0 31.9987C0 35.7399 0.6483 39.3283 1.8281 42.6654H20.3921C20.1453 41.8144 20.0001 40.9274 20.0001 40.009V21.3423H44V40.009C44 40.9275 43.8548 41.8144 43.6081 42.6654H62.1719C63.3518 39.3283 64 35.7399 64 31.9987C64 28.2575 63.3517 24.6691 62.1719 21.332Z" fill="#191977"/>
<path d="M22.6667 14.6667H22.679V12H25.3702V14.6667H27.9879V12H30.679V14.6667H33.3213V12H36.0125V14.6667H38.6546V12H41.3457V14.6694H41.3322L37.8335 21.3333H62.172C57.7782 8.9061 45.932 0 32 0C18.068 0 6.22184 8.9061 1.82812 21.3333H26.1666L22.6667 14.6667Z" fill="#F0263C"/>
<path d="M32 50.6783C26.4167 50.6783 21.7255 47.2662 20.3921 42.668H1.82812C6.22184 55.0952 18.068 64.0013 32 64.0013C45.932 64.0013 57.7782 55.0952 62.1719 42.668H43.6081C42.2746 47.2661 37.5834 50.6783 32 50.6783Z" fill="white"/>
<path d="M32 50.6771C37.5833 50.6771 42.2746 47.265 43.6081 42.6668C43.8548 41.8158 44 40.9289 44 40.0105V21.3438H20.0001V40.0105C20.0001 40.929 20.1453 41.8158 20.3921 42.6668C21.7255 47.2649 26.4168 50.6771 32 50.6771ZM28.3548 40.1448C28.8035 40.496 29.3221 40.7858 29.8952 40.9918L29.3334 42.6771H28.0001V45.3506H24.0001L26.6668 42.6771L28.3548 40.1448ZM36 45.3506V42.6771H34.6667L34.105 40.9917C34.6781 40.7857 35.1966 40.496 35.6452 40.1448L37.3334 42.6771L40.0001 45.3506H36ZM21.3333 24.0105L22.677 22.6772L26.6667 28.0105L28 25.3438L26.6667 24.0105H25.3334V22.6772H26.6667L30.6667 24.0105L32 28.0105L33.3333 24.0105L37.3333 22.6772H38.6666V24.0105H37.3333L36 25.3438L37.3333 28.0105H33.3333V33.3539H37.3333V28.0206H37.3309L37.3333 28.0105L41.3455 22.6772L42.6666 24.0105V42.6771H39.9999L36.0972 39.7502C36.868 38.9793 37.3332 37.9891 37.3332 36.9096V36.0207H33.3332V41.3575L35.9999 48.0105L31.9999 49.3439L27.9999 48.0105L30.6666 41.3575V36.0207H26.6666V36.9096C26.6666 37.989 27.1318 38.9793 27.9026 39.7501L23.9999 42.6771H21.3332L21.3333 24.0105Z" fill="#F0263C"/>
<path d="M27.9027 39.7487C27.1319 38.9779 26.6667 37.9876 26.6667 36.9082V36.0193H30.6667V41.3561L28 48.0092L32 49.3425L36 48.0092L33.3333 41.3561V36.0193H37.3333V36.9082C37.3333 37.9876 36.8681 38.9779 36.0973 39.7488L40 42.6758H42.6667V24.0091L41.3456 22.6758L37.3334 28.0091L37.331 28.0193H37.3334V33.3526H33.3334V28.0091H37.3334L36.0001 25.3424L37.3334 24.0091V22.6758L33.3334 24.0091L32.0001 28.0091L30.6668 24.0091L26.6668 22.6758V24.0091L28.0001 25.3424L26.6668 28.0091H30.6668V33.3526H26.6668V28.0193H26.6694L26.6668 28.0091L22.6771 22.6758L21.3334 24.0091V42.6758H24.0001L27.9027 39.7487Z" fill="white"/>
<path d="M29.3333 42.6768L29.8951 40.9914C29.322 40.7853 28.8035 40.4957 28.3547 40.1445L26.6665 42.6768H29.3333Z" fill="#F0F0F0"/>
<path d="M35.6452 40.1445C35.1966 40.4957 34.6781 40.7855 34.105 40.9914L34.6667 42.6769H37.3334L35.6452 40.1445Z" fill="#F0F0F0"/>
<path d="M26.6667 28.0218V33.3552H30.6667V28.0117H26.6667L26.6693 28.0218H26.6667Z" fill="#F0263C"/>
<path d="M26.6666 22.6758H25.3333V24.0091H26.6666V22.6758Z" fill="#FFD400"/>
<path d="M38.6665 22.6758H37.3333V24.0091H38.6665V22.6758Z" fill="#FFD400"/>
<path d="M28 45.3493V42.6758H26.6667L24 45.3493H28Z" fill="#FFD400"/>
<path d="M36 42.6758V45.3493H40L37.3333 42.6758H36Z" fill="#FFD400"/>
<path d="M41.3455 14.6694V12H38.6545V14.6667H36.0124V12H33.3211V14.6667H30.6789V12H27.9878V14.6667H25.3701V12H22.679V14.6667H22.6667L26.1667 21.3333H37.8333L41.332 14.6694H41.3455Z" fill="#FFD400"/>
</g>
</svg>
