<svg width="64" height="64" viewBox="0 0 64 64" fill="none" xmlns="http://www.w3.org/2000/svg">
<mask id="mask0_12133_19020" style="mask-type:luminance" maskUnits="userSpaceOnUse" x="0" y="0" width="64" height="64">
<path d="M64 0H0V64H64V0Z" fill="white"/>
</mask>
<g mask="url(#mask0_12133_19020)">
<path d="M41.7427 1.51562L9.36328 54.6178C9.36968 54.6241 9.37608 54.6306 9.38248 54.637L62.4847 22.2576C59.3438 12.4221 51.5782 4.65652 41.7427 1.51562Z" fill="#F0263C"/>
<path d="M20.8986 1.98047C8.698 6.49407 0 18.2302 0 31.9998C0 40.8234 3.5718 48.8123 9.3477 54.6011L20.8986 1.98047Z" fill="#191977"/>
<path d="M9.34778 54.6013C9.35308 54.6066 9.35798 54.6123 9.36328 54.6176L41.7427 1.5154C38.6702 0.5342 35.398 0 32.0001 0C28.0966 0 24.3574 0.7011 20.8987 1.9807L9.34778 54.6013Z" fill="#FFD400"/>
<path d="M9.38245 54.6372C9.38775 54.6425 9.39345 54.6475 9.39875 54.6527L62.0194 43.1018C63.2989 39.6431 64.0001 35.9039 64.0001 32.0004C64.0001 28.6025 63.4659 25.3303 62.4847 22.2578L9.38245 54.6372Z" fill="white"/>
<path d="M62.0193 43.1016L9.39868 54.6525C9.39708 54.6509 9.39538 54.6493 9.39368 54.6477C15.1829 60.4265 23.1739 64.0002 32 64.0002C45.7696 64.0002 57.5057 55.3022 62.0193 43.1016Z" fill="#1E5B00"/>
</g>
</svg>
