<svg width="64" height="64" viewBox="0 0 64 64" fill="none" xmlns="http://www.w3.org/2000/svg">
<mask id="mask0_12133_19082" style="mask-type:luminance" maskUnits="userSpaceOnUse" x="0" y="0" width="64" height="64">
<path d="M64 0H0V64H64V0Z" fill="white"/>
</mask>
<g mask="url(#mask0_12133_19082)">
<path d="M32 0C14.3269 0 0 14.3269 0 32H64C64 14.3269 49.6731 0 32 0Z" fill="#F0263C"/>
<path d="M32 64C49.6731 64 64 49.6731 64 32H0C0 49.6731 14.3269 64 32 64Z" fill="white"/>
<path d="M25.3334 10.668L23.3141 12.6872L25.3334 14.7064L27.3526 12.6872L25.3334 10.668Z" fill="white"/>
<path d="M21.2111 13.9766L18.6667 15.273L19.9632 17.8174L22.5075 16.5209L21.2111 13.9766Z" fill="white"/>
<path d="M23.6571 19.3984L20.8367 19.8451L21.2834 22.6655L24.1038 22.2188L23.6571 19.3984Z" fill="white"/>
<path d="M26.95 19.3984L26.5033 22.2189L29.3237 22.6656L29.7705 19.8451L26.95 19.3984Z" fill="white"/>
<path d="M29.4556 13.9766L28.1592 16.521L30.7035 17.8174L32 15.273L29.4556 13.9766Z" fill="white"/>
<path d="M14.6666 18C14.6666 13.4021 17.7738 9.539 21.9999 8.3706C21.1498 8.1356 20.2582 8 19.3332 8C13.8103 8 9.33325 12.4771 9.33325 18C9.33325 23.5229 13.8103 28 19.3332 28C20.2582 28 21.1497 27.8644 21.9999 27.6294C17.7737 26.461 14.6666 22.5979 14.6666 18Z" fill="white"/>
</g>
</svg>
