<svg width="64" height="64" viewBox="0 0 64 64" fill="none" xmlns="http://www.w3.org/2000/svg">
<mask id="mask0_12133_19200" style="mask-type:luminance" maskUnits="userSpaceOnUse" x="0" y="0" width="64" height="64">
<path d="M64 0H0V64H64V0Z" fill="white"/>
</mask>
<g mask="url(#mask0_12133_19200)">
<path d="M64 32C64 14.3269 49.6731 0 32 0C23.1633 0 15.1689 3.5872 9.37878 9.3788L32 32H64Z" fill="#F0263C"/>
<path d="M32 32L9.37878 54.6212C15.1689 60.4129 23.1633 64 32 64C49.6731 64 64 49.6731 64 32H32Z" fill="#191977"/>
<path d="M32 31.9985L9.3788 9.37729L9.3726 9.37109C3.5817 15.162 0 23.162 0 31.9985C0 40.835 3.5817 48.835 9.3726 54.6259L9.3788 54.6197L32 31.9985Z" fill="white"/>
<path d="M6.7699 34.4165L8.8234 37.4968L13.3332 38.6242L17.843 37.4968L19.8965 34.4165L18.7062 29.6554L18.6254 29.332L18.7062 29.0086L19.6254 25.332H7.041L7.9602 29.0086L8.041 29.332L7.9602 29.6554L6.7699 34.4165ZM16.6666 26.6653H17.9999V29.3487H16.6666V26.6653ZM7.9999 28.007V26.6653H11.9999V27.9986L9.9999 29.3319L7.9999 28.007ZM7.9999 34.6653H9.3332V30.6653L12.6665 29.3487V27.9986L13.3332 26.6653L13.9999 27.9986V29.3487L17.3332 30.6653V34.6653H18.6665V35.9986H8L7.9999 34.6653Z" fill="#4DAFE3"/>
<path d="M7.99995 38.6666L13.3332 39.9999L18.6665 38.6666L21.3332 34.6666L19.9999 29.3333L21.3332 24H5.33325L6.66655 29.3333L5.33325 34.6666L7.99995 38.6666ZM7.96015 29.0099L7.04095 25.3333H19.6255L18.7063 29.0099L18.6255 29.3333L18.7063 29.6567L19.8966 34.4178L17.8431 37.4981L13.3333 38.6255L8.82355 37.4981L6.77005 34.4178L7.96035 29.6567L8.04115 29.3333L7.96015 29.0099Z" fill="#F0263C"/>
<path d="M18.6666 34.668H17.3333V30.668L14 29.3514V28.0013L13.3333 26.668L12.6666 28.0013V29.3514L9.3333 30.668V34.668H8V36.0013H18.6667L18.6666 34.668ZM11.9999 34.668H10.6666V32.0013H11.9999V34.668ZM15.9999 34.668H14.6666V32.0013H15.9999V34.668Z" fill="white"/>
<path d="M18 26.668H16.6667V29.3514H18V26.668Z" fill="white"/>
<path d="M13.3333 20H12L10.6667 21.3333H13.3333V20Z" fill="#FFD400"/>
<path d="M17.3333 21.3333L16 20L14.6667 21.3333H17.3333Z" fill="#FFD400"/>
<path d="M18.6667 22.668H14.6667V24.0013H18.6667V22.668Z" fill="#FFD400"/>
<path d="M11.9999 22.668H9.33325V24.0013H11.9999V22.668Z" fill="#FFD400"/>
<path d="M12 28.0013V26.668H10.6667V28.0013H9.3333V26.668H8V28.0097L10 29.3346L12 28.0013Z" fill="#619B27"/>
<path d="M12 24H14.6667V22.6667H18.6667H20L18.6667 21.3333H17.3333H14.6667L16 20H14.6667H13.3333V21.3333H10.6667H9.3333L8 22.6667H9.3333H12V24Z" fill="#CC9500"/>
<path d="M10.6665 26.668H9.33325V28.0013H10.6665V26.668Z" fill="#FFD400"/>
<path d="M22.6668 32V34.5586L21.4363 38.25L17.1199 41.3333H9.54695L5.23055 38.25L4.00005 34.5586V32H2.66675V34.7747L4.10295 39.0833L9.11985 42.6667H17.547L22.5639 39.0833L24.0001 34.7747V32H22.6668Z" fill="#FFD400"/>
<path d="M12 32H10.6667V34.6667H12V32Z" fill="#C8C8C8"/>
<path d="M16 32H14.6667V34.6667H16V32Z" fill="#C8C8C8"/>
</g>
</svg>
