<svg width="64" height="64" viewBox="0 0 64 64" fill="none" xmlns="http://www.w3.org/2000/svg">
<mask id="mask0_12133_19155" style="mask-type:luminance" maskUnits="userSpaceOnUse" x="0" y="0" width="64" height="64">
<path d="M64 0H0V64H64V0Z" fill="white"/>
</mask>
<g mask="url(#mask0_12133_19155)">
<path d="M62.172 21.332H26.8067L28.0331 33.5956L24.0935 41.1463L21.1562 42.6653H62.1717C63.3516 39.3282 64 35.7398 64 31.9986C64 28.2574 63.3519 24.6692 62.172 21.332Z" fill="#2D25C5"/>
<path d="M7.9065 41.1463L3.967 33.5956L5.1934 21.332H1.8281C0.6482 24.6691 0 28.2575 0 31.9987C0 35.7399 0.6482 39.3282 1.8281 42.6654H10.8436L7.9065 41.1463Z" fill="#2D25C5"/>
<path d="M16 45.3347L10.8436 42.668H1.82812C6.22192 55.0952 18.0681 64.0013 32 64.0013C45.9319 64.0013 57.7782 55.0952 62.1719 42.668H21.1564L16 45.3347Z" fill="#F0263C"/>
<path d="M6.66665 20L5.33325 33.3333L7.42025 37.3333L10.6667 36H14.6667V32H9.33325V29.3333H14.6667V26.6666H10.6667V24H14.6667V21.3333H17.3333V24H21.3333V26.6666H17.3333V29.3333H22.6667V32H17.3333V36H21.3333L24.5797 37.3333L23.1111 40.1481L26.6667 33.3333L25.3333 20H6.66665Z" fill="#F0263C"/>
<path d="M3.96704 33.5969L7.90652 41.1476L10.8437 42.6666L16.0001 45.3333L21.1565 42.6666L24.0937 41.1476L28.0332 33.5969L26.8068 21.3333H62.1721C57.7782 8.9061 45.9319 0 32 0C18.0681 0 6.22184 8.9061 1.82812 21.3333H5.19342L3.96704 33.5969ZM23.1111 40.1481L16 43.7036L13.9259 42.6666L8.88882 40.1481L5.33334 33.3333L6.66663 20H25.3333L26.6666 33.3333L23.1111 40.1481Z" fill="white"/>
<path d="M21.3333 35.9987H17.3333H14.6667H10.6667L7.42025 37.332L5.33325 33.332L8.88885 40.1468L13.9259 42.6653L16 43.7024L23.1111 40.1468L24.5797 37.332L21.3333 35.9987Z" fill="#2D25C5"/>
<path d="M17.3333 31.9987H22.6667V29.332H17.3333V26.6653H21.3333V23.9987H17.3333V21.332H14.6667V23.9987H10.6667V26.6653H14.6667V29.332H9.33325V31.9987H14.6667V35.9987H17.3333V31.9987Z" fill="white"/>
</g>
</svg>
