<svg width="64" height="64" viewBox="0 0 64 64" fill="none" xmlns="http://www.w3.org/2000/svg">
<mask id="mask0_12133_19156" style="mask-type:luminance" maskUnits="userSpaceOnUse" x="0" y="0" width="64" height="64">
<path d="M64 0H0V64H64V0Z" fill="white"/>
</mask>
<g mask="url(#mask0_12133_19156)">
<path d="M62.1719 21.332H21.3333V14.6653C21.3333 14.6653 19.3019 13.332 16 13.332C12.6353 13.332 10.6667 14.6653 10.6667 14.6653V21.332H1.8281C0.6482 24.6691 0 28.2575 0 31.9987C0 35.7399 0.6482 39.3282 1.8281 42.6654H62.1719C63.3518 39.3283 64 35.7399 64 31.9987C64 28.2575 63.3518 24.6692 62.1719 21.332ZM18.6667 14.6653L19.6667 15.6653L18.6667 16.6653L17.6667 15.6653L18.6667 14.6653ZM16 16.6653L17 17.6653L16 18.6653L15 17.6653L16 16.6653ZM13.3333 14.6653L14.3333 15.6653L13.3333 16.6653L12.3333 15.6653L13.3333 14.6653ZM16 27.9986C13.4657 27.9986 11.3486 26.2292 10.8057 23.8595L13.3333 21.3319L14.6666 22.6652L15.9999 19.9985L17.3332 22.6652L18.6665 21.3319L21.1941 23.8595C20.6512 26.2292 18.5343 27.9986 16 27.9986Z" fill="#2D25C5"/>
<path d="M10.6667 14.6666C10.6667 14.6666 12.6353 13.3333 16 13.3333C19.302 13.3333 21.3333 14.6666 21.3333 14.6666V21.3333H62.1719C57.7782 8.9061 45.9319 0 32 0C18.0681 0 6.22184 8.9061 1.82812 21.3333H10.6667V14.6666Z" fill="white"/>
<path d="M32 64.0013C45.9319 64.0013 57.7782 55.0952 62.1719 42.668H1.82812C6.22192 55.0952 18.0681 64.0013 32 64.0013Z" fill="#F0263C"/>
<path d="M17.3334 22.6667L16.0001 20L14.6668 22.6667L13.3335 21.3334L10.8059 23.861C11.3488 26.2307 13.4659 28.0001 16.0002 28.0001C18.5345 28.0001 20.6516 26.2307 21.1945 23.861L18.6669 21.3334L17.3334 22.6667Z" fill="white"/>
<path d="M13.3335 14.668L12.3335 15.668L13.3335 16.668L14.3335 15.668L13.3335 14.668Z" fill="#FFD400"/>
<path d="M16 16.668L15 17.668L16 18.668L17 17.668L16 16.668Z" fill="#FFD400"/>
<path d="M18.6667 14.668L17.6667 15.668L18.6667 16.668L19.6667 15.668L18.6667 14.668Z" fill="#FFD400"/>
</g>
</svg>
