<svg width="64" height="64" viewBox="0 0 64 64" fill="none" xmlns="http://www.w3.org/2000/svg">
<mask id="mask0_12133_19231" style="mask-type:luminance" maskUnits="userSpaceOnUse" x="0" y="0" width="64" height="64">
<path d="M64 0H0V64H64V0Z" fill="white"/>
</mask>
<g mask="url(#mask0_12133_19231)">
<path d="M10.7496 55.9168C10.8237 55.9827 10.9017 56.0444 10.9764 56.1097C10.9017 56.0445 10.8264 55.98 10.7523 55.9141L10.7496 55.9168Z" fill="#1E5B00"/>
<path d="M55.9171 10.75L55.9116 10.7555C55.9992 10.8541 56.0874 10.9521 56.1738 11.0517C56.0873 10.952 56.0048 10.8486 55.9171 10.75Z" fill="#1E5B00"/>
<path d="M56.3937 11.3086L11.5428 56.5904C17.0898 61.2107 24.2164 63.9986 32 63.9986C49.6731 63.9986 64 49.6717 64 31.9986C64 24.1052 61.1316 16.8885 56.3937 11.3086Z" fill="#1E5B00"/>
<path d="M53.1552 8.00032C53.087 7.94012 53.0153 7.88382 52.9465 7.82422C53.0151 7.88382 53.0828 7.94442 53.1509 8.00452L53.1552 8.00032Z" fill="#007ACC"/>
<path d="M32 0C14.3269 0 0 14.3269 0 32C0 39.7286 2.7489 46.8096 7.3105 52.3398L52.6423 7.5675C47.0689 2.8534 39.8713 0 32 0Z" fill="#007ACC"/>
<path d="M56.3984 11.3063C56.3252 11.2201 56.2478 11.1378 56.1737 11.0524C56.0873 10.9528 55.9991 10.8548 55.9115 10.7562C55.0475 9.7843 54.126 8.866 53.1508 8.0056C53.0826 7.9455 53.015 7.8849 52.9464 7.8253C52.8463 7.7385 52.7496 7.6481 52.6484 7.5625L52.6422 7.5686L7.31048 52.3408L7.30188 52.3493C7.37768 52.4413 7.45888 52.5285 7.53578 52.6196C7.53728 52.6213 7.53878 52.623 7.54018 52.6247C8.53058 53.7977 9.60488 54.8962 10.7522 55.9154C10.8263 55.9813 10.9016 56.0458 10.9763 56.111C11.1629 56.2738 11.3457 56.4409 11.5361 56.5995L11.5427 56.5928L56.3937 11.311L56.3984 11.3063Z" fill="#FFD400"/>
<path d="M16.8951 18.6657L20.6666 14.8945L24.4381 18.6657L20.6666 22.4369L16.8951 18.6657Z" fill="white"/>
<path d="M27.3333 8.23047L31.1048 12.0016L27.3333 15.7728L23.5618 12.0016L27.3333 8.23047Z" fill="white"/>
<path d="M14 8.23047L17.7715 12.0016L14 15.7728L10.2285 12.0016L14 8.23047Z" fill="white"/>
<path d="M27.3333 29.1049L23.5618 25.3337L27.3333 21.5625L31.1048 25.3337L27.3333 29.1049Z" fill="white"/>
<path d="M14 29.1049L10.2285 25.3337L14 21.5625L17.7715 25.3337L14 29.1049Z" fill="white"/>
</g>
</svg>
