<svg width="64" height="64" viewBox="0 0 64 64" fill="none" xmlns="http://www.w3.org/2000/svg">
<mask id="mask0_12133_19041" style="mask-type:luminance" maskUnits="userSpaceOnUse" x="0" y="0" width="64" height="64">
<path d="M64 0H0V64H64V0Z" fill="white"/>
</mask>
<g mask="url(#mask0_12133_19041)">
<path d="M32 64C49.6731 64 64 49.6731 64 32C64 14.3269 49.6731 0 32 0C14.3269 0 0 14.3269 0 32C0 49.6731 14.3269 64 32 64Z" fill="#191977"/>
<path d="M32 8.00138V6.66808H26.8073L32 3.20628V1.60388L24.4036 6.66808H20V6.39898L29.4284 0.113281C28.4256 0.193081 27.4362 0.318681 26.4614 0.488881L20 4.79658V2.33638C19.5501 2.51858 19.1061 2.71108 18.6667 2.91278V8.00138H32Z" fill="white"/>
<path d="M13.3333 6.01562C12.4708 6.63633 11.6404 7.29782 10.8453 7.99932H13.3333V6.01562Z" fill="white"/>
<path d="M18.6667 21.332H20V16.5369L27.1927 21.332H29.5964L20 14.9345V14.6654H24.4036L32 19.7296V18.1272L26.8073 14.6654H32V13.332H18.6667V21.332Z" fill="white"/>
<path d="M6.01639 13.332C5.70239 13.7684 5.39949 14.2129 5.10739 14.6653C5.08599 14.6984 5.06479 14.7317 5.04359 14.7649C4.50449 15.6063 4.00419 16.4741 3.54419 17.3669L7.59649 14.6654H12.0001V14.9345L2.40369 21.332H4.80729L12 16.5368V21.332H13.3333V13.332H6.01639Z" fill="white"/>
<path d="M20 6.6667H24.4036L32 1.6025V0C31.1335 0 30.2777 0.0444 29.4284 0.1119L20 6.3975V6.6667Z" fill="#F0263C"/>
<path d="M20 14.668V14.9371L29.5964 21.3346H32V19.7322L24.4036 14.668H20Z" fill="#F0263C"/>
<path d="M12 14.9371V14.668H7.59645L3.54415 17.3695C2.88725 18.6444 2.31165 19.9672 1.82825 21.3346H2.40375L12 14.9371Z" fill="#F0263C"/>
<path d="M13.3334 21.3321H18.6667V13.3321H32V7.99876H18.6667V2.91016C16.7831 3.77506 14.9987 4.81656 13.3334 6.01506V7.99876H10.8454C9.04316 9.58856 7.42306 11.3775 6.01636 13.3321H13.3335L13.3334 21.3321Z" fill="#F0263C"/>
<path d="M42.7713 35.649C42.7018 35.3531 42.6666 35.0596 42.6666 34.7778V32L41.3333 36L39.8333 33.5L38.6666 34.6667L41.3378 38.6667H39.9999L37.0908 36.7273L35.9999 40H45.3332V38.4468C44.0691 38.0159 43.0866 36.9841 42.7713 35.649Z" fill="#5A2919"/>
<path d="M52 38.6653V37.332H49.6795C49.3387 37.7135 48.9228 38.0206 48.4573 38.2468L49.3333 39.9987H57.3333L56 38.6654L52 38.6653Z" fill="#F0F0F0"/>
<path d="M46.6667 38.6686C46.2007 38.6686 45.7517 38.5913 45.3334 38.4487V40.0019H49.3334L48.4574 38.25C47.9154 38.5135 47.3096 38.6686 46.6667 38.6686Z" fill="#619B27"/>
<path d="M50.6666 34.7764V29.332L46.6666 38.6653C47.3095 38.6653 47.9153 38.5103 48.4573 38.2468C48.9228 38.0206 49.3386 37.7135 49.6795 37.332C50.0988 36.8625 50.4099 36.2924 50.562 35.6488C50.6315 35.3518 50.6666 35.0583 50.6666 34.7764Z" fill="#007ACC"/>
<path d="M42.6666 31.8855V34.7764C42.6666 35.0582 42.7018 35.3518 42.7713 35.6476C43.0866 36.9827 44.0692 38.0145 45.3333 38.4454C45.7516 38.588 46.2007 38.6653 46.6666 38.6653L42.6666 29.332V31.8855Z" fill="#007ACC"/>
<path d="M42.6667 26.6654H44H45.3333L44 25.332H42.6667H41.3379L42.6667 26.6654Z" fill="white"/>
<path d="M49.3333 26.6654H50.6667V25.332H49.3333L48 26.6654H49.3333Z" fill="white"/>
<path d="M41.3379 25.3346H42.6667V24.0013V22.668H41.3333V24.0013H40V25.3346H41.3333H41.3379Z" fill="#007ACC"/>
<path d="M51.9999 26.668V25.3346H53.3332V24.0013H51.9999V22.668H50.6666V25.3346V26.668H51.9999Z" fill="#007ACC"/>
<path d="M41.3333 22.6667H42.6665V21.3333L40 20V21.3333L37.3333 20L38.6665 22.6667H40V24H41.3333V22.6667Z" fill="white"/>
<path d="M51.9999 24H53.3332V22.6667H54.6666L55.9999 20L53.3332 21.3333V20L50.6666 21.3333V22.6667H51.9999V24Z" fill="white"/>
<path d="M45.3333 22.668H44V24.0013H45.3333V22.668Z" fill="white"/>
<path d="M46.6665 22.668H45.3333V24.0013H46.6665V22.668Z" fill="#007ACC"/>
<path d="M47.9999 22.668H46.6666V24.0013H47.9999V22.668Z" fill="white"/>
<path d="M49.3333 22.668H48V24.0013H49.3333V22.668Z" fill="#007ACC"/>
<path d="M43.9999 26.6667V27.9977H42.6666V29.3311H50.6666V28V27.9977H49.3332V26.6667H47.9999L49.3332 25.3333V24H47.9999H46.6666H45.3332H43.9999V25.3333L45.3332 26.6667H43.9999Z" fill="#999999"/>
<path d="M49.3332 29.332V30.6654H47.9999L46.6662 35.9987L45.3332 30.6654H43.9999V29.332H42.6666L46.6666 38.6654L50.6666 29.332H49.3332Z" fill="#619B27"/>
<path d="M48 29.332H45.3333V30.6653H48V29.332Z" fill="#619B27"/>
<path d="M46.6663 36.0013L48 30.668H45.3333L46.6663 36.0013Z" fill="#FFD400"/>
<path d="M46.6666 19.9987H47.9999V21.332H49.3332V18.6654V17.332H43.9999H42.6666V18.6654H45.3332V21.332H46.6666V19.9987Z" fill="#5A2919"/>
<path d="M43.9999 16H42.6666V17.3333H43.9999V16Z" fill="#CC9500"/>
<path d="M42.6665 14.668H41.3333V16.0013H42.6665V14.668Z" fill="#CC9500"/>
<path d="M45.3333 14.668H44V16.0013H45.3333V14.668Z" fill="#CC9500"/>
<path d="M52 38.6654H54.6667L53.3333 37.332H52V38.6654Z" fill="#FF7700"/>
<path d="M55.9999 26.6654V25.332H54.6666L55.5554 26.6654H55.9999Z" fill="#CC9500"/>
<path d="M51.9999 28.0013L53.3332 26.668H51.9999L50.6666 28.0013H51.9999Z" fill="#FF7700"/>
<path d="M57.3333 34.6654V29.332L55.5555 26.6654L54.6667 25.332H53.3333L52 26.6654H53.3333L52 27.9987H53.3333H54.6667L53.3333 29.3298L54.6667 30.6654L53.3333 33.332V35.9987H54.6667V37.332H53.3333L54.6667 38.6654H56H57.3333V37.332H56V35.9987L57.3333 34.6654Z" fill="black"/>
<path d="M53.3333 37.3333H54.6667V36H53.3333V33.3333L54.6667 30.6667L53.3333 29.3311L54.6667 28H53.3333H52V33.3333L53.3333 37.3333Z" fill="#F0F0F0"/>
<path d="M41.3379 38.6654L38.6667 34.6654L39.8333 33.4987L37.3333 29.332H38.6667L42.6667 31.9987L40 27.9987L41.3333 25.332H40H38.6667L37.3333 26.6654L36 31.9987V35.9987L37.0909 36.726L40 38.6654H41.3379Z" fill="#999999"/>
<path d="M37.3333 29.332L39.8333 33.4987L41.3333 35.9987L42.6665 31.9987L38.6665 29.332H37.3333Z" fill="black"/>
<path d="M46.6667 22.6654H48H49.3333V21.332H48H46.6667H45.3333H44V22.6654H45.3333H46.6667Z" fill="#999999"/>
<path d="M45.3333 29.332H44V30.6653H45.3333V29.332Z" fill="#FFD400"/>
<path d="M49.3333 29.332H48V30.6653H49.3333V29.332Z" fill="#FFD400"/>
<path d="M39.9999 46.668L38.6666 48.0013L41.3332 49.3346L40.4444 46.668H39.9999Z" fill="#F0263C"/>
<path d="M37.3333 41.332L36 43.9987L37.3333 45.332L37.8667 44.2654L38.6667 42.6654L37.3333 41.332Z" fill="#F0263C"/>
<path d="M52.8888 46.668L52 49.3346L54.6667 48.0013L53.3333 46.668H52.8888Z" fill="#F0263C"/>
<path d="M54.6666 42.6654L55.4665 44.2654L55.9999 45.332L57.3332 43.9987L55.9999 41.332L54.6666 42.6654Z" fill="#F0263C"/>
<path d="M55.4664 44.2654L54.6665 42.6654L56 41.332H54.6665L53.3333 42.6654L52.4445 43.5542L50.6665 42.6654L48 41.9987H45.3333L42.6665 42.6654L40.8888 43.5542L40 42.6654L38.6665 41.332H37.3333L38.6665 42.6654L37.8666 44.2654L39.111 44.8876L37.3333 46.6654L38.6665 47.9987L40 46.6654L40.3333 46.332L40.4445 46.6654L41.3333 49.332L42.6665 46.6654L41.8666 45.0654L44 43.9987H46.6665H49.3333L51.4664 45.0654L50.6665 46.6654L52 49.332L52.8888 46.6654L53 46.332L53.3333 46.6654L54.6665 47.9987L56 46.6654L54.222 44.8876L55.4664 44.2654Z" fill="#FFD400"/>
</g>
</svg>
