<svg width="64" height="64" viewBox="0 0 64 64" fill="none" xmlns="http://www.w3.org/2000/svg">
<mask id="mask0_12133_19024" style="mask-type:luminance" maskUnits="userSpaceOnUse" x="0" y="0" width="64" height="64">
<path d="M64 0H0V64H64V0Z" fill="white"/>
</mask>
<g mask="url(#mask0_12133_19024)">
<path d="M62.1719 21.3333C57.7782 8.9061 45.9319 0 32 0C25.0894 0 18.6959 2.1979 13.4651 5.9226L28.8758 21.3333H62.1719Z" fill="#F0263C"/>
<path d="M1.1813 23.3906C0.4172 26.131 0 29.016 0 32.0001C0 34.9842 0.4172 37.8692 1.1813 40.6096L9.7908 32.0001L1.1813 23.3906Z" fill="black"/>
<path d="M13.4651 58.0787C18.6959 61.8034 25.0894 64.0013 32 64.0013C45.9319 64.0013 57.7782 55.0952 62.1719 42.668H28.8758L13.4651 58.0787Z" fill="#191977"/>
<path d="M9.37257 9.37109C6.89187 11.8518 4.82067 14.7402 3.25867 17.9238L17.3334 31.9985L3.25867 46.0732C4.82067 49.2568 6.89197 52.1453 9.37257 54.6259L26.6667 37.3318H63.5492C63.8405 35.5965 64 33.8165 64 31.9985C64 30.1805 63.8405 28.4005 63.5492 26.6652H26.6667L9.37257 9.37109Z" fill="#1E5B00"/>
<path d="M9.37256 9.37188L26.6667 26.666H63.5492C63.2411 24.8305 62.7784 23.048 62.172 21.3327H28.8758L13.4651 5.92188C12.0073 6.95987 10.6347 8.10978 9.37256 9.37188Z" fill="white"/>
<path d="M26.6667 37.332L9.37256 54.626C10.6347 55.8881 12.0073 57.038 13.4651 58.0761L28.8758 42.6653H62.1719C62.7784 40.9499 63.241 39.1676 63.5491 37.3321L26.6667 37.332Z" fill="white"/>
<path d="M17.3333 32.0005L3.25867 17.9258C2.40577 19.6642 1.71057 21.4927 1.18127 23.3909L9.79077 32.0004L1.18127 40.61C1.71057 42.5083 2.40567 44.3367 3.25867 46.0751L17.3333 32.0005Z" fill="#FFD400"/>
</g>
</svg>
