<svg width="64" height="64" viewBox="0 0 64 64" fill="none" xmlns="http://www.w3.org/2000/svg">
<mask id="mask0_12133_19025" style="mask-type:luminance" maskUnits="userSpaceOnUse" x="0" y="0" width="64" height="64">
<path d="M64 0H0V64H64V0Z" fill="white"/>
</mask>
<g mask="url(#mask0_12133_19025)">
<path d="M32 31.9985L9.3788 9.37729L9.3726 9.37109C3.5817 15.162 0 23.162 0 31.9985C0 40.835 3.5817 48.835 9.3726 54.6259L9.3788 54.6197L32 31.9985Z" fill="#4DAFE3"/>
<path d="M62.6133 22.668H22.6667L32 32.0013L22.6667 41.3346H62.6133C63.5126 38.3813 64 35.2486 64 32.0013C64 28.754 63.5126 25.6212 62.6133 22.668Z" fill="#F0263C"/>
<path d="M19.9999 20H61.6649C56.9169 8.2747 45.428 0 31.9999 0C23.1627 0 15.1662 3.5848 9.37744 9.3775L19.9999 20Z" fill="black"/>
<path d="M19.9999 44H61.6649C56.9169 55.7253 45.428 64 31.9999 64C23.1627 64 15.1662 60.4152 9.37744 54.6225L19.9999 44Z" fill="#1E5B00"/>
<path d="M22.6667 41.332L20 43.9987H61.665C62.0178 43.1275 62.3369 42.2394 62.6132 41.332H22.6667Z" fill="white"/>
<path d="M22.6667 22.6667H62.6132C62.3369 21.7594 62.0178 20.8712 61.665 20H20L22.6667 22.6667Z" fill="white"/>
<path d="M16.2786 32.9551L18.0988 38.5573L13.3333 35.0949L8.56776 38.5573L10.3881 32.9551L5.62256 29.4928H11.5131L13.3333 23.8906L15.1536 29.4928H21.0441L16.2786 32.9551Z" fill="#FFD400"/>
</g>
</svg>
