<svg width="64" height="64" viewBox="0 0 64 64" fill="none" xmlns="http://www.w3.org/2000/svg">
<mask id="mask0_12133_19083" style="mask-type:luminance" maskUnits="userSpaceOnUse" x="0" y="0" width="64" height="64">
<path d="M64 0H0V64H64V0Z" fill="white"/>
</mask>
<g mask="url(#mask0_12133_19083)">
<path d="M32 64C49.6731 64 64 49.6731 64 32C64 14.3269 49.6731 0 32 0C14.3269 0 0 14.3269 0 32C0 49.6731 14.3269 64 32 64Z" fill="white"/>
<path d="M40 24C35.5817 24 32 27.5817 32 32C32 36.4183 28.4183 40 24 40C19.5817 40 16 36.4183 16 32C16 40.8365 23.1635 48 32 48C40.8365 48 48 40.8365 48 32C48 27.5817 44.4183 24 40 24Z" fill="#2D25C5"/>
<path d="M32 16C23.1635 16 16 23.1635 16 32C16 36.4183 19.5817 40 24 40C28.4183 40 32 36.4183 32 32C32 27.5817 35.5817 24 40 24C44.4183 24 48 27.5817 48 32C48 23.1635 40.8365 16 32 16Z" fill="#F0263C"/>
<path d="M9.33332 45.332L8 46.6654L17.3333 55.9987L18.6666 54.6653L9.33332 45.332Z" fill="black"/>
<path d="M15.1033 47.0098L11.3333 43.332L10 44.6654L13.7701 48.343L15.1033 47.0098Z" fill="black"/>
<path d="M15.6558 50.2316L19.3334 54.0017L20.6668 52.6684L16.989 48.8984L15.6558 50.2316Z" fill="black"/>
<path d="M13.3333 41.332L12 42.6653L21.3333 51.9986L22.6666 50.6653L13.3333 41.332Z" fill="black"/>
<path d="M46.8899 18.9973L50.6668 22.6681L52.0001 21.3347L48.223 17.6641L46.8899 18.9973Z" fill="black"/>
<path d="M46.3375 15.7771L42.6669 12L41.3335 13.3333L45.0043 17.1102L46.3375 15.7771Z" fill="black"/>
<path d="M50.8967 14.9895L54.6667 18.6673L56 17.3338L52.2299 13.6562L50.8967 14.9895Z" fill="black"/>
<path d="M50.3445 11.7701L46.6669 8L45.3335 9.3333L49.0113 13.1033L50.3445 11.7701Z" fill="black"/>
<path d="M44.6668 10L43.3335 11.3333L52.6668 20.6666L54.0001 19.3333L44.6668 10Z" fill="black"/>
<path d="M17.3334 8L8.00012 17.3334L9.33344 18.6667L18.6668 9.33332L17.3334 8Z" fill="black"/>
<path d="M21.3334 12L12.0001 21.3334L13.3334 22.6667L22.6668 13.3334L21.3334 12Z" fill="black"/>
<path d="M19.3333 10L10 19.3334L11.3333 20.6667L20.6666 11.3334L19.3333 10Z" fill="black"/>
<path d="M46.3375 48.2237L42.6669 52.0008L41.3335 50.6675L45.0043 46.8906L46.3375 48.2237Z" fill="black"/>
<path d="M46.8899 45.0028L50.6668 41.332L52.0001 42.6654L48.223 46.336L46.8899 45.0028Z" fill="black"/>
<path d="M48.3375 50.2237L44.6669 54.0008L43.3335 52.6675L47.0043 48.8906L48.3375 50.2237Z" fill="black"/>
<path d="M48.8899 47.0028L52.6668 43.332L54.0001 44.6654L50.223 48.336L48.8899 47.0028Z" fill="black"/>
<path d="M50.3445 52.2316L46.6669 56.0017L45.3335 54.6684L49.0113 50.8984L50.3445 52.2316Z" fill="black"/>
<path d="M50.8967 49.0098L54.6667 45.332L56 46.6654L52.2299 50.343L50.8967 49.0098Z" fill="black"/>
</g>
</svg>
