<svg width="64" height="64" viewBox="0 0 64 64" fill="none" xmlns="http://www.w3.org/2000/svg">
<g clip-path="url(#clip0_12133_19158)">
<mask id="mask0_12133_19158" style="mask-type:luminance" maskUnits="userSpaceOnUse" x="0" y="0" width="64" height="64">
<path d="M64 0H0V64H64V0Z" fill="white"/>
</mask>
<g mask="url(#mask0_12133_19158)">
<path d="M59.7083 16H4.2917C1.5671 20.7079 0 26.1693 0 32C0 37.8307 1.5671 43.2921 4.2917 48H59.7084C62.4329 43.2921 64.0001 37.8307 64.0001 32C64.0001 26.1693 62.4329 20.7079 59.7083 16Z" fill="#FFD400"/>
<path d="M32.0001 0C20.1577 0 9.82535 6.4379 4.29175 16H59.7085C54.1748 6.4379 43.8425 0 32.0001 0Z" fill="#F0263C"/>
<path d="M32.0001 64C43.8425 64 54.1747 57.562 59.7084 48H4.29175C9.82545 57.562 20.1577 64 32.0001 64Z" fill="#F0263C"/>
<path d="M4 34.6876L6.6667 33.7987V32.4453L4 33.332V34.6876Z" fill="white"/>
<path d="M15.2109 34.6862C14.9354 35.4612 14.2029 36.0195 13.3334 36.0195C12.2288 36.0195 11.3334 35.1241 11.3334 34.0195C11.3334 32.9149 12.2288 32.0195 13.3334 32.0195V28.0195H8.0001V30.6861H4V33.3306L6.6667 32.4438V32.0184L8 32.0195V36.0195C8 38.523 9.7273 40.6178 12.0537 41.1918L13.3334 38.6861L14.6131 41.1918C16.9394 40.6177 18.6668 38.523 18.6668 36.0195V34.6862H15.2109Z" fill="#F0263C"/>
<path d="M4 38.6855H6.6667V35.1289L4 36.0156V38.6855Z" fill="white"/>
<path d="M6.6667 26.6875H4V30.6875H6.6667V26.6875Z" fill="white"/>
<path d="M20 38.6866H22.6667V36.0199L20 35.1289V38.6866Z" fill="white"/>
<path d="M20 33.7955L22.6667 34.6844V32.0177L20 32.0156V33.7955Z" fill="white"/>
<path d="M22.6667 26.6875H20V30.6875H22.6667V26.6875Z" fill="white"/>
<path d="M6.6667 38.6875H4V40.0208H6.6667V38.6875Z" fill="#2D25C5"/>
<path d="M22.6667 38.6875H20V40.0208H22.6667V38.6875Z" fill="#2D25C5"/>
<path d="M6.6667 37.3516H4V38.6849H6.6667V37.3516Z" fill="#CC9500"/>
<path d="M22.6667 37.3516H20V38.6849H22.6667V37.3516Z" fill="#CC9500"/>
<path d="M6.6667 26.6875H4V28.0208H6.6667V26.6875Z" fill="#CC9500"/>
<path d="M22.6667 26.6875H20V28.0208H22.6667V26.6875Z" fill="#CC9500"/>
<path d="M9.3333 22.6875H8V24.0208H9.3333V22.6875Z" fill="#CC9500"/>
<path d="M18.6666 22.6875H17.3333V24.0208H18.6666V22.6875Z" fill="#CC9500"/>
<path d="M14.6667 22.6875H12V24.0208H14.6667V22.6875Z" fill="#CC9500"/>
<path d="M17.3333 26.6862L18.6667 24.0195H8L9.3333 26.6862H17.3333Z" fill="#F0263C"/>
<path d="M18.6667 30.6875V32.0176L20 32.0187L22.6667 32.0208V30.6875H20H18.6667Z" fill="#F0263C"/>
<path d="M20 35.1281L22.6667 36.0191V34.6858L20 33.7969V35.1281Z" fill="#F0263C"/>
<path d="M18.6667 32.0163V28.0195H13.3334V32.0195C14.438 32.0195 15.3334 32.9149 15.3334 34.0195C15.3334 34.2545 15.2854 34.4767 15.2109 34.6862H18.6667V32.0163Z" fill="white"/>
<path d="M12.0537 41.1932C12.4643 41.2945 12.8914 41.3542 13.3334 41.3542C13.7754 41.3542 14.2024 41.2945 14.6131 41.1932L13.3334 38.6875L12.0537 41.1932Z" fill="white"/>
<path d="M11.3333 34.0195C11.3333 35.1241 12.2287 36.0195 13.3333 36.0195C14.2028 36.0195 14.9353 35.4612 15.2108 34.6862C15.2853 34.4767 15.3333 34.2546 15.3333 34.0195C15.3333 32.9149 14.4379 32.0195 13.3333 32.0195C12.2287 32.0195 11.3333 32.9149 11.3333 34.0195Z" fill="#2D25C5"/>
<path d="M8 34.0196V36.0196C8 38.5231 9.7273 40.6179 12.0537 41.1919L13.3334 38.6862V36.0195C12.2288 36.0195 11.3334 35.1241 11.3334 34.0195L8 34.0196Z" fill="#CC9500"/>
</g>
</g>
<defs>
<clipPath id="clip0_12133_19158">
<rect width="64" height="64" fill="white"/>
</clipPath>
</defs>
</svg>
