<svg width="64" height="64" viewBox="0 0 64 64" fill="none" xmlns="http://www.w3.org/2000/svg">
<mask id="mask0_12133_19084" style="mask-type:luminance" maskUnits="userSpaceOnUse" x="0" y="0" width="64" height="64">
<path d="M64 0H0V64H64V0Z" fill="white"/>
</mask>
<g mask="url(#mask0_12133_19084)">
<path d="M60.6666 22.6666V18.6666L60.9443 18.389C60.5607 17.5757 60.1564 16.7742 59.7083 16H21.3333V48H59.7083C60.1601 47.2194 60.5673 46.4111 60.9535 45.5908L60.6665 45.2959V41.3334L61.9999 42.6667H62.164C63.3471 39.3299 63.9999 35.7428 63.9999 32C63.9999 28.2572 63.3471 24.6701 62.164 21.3333H61.9999L60.6666 22.6666Z" fill="#960A3C"/>
<path d="M60.6667 18.6682V22.6682L62 21.3349H62.1642C61.8073 20.3283 61.3961 19.3482 60.9444 18.3906L60.6667 18.6682Z" fill="#FFD400"/>
<path d="M60.6667 41.332V45.2945L60.9537 45.5894C61.4017 44.6381 61.8098 43.6649 62.1642 42.6653H62.0001L60.6667 41.332Z" fill="#FFD400"/>
<path d="M57.3332 22.6684V24.0017L51.9999 21.335H47.9999L46.6666 22.6683V25.335L49.3333 26.6683H54.6666L55.9999 28.0016H43.9999V25.3349L45.3332 21.3349H38.6665L35.9998 22.6682H33.3331V24.0015L34.6664 25.3348L37.3331 26.6681H33.3331V28.0014L35.9998 29.3347H37.3331L35.9998 30.668L34.6665 32.0013V34.668L33.3332 33.3347V30.668H31.9999V18.668L30.6666 21.3347V30.668H29.3333L28 32.0013V33.3346H30.6667V38.6679L29.3334 40.0012L30.6667 41.3345L32 40.0012V36.0012L33.3333 37.3345L34.6666 38.6678H35.9999L37.3332 37.3345L38.6665 38.6678V41.3345L37.3332 42.6678H35.9999V44.0011H39.9999L41.3332 42.6678V41.3345L42.6665 40.0012L41.3332 38.6679L42.6665 37.3346L46.6665 36.0013H47.9998V37.3346L50.6665 40.0013V41.3346L49.3332 42.6679H47.9999V44.0012H55.9999V41.3345L57.3332 40.0012L55.9999 38.6679V37.3346L57.3332 34.6679V26.6679L55.9999 25.3346H50.6666L49.3333 24.0013V22.668H50.6666L51.9999 24.0013H54.6666L57.3333 25.3346H58.6666V22.6679L57.3332 22.6684ZM54.6665 41.3351L53.3332 42.6684H51.9999V41.3351L53.3332 40.0018L51.9999 38.6685H53.3332L54.6665 40.0018V41.3351Z" fill="#FFD400"/>
<path d="M26.6667 22.6654L25.3333 21.332H24L22.6667 19.9987V18.6654L24 17.332H25.3333L26.6667 18.6654V22.6654Z" fill="#FFD400"/>
<path d="M26.6667 41.332L25.3333 42.6654H24L22.6667 43.9987V45.332L24 46.6654H25.3333L26.6667 45.2946V41.332Z" fill="#FFD400"/>
<path d="M21.3334 16H59.7084C54.1748 6.4379 43.8425 0 32.0001 0C20.1577 0 9.82535 6.4379 4.29175 16H17.3335V48H4.29175C9.82545 57.562 20.1577 64 32.0001 64C43.8425 64 54.1747 57.562 59.7084 48H21.3334V16Z" fill="#FFD400"/>
<path d="M8.6667 48V16H4.2917C3.0526 18.1412 2.0534 20.4371 1.3334 22.855C0.4702 25.7535 0 28.8212 0 32C0 35.1788 0.4702 38.2466 1.3333 41.145C2.0534 43.5629 3.0525 45.8588 4.2916 48H8.6667Z" fill="#1E5B00"/>
<path d="M17.3335 16H8.66675V48H17.3335V16Z" fill="#FF7700"/>
</g>
</svg>
