<svg width="64" height="64" viewBox="0 0 64 64" fill="none" xmlns="http://www.w3.org/2000/svg">
<mask id="mask0_12133_19026" style="mask-type:luminance" maskUnits="userSpaceOnUse" x="0" y="0" width="64" height="64">
<path d="M64 0H0V64H64V0Z" fill="white"/>
</mask>
<g mask="url(#mask0_12133_19026)">
<path d="M32 31.9985L9.3788 9.37729L9.3726 9.37109C3.5817 15.162 0 23.162 0 31.9985C0 40.835 3.5817 48.835 9.3726 54.6259L9.3788 54.6197L32 31.9985Z" fill="#1E5B00"/>
<path d="M21.3334 42.668L9.37915 54.6222C15.1683 60.4146 23.1629 64.0013 32.0001 64.0013C45.932 64.0013 57.7783 55.0952 62.172 42.668H21.3334Z" fill="black"/>
<path d="M21.3334 21.3333L9.37915 9.3791C15.1683 3.5867 23.1629 0 32.0001 0C45.932 0 57.7783 8.9061 62.172 21.3333H21.3334Z" fill="#F0263C"/>
<path d="M62.1719 21.332H21.3333L32 31.9987L21.3333 42.6654H62.1719C63.3518 39.3283 64 35.7399 64 31.9987C64 28.2575 63.3518 24.6692 62.1719 21.332Z" fill="white"/>
</g>
</svg>
