<svg width="64" height="64" viewBox="0 0 64 64" fill="none" xmlns="http://www.w3.org/2000/svg">
<mask id="mask0_12133_19250" style="mask-type:luminance" maskUnits="userSpaceOnUse" x="0" y="0" width="64" height="64">
<path d="M64 0H0V64H64V0Z" fill="white"/>
</mask>
<g mask="url(#mask0_12133_19250)">
<path d="M0 31.9987C0 35.7399 0.6482 39.3282 1.8281 42.6654H62.1719C63.3518 39.3283 64 35.7399 64 31.9987C64 28.2575 63.3518 24.6692 62.1719 21.332H1.8281C0.6482 24.6692 0 28.2575 0 31.9987Z" fill="#960A3C"/>
<path d="M32 0C20.1576 0 9.82545 6.438 4.29175 16H59.7085C54.1748 6.438 43.8424 0 32 0Z" fill="#1E5B00"/>
<path d="M59.7084 48H4.29175C9.82545 57.562 20.1576 64 32 64C43.8424 64 54.1748 57.562 59.7084 48Z" fill="#1E5B00"/>
<path d="M4.29604 16C3.31984 17.6876 2.48734 19.4688 1.82812 21.3333H62.1719C61.5127 19.4688 60.6802 17.6875 59.704 16H4.29604Z" fill="white"/>
<path d="M62.1719 42.668H1.82812C2.48734 44.5325 3.31984 46.3138 4.29604 48.0013H59.704C60.6802 46.3137 61.5127 44.5325 62.1719 42.668Z" fill="white"/>
<path d="M35.7485 34.2046L38.0652 41.3346L32 36.928L25.9348 41.3346L28.2515 34.2046L22.1864 29.798H29.6833L32 22.668L34.3167 29.798H41.8136L35.7485 34.2046Z" fill="#FFD400"/>
</g>
</svg>
