<svg width="64" height="64" viewBox="0 0 64 64" fill="none" xmlns="http://www.w3.org/2000/svg">
<mask id="mask0_12133_19159" style="mask-type:luminance" maskUnits="userSpaceOnUse" x="0" y="0" width="64" height="64">
<path d="M64 0H0V64H64V0Z" fill="white"/>
</mask>
<g mask="url(#mask0_12133_19159)">
<path d="M13.3333 6.01562C6.63231 10.8382 1.87461 18.1842 0.450806 26.666H13.3333V6.01562Z" fill="#F0263C"/>
<path d="M63.5492 26.6667C61.009 11.5335 47.855 0 32 0C29.2376 0 26.557 0.3501 24 1.0082V26.6666L63.5492 26.6667Z" fill="#F0263C"/>
<path d="M0.450806 37.332C1.87451 45.8137 6.63221 53.1597 13.3333 57.9823V37.332H0.450806Z" fill="#F0263C"/>
<path d="M24 62.9905C26.557 63.6486 29.2376 63.9987 32 63.9987C47.855 63.9987 61.009 52.4651 63.5492 37.332H24V62.9905Z" fill="#F0263C"/>
<path d="M21.3333 34.668V62.1732C22.2063 62.4819 23.094 62.7599 24 62.9931V37.3347H63.549C63.6963 36.4574 63.8065 35.568 63.8809 34.668H21.3333Z" fill="white"/>
<path d="M15.9999 34.668H0.119141C0.193441 35.568 0.303541 36.4573 0.450841 37.3347H13.3333V57.985C14.1914 58.6026 15.0811 59.1779 16 59.7097L15.9999 34.668Z" fill="white"/>
<path d="M21.3333 29.3329H63.8808C63.8065 28.4329 63.6963 27.5436 63.549 26.6662H24V1.00781C23.094 1.24101 22.2064 1.51891 21.3333 1.82761V29.3329Z" fill="white"/>
<path d="M16 29.3346V4.29297C15.0812 4.82467 14.1914 5.40007 13.3333 6.01757V26.6679H0.450841C0.303541 27.5452 0.193541 28.4346 0.119141 29.3346H16Z" fill="white"/>
<path d="M21.3333 29.3334V1.82812C19.4695 2.48712 17.6871 3.31543 16 4.29173V29.3334H0.1192C0.0465 30.2136 0 31.1012 0 32.0001C0 32.899 0.0465 33.7866 0.1192 34.6668H16V59.7085C17.6872 60.6849 19.4695 61.5131 21.3333 62.1721V34.6669H63.8808C63.9535 33.7867 64 32.8992 64 32.0002C64 31.1012 63.9535 30.2137 63.8808 29.3335L21.3333 29.3334Z" fill="#191977"/>
</g>
</svg>
