<svg width="64" height="64" viewBox="0 0 64 64" fill="none" xmlns="http://www.w3.org/2000/svg">
<mask id="mask0_12133_19160" style="mask-type:luminance" maskUnits="userSpaceOnUse" x="0" y="0" width="64" height="64">
<path d="M64 0H0V64H64V0Z" fill="white"/>
</mask>
<g mask="url(#mask0_12133_19160)">
<path d="M13.3333 6.01562C6.63231 10.8382 1.87461 18.1842 0.450806 26.666H13.3333V6.01562Z" fill="#007ACC"/>
<path d="M63.5492 26.6667C61.009 11.5335 47.855 0 32 0C29.2376 0 26.557 0.3501 24 1.0082V26.6666L63.5492 26.6667Z" fill="#007ACC"/>
<path d="M0.450806 37.332C1.87451 45.8137 6.63221 53.1597 13.3333 57.9823V37.332H0.450806Z" fill="#007ACC"/>
<path d="M24 62.9905C26.557 63.6486 29.2376 63.9987 32 63.9987C47.855 63.9987 61.009 52.4651 63.5492 37.332H24V62.9905Z" fill="#007ACC"/>
<path d="M63.8808 29.3329C63.8065 28.4329 63.6964 27.5436 63.5491 26.6662H24V1.00781C23.094 1.24101 22.2064 1.51891 21.3333 1.82761C19.4695 2.48661 17.6871 3.31491 16 4.29121C15.0812 4.82291 14.1914 5.39831 13.3333 6.01581V26.6661H0.4508C0.3035 27.5434 0.1935 28.4328 0.1191 29.3328C0.0465 30.2131 0 31.1007 0 31.9996C0 32.8985 0.0465 33.7861 0.1192 34.6663C0.1935 35.5663 0.3036 36.4556 0.4509 37.333H13.3334V57.9833C14.1915 58.6009 15.0812 59.1762 16.0001 59.708C17.6873 60.6844 19.4696 61.5126 21.3334 62.1716C22.2064 62.4803 23.0941 62.7583 24.0001 62.9915V37.3331H63.5493C63.6966 36.4558 63.8066 35.5664 63.881 34.6664C63.9537 33.7862 64.0002 32.8987 64.0002 31.9997C64.0002 31.1007 63.9535 30.2131 63.8808 29.3329Z" fill="#FFD400"/>
</g>
</svg>
