<svg width="64" height="64" viewBox="0 0 64 64" fill="none" xmlns="http://www.w3.org/2000/svg">
<mask id="mask0_12133_19086" style="mask-type:luminance" maskUnits="userSpaceOnUse" x="0" y="0" width="64" height="64">
<path d="M64 0H0V64H64V0Z" fill="white"/>
</mask>
<g mask="url(#mask0_12133_19086)">
<path d="M1.8281 42.6654C0.6482 39.3282 0 35.7399 0 31.9987C0 28.2575 0.6482 24.6692 1.8281 21.332" fill="white"/>
<path d="M0 31.9987C0 35.7399 0.6482 39.3282 1.8281 42.6654H62.1719C63.3518 39.3283 64 35.7399 64 31.9987C64 28.2575 63.3518 24.6692 62.1719 21.332H1.8281C0.6482 24.6692 0 28.2575 0 31.9987Z" fill="white"/>
<path d="M1.82812 21.3333H62.1719C57.7782 8.9061 45.9319 0 32 0C18.0681 0 6.22184 8.9061 1.82812 21.3333Z" fill="#F0263C"/>
<path d="M62.1719 42.668H1.82812C6.22192 55.0952 18.0681 64.0013 32 64.0013C45.9319 64.0013 57.7782 55.0952 62.1719 42.668Z" fill="black"/>
<path d="M22.2786 33.0645L24.0988 38.6667L19.3333 35.2043L14.5678 38.6667L16.3881 33.0645L11.6226 29.6022H17.5131L19.3333 24L21.1536 29.6022H27.0441L22.2786 33.0645Z" fill="#1E5B00"/>
<path d="M47.6119 33.0645L49.4322 38.6667L44.6667 35.2043L39.9012 38.6667L41.7214 33.0645L36.9559 29.6022H42.8464L44.6667 24L46.4869 29.6022H52.3774L47.6119 33.0645Z" fill="#1E5B00"/>
</g>
</svg>
