<svg width="64" height="64" viewBox="0 0 64 64" fill="none" xmlns="http://www.w3.org/2000/svg">
<g clip-path="url(#clip0_12133_19087)">
<mask id="mask0_12133_19087" style="mask-type:luminance" maskUnits="userSpaceOnUse" x="0" y="0" width="64" height="64">
<path d="M64 0H0V64H64V0Z" fill="white"/>
</mask>
<g mask="url(#mask0_12133_19087)">
<path d="M32 0L31.9998 31.9998H0C0 49.6729 14.3269 64 32 64C49.6731 64 64 49.6731 64 32C64 14.3269 49.6731 0 32 0Z" fill="#F0263C"/>
<path d="M0 31.9998H31.9998V0C14.3268 0 0 14.3268 0 31.9998Z" fill="#191977"/>
<path d="M23.2682 24.1719C22.6385 24.6993 21.9151 25.1146 21.1301 25.4028L24.6667 29.0604L23.2682 24.1719Z" fill="white"/>
<path d="M25.4014 16.2046L29.059 12.668L24.1705 14.0664C24.6979 14.6961 25.1132 15.4196 25.4014 16.2046Z" fill="white"/>
<path d="M25.7323 17.4336C25.8023 17.8353 25.8461 18.2459 25.8461 18.6672C25.8461 19.0885 25.8023 19.4991 25.7323 19.9008L30.6667 18.6672L25.7323 17.4336Z" fill="white"/>
<path d="M24.6667 8.27344L21.1301 11.931C21.9151 12.2192 22.6385 12.6345 23.2682 13.1619L24.6667 8.27344Z" fill="white"/>
<path d="M19.9003 11.6023L18.6667 6.66797L17.4331 11.6023C17.8348 11.5323 18.2454 11.4885 18.6667 11.4885C19.088 11.4885 19.4986 11.5323 19.9003 11.6023Z" fill="white"/>
<path d="M17.4331 25.7305L18.6667 30.6649L19.9003 25.7305C19.4986 25.8005 19.088 25.8443 18.6667 25.8443C18.2454 25.8443 17.8348 25.8005 17.4331 25.7305Z" fill="white"/>
<path d="M11.4874 18.6672C11.4874 18.2459 11.5312 17.8353 11.6012 17.4336L6.66675 18.6672L11.6012 19.9008C11.5312 19.4991 11.4874 19.0885 11.4874 18.6672Z" fill="white"/>
<path d="M25.4014 21.1289C25.1132 21.9139 24.6979 22.6373 24.1705 23.267L29.059 24.6654L25.4014 21.1289Z" fill="white"/>
<path d="M13.1629 14.0664L8.27441 12.668L11.932 16.2046C12.2202 15.4196 12.6355 14.6961 13.1629 14.0664Z" fill="white"/>
<path d="M16.2032 11.931L12.6666 8.27344L14.065 13.1619C14.6947 12.6345 15.4182 12.2192 16.2032 11.931Z" fill="white"/>
<path d="M14.0651 24.1719L12.6667 29.0604L16.2033 25.4028C15.4183 25.1146 14.6948 24.6993 14.0651 24.1719Z" fill="white"/>
<path d="M8.27441 24.6654L13.1629 23.267C12.6355 22.6373 12.2202 21.9139 11.932 21.1289L8.27441 24.6654Z" fill="white"/>
<path d="M18.6667 24.8197C22.0655 24.8197 24.8207 22.0645 24.8207 18.6657C24.8207 15.2669 22.0655 12.5117 18.6667 12.5117C15.2679 12.5117 12.5127 15.2669 12.5127 18.6657C12.5127 22.0645 15.2679 24.8197 18.6667 24.8197Z" fill="white"/>
</g>
</g>
<defs>
<clipPath id="clip0_12133_19087">
<rect width="64" height="64" fill="white"/>
</clipPath>
</defs>
</svg>
