<svg width="64" height="64" viewBox="0 0 64 64" fill="none" xmlns="http://www.w3.org/2000/svg">
<mask id="mask0_12133_19088" style="mask-type:luminance" maskUnits="userSpaceOnUse" x="0" y="0" width="64" height="64">
<path d="M64 0H0V64H64V0Z" fill="white"/>
</mask>
<g mask="url(#mask0_12133_19088)">
<path d="M0 32C0 37.8307 1.5671 43.2921 4.2917 48H59.7084C62.433 43.2921 64.0001 37.8307 64.0001 32C64.0001 26.1693 62.433 20.7079 59.7084 16H4.2917C1.5671 20.7079 0 26.1693 0 32Z" fill="white"/>
<path d="M32 0C20.1576 0 9.82545 6.4379 4.29175 16H59.7085C54.1747 6.4379 43.8424 0 32 0Z" fill="#F0263C"/>
<path d="M32 64C43.8424 64 54.1747 57.562 59.7084 48H4.29175C9.82545 57.562 20.1576 64 32 64Z" fill="#1E5B00"/>
<path d="M41.3333 44H22.6666V45.3333H41.3333V44Z" fill="#FFD400"/>
<path d="M25.3332 39.332L23.9999 41.332H22.6666L23.9999 42.6653H26.6666L27.9999 41.332H26.6666L25.3332 39.332Z" fill="#FFD400"/>
<path d="M32 39.332L30.6667 41.332H29.3333L30.6667 42.6653H33.3333L34.6667 41.332H33.3333L32 39.332Z" fill="#FFD400"/>
<path d="M37.3332 41.332H35.9999L37.3332 42.6653H39.9999L41.3332 41.332H39.9999L38.6666 39.332L37.3332 41.332Z" fill="#FFD400"/>
<path d="M32 18.668L30 20.668L32 22.668L34 20.668L32 18.668Z" fill="#FFD400"/>
<path d="M24.6677 20.6328L23.9357 23.3649L26.6677 24.0969L27.3997 21.3649L24.6677 20.6328Z" fill="#FFD400"/>
<path d="M22.032 25.2695L19.2999 26.0016L20.032 28.7336L22.764 28.0016L22.032 25.2695Z" fill="#FFD400"/>
<path d="M19.3352 31.332L17.3352 33.332L19.3352 35.3319L21.3352 33.332L19.3352 31.332Z" fill="#FFD400"/>
<path d="M39.3322 20.6328L36.6002 21.3649L37.3323 24.0969L40.0643 23.3648L39.3322 20.6328Z" fill="#FFD400"/>
<path d="M41.968 25.2695L41.236 28.0015L43.968 28.7336L44.7 26.0015L41.968 25.2695Z" fill="#FFD400"/>
<path d="M44.6647 31.332L42.6647 33.332L44.6647 35.3319L46.6646 33.332L44.6647 31.332Z" fill="#FFD400"/>
<path d="M41.3334 38.0013L38.6667 36.0013L35.3334 38.0013L33.3334 36.668L32.1334 31.868L33.3334 30.668H34.6667V32.0013L36 30.668V29.3347L33.3333 26.668H30.6666L27.9999 29.3347V30.668L29.3332 32.0013V30.668H30.6665L31.8665 31.868L30.6665 36.668L28.6665 38.0013L25.3332 36.0013L22.6665 38.0013L19.9998 37.3346L22.6665 40.0013L25.3332 37.3346L28.6665 40.0013L31.9998 37.3346L35.3331 40.0013L38.6664 37.3346L41.3331 40.0013L43.9998 37.3346L41.3334 38.0013ZM29.3334 29.3346L30.6667 28.0013H33.3334L34.6667 29.3346H33.3334L32.0001 30.6679L30.6668 29.3346H29.3334Z" fill="#FFD400"/>
</g>
</svg>
