<svg width="64" height="64" viewBox="0 0 64 64" fill="none" xmlns="http://www.w3.org/2000/svg">
<mask id="mask0_12133_19028" style="mask-type:luminance" maskUnits="userSpaceOnUse" x="0" y="0" width="64" height="64">
<path d="M64 0H0V64H64V0Z" fill="white"/>
</mask>
<g mask="url(#mask0_12133_19028)">
<path d="M45.7922 3.12217C33.898 -2.55833 19.2239 -0.479326 9.37253 9.37197C-0.478868 19.2234 -2.55787 33.8975 3.12273 45.7918L45.7922 3.12217Z" fill="#619B27"/>
<path d="M60.8772 18.207L18.2076 60.8765C30.1018 66.557 44.7759 64.478 54.6273 54.6267C64.4787 44.7753 66.5577 30.1012 60.8772 18.207Z" fill="#4DAFE3"/>
<path d="M48.2506 4.43359L4.43579 48.2484C7.18939 52.9087 11.0889 56.8082 15.7492 59.5618L59.5641 15.7469C56.8105 11.0865 52.9109 7.18719 48.2506 4.43359Z" fill="black"/>
<path d="M45.7951 3.12109L3.12012 45.7961C3.52232 46.6366 3.96432 47.4537 4.43582 48.2517L48.2506 4.43679C47.4527 3.96539 46.6356 3.52329 45.7951 3.12109Z" fill="#FFD400"/>
<path d="M59.5642 15.75L15.7493 59.5649C16.5472 60.0363 17.3644 60.4784 18.2049 60.8806L60.8798 18.2056C60.4776 17.3651 60.0356 16.5479 59.5642 15.75Z" fill="#FFD400"/>
</g>
</svg>
