<svg width="64" height="64" viewBox="0 0 64 64" fill="none" xmlns="http://www.w3.org/2000/svg">
<mask id="mask0_12133_19089" style="mask-type:luminance" maskUnits="userSpaceOnUse" x="0" y="0" width="64" height="64">
<path d="M64 0H0V64H64V0Z" fill="white"/>
</mask>
<g mask="url(#mask0_12133_19089)">
<path d="M0 31.9987C0 35.7399 0.6482 39.3282 1.8281 42.6654H62.1719C63.3518 39.3283 64 35.7399 64 31.9987C64 28.2575 63.3518 24.6692 62.1719 21.332H1.8281C0.6482 24.6692 0 28.2575 0 31.9987Z" fill="#191977"/>
<path d="M1.82812 21.3347H62.1719C60.7665 17.3598 58.6007 13.7458 55.8452 10.668H8.15473C5.39922 13.7458 3.23353 17.3598 1.82812 21.3347Z" fill="white"/>
<path d="M8.15473 53.3347H55.8452C58.6007 50.2569 60.7665 46.6429 62.1719 42.668H1.82812C3.23354 46.6429 5.39922 50.2569 8.15473 53.3347Z" fill="white"/>
<path d="M8.15466 10.6667H55.8452C49.9859 4.1219 41.4757 0 32 0C22.5243 0 14.0141 4.1219 8.15466 10.6667Z" fill="#960A3C"/>
<path d="M55.8453 53.332H8.15466C14.014 59.8768 22.5242 63.9987 32 63.9987C41.4758 63.9987 49.9859 59.8768 55.8453 53.332Z" fill="#960A3C"/>
</g>
</svg>
