<svg width="64" height="64" viewBox="0 0 64 64" fill="none" xmlns="http://www.w3.org/2000/svg">
<mask id="mask0_12133_19090" style="mask-type:luminance" maskUnits="userSpaceOnUse" x="0" y="0" width="64" height="64">
<path d="M64 0H0V64H64V0Z" fill="white"/>
</mask>
<g mask="url(#mask0_12133_19090)">
<path d="M32 64C49.6731 64 64 49.6731 64 32C64 14.3269 49.6731 0 32 0C14.3269 0 0 14.3269 0 32C0 49.6731 14.3269 64 32 64Z" fill="#FFD400"/>
<path d="M32 0C24.4878 0 17.5858 2.5954 12.1261 6.9292L56 32L12.1261 57.0708C17.5858 61.4046 24.4878 64 32 64C49.6731 64 64 49.6731 64 32C64 14.3269 49.6731 0 32 0Z" fill="#F0263C"/>
<path d="M10.7624 8.07031C4.1628 13.9321 0 22.4772 0 31.9985C0 41.5198 4.1628 50.0649 10.7624 55.9267L42.6667 31.9985L10.7624 8.07031Z" fill="black"/>
<path d="M22.9267 32.0011L27.3333 38.0663L20.2033 35.7496L15.7967 41.8147V34.3178L8.66675 32.0011L15.7967 29.6844V22.1875L20.2033 28.2526L27.3333 25.9359L22.9267 32.0011Z" fill="white"/>
</g>
</svg>
