<svg width="64" height="64" viewBox="0 0 64 64" fill="none" xmlns="http://www.w3.org/2000/svg">
<mask id="mask0_12133_19029" style="mask-type:luminance" maskUnits="userSpaceOnUse" x="0" y="0" width="64" height="64">
<path d="M64 0H0V64H64V0Z" fill="white"/>
</mask>
<g mask="url(#mask0_12133_19029)">
<path d="M32 64C49.6731 64 64 49.6731 64 32C64 14.3269 49.6731 0 32 0C14.3269 0 0 14.3269 0 32C0 49.6731 14.3269 64 32 64Z" fill="#FFD400"/>
<path d="M32 64C42.1033 64 51.1071 59.3129 56.9717 52H7.02832C12.8929 59.3129 21.8967 64 32 64Z" fill="#1E5B00"/>
<path d="M63.2996 25.3789H32V38.6673H63.2996C63.7555 36.5236 64 34.3021 64 32.0231C64 29.7441 63.7555 27.5226 63.2996 25.3789Z" fill="#1E5B00"/>
<path d="M56.9717 12C51.1071 4.687 42.1034 0 32 0V12H56.9717Z" fill="#1E5B00"/>
<path d="M32 12V0C14.3268 0 0 14.3269 0 32C0 34.2867 0.2445 36.5157 0.7004 38.6667H32V12Z" fill="#F0263C"/>
<path d="M20.6015 23.5366L22.9182 30.6667L16.853 26.2601L10.7879 30.6667L13.1045 23.5366L7.03943 19.13H14.5363L16.853 12L19.1697 19.13H26.6667L20.6015 23.5366Z" fill="white"/>
</g>
</svg>
