<svg width="64" height="64" viewBox="0 0 64 64" fill="none" xmlns="http://www.w3.org/2000/svg">
<mask id="mask0_12133_19232" style="mask-type:luminance" maskUnits="userSpaceOnUse" x="0" y="0" width="64" height="64">
<path d="M64 0H0V64H64V0Z" fill="white"/>
</mask>
<g mask="url(#mask0_12133_19232)">
<path d="M32 64C49.6731 64 64 49.6731 64 32C64 14.3269 49.6731 0 32 0C14.3269 0 0 14.3269 0 32C0 49.6731 14.3269 64 32 64Z" fill="#191977"/>
<path d="M21.6667 17.3346L23.3334 19.0013L25 17.3346L23.3334 15.668L21.6667 17.3346Z" fill="white"/>
<path d="M12.6666 9.99996L14.6666 12L16.6666 9.99996L14.6666 8L12.6666 9.99996Z" fill="white"/>
<path d="M10.6667 35.9987L13.3334 38.6653L16 35.9987L13.3334 33.332L10.6667 35.9987Z" fill="white"/>
<path d="M3.33325 21.332L5.33323 23.332L7.33321 21.332L5.33323 19.332L3.33325 21.332Z" fill="white"/>
<path d="M56.6667 49.9986H8.66675V47.3319H56.6667V49.9986ZM52.926 41.9986C48.5979 39.1284 45.6238 34.2538 45.6238 28.7101C45.6238 25.301 46.8578 21.9278 48.6751 19.332L8.66675 43.3319V44.6652H56.6667V41.9985L52.926 41.9986Z" fill="#FFD400"/>
</g>
</svg>
