<svg width="64" height="64" viewBox="0 0 64 64" fill="none" xmlns="http://www.w3.org/2000/svg">
<mask id="mask0_12133_19201" style="mask-type:luminance" maskUnits="userSpaceOnUse" x="0" y="0" width="64" height="64">
<path d="M64 0H0V64H64V0Z" fill="white"/>
</mask>
<g mask="url(#mask0_12133_19201)">
<path d="M64 32C64 14.3269 49.6731 0 32 0C26.5605 0 21.4405 1.3614 16.9551 3.7556L60.2444 47.045C62.6387 42.5596 64 37.4395 64 32Z" fill="#F0263C"/>
<path d="M0 32.0019C0 49.675 14.3269 64.0019 32 64.0019C37.4395 64.0019 42.5595 62.6406 47.0449 60.2463L3.7556 16.957C1.3613 21.4424 0 26.5624 0 32.0019Z" fill="#F0263C"/>
<path d="M5.15845 14.5883L49.413 58.8432C53.1779 56.3957 56.3938 53.1799 58.8413 49.4151L14.5865 5.16016C10.8217 7.60766 7.60595 10.8235 5.15845 14.5883Z" fill="black"/>
<path d="M58.8414 49.4118C59.3408 48.6436 59.811 47.8552 60.2444 47.0433L16.9552 3.75391C16.1434 4.18721 15.3549 4.65751 14.5867 5.15691L58.8414 49.4118Z" fill="white"/>
<path d="M5.15852 14.5859C4.65922 15.3541 4.18892 16.1425 3.75562 16.9543L47.0449 60.2436C47.8566 59.8103 48.645 59.3401 49.4131 58.8408L5.15852 14.5859Z" fill="white"/>
</g>
</svg>
