<svg width="64" height="64" viewBox="0 0 64 64" fill="none" xmlns="http://www.w3.org/2000/svg">
<mask id="mask0_12133_19030" style="mask-type:luminance" maskUnits="userSpaceOnUse" x="0" y="0" width="64" height="64">
<path d="M64 0H0V64H64V0Z" fill="white"/>
</mask>
<g mask="url(#mask0_12133_19030)">
<path d="M32 64C49.6731 64 64 49.6731 64 32C64 14.3269 49.6731 0 32 0C14.3269 0 0 14.3269 0 32C0 49.6731 14.3269 64 32 64Z" fill="#F0263C"/>
<path d="M31.9998 49.3346C41.5727 49.3346 49.3331 41.5742 49.3331 32.0013C49.3331 22.4284 41.5727 14.668 31.9998 14.668C22.4269 14.668 14.6665 22.4284 14.6665 32.0013C14.6665 41.5742 22.4269 49.3346 31.9998 49.3346Z" fill="white"/>
<path d="M25.0666 32C25.0666 26.2562 29.7228 21.6 35.4666 21.6C38.1796 21.6 40.6421 22.6475 42.4937 24.3491C40.1292 21.1118 36.3157 19 32 19C24.8204 19 19 24.8203 19 32C19 39.1797 24.8204 45 32 45C36.3158 45 40.1292 42.8881 42.4937 39.6509C40.6421 41.3525 38.1796 42.4 35.4666 42.4C29.7228 42.4 25.0666 37.7437 25.0666 32Z" fill="#F0263C"/>
<path d="M33.9647 24L37.5598 28.9422L43.371 27.0503L39.7817 31.9966L43.3767 36.9388L37.5633 35.0537L33.974 40L33.9704 33.8885L28.157 32.0033L33.9682 30.1115L33.9647 24Z" fill="#F0263C"/>
</g>
</svg>
