<svg width="64" height="64" viewBox="0 0 64 64" fill="none" xmlns="http://www.w3.org/2000/svg">
<mask id="mask0_12133_19203" style="mask-type:luminance" maskUnits="userSpaceOnUse" x="0" y="0" width="64" height="64">
<path d="M64 0H0V64H64V0Z" fill="white"/>
</mask>
<g mask="url(#mask0_12133_19203)">
<path d="M32 0C14.3269 0 0 14.3269 0 32C0 49.6731 14.3269 64 32 64C49.6731 64 64 49.6731 64 32C64 14.3269 49.6731 0 32 0Z" fill="#191977"/>
<path d="M32 8.00138V6.66808H26.8073L32 3.20628V1.60388L24.4036 6.66808H20V6.39898L29.4284 0.113281C28.4256 0.193081 27.4362 0.318681 26.4614 0.488881L20 4.79658V2.33638C19.5501 2.51858 19.1061 2.71108 18.6667 2.91278V8.00138H32Z" fill="white"/>
<path d="M13.3333 6.01562C12.4708 6.63633 11.6404 7.29782 10.8453 7.99932H13.3333V6.01562Z" fill="white"/>
<path d="M18.6667 21.332H20V16.5369L27.1927 21.332H29.5964L20 14.9345V14.6654H24.4036L32 19.7296V18.1272L26.8073 14.6654H32V13.332H18.6667V21.332Z" fill="white"/>
<path d="M6.01626 13.332C5.70226 13.7684 5.39936 14.2129 5.10726 14.6653C5.08586 14.6984 5.06466 14.7317 5.04346 14.7649C4.50436 15.6063 4.00406 16.4741 3.54406 17.3669L7.59636 14.6654H12V14.9345L2.40356 21.332H4.80716L11.9999 16.5368V21.332H13.3332V13.332H6.01626Z" fill="white"/>
<path d="M20 6.6667H24.4036L32 1.6025V0C31.1335 0 30.2777 0.0444 29.4284 0.1119L20 6.3975V6.6667Z" fill="#F0263C"/>
<path d="M20 14.668V14.9371L29.5964 21.3346H32V19.7322L24.4036 14.668H20Z" fill="#F0263C"/>
<path d="M12.0001 14.9371V14.668H7.59645L3.54415 17.3695C2.88725 18.6444 2.31165 19.9672 1.82825 21.3346H2.40375L12.0001 14.9371Z" fill="#F0263C"/>
<path d="M13.3334 21.3321H18.6667V13.3321H32V7.99876H18.6667V2.91016C16.7831 3.77506 14.9987 4.81656 13.3334 6.01506V7.99876H10.8454C9.04316 9.58856 7.42306 11.3775 6.01636 13.3321H13.3335L13.3334 21.3321Z" fill="#F0263C"/>
<path d="M38.6667 34.5039L39.9042 39.4539L42.2764 43.0122L48 46.4464L53.7236 43.0122L56.0958 39.4539L57.3333 34.5039V22.668H38.6666L38.6667 34.5039ZM49.3334 24.0014L50.6667 25.3347L51 26.0014L52 24.0014H53.3333L54.3333 26.0014L54.6666 25.3347L55.9999 24.0014V29.3347L54.2221 28.4458L53.3333 32.0013L55 33.3346H50.3333L52 32.0013L51.1112 28.4458L49.3334 29.3347V24.0014ZM49.3334 34.6681V36.0014L50.6667 37.3347L52 42.668L49.3333 44.0013H46.6666L43.9999 42.668L45.3332 37.3347L46.6665 36.0014V34.6681L48.0002 33.3348L49.3334 34.6681ZM40.0001 28.0014L41.3334 24.0014L43.4667 26.1347L44.0001 24.0014L45.3334 25.3347L46.6667 30.668L45.3334 33.3347H42.6667L40 30.668L41.3333 28.0013L40.0001 28.0014Z" fill="#FFD400"/>
<path d="M37.3333 21.332V34.6653L38.6665 39.9986L41.3333 43.9986L48 47.9986L54.6666 43.9986L57.3334 39.9986L58.6666 34.6653V21.332H37.3333ZM57.3333 34.5012L56.0957 39.4512L53.7235 43.0095L48 46.4437L42.2764 43.0095L39.9042 39.4512L38.6666 34.5012V22.6653H57.3334L57.3333 34.5012Z" fill="white"/>
<path d="M46.6667 36L45.3333 37.3333L44 42.6667L46.6667 44H49.3333L52 42.6667L50.6667 37.3333L49.3333 36H48H46.6667Z" fill="#619B27"/>
<path d="M46.6667 35.9987H48H49.3334V34.6654L48.0004 33.332L46.6667 34.6654V35.9987Z" fill="#F0263C"/>
<path d="M42.6667 33.3333H44L42.6667 29.3333L43.4666 26.1333L41.3333 24L40 28H41.3333L40 30.6667L42.6667 33.3333Z" fill="#FFAD66"/>
<path d="M44 33.3333H45.3334L46.6667 30.6667L45.3334 25.3333L44 24L43.4666 26.1333L42.6667 29.3333L44 33.3333Z" fill="#FF99CC"/>
<path d="M52 32L50.3333 33.3333H55L53.3333 32L54.2221 28.4445L56 29.3333V24L54.6666 25.3333L54.3333 26L53.3333 24H52L51 26L50.6666 25.3333L49.3333 24V29.3333L51.1111 28.4445L52 32Z" fill="#5A2919"/>
</g>
</svg>
