<svg width="64" height="64" viewBox="0 0 64 64" fill="none" xmlns="http://www.w3.org/2000/svg">
<g clip-path="url(#clip0_12133_19092)">
<mask id="mask0_12133_19092" style="mask-type:luminance" maskUnits="userSpaceOnUse" x="0" y="0" width="64" height="64">
<path d="M64 0H0V64H64V0Z" fill="white"/>
</mask>
<g mask="url(#mask0_12133_19092)">
<path d="M32 64C49.6731 64 64 49.6731 64 32C64 14.3269 49.6731 0 32 0C14.3269 0 0 14.3269 0 32C0 49.6731 14.3269 64 32 64Z" fill="#1E5B00"/>
<path d="M40 8.33203L38.3334 9.99868L40 11.6654L41.6667 9.99868L40 8.33203Z" fill="white"/>
<path d="M43.9999 10.332L42.3333 11.9987L43.9999 13.6654L45.6665 11.9987L43.9999 10.332Z" fill="white"/>
<path d="M39.9999 12.332L38.3333 13.9987L39.9999 15.6653L41.6665 13.9987L39.9999 12.332Z" fill="white"/>
<path d="M35.9999 14.332L34.3333 15.9987L35.9999 17.6654L37.6665 15.9987L35.9999 14.332Z" fill="white"/>
<path d="M39.9999 16.332L38.3333 17.9987L39.9999 19.6653L41.6665 17.9987L39.9999 16.332Z" fill="white"/>
<path d="M47.5223 10.0352C49.0421 11.4361 50 13.4374 50 15.6674C50 19.9016 46.5675 23.3341 42.3333 23.3341C41.1939 23.3341 40.1164 23.0788 39.1444 22.633C40.5104 23.8921 42.3291 24.6674 44.3333 24.6674C48.5675 24.6674 52 21.2349 52 17.0007C52 13.9059 50.1625 11.2462 47.5223 10.0352Z" fill="white"/>
<path d="M29.3333 0.1192C29.7757 0.0827 30.2194 0.0521 30.6666 0.0337V0H29.3333V0.1192Z" fill="#FFD400"/>
<path d="M29.3333 63.9981H30.6666V63.9644C30.2193 63.946 29.7756 63.9154 29.3333 63.8789V63.9981Z" fill="#FFD400"/>
<path d="M21.9999 39.9987L23.9999 40.6654H25.3332L23.9999 39.332H19.9999L18.6666 40.6654H19.9999L21.9999 39.9987Z" fill="#FFD400"/>
<path d="M18.6667 40.668H16V42.0013H18.6667V40.668Z" fill="#FFD400"/>
<path d="M28 40.668H25.3333V42.0013H28V40.668Z" fill="#FFD400"/>
<path d="M15.9999 42H14.6666V43.3333H15.9999V42Z" fill="#FFD400"/>
<path d="M29.3333 42H28V43.3333H29.3333V42Z" fill="#FFD400"/>
<path d="M21.9999 47.9987L19.9999 47.332H18.6666L19.9999 48.6654H23.9999L25.3332 47.332H23.9999L21.9999 47.9987Z" fill="#FFD400"/>
<path d="M28 46H25.3333V47.3333H28V46Z" fill="#FFD400"/>
<path d="M29.3333 44.668H28V46.0013H29.3333V44.668Z" fill="#FFD400"/>
<path d="M15.9999 44.668H14.6666V46.0013H15.9999V44.668Z" fill="#FFD400"/>
<path d="M18.6667 46H16V47.3333H18.6667V46Z" fill="#FFD400"/>
<path d="M21.9999 41.3359L20.6666 42.0026H23.3332L21.9999 41.3359Z" fill="#FFD400"/>
<path d="M23.3332 43.3359H20.6666L21.9999 44.0002L23.3332 43.3359Z" fill="#FFD400"/>
<path d="M21.9999 44L20.6666 44.6643H23.3332L21.9999 44Z" fill="#FFD400"/>
<path d="M23.3332 46H20.6666L21.9999 46.6667L23.3332 46Z" fill="#FFD400"/>
<path d="M20 43.332H17.3333V44.6653H20V43.332Z" fill="#FFD400"/>
<path d="M26.6667 43.332H24V44.6653H26.6667V43.332Z" fill="#FFD400"/>
<path d="M18.6666 10L19.9999 11.3333H21.9999L19.9999 10H18.6666Z" fill="white"/>
<path d="M18.6667 10V8.6667L17.3333 8H16V8.6667L17.3333 10H18.6667Z" fill="white"/>
<path d="M26.6667 8H28V7.3333L26.6667 6H25.3333V7.3333L26.6667 8Z" fill="white"/>
<path d="M25.3333 6.00127L24 4.66797H22L24 6.00127H25.3333Z" fill="white"/>
<path d="M18.6667 7.3333V6H17.3333L16 7.3333V8H17.3333L18.6667 7.3333Z" fill="#FFD400"/>
<path d="M21.9999 4.66797H19.9999L18.6666 6.00127H19.9999L21.9999 4.66797Z" fill="#FFD400"/>
<path d="M25.3333 9V10H26.6667L28 8.6667V8H26.6667L25.3333 9Z" fill="#FFD400"/>
<path d="M22 11.3333H24L25.3333 10H24L22 11.3333Z" fill="#FFD400"/>
<path d="M21.7017 9.26104L21.9999 9.41014L22.2981 9.26104L23.6314 8.59434L24.8239 7.99804L23.6314 7.40174L22.2981 6.73504L21.9999 6.58594L21.7017 6.73504L20.3684 7.40174L19.1759 7.99804L20.3684 8.59434L21.7017 9.26104ZM21.9999 7.33144L23.3332 7.99814L21.9999 8.66484L20.6666 7.99814L21.9999 7.33144Z" fill="white"/>
<path d="M29.3333 1.33475H30.6666V0.0351562C30.2193 0.0535563 29.7756 0.0841562 29.3333 0.120656V1.33475Z" fill="#FFD400"/>
<path d="M29.3333 1.33203H28V2.66533H29.3333V1.33203Z" fill="#FFD400"/>
<path d="M30.6666 2.66797H29.3333V4.00127H30.6666V2.66797Z" fill="#FFD400"/>
<path d="M30.6666 48H29.3333V49.3333H30.6666V48Z" fill="#FFD400"/>
<path d="M29.3333 49.332H28V50.6653H29.3333V49.332Z" fill="#FFD400"/>
<path d="M30.6666 50.668H29.3333V52.0013H30.6666V50.668Z" fill="#FFD400"/>
<path d="M14.6666 48H13.3333V49.3333H14.6666V48Z" fill="#FFD400"/>
<path d="M15.9999 49.332H14.6666V50.6653H15.9999V49.332Z" fill="#FFD400"/>
<path d="M14.6666 50.668H13.3333V52.0013H14.6666V50.668Z" fill="#FFD400"/>
<path d="M30.6666 60H29.3333V61.3333H30.6666V60Z" fill="#FFD400"/>
<path d="M29.3333 61.332H28V62.6653H29.3333V61.332Z" fill="#FFD400"/>
<path d="M29.3333 62.668V63.8822C29.7757 63.9187 30.2194 63.9493 30.6666 63.9677V62.6681L29.3333 62.668Z" fill="#FFD400"/>
<path d="M30.6666 36H29.3333V37.3333H30.6666V36Z" fill="#FFD400"/>
<path d="M29.3333 37.332H28V38.6653H29.3333V37.332Z" fill="#FFD400"/>
<path d="M30.6666 38.668H29.3333V40.0013H30.6666V38.668Z" fill="#FFD400"/>
<path d="M14.6666 36H13.3333V37.3333H14.6666V36Z" fill="#FFD400"/>
<path d="M15.9999 37.332H14.6666V38.6653H15.9999V37.332Z" fill="#FFD400"/>
<path d="M14.6666 38.668H13.3333V40.0013H14.6666V38.668Z" fill="#FFD400"/>
<path d="M30.6666 24H29.3333V25.3333H30.6666V24Z" fill="#FFD400"/>
<path d="M29.3333 25.332H28V26.6653H29.3333V25.332Z" fill="#FFD400"/>
<path d="M30.6666 26.668H29.3333V28.0013H30.6666V26.668Z" fill="#FFD400"/>
<path d="M14.6666 24H13.3333V25.3333H14.6666V24Z" fill="#FFD400"/>
<path d="M15.9999 25.332H14.6666V26.6653H15.9999V25.332Z" fill="#FFD400"/>
<path d="M14.6666 26.668H13.3333V28.0013H14.6666V26.668Z" fill="#FFD400"/>
<path d="M30.6666 12H29.3333V13.3333H30.6666V12Z" fill="#FFD400"/>
<path d="M29.3333 13.332H28V14.6653H29.3333V13.332Z" fill="#FFD400"/>
<path d="M30.6666 14.668H29.3333V16.0013H30.6666V14.668Z" fill="#FFD400"/>
<path d="M14.6666 12H13.3333V13.3333H14.6666V12Z" fill="#FFD400"/>
<path d="M15.9999 13.332H14.6666V14.6653H15.9999V13.332Z" fill="#FFD400"/>
<path d="M14.6666 14.668H13.3333V16.0013H14.6666V14.668Z" fill="#FFD400"/>
<path d="M15.9999 18H14.6666V19.3333H15.9999V18Z" fill="#FFD400"/>
<path d="M21.3333 17.9987V16.6654H22.6667V17.9987H24V16.6654V15.332H20V16.6654V17.9987H21.3333Z" fill="#FFD400"/>
<path d="M18 19.3346L18.6667 18.8902V16.668H17.3333V18.0013V19.3346H18Z" fill="#FFD400"/>
<path d="M26.6667 23.3346V22.0013V20.668H26L25.3333 21.1124V23.3346H26.6667Z" fill="#FFD400"/>
<path d="M20 24.6667H24V23.3333V22H22.6667V23.3333H21.3333V22H20V23.3333V24.6667Z" fill="#FFD400"/>
<path d="M29.3333 20.668H28V22.0013H29.3333V20.668Z" fill="#FFD400"/>
<path d="M29.3333 18H28V19.3333H29.3333V18Z" fill="#FFD400"/>
<path d="M17.3333 23.3346H18.6667V21.1124L18 20.668H17.3333V22.0013V23.3346Z" fill="#FFD400"/>
<path d="M15.9999 20.668H14.6666V22.0013H15.9999V20.668Z" fill="#FFD400"/>
<path d="M26 19.3346H26.6667V18.0013V16.668H25.3333V18.8902L26 19.3346Z" fill="#FFD400"/>
<path d="M24 18.668L22.6667 19.1124L22 19.3346L21.3333 19.1124L20 18.668L20.3333 19.3346L20.6667 20.0013L20.3333 20.668L20 21.3346L21.3333 20.8902L22 20.668L22.6667 20.8902L24 21.3346L23.6667 20.668L23.3333 20.0013L23.6667 19.3346L24 18.668Z" fill="#FFD400"/>
<path d="M22.6666 35.332H21.3333V36.6653H22.6666V35.332Z" fill="#FFD400"/>
<path d="M15.9999 31.332H14.6666V32.6653H15.9999V31.332Z" fill="#FFD400"/>
<path d="M17.3332 35.3333V36.6667H19.9999V35.3333H18.6666V34H15.9999H14.6666L15.9999 35.3333H17.3332Z" fill="#FFD400"/>
<path d="M29.3333 31.332H28V32.6653H29.3333V31.332Z" fill="#FFD400"/>
<path d="M25.3333 34V35.3333H24V36.6667H26.6667V35.3333H28L29.3333 34H28H25.3333Z" fill="#FFD400"/>
<path d="M22.6666 27.332H21.3333V28.6653H22.6666V27.332Z" fill="#FFD400"/>
<path d="M18.6666 29.9987V28.6654H19.9999V27.332H17.3332V28.6654H15.9999L14.6666 29.9987H15.9999H18.6666Z" fill="#FFD400"/>
<path d="M25.3333 28.6654V29.9987H28H29.3333L28 28.6654H26.6667V27.332H24V28.6654H25.3333Z" fill="#FFD400"/>
<path d="M21.3333 33.9987L22 34.6654L22.6667 33.9987L24 32.6654L24.6667 31.9987L24 31.332L22.6667 29.9987L22 29.332L21.3333 29.9987L20 31.332L19.3333 31.9987L20 32.6654L21.3333 33.9987ZM22 30.6654L23.3333 31.9987L22 33.332L20.6667 31.9987L22 30.6654Z" fill="#FFD400"/>
<path d="M15.9999 45.9999H18.6666V47.3332H19.9999L21.9999 47.9999L23.9999 47.3332H25.3332V45.9999H27.9999V44.6666H29.3332V43.3333H27.9999V42H25.3332V40.6667H23.9999L21.9999 40L19.9999 40.6667H18.6666V42H15.9999V43.3333H14.6666V44.6666H15.9999V45.9999ZM23.9999 43.3332L25.3332 42.6665L26.6665 43.3332V44.6665L25.3332 45.3332L23.9999 44.6665V43.3332ZM20.6666 42.0011L21.9999 41.3344L23.3332 42.0011V43.3344H20.6665L20.6666 42.0011ZM23.3333 43.3356L22 43.9999L20.6667 43.3356H23.3333ZM22 44.0011L23.3333 44.6654H20.6666L22 44.0011ZM20.6667 44.6665H23.3334V45.9998L22.0001 46.6665L20.6668 45.9998L20.6667 44.6665ZM17.3334 43.3332L18.6667 42.6665L20 43.3332V44.6665L18.6667 45.3332L17.3334 44.6665V43.3332Z" fill="#1E5B00"/>
<path d="M17.3332 11.332H18.6665L19.9998 12.6653H23.9998L25.3331 11.332H26.6664L27.9997 9.99863H29.333V5.99863H27.9997L26.6664 4.66533H25.3331L23.9998 3.33203H19.9998L18.6665 4.66533H17.3332L15.9999 5.99863H14.6666V9.99863H15.9999L17.3332 11.332ZM15.9999 7.99863V7.33193L17.3332 5.99863H18.6665L19.9998 4.66533H23.9998L25.3331 5.99863H26.6664L27.9997 7.33193V8.66523L26.6664 9.99853H25.3331L23.9998 11.3319H19.9998L18.6665 9.99853H17.3332L15.9999 8.66523V7.99863Z" fill="#1E5B00"/>
<path d="M17.3333 8.00127H19.1759L20.3685 7.40497L21.7018 6.73837L22 6.58927V5.33457V4.66797L20 6.00127H18.6667V7.33457L17.3333 8.00127Z" fill="#1E5B00"/>
<path d="M26.6667 8H24.8241L23.6315 8.5963L22.2982 9.2629L22 9.412V10.6667V11V11.3333L24 10H25.3333V9L26.6667 8Z" fill="#1E5B00"/>
<path d="M17.3333 18H16V19.3333H17.3333V18Z" fill="#1E5B00"/>
<path d="M17.3333 20.668H16V22.0013H17.3333V20.668Z" fill="#1E5B00"/>
<path d="M27.9999 18H26.6666V19.3333H27.9999V18Z" fill="#1E5B00"/>
<path d="M27.9999 20.668H26.6666V22.0013H27.9999V20.668Z" fill="#1E5B00"/>
<path d="M19.9999 18.0013V16.668H18.6666V18.8902L19.9999 18.0013Z" fill="#1E5B00"/>
<path d="M19.9999 23.3316V21.9983L18.6666 21.1094V23.3316H19.9999Z" fill="#1E5B00"/>
<path d="M25.3333 18.8902V16.668H24V18.0013L25.3333 18.8902Z" fill="#1E5B00"/>
<path d="M25.3333 23.3316V21.1094L24 21.9983V23.3316H25.3333Z" fill="#1E5B00"/>
<path d="M18.6666 33.9985V35.3318H19.9999V36.6651H21.3332V35.3318H22.6665V36.6651H23.9998V35.3318H25.3331V33.9985H29.3331V32.6652H27.9998V31.3319H29.3331V29.9986H25.3331V28.6653H23.9998V27.332H22.6665V28.6653H21.3332V27.332H19.9999V28.6653H18.6666V29.9986H14.6666V31.3319H15.9999V32.6652H14.6666V33.9985H18.6666ZM25.3333 31.3318H26.6666V32.6651H25.3333V31.3318ZM20 31.3318L21.3333 29.9985L22 29.3318L22.6667 29.9985L24 31.3318L24.6667 31.9985L24 32.6652L22.6667 33.9985L22 34.6652L21.3333 33.9985L20 32.6652L19.3333 31.9985L20 31.3318ZM17.3333 31.3318H18.6666V32.6651H17.3333V31.3318Z" fill="#1E5B00"/>
<path d="M29.3332 53.9987L25.3332 51.332H18.6665L14.6665 53.9987V57.9987L18.6665 60.6654H25.3332L29.3332 57.9987V53.9987ZM27.9999 55.332V57.9987L25.3332 59.332H18.6665L15.9998 57.9987V53.9987L18.6665 52.6654H25.3332L27.9999 53.9987V55.332Z" fill="#1E5B00"/>
<path d="M24 58H22V59.3333H24V58Z" fill="#FFD400"/>
<path d="M25.3333 56.6667L24 58H25.3333H26.6667V56.6667H28V56H25.3333V56.6667Z" fill="#FFD400"/>
<path d="M18.6667 55.3333L20 54H18.6667H17.3333V55.3333H16V56H18.6667V55.3333Z" fill="#FFD400"/>
<path d="M22 52.668H20V54.0013H22V52.668Z" fill="#FFD400"/>
<path d="M20 58L18.6667 56.6667V56H16V56.6667H17.3333V58H16L18.6667 59.3333V58H20Z" fill="white"/>
<path d="M22 58H20V59.3333H22V58Z" fill="white"/>
<path d="M18.6667 54.0013V52.668L16 54.0013H17.3333H18.6667Z" fill="white"/>
<path d="M25.3333 58V59.3333L28 58H26.6667H25.3333Z" fill="white"/>
<path d="M25.3333 54.0013H24L25.3333 55.3346V56.0013H28V55.3346H26.6667V54.0013H28L25.3333 52.668V54.0013Z" fill="white"/>
<path d="M24 52.668H22V54.0013H24V52.668Z" fill="white"/>
<path d="M14.6666 25.332H13.3333V26.6653H14.6666V25.332Z" fill="#F0263C"/>
<path d="M30.6666 1.33203H29.3333V2.66533H30.6666V1.33203Z" fill="#F0263C"/>
<path d="M14.6666 49.332H13.3333V50.6653H14.6666V49.332Z" fill="#F0263C"/>
<path d="M30.6666 13.332H29.3333V14.6653H30.6666V13.332Z" fill="#F0263C"/>
<path d="M30.6666 49.332H29.3333V50.6653H30.6666V49.332Z" fill="#F0263C"/>
<path d="M30.6666 61.332H29.3333V62.6653H30.6666V61.332Z" fill="#F0263C"/>
<path d="M30.6666 37.332H29.3333V38.6653H30.6666V37.332Z" fill="#F0263C"/>
<path d="M30.6666 25.332H29.3333V26.6653H30.6666V25.332Z" fill="#F0263C"/>
<path d="M14.6666 37.332H13.3333V38.6653H14.6666V37.332Z" fill="#F0263C"/>
<path d="M29.3333 62.6686H28V61.3353H29.3333V60.002H30.6666V52.002H29.3333V50.6687H28V49.3354H29.3333V48.0021H30.6666V40.0021H29.3333V38.6688H28V37.3355H29.3333V36.0022H30.6666V28.0022H29.3333V26.6689H28V25.3356H29.3333V24.0023H30.6666V16.0023H29.3333V14.669H28V13.3357H29.3333V12.0024H30.6666V4.00189H29.3333V2.66859H28V1.33529H29.3333V0.121094C23.3903 0.611894 17.9104 2.72419 13.3333 6.01819V12.0019H14.6666V13.3352H15.9999V14.6685H14.6666V16.0018H13.3333V24.0018H14.6666V25.3351H15.9999V26.6684H14.6666V28.0017H13.3333V36.0017H14.6666V37.335H15.9999V38.6683H14.6666V40.0016H13.3333V48.0016H14.6666V49.3349H15.9999V50.6682H14.6666V52.0015H13.3333V57.9852C17.9104 61.2792 23.3903 63.3915 29.3333 63.8823V62.6686ZM14.6667 10.0019V6.00189H16L17.3333 4.66859H18.6666L19.9999 3.33529H23.9999L25.3332 4.66859H26.6665L27.9998 6.00189H29.3331V10.0019H27.9998L26.6665 11.3352H25.3332L23.9999 12.6685H19.9999L18.6666 11.3352H17.3333L16 10.0019H14.6667ZM14.6667 18.0019H17.3334V16.6686H20.0001V15.3353H24.0001V16.6686H26.6668V18.0019H29.3335V19.3352H26.0002L25.3335 18.8907L24.0002 18.0018H22.6669V16.6685H21.3336V18.0018H20.0003L18.667 18.8907L18.0003 19.3352H14.667L14.6667 18.0019ZM23.6667 20.6686L24 21.3353L22.6667 20.8908L22 20.6686L21.3333 20.8908L20 21.3353L20.3333 20.6686L20.6666 20.0019L20.3333 19.3352L20 18.6685L21.3333 19.113L22 19.3352L22.6667 19.113L24 18.6685L23.6667 19.3352L23.3334 20.0019L23.6667 20.6686ZM14.6667 22.0019V20.6686H18L18.6667 21.1131L20 22.002H21.3333V23.3353H22.6666V22.002H23.9999L25.3332 21.1131L25.9999 20.6686H29.3332V22.0019H26.6665V23.3352H23.9998V24.6685H19.9998V23.3352H17.3331V22.0019H14.6667ZM14.6667 34.0019V30.0019L16 28.6686H17.3333V27.3353H26.6666V28.6686H27.9999L29.3332 30.0019V34.0019L27.9999 35.3352H26.6666V36.6685H17.3333V35.3352H16L14.6667 34.0019ZM14.6667 46.0019V42.0019H16V40.6686H18.6667L20 39.3353H24L25.3333 40.6686H28V42.0019H29.3333V46.0019H28V47.3352H25.3333L24 48.6685H20L18.6667 47.3352H16V46.0019H14.6667ZM18.6667 60.6686L14.6667 58.0019V54.0019L18.6667 51.3352H25.3334L29.3334 54.0019V58.0019L25.3334 60.6686H18.6667Z" fill="#F0263C"/>
<path d="M14.6666 13.332H13.3333V14.6653H14.6666V13.332Z" fill="#F0263C"/>
<path d="M23.3333 42H20.6666V43.3333H23.3333V42Z" fill="#F0263C"/>
<path d="M23.3333 44.668H20.6666V46.0013H23.3333V44.668Z" fill="#F0263C"/>
<path d="M18.6667 42.668L17.3333 43.3346H20L18.6667 42.668Z" fill="#F0263C"/>
<path d="M20 44.668H17.3333L18.6667 45.3346L20 44.668Z" fill="#F0263C"/>
<path d="M25.3333 42.668L24 43.3346H26.6667L25.3333 42.668Z" fill="#F0263C"/>
<path d="M26.6667 44.668H24L25.3333 45.3346L26.6667 44.668Z" fill="#F0263C"/>
<path d="M22 10.6667V9.412L21.7018 9.2629L20.3685 8.5963L19.1759 8H17.3333L18.6667 8.6667V10H20L22 11.3333V11V10.6667Z" fill="#F0263C"/>
<path d="M22 6.58927L22.2982 6.73837L23.6315 7.40497L24.8241 8.00127H26.6667L25.3333 7.33457V6.00127H24L22 4.66797V5.33457V6.58927Z" fill="#F0263C"/>
<path d="M23.3332 7.99873L21.9999 7.33203L20.6666 7.99873L21.9999 8.66543L23.3332 7.99873Z" fill="#F0263C"/>
<path d="M21.9999 30.668L20.6666 32.0013L21.9999 33.3347L23.3333 32.0013L21.9999 30.668Z" fill="#F0263C"/>
<path d="M18.6666 31.332H17.3333V32.6653H18.6666V31.332Z" fill="#F0263C"/>
<path d="M26.6666 31.332H25.3333V32.6653H26.6666V31.332Z" fill="#F0263C"/>
<path d="M19.9999 54L18.6666 55.3333V56.6666L19.9999 57.9999H23.9999L25.3332 56.6666V55.3333L23.9999 54H19.9999ZM23.6314 55.4037L24.8239 56L23.6314 56.5963L22.2981 57.263L21.9999 57.4121L21.7017 57.263L20.3684 56.5963L19.1759 56L20.3684 55.4037L21.7017 54.737L21.9999 54.5879L22.2981 54.737L23.6314 55.4037Z" fill="#F0263C"/>
<path d="M17.3333 54H16V55.3333H17.3333V54Z" fill="#F0263C"/>
<path d="M19.9999 52.668H18.6666V54.0013H19.9999V52.668Z" fill="#F0263C"/>
<path d="M17.3333 56.668H16V58.0013H17.3333V56.668Z" fill="#F0263C"/>
<path d="M19.9999 58H18.6666V59.3333H19.9999V58Z" fill="#F0263C"/>
<path d="M27.9999 56.668H26.6666V58.0013H27.9999V56.668Z" fill="#F0263C"/>
<path d="M25.3333 58H24V59.3333H25.3333V58Z" fill="#F0263C"/>
<path d="M27.9999 54H26.6666V55.3333H27.9999V54Z" fill="#F0263C"/>
<path d="M25.3333 52.668H24V54.0013H25.3333V52.668Z" fill="#F0263C"/>
<path d="M20.6666 55.9987L21.9999 56.6654L23.3332 55.9987L21.9999 55.332L20.6666 55.9987Z" fill="#F0263C"/>
<path d="M21.7017 54.7389L20.3684 55.4056L19.1759 56.0019L20.3684 56.5982L21.7017 57.2649L21.9999 57.414L22.2981 57.2649L23.6314 56.5982L24.8239 56.0019L23.6314 55.4056L22.2981 54.7389L21.9999 54.5898L21.7017 54.7389ZM23.3332 56.0018L21.9999 56.6685L20.6666 56.0018L21.9999 55.3351L23.3332 56.0018Z" fill="white"/>
</g>
</g>
<defs>
<clipPath id="clip0_12133_19092">
<rect width="64" height="64" fill="white"/>
</clipPath>
</defs>
</svg>
