<svg width="64" height="64" viewBox="0 0 64 64" fill="none" xmlns="http://www.w3.org/2000/svg">
<mask id="mask0_12133_19091" style="mask-type:luminance" maskUnits="userSpaceOnUse" x="0" y="0" width="64" height="64">
<path d="M64 0H0V64H64V0Z" fill="white"/>
</mask>
<g mask="url(#mask0_12133_19091)">
<path d="M32 64C49.6731 64 64 49.6731 64 32C64 14.3269 49.6731 0 32 0C14.3269 0 0 14.3269 0 32C0 49.6731 14.3269 64 32 64Z" fill="#F0263C"/>
<path d="M46.6667 28L42.6666 32L46.6667 36L50.6667 32L46.6667 28Z" fill="white"/>
<path d="M20 32.0001C20 25.0045 25.6711 19.3334 32.6667 19.3334C35.6615 19.3334 38.4088 20.3784 40.5771 22.116C37.6475 18.3934 33.1047 16 28.0001 16C19.1636 16 12.0001 23.1635 12.0001 32C12.0001 40.8365 19.1636 48 28.0001 48C33.1047 48 37.6475 45.6066 40.5771 41.884C38.4088 43.6215 35.6615 44.6666 32.6667 44.6666C25.6711 44.6666 20 38.9957 20 32.0001Z" fill="white"/>
</g>
</svg>
