<svg width="64" height="64" viewBox="0 0 64 64" fill="none" xmlns="http://www.w3.org/2000/svg">
<mask id="mask0_12133_19234" style="mask-type:luminance" maskUnits="userSpaceOnUse" x="0" y="0" width="64" height="64">
<path d="M64 0H0V64H64V0Z" fill="white"/>
</mask>
<g mask="url(#mask0_12133_19234)">
<path d="M32 64C49.6731 64 64 49.6731 64 32C64 14.3269 49.6731 0 32 0C14.3269 0 0 14.3269 0 32C0 49.6731 14.3269 64 32 64Z" fill="#4DAFE3"/>
<path d="M20 6.6667H24.4036L32 1.6025V0C31.1335 0 30.2777 0.0444 29.4284 0.1119L20 6.3975V6.6667Z" fill="#F0263C"/>
<path d="M20 14.668V14.9371L29.5964 21.3346H32V19.7322L24.4036 14.668H20Z" fill="#F0263C"/>
<path d="M12.0001 14.9371V14.668H7.59645L3.54415 17.3695C2.88725 18.6444 2.31165 19.9672 1.82825 21.3346H2.40375L12.0001 14.9371Z" fill="#F0263C"/>
<path d="M13.3334 21.3321H18.6667V13.3321H32V7.99876H18.6667V2.91016C16.7831 3.77506 14.9987 4.81656 13.3334 6.01506V7.99876H10.8454C9.04316 9.58856 7.42306 11.3775 6.01636 13.3321H13.3335L13.3334 21.3321Z" fill="#F0263C"/>
<path d="M26.4614 0.488281C24.2186 0.879881 22.0564 1.50308 20 2.33578V4.79598L26.4614 0.488281Z" fill="#191977"/>
<path d="M32 18.1298V14.668H26.8073L32 18.1298Z" fill="#191977"/>
<path d="M4.80725 21.3342H11.9999V16.5391L4.80725 21.3342Z" fill="#191977"/>
<path d="M32 6.66502V3.20312L26.8073 6.66502H32Z" fill="#191977"/>
<path d="M20 21.3342H27.1927L20 16.5391V21.3342Z" fill="#191977"/>
<path d="M18.6667 2.91278V8.00138H32V6.66808H26.8073L32 3.20628V1.60388L24.4036 6.66808H20V6.39898L29.4284 0.113281C28.4256 0.193081 27.4362 0.318681 26.4614 0.488881L20 4.79658V2.33638C19.5501 2.51858 19.1061 2.71108 18.6667 2.91278Z" fill="white"/>
<path d="M13.3333 6.01562C12.4708 6.63633 11.6404 7.29783 10.8453 7.99933H13.3333V6.01562Z" fill="white"/>
<path d="M18.6667 21.332H20V16.5369L27.1927 21.332H29.5964L20 14.9345V14.6654H24.4036L32 19.7296V18.1272L26.8073 14.6654H32V13.332H18.6667V21.332Z" fill="white"/>
<path d="M2.40356 21.332H4.80716L11.9999 16.5368V21.332H13.3332V13.332H6.01606C5.70206 13.7684 5.39916 14.2129 5.10706 14.6653C5.08566 14.6984 5.06446 14.7317 5.04326 14.7649C4.50416 15.6063 4.00386 16.4741 3.54386 17.3669L7.59616 14.6654H11.9998V14.9345L2.40356 21.332Z" fill="white"/>
<path d="M56.3333 19.0352L53.0334 22.3351L56.3333 25.6349L59.6331 22.3351L56.3333 19.0352Z" fill="#FFD400"/>
<path d="M49.0001 26.3672L45.7002 29.667L49.0001 32.9669L52.2999 29.667L49.0001 26.3672Z" fill="#FFD400"/>
<path d="M41.3333 29.0352L38.0334 32.3351L41.3333 35.6349L44.6332 32.3351L41.3333 29.0352Z" fill="#FFD400"/>
<path d="M56.3333 36.3672L53.0334 39.667L56.3333 42.9669L59.6331 39.667L56.3333 36.3672Z" fill="#FFD400"/>
<path d="M49.0001 41.0352L45.7002 44.3351L49 47.6349L52.2999 44.3351L49.0001 41.0352Z" fill="#FFD400"/>
<path d="M32.3333 41.0352L29.0334 44.3351L32.3333 47.6349L35.6331 44.3351L32.3333 41.0352Z" fill="#FFD400"/>
<path d="M41.3333 48.3672L38.0334 51.667L41.3333 54.9669L44.6332 51.667L41.3333 48.3672Z" fill="#FFD400"/>
<path d="M32.3333 50.3672L29.0334 53.667L32.3333 56.9669L35.6331 53.667L32.3333 50.3672Z" fill="#FFD400"/>
<path d="M23.0001 52.3672L19.7002 55.667L23 58.9669L26.2999 55.667L23.0001 52.3672Z" fill="#FFD400"/>
</g>
</svg>
