<svg width="64" height="64" viewBox="0 0 64 64" fill="none" xmlns="http://www.w3.org/2000/svg">
<mask id="mask0_12133_19032" style="mask-type:luminance" maskUnits="userSpaceOnUse" x="0" y="0" width="64" height="64">
<path d="M64 0H0V64H64V0Z" fill="white"/>
</mask>
<g mask="url(#mask0_12133_19032)">
<path d="M1.82812 21.3347H62.1719C60.7665 17.3598 58.6007 13.7458 55.8452 10.668H8.15473C5.39922 13.7458 3.23353 17.3598 1.82812 21.3347Z" fill="#FFD400"/>
<path d="M8.15466 10.6667H55.8452C49.9859 4.1219 41.4757 0 32 0C22.5243 0 14.0141 4.1219 8.15466 10.6667Z" fill="black"/>
<path d="M0 31.9987H64C64 28.2575 63.3518 24.6692 62.1719 21.332H1.8281C0.6482 24.6692 0 28.2575 0 31.9987Z" fill="#F0263C"/>
<path d="M8.15473 53.3347H55.8452C58.6007 50.2569 60.7665 46.6429 62.1719 42.668H1.82812C3.23354 46.6429 5.39922 50.2569 8.15473 53.3347Z" fill="#FFD400"/>
<path d="M1.8281 42.6667H62.1719C63.3518 39.3296 64 35.7412 64 32H0C0 35.7412 0.6482 39.3295 1.8281 42.6667Z" fill="black"/>
<path d="M55.8453 53.332H8.15466C14.014 59.8768 22.5242 63.9987 32 63.9987C41.4758 63.9987 49.9859 59.8768 55.8453 53.332Z" fill="#F0263C"/>
<path d="M32 41.3346C37.1547 41.3346 41.3333 37.156 41.3333 32.0013C41.3333 26.8467 37.1547 22.668 32 22.668C26.8454 22.668 22.6667 26.8467 22.6667 32.0013C22.6667 37.156 26.8454 41.3346 32 41.3346Z" fill="white"/>
<path d="M28 26.6667L29.3333 25.3333L30.6667 24H32V26.6667L30.6667 29.3333L34.6667 30.6667L37.3333 33.3333V36V37.3333H36L34.6667 36H33.3333V38.6667L34.6667 40H30.6667L32 38.6667V36H29.3333V37.3333H26.6667L28 36L29.3333 34.6667H32L28 32V29.3333L30.6667 26.6667H28Z" fill="black"/>
<path d="M30.6667 30.668L33.3333 33.3346L34.6667 34.668V36.0013L36 37.3346H37.3333V33.3346L34.6667 30.668H30.6667Z" fill="#F0263C"/>
<path d="M34.6667 33.3346H33.3333L30.6667 30.668H33.3333L36 33.3346H34.6667Z" fill="white"/>
</g>
</svg>
