<svg width="64" height="64" viewBox="0 0 64 64" fill="none" xmlns="http://www.w3.org/2000/svg">
<mask id="mask0_12133_19205" style="mask-type:luminance" maskUnits="userSpaceOnUse" x="0" y="0" width="64" height="64">
<path d="M64 0H0V64H64V0Z" fill="white"/>
</mask>
<g mask="url(#mask0_12133_19205)">
<path d="M25.0898 0.7566L25.6666 1.3334L23.6666 3.3334L21.9519 1.6188C18.8433 2.6465 15.9475 4.1366 13.3427 6.0096L13.9999 6.6667L11.9999 8.6667L11.1067 7.7735C10.1204 8.6249 9.1808 9.5289 8.3051 10.4931L9.8119 12L7.8119 14L6.4931 12.681C5.7468 13.6646 5.0589 14.6939 4.4285 15.7619L6 17.3333L4 19.3333L3.0428 18.3761C1.0942 22.5103 0 27.1266 0 32H32V0C29.6265 0 27.3161 0.2663 25.0898 0.7566Z" fill="#191977"/>
<path d="M49.686 5.3333C44.6189 1.966 38.54 0 32 0V5.3333H49.686Z" fill="white"/>
<path d="M32 10.6654H55.8453C54.03 8.63763 51.9606 6.84363 49.686 5.33203H32V10.6654Z" fill="#F0263C"/>
<path d="M32 16.0013H59.7083C58.6024 14.0904 57.3087 12.3026 55.8452 10.668H31.9999L32 16.0013Z" fill="white"/>
<path d="M32 21.3333H62.1719C61.5129 19.4695 60.6847 17.6871 59.7083 16H32V21.3333Z" fill="#F0263C"/>
<path d="M32 26.6653H63.5492C63.2411 24.8298 62.7784 23.0473 62.172 21.332H32.0001L32 26.6653Z" fill="white"/>
<path d="M32 32.0013H64C64 30.1832 63.8405 28.4033 63.5492 26.668H32V32.0013Z" fill="#F0263C"/>
<path d="M32 32H0C0 33.8181 0.1595 35.598 0.4508 37.3333H63.5491C63.8404 35.598 63.9999 33.818 63.9999 32H32Z" fill="white"/>
<path d="M1.82811 42.6653H62.1719C62.7784 40.9499 63.241 39.1675 63.5491 37.332H0.450806C0.758906 39.1675 1.22171 40.95 1.82811 42.6653Z" fill="#F0263C"/>
<path d="M4.29172 48.0013H59.7084C60.6848 46.3141 61.513 44.5318 62.172 42.668H1.82812C2.48712 44.5318 3.31532 46.3142 4.29172 48.0013Z" fill="white"/>
<path d="M8.15475 53.3333H55.8452C57.3087 51.6987 58.6025 49.9109 59.7084 48H4.29175C5.39765 49.9109 6.69125 51.6987 8.15475 53.3333Z" fill="#F0263C"/>
<path d="M14.314 58.6653H49.6859C51.9605 57.1537 54.0299 55.3597 55.8452 53.332H8.15466C9.96996 55.3597 12.0394 57.1537 14.314 58.6653Z" fill="white"/>
<path d="M32 64.0013C38.54 64.0013 44.6189 62.0354 49.686 58.668H14.314C19.3811 62.0354 25.46 64.0013 32 64.0013Z" fill="#F0263C"/>
<path d="M7.81201 20.668L5.81201 22.668L7.81201 24.668L9.81201 22.668L7.81201 20.668Z" fill="white"/>
<path d="M15.6667 20.668L13.6667 22.668L15.6667 24.668L17.6667 22.668L15.6667 20.668Z" fill="white"/>
<path d="M23.6667 20.668L21.6667 22.668L23.6667 24.668L25.6667 22.668L23.6667 20.668Z" fill="white"/>
<path d="M15.6667 10L13.6667 12L15.6667 14L17.6667 12L15.6667 10Z" fill="white"/>
<path d="M23.6667 10L21.6667 12L23.6667 14L25.6667 12L23.6667 10Z" fill="white"/>
<path d="M4 26L2 28L4 30L6 28L4 26Z" fill="white"/>
<path d="M12 26L10 28L12 30L14 28L12 26Z" fill="white"/>
<path d="M19.8546 26L17.8546 28L19.8546 30L21.8546 28L19.8546 26Z" fill="white"/>
<path d="M27.8546 26L25.8546 28L27.8546 30L29.8546 28L27.8546 26Z" fill="white"/>
<path d="M12 15.332L10 17.332L12 19.332L14 17.332L12 15.332Z" fill="white"/>
<path d="M19.8546 15.332L17.8546 17.332L19.8546 19.332L21.8546 17.332L19.8546 15.332Z" fill="white"/>
<path d="M27.8546 15.332L25.8546 17.332L27.8546 19.332L29.8546 17.332L27.8546 15.332Z" fill="white"/>
<path d="M19.8546 4.66797L17.8546 6.66797L19.8546 8.66797L21.8546 6.66797L19.8546 4.66797Z" fill="white"/>
<path d="M27.8546 4.66797L25.8546 6.66797L27.8546 8.66797L29.8546 6.66797L27.8546 4.66797Z" fill="white"/>
<path d="M9.81209 11.9991L8.30529 10.4922C7.66869 11.193 7.06619 11.9247 6.49329 12.6801L7.81209 13.9991L9.81209 11.9991Z" fill="white"/>
<path d="M6.00005 17.3331L4.42855 15.7617C3.92835 16.6093 3.46485 17.4805 3.04285 18.3759L4.00005 19.3331L6.00005 17.3331Z" fill="white"/>
<path d="M14 6.66491L13.3428 6.00781C12.5708 6.56301 11.8252 7.15161 11.1068 7.77181L12 8.66501L14 6.66491Z" fill="white"/>
<path d="M25.6667 1.33461L25.0899 0.757812C24.0228 0.992812 22.9763 1.28131 21.952 1.61991L23.6667 3.33451L25.6667 1.33461Z" fill="white"/>
</g>
</svg>
