<svg width="64" height="64" viewBox="0 0 64 64" fill="none" xmlns="http://www.w3.org/2000/svg">
<mask id="mask0_12133_19163" style="mask-type:luminance" maskUnits="userSpaceOnUse" x="0" y="0" width="64" height="64">
<path d="M64 0H0V64H64V0Z" fill="white"/>
</mask>
<g mask="url(#mask0_12133_19163)">
<path d="M32 64C49.6731 64 64 49.6731 64 32C64 14.3269 49.6731 0 32 0C14.3269 0 0 14.3269 0 32C0 49.6731 14.3269 64 32 64Z" fill="#191977"/>
<path d="M24 20.2553L8.71231 10.0635C8.09781 10.7156 7.51081 11.3931 6.95231 12.0951L24 23.4603V23.9985H15.1927L3.98711 16.5281C3.55421 17.3102 3.15711 18.1142 2.78951 18.9346L10.3853 23.9984H1.00821C0.783206 24.8725 0.602106 25.7637 0.450806 26.6651H26.6666V0.449219C25.7653 0.600519 24.874 0.781619 23.9999 1.00662L24 20.2553Z" fill="white"/>
<path d="M0.450806 37.332C0.602106 38.2333 0.783206 39.1246 1.00821 39.9987H10.3853L2.78961 45.0625C3.15721 45.883 3.55431 46.6869 3.98721 47.4691L15.1927 39.9987H24V40.5369L6.95231 51.9021C7.51081 52.604 8.09781 53.2815 8.71231 53.9336L24 43.7418V62.9905C24.8741 63.2155 25.7653 63.3966 26.6667 63.5479V37.3321L0.450806 37.332Z" fill="white"/>
<path d="M63.5493 26.6651C63.398 25.7638 63.2169 24.8725 62.9919 23.9984H53.6147L61.2104 18.9346C60.8429 18.1141 60.4459 17.3102 60.0129 16.5281L48.8073 23.9985H40V23.4603L57.0476 12.0951C56.489 11.3932 55.9022 10.7157 55.2877 10.0635L40 20.2553V1.00662C39.1259 0.781619 38.2347 0.600519 37.3333 0.449219V26.665L63.5493 26.6651Z" fill="white"/>
<path d="M37.3333 37.3321V63.5479C38.2346 63.3966 39.1259 63.2155 40 62.9905V43.7418L55.2877 53.9336C55.9022 53.2815 56.4891 52.604 57.0476 51.9021L40 40.5369V39.9987H48.8073L60.0126 47.4691C60.4455 46.6869 60.8428 45.883 61.2104 45.0625L53.6147 39.9987H62.9916C63.2166 39.1246 63.3977 38.2334 63.549 37.332L37.3333 37.3321Z" fill="white"/>
<path d="M24 24.001V23.4628L6.95226 12.0977C5.84696 13.4869 4.85226 14.9674 3.98706 16.5306L15.1927 24.001H24Z" fill="#F0263C"/>
<path d="M60.0129 16.5306C59.1477 14.9673 58.1531 13.4868 57.0477 12.0977L40 23.4629V24.0011H48.8073L60.0129 16.5306Z" fill="#F0263C"/>
<path d="M3.98718 47.4705C4.85238 49.0338 5.84698 50.5143 6.95228 51.9034L24 40.5382V40H15.1927L3.98718 47.4705Z" fill="#F0263C"/>
<path d="M40 40V40.5382L57.0477 51.9034C58.153 50.5142 59.1476 49.0337 60.0128 47.4705L48.8073 40.0001L40 40Z" fill="#F0263C"/>
<path d="M63.5492 26.6667H37.3334V0.4508C35.598 0.1595 33.8181 0 32 0C30.1819 0 28.402 0.1595 26.6667 0.4508V26.6666H0.4508C0.1595 28.402 0 30.1819 0 32C0 33.8181 0.1595 35.598 0.4508 37.3333H26.6666V63.5491C28.4019 63.8404 30.1819 63.9999 31.9999 63.9999C33.8179 63.9999 35.5979 63.8404 37.3332 63.5491V37.3333H63.549C63.8403 35.598 63.9998 33.818 63.9998 32C63.9998 30.182 63.8405 28.402 63.5492 26.6667Z" fill="#F0263C"/>
</g>
</svg>
