<svg width="64" height="64" viewBox="0 0 64 64" fill="none" xmlns="http://www.w3.org/2000/svg">
<mask id="mask0_12133_19206" style="mask-type:luminance" maskUnits="userSpaceOnUse" x="0" y="0" width="64" height="64">
<path d="M64 0H0V64H64V0Z" fill="white"/>
</mask>
<g mask="url(#mask0_12133_19206)">
<path d="M32 64C49.6731 64 64 49.6731 64 32C64 14.3269 49.6731 0 32 0C14.3269 0 0 14.3269 0 32C0 49.6731 14.3269 64 32 64Z" fill="white"/>
<path d="M12 28.0013L13.3333 26.668H10.6667H9.33335L10.6667 28.0013L8.00005 36.1629L5.33335 28.0013L6.66675 26.668H2.66675L4.00005 28.0013L7.04955 37.3346L5.33335 38.668H10.6667L8.95045 37.3346L12 28.0013Z" fill="#007ACC"/>
<path d="M57.3335 28.0013L58.6667 26.668H54.6667L56 28.0013V37.3346L54.6667 38.668H58.6667L57.3335 37.3346V28.0013Z" fill="#007ACC"/>
<path d="M20 38.6667L21.3333 40V37.3333V36L20 34.6667L18.6667 33.3333V32L17.3333 30.6667V29.3333H16L14.6667 28V29.3333V30.6667L12 29.3333L13.3333 32L14.6667 33.3333H13.3333L14.6667 36H13.3333L14.6667 37.3333V38.6667L16 40H14.6667L17.3333 41.3333V40L20 38.6667Z" fill="#1E5B00"/>
<path d="M32.0142 22.6667L34.6667 24H36V21.3333L34.6667 17.3333L33.3333 16.0004L31.3333 16H30.6667L29.3333 17.3333H28.6667H28L26.6667 20H29.3333L28 22.6667V24H29.3333L32.0142 22.6667Z" fill="#CC9500"/>
<path d="M20 42.6653L20.6667 43.9987L21.3333 45.332V46.6653L24 45.332L22.4 42.932L21.3333 41.332L20 42.6653Z" fill="#1E5B00"/>
<path d="M24.6667 28.0013H26H27.3333H28.6667H30H31.3333H32.6667H34H35.3333H36.6667H38H39.3333H40V24.0013V22.668L36 24.0013H34.6667L32.0143 22.668L29.3333 24.0013H28L24 22.668V24.0013V28.0013H24.6667Z" fill="#191977"/>
<path d="M44.4445 38.8889L46.6667 33.3333V32H45.3335L42.6667 40L44 38.6667L44.4445 38.8889Z" fill="#007ACC"/>
<path d="M46.6667 40.6667V42.6667L53.3335 37.3333V36H52L46.6667 40.6667Z" fill="#007ACC"/>
<path d="M52 33.3333V32H50.6667L44.9525 39.1429L46.6667 40L52 33.3333Z" fill="#007ACC"/>
<path d="M42.6668 41.332L41.3334 42.6653L40.4446 44.4432L40.0001 43.9987L37.3334 46.6653L40.0001 49.332L42.6668 46.6653L42.1334 46.132L44.0001 43.9987V42.6653L42.6668 41.332Z" fill="#007ACC"/>
<path d="M46.6667 40L44.9525 39.1429L44.4445 38.8889L44 38.6667L42.6667 40L41.3334 38.6667V37.3333V36L40 34.6667L41.3334 33.3333V32L50.6667 25.3333L57.3334 18.6667V17.3333V16L40 21.3333L41.3334 24H40V28L39.3334 34.6667L38 35.7333L36.6667 36.8L35.3333 37.7778L34 38.6667L32.6667 39.5555L32 40L31.3333 39.5555L30 38.6667L28.6667 37.7778L27.3333 36.8L26 35.7333L24.6667 34.6667L24 28V24H22.6667L24 21.3333L6.66675 16V17.3333V18.6667L13.3333 25.3333L22.6667 32V33.3333L24 34.6667V34.6961L22.6667 36V37.3333V38.6667L21.3333 40L20 38.6667L17.3333 40V41.3333V42.6667L18.6667 44H20.6667L20 42.6667L21.3333 41.3333L22.4 42.9333L22.6667 42.6667V41.3333L24 40L25.3333 38.6667V42.6667L32 48L38.6667 42.6667V38.6667L40 40L41.3334 41.3333V42.6667L42.6667 41.3333L44 42.6667V44H45.3334L46.6667 42.6667V40.6667V40Z" fill="#CC9500"/>
<path d="M34 28V38.6667L35.3333 37.7778V28H34Z" fill="white"/>
<path d="M31.3334 28V39.5555L32.0001 40L32.6668 39.5555V28H31.3334Z" fill="white"/>
<path d="M26 28V35.7333L27.3333 36.8V28H26Z" fill="white"/>
<path d="M28.6667 28V37.7778L30 38.6667V28H28.6667Z" fill="white"/>
<path d="M36.6667 28V36.8L38 35.7333V28H36.6667Z" fill="white"/>
<path d="M24 28L24.6667 34.6667V28H24Z" fill="white"/>
<path d="M39.3334 34.6667L40.0001 28H39.3334V34.6667Z" fill="white"/>
<path d="M24.6667 28V34.6667L26 35.7333V28H24.6667Z" fill="#F0263C"/>
<path d="M27.3334 28V36.8L28.6668 37.7778V28H27.3334Z" fill="#F0263C"/>
<path d="M30 28V38.6667L31.3333 39.5555V28H30Z" fill="#F0263C"/>
<path d="M32.6667 28V39.5555L34 38.6667V28H32.6667Z" fill="#F0263C"/>
<path d="M35.3334 28V37.7778L36.6668 36.8V28H35.3334Z" fill="#F0263C"/>
<path d="M38 28V35.7333L39.3333 34.6667V28H38Z" fill="#F0263C"/>
</g>
</svg>
