<svg width="64" height="64" viewBox="0 0 64 64" fill="none" xmlns="http://www.w3.org/2000/svg">
<mask id="mask0_12133_19093" style="mask-type:luminance" maskUnits="userSpaceOnUse" x="0" y="0" width="64" height="64">
<path d="M64 0H0V64H64V0Z" fill="white"/>
</mask>
<g mask="url(#mask0_12133_19093)">
<path d="M21.3333 42.6654H62.1719C63.3518 39.3283 64 35.7399 64 31.9987C64 28.2575 63.3518 24.6692 62.1719 21.332H21.3333V42.6654Z" fill="white"/>
<path d="M21.3333 21.3333H62.1719C57.7782 8.9061 45.9319 0 32 0C28.2588 0 24.6705 0.6482 21.3333 1.828V21.3333Z" fill="#1E5B00"/>
<path d="M62.1719 42.668H21.3333V62.1732C24.6704 63.3531 28.2588 64.0013 32 64.0013C45.9319 64.0013 57.7782 55.0952 62.1719 42.668Z" fill="black"/>
<path d="M21.3333 62.172V1.82812C8.9061 6.22192 0 18.0681 0 32.0001C0 45.9321 8.9061 57.7783 21.3333 62.172Z" fill="#F0263C"/>
</g>
</svg>
