<svg width="64" height="64" viewBox="0 0 64 64" fill="none" xmlns="http://www.w3.org/2000/svg">
<g clip-path="url(#clip0_12133_19251)">
<mask id="mask0_12133_19251" style="mask-type:luminance" maskUnits="userSpaceOnUse" x="0" y="0" width="64" height="64">
<path d="M64 0H0V64H64V0Z" fill="white"/>
</mask>
<g mask="url(#mask0_12133_19251)">
<path d="M32 64C49.6731 64 64 49.6731 64 32C64 14.3269 49.6731 0 32 0C14.3269 0 0 14.3269 0 32C0 49.6731 14.3269 64 32 64Z" fill="white"/>
<path d="M32 15.3346H59.3201C57.8144 12.8717 55.9809 10.6329 53.887 8.66797H32V15.3346Z" fill="#6D8DE4"/>
<path d="M32 28.6667H63.827C63.5884 26.362 63.0989 24.133 62.3976 22H32.0001L32 28.6667Z" fill="#6D8DE4"/>
<path d="M1.60247 41.9987H62.3976C63.099 39.8657 63.5885 37.6367 63.827 35.332H0.172974C0.411574 37.6367 0.901174 39.8657 1.60247 41.9987Z" fill="#6D8DE4"/>
<path d="M10.113 55.3347H53.887C55.981 53.3697 57.8144 51.131 59.3201 48.668H4.67993C6.18563 51.1309 8.01913 53.3697 10.113 55.3347Z" fill="#6D8DE4"/>
<path d="M24.4587 20.2199L30.6667 18.6679L24.4587 17.1159L29.0589 12.6679L22.9069 14.4278L24.6667 8.27567L20.2187 12.8758L18.6667 6.66797L17.1146 12.8758L12.6667 8.27567L14.4264 14.4278L8.27445 12.6679L12.8747 17.1159L6.66675 18.6679L12.8747 20.2199L8.27445 24.6679L14.4264 22.9079L12.6667 29.0602L17.1146 24.4599L18.6667 30.6679L20.2187 24.4599L24.6667 29.0602L22.9069 22.9079L29.0589 24.6679L24.4587 20.2199Z" fill="#FFD400"/>
<path d="M18.6667 6.66797L17.1146 12.8758L17.5462 14.4862C17.9043 14.3905 18.2786 14.3346 18.6666 14.3346L18.6667 6.66797Z" fill="#5A2919"/>
<path d="M12.6667 8.27344L14.4265 14.4256L15.6026 15.6016C15.8692 15.3348 16.1729 15.1061 16.5017 14.9158L12.6667 8.27344Z" fill="#5A2919"/>
<path d="M8.27441 12.668L12.8747 17.116L14.4851 17.5475C14.5841 17.1774 14.7292 16.827 14.9167 16.503L8.27441 12.668Z" fill="#5A2919"/>
<path d="M6.66675 18.668L12.8747 20.22L14.4851 19.7885C14.3894 19.4305 14.3334 19.0562 14.3334 18.668H6.66675Z" fill="#5A2919"/>
<path d="M14.9167 20.832L8.27441 24.667L14.4264 22.9071L15.6025 21.7311C15.3359 21.4643 15.1072 21.1607 14.9167 20.832Z" fill="#5A2919"/>
<path d="M12.6667 29.0604L17.1146 24.4602L17.5462 22.8498C17.1761 22.7508 16.8258 22.6055 16.5016 22.418L12.6667 29.0604Z" fill="#5A2919"/>
<path d="M18.6667 30.666L20.2188 24.4581L19.7872 22.8477C19.4291 22.9434 19.0548 22.9993 18.6668 22.9993L18.6667 30.666Z" fill="#5A2919"/>
<path d="M20.8318 22.4162L24.6668 29.0586L22.907 22.9064L21.7309 21.7305C21.4643 21.9973 21.1606 22.2259 20.8318 22.4162Z" fill="#5A2919"/>
<path d="M29.0589 24.6686L24.4586 20.2206L22.8482 19.7891C22.7492 20.1592 22.6041 20.5096 22.4166 20.8336L29.0589 24.6686Z" fill="#5A2919"/>
<path d="M30.6668 18.6653L24.4588 17.1133L22.8484 17.5448C22.9441 17.9028 23.0001 18.2771 23.0001 18.6653H30.6668Z" fill="#5A2919"/>
<path d="M22.4168 16.503L29.0591 12.668L22.9071 14.4279L21.731 15.6039C21.9976 15.8707 22.2263 16.1743 22.4168 16.503Z" fill="#5A2919"/>
<path d="M24.6667 8.27344L20.2188 12.8736L19.7872 14.484C20.1573 14.583 20.5076 14.7283 20.8318 14.9158L24.6667 8.27344Z" fill="#5A2919"/>
<path d="M17.3333 17.332H16V18.6653H17.3333V17.332Z" fill="#5A2919"/>
<path d="M19.3333 21.3333H18L17.3333 20H20L19.3333 21.3333Z" fill="#5A2919"/>
<path d="M21.3333 17.332H20V18.6653H21.3333V17.332Z" fill="#5A2919"/>
</g>
</g>
<defs>
<clipPath id="clip0_12133_19251">
<rect width="64" height="64" fill="white"/>
</clipPath>
</defs>
</svg>
