<svg width="64" height="64" viewBox="0 0 64 64" fill="none" xmlns="http://www.w3.org/2000/svg">
<mask id="mask0_12133_19095" style="mask-type:luminance" maskUnits="userSpaceOnUse" x="0" y="0" width="64" height="64">
<path d="M64 0H0V64H64V0Z" fill="white"/>
</mask>
<g mask="url(#mask0_12133_19095)">
<path d="M62.189 21.3333C57.7943 8.906 45.9455 0 32.0105 0C18.0755 0 6.22673 8.906 1.83203 21.3333H62.189Z" fill="#007ACC"/>
<path d="M62.189 42.668H1.83203C6.22673 55.0953 18.0755 64.0013 32.0105 64.0013C45.9455 64.0013 57.7942 55.0953 62.189 42.668Z" fill="#619B27"/>
<path d="M62.9991 24H1.02195C-0.326653 29.2424 -0.326653 34.7571 1.02195 39.9996H62.9991C64.3477 34.7572 64.3476 29.2425 62.9991 24Z" fill="white"/>
<path d="M62.1929 21.332H1.82817C1.51827 22.2107 1.25287 23.1011 1.02197 23.9987H62.9991C62.7682 23.1011 62.5029 22.2107 62.1929 21.332Z" fill="#F0263C"/>
<path d="M62.9992 40H1.02197C1.25287 40.8976 1.51827 41.788 1.82817 42.6667H62.1929C62.5028 41.788 62.7682 40.8976 62.9992 40Z" fill="#F0263C"/>
<path d="M39.3457 16.668L38.0121 18.0013L39.3454 19.3349L40.679 18.0016L39.3457 16.668Z" fill="white"/>
<path d="M34.678 16.668L33.3444 18.0013L34.6777 19.3349L36.0113 18.0016L34.678 16.668Z" fill="white"/>
<path d="M30.0102 16.668L28.6766 18.0013L30.01 19.3349L31.3436 18.0016L30.0102 16.668Z" fill="white"/>
<path d="M25.3425 16.668L24.0089 18.0014L25.3422 19.335L26.6758 18.0016L25.3425 16.668Z" fill="white"/>
<path d="M20.6749 16.668L19.3413 18.0014L20.6746 19.335L22.0082 18.0016L20.6749 16.668Z" fill="white"/>
<path d="M39.3456 12L38.012 13.3333L39.3453 14.6669L40.6789 13.3336L39.3456 12Z" fill="white"/>
<path d="M34.6778 12L33.3442 13.3333L34.6776 14.6669L36.0112 13.3336L34.6778 12Z" fill="white"/>
<path d="M30.0102 12L28.6766 13.3333L30.01 14.6669L31.3436 13.3336L30.0102 12Z" fill="white"/>
<path d="M25.3425 12L24.0089 13.3333L25.3422 14.6669L26.6758 13.3336L25.3425 12Z" fill="white"/>
<path d="M39.3456 7.33203L38.012 8.66534L39.3453 9.99894L40.6789 8.66564L39.3456 7.33203Z" fill="white"/>
<path d="M34.6778 7.33203L33.3442 8.66534L34.6776 9.99894L36.0112 8.66563L34.6778 7.33203Z" fill="white"/>
<path d="M30.0101 7.33203L28.6765 8.66534L30.0098 9.99894L31.3434 8.66564L30.0101 7.33203Z" fill="white"/>
<path d="M12.6729 13.3321C12.6729 10.4773 14.6689 8.09283 17.3406 7.48583C16.9111 7.38823 16.466 7.33203 16.007 7.33203C12.6926 7.33203 10.0057 10.0184 10.0057 13.3321C10.0057 16.6458 12.6926 19.3321 16.007 19.3321C16.466 19.3321 16.9112 19.2759 17.3406 19.1783C14.669 18.5713 12.6729 16.1869 12.6729 13.3321Z" fill="white"/>
</g>
</svg>
