<svg width="64" height="64" viewBox="0 0 64 64" fill="none" xmlns="http://www.w3.org/2000/svg">
<mask id="mask0_12133_19235" style="mask-type:luminance" maskUnits="userSpaceOnUse" x="0" y="0" width="64" height="64">
<path d="M64 0H0V64H64V0Z" fill="white"/>
</mask>
<g mask="url(#mask0_12133_19235)">
<path d="M63.9219 29.8712L63.9217 29.8681C63.878 29.2402 63.8195 28.6163 63.7423 27.998H33.3334L12.2025 6.86719C4.7741 12.7271 0 21.8022 0 31.998C0 42.1938 4.7741 51.2689 12.2025 57.1289L33.3334 35.998H63.7423C63.8194 35.3797 63.878 34.7557 63.9217 34.1277C63.9253 34.0722 63.9309 34.0173 63.9343 33.9618C63.9761 33.3123 64.0001 32.658 64.0001 31.998C64.0001 31.338 63.9761 30.6836 63.9343 30.0342C63.931 29.9797 63.9256 29.9256 63.9219 29.8712Z" fill="black"/>
<path d="M10.0551 8.72266C9.36869 9.36996 8.70989 10.0453 8.08289 10.7505L29.3333 32.0009L8.08289 53.2513C8.70989 53.9565 9.36879 54.6318 10.0551 55.2791L31.9999 33.3343H63.9662C63.9843 32.8916 63.9999 32.4482 63.9999 32.001C63.9999 31.5538 63.9844 31.1104 63.9662 30.6677H31.9999L10.0551 8.72266Z" fill="#FFD400"/>
<path d="M12.2037 57.1296C17.6512 61.4274 24.5227 64 32 64C48.3174 64 61.7725 51.7837 63.7423 36H33.3334L12.2037 57.1296Z" fill="#619B27"/>
<path d="M33.3333 28H63.7422C61.7725 12.2163 48.3174 0 32 0C24.5227 0 17.6512 2.5726 12.2037 6.8704L33.3333 28Z" fill="#F0263C"/>
<path d="M17.3333 31.9987C17.3333 28.3227 14.3427 25.332 10.6666 25.332C6.99048 25.332 3.99988 28.3226 3.99988 31.9987C3.99988 35.6748 6.99048 38.6653 10.6666 38.6653V41.332C14.3478 41.332 17.3321 37.1548 17.3332 32.0015L17.3333 31.9987ZM5.33328 31.9987C5.33328 29.0531 7.72118 26.6654 10.6666 26.6654C13.612 26.6654 15.9999 29.0532 15.9999 31.9987C15.9999 34.9442 13.612 37.332 10.6666 37.332C7.72118 37.332 5.33328 34.9442 5.33328 31.9987Z" fill="#FFD400"/>
<path d="M13.0237 28.6992L10.6667 31.0562L8.30962 28.6992L7.36682 29.642L9.72392 31.999L7.36682 34.356L8.30962 35.2988L10.6667 32.9418L13.0237 35.2988L13.9665 34.356L11.6095 31.999L13.9665 29.642L13.0237 28.6992Z" fill="#FFD400"/>
</g>
</svg>
