<svg width="64" height="64" viewBox="0 0 64 64" fill="none" xmlns="http://www.w3.org/2000/svg">
<mask id="mask0_12133_19164" style="mask-type:luminance" maskUnits="userSpaceOnUse" x="0" y="0" width="64" height="64">
<path d="M64 0H0V64H64V0Z" fill="white"/>
</mask>
<g mask="url(#mask0_12133_19164)">
<path d="M32 64C49.6731 64 64 49.6731 64 32C64 14.3269 49.6731 0 32 0C14.3269 0 0 14.3269 0 32C0 49.6731 14.3269 64 32 64Z" fill="white"/>
<path d="M0 32C0 49.6731 14.3269 64 32 64V0C14.3269 0 0 14.3269 0 32Z" fill="#FFD400"/>
<path d="M51.8081 29.1913L54.6232 32.0012L56.5057 30.1177L54.8613 28.4733L55.804 27.5305L57.4482 29.1746L59.3333 27.2885L56.6805 24.6484L54.6667 26.6448L53.3333 25.3334L48 30.0012L49.0745 31.6264L51.8081 29.1913Z" fill="#FFD400"/>
<path d="M45.8818 34.4687L45.3137 33.3326L44.8523 32.8711L42.0393 35.3718L43.3718 36.7045L45.8818 34.4687Z" fill="#FFD400"/>
<path d="M40 25.3345L38.839 26.4754L38.6667 26.6448L36.6528 24.6484L34 27.2885L35.8851 29.1746L37.5293 27.5305L38.472 28.4733L36.8276 30.1177L38.7101 32.0012L41.5252 29.1913L44.2332 31.6036L45.2518 30.0028L40 25.3345Z" fill="#C8C8C8"/>
<path d="M47.4246 34.4432L49.9617 36.7033L51.2942 35.3707L48.4602 32.8516L47.9804 33.3314L47.4246 34.4432Z" fill="#C8C8C8"/>
<path d="M44 25.3333H49.3335L50.6667 21.3333H49.3335L50.6667 17.3333H48V16H45.3335V17.3333H42.6667L44 21.3333H42.6667L44 25.3333Z" fill="#FFD400"/>
<path d="M38.839 26.4754L40 25.3335L37.3333 22.668H36V24.0013L36.6528 24.6485L38.6667 26.6449L38.839 26.4754Z" fill="#FFD400"/>
<path d="M54.6665 26.6449L56.6805 24.6485L57.3333 24.0013V22.668H56L53.3333 25.3335L54.6665 26.6449Z" fill="#C8C8C8"/>
<path d="M42.1888 38.1048C42.216 38.1551 42.2352 38.2098 42.2601 38.2615L42.6667 38.668L44 37.3348L43.3717 36.7065L42.0392 35.374L41.3333 34.668L40 36.0013L40.4041 36.4054C40.4572 36.4311 40.513 36.4521 40.5647 36.48C41.2519 36.8512 41.8179 37.4175 42.1888 38.1048Z" fill="#C8C8C8"/>
<path d="M49.3333 37.3347L50.6665 38.668L51.0839 38.2506C51.4773 37.4467 52.1258 36.7943 52.9305 36.4039L53.3333 36.0013L52 34.668L51.2941 35.3739L49.9616 36.7065L49.3333 37.3347Z" fill="#FFD400"/>
<path d="M53.3333 42.6667V41.3334L52 40.1482V41.3334H47.3333V37.3159L50.7226 40.72C50.726 40.6982 50.7249 40.6751 50.7286 40.6534C50.7828 40.3382 50.8769 40.038 51.0001 39.7527C51.0107 39.7282 51.0175 39.7019 51.0286 39.6777C51.0673 39.5928 51.1173 39.5148 51.1617 39.4332C51.1653 39.4265 51.1702 39.4206 51.1739 39.4139L47.3332 36L47.3135 34.6667L47.9802 33.3334L48.46 32.8535L49.3135 32L49.0744 31.6252L47.9999 30L45.2517 30.0016L44.2331 31.6024L43.9802 32L44.8521 32.8718L45.3135 33.3333L45.9999 34.6666V35.9999L42.1714 39.433C42.2158 39.5146 42.2658 39.5926 42.3045 39.6775C42.3156 39.7017 42.333 39.7525 42.333 39.7525C42.4562 40.0378 42.5503 40.338 42.6045 40.6532C42.6045 40.6532 42.6047 40.6571 42.605 40.6591L42.6083 40.6574L45.9999 37.3158V41.3333H41.3332V40.1666L39.9999 41.3333V42.6666H45.9999V46.6666L45.3332 49.3333H47.9999L47.3332 46.6666V42.6666L53.3333 42.6667Z" fill="#F0263C"/>
<path d="M41.3333 43.332V43.9987H39.4477L38.6666 43.2177L37.8855 43.9987H35.9999V42.113L36.781 41.3321L35.9999 40.5509V38.6653H37.8856L38.6665 39.4464L39.4474 38.6653H41.3331V41.3321H42.6664C42.6664 41.1018 42.6423 40.8775 42.6049 40.6578C42.6049 40.6578 42.6047 40.654 42.6044 40.652C42.5502 40.3368 42.4561 40.0366 42.3329 39.7513C42.3223 39.7268 42.3155 39.7005 42.3044 39.6763C42.2657 39.5914 42.2157 39.5134 42.1713 39.4318C41.4944 38.1851 40.185 37.332 38.6664 37.332C36.4573 37.332 34.6664 39.1229 34.6664 41.332C34.6664 43.5411 36.4573 45.332 38.6664 45.332C40.4073 45.332 41.8842 44.2178 42.434 42.6652H41.3331L41.3333 43.332Z" fill="#FFD400"/>
<path d="M54.6665 37.332C53.1561 37.332 51.8538 38.1766 51.1738 39.4124C51.1701 39.4191 51.1652 39.4251 51.1616 39.4318C51.1172 39.5134 51.0672 39.5914 51.0285 39.6763C51.0174 39.7005 51.0106 39.7268 51 39.7513C50.8768 40.0366 50.7827 40.3368 50.7285 40.652C50.7248 40.6737 50.7259 40.6967 50.7225 40.7185C50.6908 40.9191 50.6665 41.1224 50.6665 41.332H51.9998V38.6652H53.8855L54.6664 39.4463L55.4473 38.6652H57.333V40.5509L56.5519 41.332L57.333 42.113V43.9986H55.4474L54.6663 43.2175L53.8852 43.9986H51.9996V42.6652H50.8987C51.4485 44.2178 52.9254 45.332 54.6663 45.332C56.8754 45.332 58.6663 43.5411 58.6663 41.332C58.6663 39.1229 56.8756 37.332 54.6665 37.332Z" fill="#C8C8C8"/>
<path d="M40 42.6667H37.3333V40H40V42.6667Z" fill="white"/>
<path d="M40 40H37.3333V42.6667H40V40Z" fill="#FFD400"/>
<path d="M56 40H53.3333V42.6667H56V40Z" fill="#C8C8C8"/>
</g>
</svg>
