<svg width="64" height="64" viewBox="0 0 64 64" fill="none" xmlns="http://www.w3.org/2000/svg">
<mask id="mask0_12133_19252" style="mask-type:luminance" maskUnits="userSpaceOnUse" x="0" y="0" width="64" height="64">
<path d="M64 0H0V64H64V0Z" fill="white"/>
</mask>
<g mask="url(#mask0_12133_19252)">
<path d="M0 31.9987C0 35.7399 0.6482 39.3282 1.8281 42.6654H62.1719C63.3518 39.3283 64 35.7399 64 31.9987C64 28.2575 63.3518 24.6692 62.1719 21.332H1.8281C0.6482 24.6692 0 28.2575 0 31.9987Z" fill="#191977"/>
<path d="M1.82812 21.3333H62.1719C57.7782 8.9061 45.9319 0 32 0C18.0681 0 6.22184 8.9061 1.82812 21.3333Z" fill="#FFD400"/>
<path d="M62.1719 42.668H1.82812C6.22192 55.0952 18.0681 64.0013 32 64.0013C45.9319 64.0013 57.7782 55.0952 62.1719 42.668Z" fill="#F0263C"/>
<path d="M48.4252 36.4102L46.6815 38.9004L49.1717 40.6441L50.9154 38.1539L48.4252 36.4102Z" fill="white"/>
<path d="M45.0628 30.5859L44.4048 33.5538L47.3727 34.2118L48.0307 31.2439L45.0628 30.5859Z" fill="white"/>
<path d="M42.7791 26.0078L39.7853 26.5357L40.3132 29.5295L43.307 29.0016L42.7791 26.0078Z" fill="white"/>
<path d="M35.8973 23.1484L33.3334 24.7818L34.9668 27.3457L37.5307 25.7123L35.8973 23.1484Z" fill="white"/>
<path d="M15.5748 36.4102L13.0846 38.1539L14.8283 40.6441L17.3185 38.9005L15.5748 36.4102Z" fill="white"/>
<path d="M18.9372 30.5859L15.9692 31.2439L16.6272 34.2118L19.5952 33.5538L18.9372 30.5859Z" fill="white"/>
<path d="M21.221 26.0078L20.6931 29.0016L23.6869 29.5295L24.2148 26.5357L21.221 26.0078Z" fill="white"/>
<path d="M28.1028 23.1484L26.4694 25.7123L29.0333 27.3457L30.6667 24.7818L28.1028 23.1484Z" fill="white"/>
</g>
</svg>
