<svg width="64" height="64" viewBox="0 0 64 64" fill="none" xmlns="http://www.w3.org/2000/svg">
<mask id="mask0_12133_19236" style="mask-type:luminance" maskUnits="userSpaceOnUse" x="0" y="0" width="64" height="64">
<path d="M64 0H0V64H64V0Z" fill="white"/>
</mask>
<g mask="url(#mask0_12133_19236)">
<path d="M32 64C49.6731 64 64 49.6731 64 32C64 14.3269 49.6731 0 32 0C14.3269 0 0 14.3269 0 32C0 49.6731 14.3269 64 32 64Z" fill="#F0263C"/>
<path d="M38.6667 25.332V38.6654L45.3334 31.9987L38.6667 25.332Z" fill="white"/>
<path d="M54.6666 22.668H41.3333L48 29.3346L54.6666 22.668Z" fill="white"/>
<path d="M41.3333 41.3347H54.6666L48 34.668L41.3333 41.3347Z" fill="white"/>
<path d="M57.3334 25.332V38.6654L50.6667 31.9987L57.3334 25.332Z" fill="white"/>
<path d="M27.3333 24.0013V0.34375C24.2825 0.78975 21.3743 1.66955 18.6666 2.91275V24.0012L27.3333 24.0013Z" fill="#F0263C"/>
<path d="M27.3333 0.341275V23.9989H18.6666V2.91037C15.4557 4.38467 12.5326 6.37347 9.99992 8.77337V23.999H1.00822C0.894917 24.4393 0.795217 24.8849 0.700317 25.3323H28.6666V0.171875C28.219 0.218175 27.7752 0.276675 27.3333 0.341275Z" fill="white"/>
<path d="M10.0001 8.77344C5.7038 12.8444 2.5297 18.088 1.0083 23.999H10.0001V8.77344Z" fill="#191977"/>
</g>
</svg>
