<svg width="64" height="64" viewBox="0 0 64 64" fill="none" xmlns="http://www.w3.org/2000/svg">
<mask id="mask0_12133_19033" style="mask-type:luminance" maskUnits="userSpaceOnUse" x="0" y="0" width="64" height="64">
<path d="M64 0H0V64H64V0Z" fill="white"/>
</mask>
<g mask="url(#mask0_12133_19033)">
<mask id="mask1_12133_19033" style="mask-type:luminance" maskUnits="userSpaceOnUse" x="0" y="0" width="64" height="64">
<path d="M64 0H0V64H64V0Z" fill="white"/>
</mask>
<g mask="url(#mask1_12133_19033)">
<path d="M32 64C49.6731 64 64 49.6731 64 32C64 14.3269 49.6731 0 32 0C14.3269 0 0 14.3269 0 32C0 49.6731 14.3269 64 32 64Z" fill="#1E5B00"/>
<path d="M38.6584 34.1856L40.6128 32.9153V30.2769L38.6584 29.0066L43.8372 21.1893H35.8246L35.3361 17.2806L33.3815 13.3719L30.7434 12.1016H26.8347L22.926 13.3719L16.379 18.5509L12.4703 19.8212L11.2 22.4596L12.4703 23.7299H15.1087L17.747 19.8212V23.7299L19.0173 25.0002H21.6557V22.3619L20.3854 18.4532L24.2941 15.2285H29.4731L31.4274 17.1829L30.7434 21.0916H22.926L28.1049 28.9089L26.1507 30.1792V32.8176L28.1049 34.0879L30.3525 39.8532L25.4667 41.2212V43.1756L30.6457 41.8075L30.9388 45.1299H26.737V47.0842H31.1342L31.3297 49.0386H28.1049V50.9929H31.3297V54.9016H35.2383V50.9929H38.463V49.0386H35.2383L35.4338 47.0842H39.831V45.1299H35.6292L35.9224 41.9052L41.1012 43.1756V41.2212L36.2155 39.9509L38.463 34.0879L38.6584 34.1856ZM30.8411 33.2084C29.9616 33.2084 29.1799 32.5244 29.1799 31.5473C29.1799 30.5701 29.8639 29.8861 30.8411 29.8861C31.8183 29.8861 32.5023 30.5701 32.5023 31.5473C32.5023 32.5244 31.8183 33.2084 30.8411 33.2084ZM34.4566 31.5473C34.4566 30.6678 35.1406 29.8861 36.1178 29.8861C37.095 29.8861 37.7789 30.5701 37.7789 31.5473C37.7789 32.5244 37.095 33.2084 36.1178 33.2084C35.1406 33.2084 34.4566 32.5244 34.4566 31.5473Z" fill="#FFD400"/>
</g>
</g>
</svg>
