<svg width="64" height="64" viewBox="0 0 64 64" fill="none" xmlns="http://www.w3.org/2000/svg">
<mask id="mask0_12133_19034" style="mask-type:luminance" maskUnits="userSpaceOnUse" x="0" y="0" width="64" height="64">
<path d="M64 0H0V64H64V0Z" fill="white"/>
</mask>
<g mask="url(#mask0_12133_19034)">
<path d="M32 31.9985L9.3788 9.37729L9.3726 9.37109C3.5817 15.162 0 23.162 0 31.9985C0 40.835 3.5817 48.835 9.3726 54.6259L9.3788 54.6197L32 31.9985Z" fill="#F0263C"/>
<path d="M21.3334 42.668L9.37915 54.6222C15.1683 60.4146 23.1629 64.0013 32.0001 64.0013C45.932 64.0013 57.7783 55.0952 62.172 42.668H21.3334Z" fill="#1E5B00"/>
<path d="M21.3334 21.3333L9.37915 9.3791C15.1683 3.5867 23.1629 0 32.0001 0C45.932 0 57.7783 8.9061 62.172 21.3333H21.3334Z" fill="black"/>
<path d="M62.1719 21.332H21.3333L32 31.9987L21.3333 42.6654H62.1719C63.3518 39.3283 64 35.7399 64 31.9987C64 28.2575 63.3518 24.6692 62.1719 21.332Z" fill="white"/>
<path d="M37.3333 32.0013C37.3333 27.296 40.8187 23.4148 45.3464 22.772C44.9063 22.7076 44.4581 22.668 43.9999 22.668C38.8452 22.668 34.6666 26.8467 34.6666 32.0013C34.6666 37.1559 38.8453 41.3346 43.9999 41.3346C44.4581 41.3346 44.9063 41.295 45.3464 41.2306C40.8187 40.5878 37.3333 36.7066 37.3333 32.0013Z" fill="#F0263C"/>
<path d="M50.2786 32.9551L52.0988 38.5573L47.3333 35.0949L42.5678 38.5573L44.3881 32.9551L39.6226 29.4928H45.5131L47.3333 23.8906L49.1536 29.4928H55.0441L50.2786 32.9551Z" fill="#F0263C"/>
</g>
</svg>
