<svg width="64" height="64" viewBox="0 0 64 64" fill="none" xmlns="http://www.w3.org/2000/svg">
<g clip-path="url(#clip0_12133_19035)">
<mask id="mask0_12133_19035" style="mask-type:luminance" maskUnits="userSpaceOnUse" x="0" y="0" width="64" height="64">
<path d="M64 0H0V64H64V0Z" fill="white"/>
</mask>
<g mask="url(#mask0_12133_19035)">
<path d="M32 64C49.6731 64 64 49.6731 64 32C64 14.3269 49.6731 0 32 0C14.3269 0 0 14.3269 0 32C0 49.6731 14.3269 64 32 64Z" fill="#619B27"/>
<path d="M42.6667 24H32V64C35.7412 64 39.3295 63.3518 42.6667 62.1719V24Z" fill="#F0263C"/>
<path d="M42.6667 62.172C46.6416 60.7666 50.2557 58.6008 53.3335 55.8453V24H42.6667V62.172Z" fill="black"/>
<path d="M53.3333 24V55.8453C59.8781 49.986 64 41.4758 64 32C64 29.2376 63.6497 26.557 62.9916 24H53.3333Z" fill="#FF7700"/>
<path d="M52 11.9987L50.6667 13.332L49.3334 11.9987L50.6667 10.6654H46.6667V11.9987L45.3334 13.332L44.0001 11.9987H41.3334L38.6667 10.6654H37.3334L36.0001 9.33203H33.3334V10.6654L34.6667 11.9987V13.332H36V14.6653H37.3333L40 15.9986H41.3333L44 17.3319L45.3333 18.6652V19.9985L44 21.3318H46.6236L48 19.9985L49.2955 21.3318H52L50.6667 19.9985V18.6652L52 17.3319L54.6667 15.9986H56L58.6667 14.6653H58.8928C58.1048 13.4452 57.2369 12.2829 56.295 11.1845L54.6667 11.9987H52Z" fill="#FF7700"/>
</g>
</g>
<defs>
<clipPath id="clip0_12133_19035">
<rect width="64" height="64" fill="white"/>
</clipPath>
</defs>
</svg>
