<svg width="64" height="64" viewBox="0 0 64 64" fill="none" xmlns="http://www.w3.org/2000/svg">
<mask id="mask0_12133_19036" style="mask-type:luminance" maskUnits="userSpaceOnUse" x="0" y="0" width="64" height="64">
<path d="M64 0H0V64H64V0Z" fill="white"/>
</mask>
<g mask="url(#mask0_12133_19036)">
<path d="M63.5492 26.6656H26.6667L17.3334 17.3323L9.38387 9.38281C8.93917 9.82751 8.50787 10.2851 8.08997 10.7555L14.6668 17.3323L24.0001 26.6656L29.3334 31.9989L24.0001 37.3322L14.6668 46.6655L8.08997 53.2423C8.50797 53.7127 8.93927 54.1704 9.38387 54.615L17.3334 46.6655L26.6667 37.3322H63.5492C63.8405 35.5968 64 33.8169 64 31.9989C64 30.1809 63.8405 28.4009 63.5492 26.6656Z" fill="black"/>
<path d="M32.0001 0C23.8878 0 16.4858 3.0247 10.8455 8H53.1547C47.5144 3.0247 40.1124 0 32.0001 0Z" fill="#1E5B00"/>
<path d="M32.0001 64C40.1124 64 47.5144 60.9753 53.1547 56H10.8455C16.4858 60.9753 23.8878 64 32.0001 64Z" fill="#1E5B00"/>
<path d="M24 37.3345L29.3333 32.0012L24 26.6679L14.6667 17.3346L8.0899 10.7578C6.323 12.7454 4.7944 14.9499 3.5619 17.3346C2.0717 20.2184 1.0069 23.3558 0.4509 26.6679C0.1595 28.4032 0 30.1832 0 32.0012C0 33.8192 0.1595 35.5992 0.4508 37.3345C1.0068 40.6463 2.0716 43.784 3.5618 46.6678C4.7942 49.0526 6.3225 51.257 8.0895 53.2446L14.6666 46.6678L24 37.3345ZM6.6792 39.5012L8.9181 32.3712L2.6666 27.9646H10.2343L10.6666 26.6679V25.3346H8.6666L10.6666 24.0013H11.6376L12.6666 20.8346L14.9833 27.9646H22.6666L17.8116 31.3868L18.6666 32.0013L16.6212 33.024L18.6666 39.5013L14.9486 36.7707L14.6666 37.3347H10.6666L10.3858 36.7733L6.6792 39.5012Z" fill="white"/>
<path d="M16 34.6674L14.9486 36.7701L18.6667 39.5007L16.6213 33.0234L16 33.334V34.6674Z" fill="#F0263C"/>
<path d="M9.33335 32.0015V30.6682L10.2344 27.9649L2.66675 27.9648L8.91815 32.3715L6.67925 39.5015L10.3859 36.7734L9.33335 34.6682V32.0015Z" fill="#F0263C"/>
<path d="M13.3333 25.332V28.1654L17.8117 31.3842L22.6667 27.962L14.9834 27.9621L12.6667 20.832L11.6377 23.9987H12L13.3333 25.332Z" fill="#F0263C"/>
<path d="M60.4382 17.3333C58.6029 13.7825 56.1254 10.6204 53.1547 8H10.8454C10.3418 8.444 9.85809 8.9092 9.38379 9.3838L17.3333 17.3333H60.4382Z" fill="#FFD400"/>
<path d="M26.6667 26.6653H63.549C62.993 23.3531 61.9284 20.2158 60.4382 17.332H17.3333L26.6667 26.6653Z" fill="#F0263C"/>
<path d="M17.3333 46.6653H60.438C61.9282 43.7815 62.993 40.6438 63.549 37.332H26.6667L17.3333 46.6653Z" fill="#F0263C"/>
<path d="M9.38379 54.6175C9.85809 55.0921 10.3418 55.5573 10.8454 56.0013H53.1546C56.1253 53.3809 58.6028 50.2187 60.4381 46.668H17.3333L9.38379 54.6175Z" fill="#FFD400"/>
<path d="M14.6667 37.3333L14.9486 36.7694L16 34.6667V33.3333L16.6213 33.0227L18.6667 32L17.8117 31.3855L13.3333 28.1667V25.3333L12 24H11.6377H10.6667L8.66675 25.3333H10.6667V26.6667L10.2344 27.9634L9.33335 30.6667V32V34.6667L10.3859 36.7719L10.6667 37.3333H14.6667Z" fill="#FFD400"/>
</g>
</svg>
