<svg xmlns="http://www.w3.org/2000/svg" width="40" height="40" fill="none"><path fill="#000" d="M32.106 14.592c-.2.153-3.722 2.115-3.722 6.477 0 5.047 4.482 6.832 4.616 6.876-.02.109-.712 2.445-2.363 4.825-1.472 2.095-3.01 4.186-5.348 4.186-2.339 0-2.94-1.343-5.64-1.343-2.632 0-3.567 1.387-5.707 1.387-2.139 0-3.632-1.938-5.348-4.318C6.606 29.886 5 25.544 5 21.423c0-6.61 4.347-10.116 8.626-10.116 2.273 0 4.168 1.476 5.596 1.476 1.358 0 3.477-1.564 6.063-1.564.98 0 4.503.088 6.82 3.373ZM24.058 8.42c1.07-1.255 1.826-2.996 1.826-4.737 0-.241-.02-.486-.065-.683-1.74.065-3.811 1.146-5.06 2.577-.98 1.102-1.895 2.843-1.895 4.608 0 .265.045.53.066.615.11.02.288.045.467.045 1.562 0 3.526-1.034 4.66-2.425Z"/></svg>